G04 #@! TF.GenerationSoftware,KiCad,Pcbnew,(5.1.2)-1*
G04 #@! TF.CreationDate,2019-08-15T00:33:36+05:30*
G04 #@! TF.ProjectId,SAM21,53414d32-312e-46b6-9963-61645f706362,rev?*
G04 #@! TF.SameCoordinates,Original*
G04 #@! TF.FileFunction,Soldermask,Bot*
G04 #@! TF.FilePolarity,Negative*
%FSLAX46Y46*%
G04 Gerber Fmt 4.6, Leading zero omitted, Abs format (unit mm)*
G04 Created by KiCad (PCBNEW (5.1.2)-1) date 2019-08-15 00:33:36*
%MOMM*%
%LPD*%
G04 APERTURE LIST*
%ADD10C,0.100000*%
G04 APERTURE END LIST*
D10*
G36*
X156033421Y-121863143D02*
G01*
X156165557Y-121903227D01*
X156165559Y-121903228D01*
X156287339Y-121968320D01*
X156287341Y-121968321D01*
X156287340Y-121968321D01*
X156394080Y-122055920D01*
X156481679Y-122162660D01*
X156546773Y-122284443D01*
X156586857Y-122416579D01*
X156600391Y-122554000D01*
X156586857Y-122691421D01*
X156546773Y-122823557D01*
X156546772Y-122823559D01*
X156481680Y-122945339D01*
X156394080Y-123052080D01*
X156287339Y-123139680D01*
X156165559Y-123204772D01*
X156165557Y-123204773D01*
X156033421Y-123244857D01*
X155930432Y-123255000D01*
X155161568Y-123255000D01*
X155058579Y-123244857D01*
X154926443Y-123204773D01*
X154926441Y-123204772D01*
X154804661Y-123139680D01*
X154697920Y-123052080D01*
X154610320Y-122945339D01*
X154545228Y-122823559D01*
X154545227Y-122823557D01*
X154505143Y-122691421D01*
X154491609Y-122554000D01*
X154505143Y-122416579D01*
X154545227Y-122284443D01*
X154610321Y-122162660D01*
X154697920Y-122055920D01*
X154804660Y-121968321D01*
X154804659Y-121968321D01*
X154804661Y-121968320D01*
X154926441Y-121903228D01*
X154926443Y-121903227D01*
X155058579Y-121863143D01*
X155161568Y-121853000D01*
X155930432Y-121853000D01*
X156033421Y-121863143D01*
X156033421Y-121863143D01*
G37*
G36*
X178033421Y-121863143D02*
G01*
X178165557Y-121903227D01*
X178165559Y-121903228D01*
X178287339Y-121968320D01*
X178287341Y-121968321D01*
X178287340Y-121968321D01*
X178394080Y-122055920D01*
X178481679Y-122162660D01*
X178546773Y-122284443D01*
X178586857Y-122416579D01*
X178600391Y-122554000D01*
X178586857Y-122691421D01*
X178546773Y-122823557D01*
X178546772Y-122823559D01*
X178481680Y-122945339D01*
X178394080Y-123052080D01*
X178287339Y-123139680D01*
X178165559Y-123204772D01*
X178165557Y-123204773D01*
X178033421Y-123244857D01*
X177930432Y-123255000D01*
X177161568Y-123255000D01*
X177058579Y-123244857D01*
X176926443Y-123204773D01*
X176926441Y-123204772D01*
X176804661Y-123139680D01*
X176697920Y-123052080D01*
X176610320Y-122945339D01*
X176545228Y-122823559D01*
X176545227Y-122823557D01*
X176505143Y-122691421D01*
X176491609Y-122554000D01*
X176505143Y-122416579D01*
X176545227Y-122284443D01*
X176610321Y-122162660D01*
X176697920Y-122055920D01*
X176804660Y-121968321D01*
X176804659Y-121968321D01*
X176804661Y-121968320D01*
X176926441Y-121903228D01*
X176926443Y-121903227D01*
X177058579Y-121863143D01*
X177161568Y-121853000D01*
X177930432Y-121853000D01*
X178033421Y-121863143D01*
X178033421Y-121863143D01*
G37*
G36*
X116707256Y-118533298D02*
G01*
X116813579Y-118554447D01*
X117114042Y-118678903D01*
X117384451Y-118859585D01*
X117614415Y-119089549D01*
X117724966Y-119255000D01*
X117795098Y-119359960D01*
X117919553Y-119660422D01*
X117967851Y-119903228D01*
X117983000Y-119979391D01*
X117983000Y-120304609D01*
X117919553Y-120623579D01*
X117795097Y-120924042D01*
X117614415Y-121194451D01*
X117384451Y-121424415D01*
X117114042Y-121605097D01*
X116813579Y-121729553D01*
X116707256Y-121750702D01*
X116494611Y-121793000D01*
X116169389Y-121793000D01*
X115956744Y-121750702D01*
X115850421Y-121729553D01*
X115549958Y-121605097D01*
X115279549Y-121424415D01*
X115049585Y-121194451D01*
X114868903Y-120924042D01*
X114744447Y-120623579D01*
X114681000Y-120304609D01*
X114681000Y-119979391D01*
X114696150Y-119903228D01*
X114744447Y-119660422D01*
X114868902Y-119359960D01*
X114939034Y-119255000D01*
X115049585Y-119089549D01*
X115279549Y-118859585D01*
X115549958Y-118678903D01*
X115850421Y-118554447D01*
X115956744Y-118533298D01*
X116169389Y-118491000D01*
X116494611Y-118491000D01*
X116707256Y-118533298D01*
X116707256Y-118533298D01*
G37*
G36*
X156033421Y-119863143D02*
G01*
X156165557Y-119903227D01*
X156165559Y-119903228D01*
X156287339Y-119968320D01*
X156300829Y-119979391D01*
X156394080Y-120055920D01*
X156481679Y-120162660D01*
X156546773Y-120284443D01*
X156586857Y-120416579D01*
X156600391Y-120554000D01*
X156586857Y-120691421D01*
X156546773Y-120823557D01*
X156546772Y-120823559D01*
X156481680Y-120945339D01*
X156394080Y-121052080D01*
X156287339Y-121139680D01*
X156184872Y-121194449D01*
X156165557Y-121204773D01*
X156033421Y-121244857D01*
X155930432Y-121255000D01*
X155161568Y-121255000D01*
X155058579Y-121244857D01*
X154926443Y-121204773D01*
X154907128Y-121194449D01*
X154804661Y-121139680D01*
X154697920Y-121052080D01*
X154610320Y-120945339D01*
X154545228Y-120823559D01*
X154545227Y-120823557D01*
X154505143Y-120691421D01*
X154491609Y-120554000D01*
X154505143Y-120416579D01*
X154545227Y-120284443D01*
X154610321Y-120162660D01*
X154697920Y-120055920D01*
X154791171Y-119979391D01*
X154804661Y-119968320D01*
X154926441Y-119903228D01*
X154926443Y-119903227D01*
X155058579Y-119863143D01*
X155161568Y-119853000D01*
X155930432Y-119853000D01*
X156033421Y-119863143D01*
X156033421Y-119863143D01*
G37*
G36*
X178033421Y-119863143D02*
G01*
X178165557Y-119903227D01*
X178165559Y-119903228D01*
X178287339Y-119968320D01*
X178300829Y-119979391D01*
X178394080Y-120055920D01*
X178481679Y-120162660D01*
X178546773Y-120284443D01*
X178586857Y-120416579D01*
X178600391Y-120554000D01*
X178586857Y-120691421D01*
X178546773Y-120823557D01*
X178546772Y-120823559D01*
X178481680Y-120945339D01*
X178394080Y-121052080D01*
X178287339Y-121139680D01*
X178184872Y-121194449D01*
X178165557Y-121204773D01*
X178033421Y-121244857D01*
X177930432Y-121255000D01*
X177161568Y-121255000D01*
X177058579Y-121244857D01*
X176926443Y-121204773D01*
X176907128Y-121194449D01*
X176804661Y-121139680D01*
X176697920Y-121052080D01*
X176610320Y-120945339D01*
X176545228Y-120823559D01*
X176545227Y-120823557D01*
X176505143Y-120691421D01*
X176491609Y-120554000D01*
X176505143Y-120416579D01*
X176545227Y-120284443D01*
X176610321Y-120162660D01*
X176697920Y-120055920D01*
X176791171Y-119979391D01*
X176804661Y-119968320D01*
X176926441Y-119903228D01*
X176926443Y-119903227D01*
X177058579Y-119863143D01*
X177161568Y-119853000D01*
X177930432Y-119853000D01*
X178033421Y-119863143D01*
X178033421Y-119863143D01*
G37*
G36*
X178033421Y-117863143D02*
G01*
X178165557Y-117903227D01*
X178165559Y-117903228D01*
X178287339Y-117968320D01*
X178287341Y-117968321D01*
X178287340Y-117968321D01*
X178394080Y-118055920D01*
X178481679Y-118162660D01*
X178546773Y-118284443D01*
X178586857Y-118416579D01*
X178600391Y-118554000D01*
X178586857Y-118691421D01*
X178546773Y-118823557D01*
X178546772Y-118823559D01*
X178481680Y-118945339D01*
X178394080Y-119052080D01*
X178287339Y-119139680D01*
X178165559Y-119204772D01*
X178165557Y-119204773D01*
X178033421Y-119244857D01*
X177930432Y-119255000D01*
X177161568Y-119255000D01*
X177058579Y-119244857D01*
X176926443Y-119204773D01*
X176926441Y-119204772D01*
X176804661Y-119139680D01*
X176697920Y-119052080D01*
X176610320Y-118945339D01*
X176545228Y-118823559D01*
X176545227Y-118823557D01*
X176505143Y-118691421D01*
X176491609Y-118554000D01*
X176505143Y-118416579D01*
X176545227Y-118284443D01*
X176610321Y-118162660D01*
X176697920Y-118055920D01*
X176804660Y-117968321D01*
X176804659Y-117968321D01*
X176804661Y-117968320D01*
X176926441Y-117903228D01*
X176926443Y-117903227D01*
X177058579Y-117863143D01*
X177161568Y-117853000D01*
X177930432Y-117853000D01*
X178033421Y-117863143D01*
X178033421Y-117863143D01*
G37*
G36*
X156033421Y-117863143D02*
G01*
X156165557Y-117903227D01*
X156165559Y-117903228D01*
X156287339Y-117968320D01*
X156287341Y-117968321D01*
X156287340Y-117968321D01*
X156394080Y-118055920D01*
X156481679Y-118162660D01*
X156546773Y-118284443D01*
X156586857Y-118416579D01*
X156600391Y-118554000D01*
X156586857Y-118691421D01*
X156546773Y-118823557D01*
X156546772Y-118823559D01*
X156481680Y-118945339D01*
X156394080Y-119052080D01*
X156287339Y-119139680D01*
X156165559Y-119204772D01*
X156165557Y-119204773D01*
X156033421Y-119244857D01*
X155930432Y-119255000D01*
X155161568Y-119255000D01*
X155058579Y-119244857D01*
X154926443Y-119204773D01*
X154926441Y-119204772D01*
X154804661Y-119139680D01*
X154697920Y-119052080D01*
X154610320Y-118945339D01*
X154545228Y-118823559D01*
X154545227Y-118823557D01*
X154505143Y-118691421D01*
X154491609Y-118554000D01*
X154505143Y-118416579D01*
X154545227Y-118284443D01*
X154610321Y-118162660D01*
X154697920Y-118055920D01*
X154804660Y-117968321D01*
X154804659Y-117968321D01*
X154804661Y-117968320D01*
X154926441Y-117903228D01*
X154926443Y-117903227D01*
X155058579Y-117863143D01*
X155161568Y-117853000D01*
X155930432Y-117853000D01*
X156033421Y-117863143D01*
X156033421Y-117863143D01*
G37*
G36*
X178033421Y-115863143D02*
G01*
X178165557Y-115903227D01*
X178165559Y-115903228D01*
X178287339Y-115968320D01*
X178287341Y-115968321D01*
X178287340Y-115968321D01*
X178394080Y-116055920D01*
X178481679Y-116162660D01*
X178546773Y-116284443D01*
X178586857Y-116416579D01*
X178600391Y-116554000D01*
X178586857Y-116691421D01*
X178546773Y-116823557D01*
X178546772Y-116823559D01*
X178481680Y-116945339D01*
X178394080Y-117052080D01*
X178287339Y-117139680D01*
X178165559Y-117204772D01*
X178165557Y-117204773D01*
X178033421Y-117244857D01*
X177930432Y-117255000D01*
X177161568Y-117255000D01*
X177058579Y-117244857D01*
X176926443Y-117204773D01*
X176926441Y-117204772D01*
X176804661Y-117139680D01*
X176697920Y-117052080D01*
X176610320Y-116945339D01*
X176545228Y-116823559D01*
X176545227Y-116823557D01*
X176505143Y-116691421D01*
X176491609Y-116554000D01*
X176505143Y-116416579D01*
X176545227Y-116284443D01*
X176610321Y-116162660D01*
X176697920Y-116055920D01*
X176804660Y-115968321D01*
X176804659Y-115968321D01*
X176804661Y-115968320D01*
X176926441Y-115903228D01*
X176926443Y-115903227D01*
X177058579Y-115863143D01*
X177161568Y-115853000D01*
X177930432Y-115853000D01*
X178033421Y-115863143D01*
X178033421Y-115863143D01*
G37*
G36*
X156033421Y-115863143D02*
G01*
X156165557Y-115903227D01*
X156165559Y-115903228D01*
X156287339Y-115968320D01*
X156287341Y-115968321D01*
X156287340Y-115968321D01*
X156394080Y-116055920D01*
X156481679Y-116162660D01*
X156546773Y-116284443D01*
X156586857Y-116416579D01*
X156600391Y-116554000D01*
X156586857Y-116691421D01*
X156546773Y-116823557D01*
X156546772Y-116823559D01*
X156481680Y-116945339D01*
X156394080Y-117052080D01*
X156287339Y-117139680D01*
X156165559Y-117204772D01*
X156165557Y-117204773D01*
X156033421Y-117244857D01*
X155930432Y-117255000D01*
X155161568Y-117255000D01*
X155058579Y-117244857D01*
X154926443Y-117204773D01*
X154926441Y-117204772D01*
X154804661Y-117139680D01*
X154697920Y-117052080D01*
X154610320Y-116945339D01*
X154545228Y-116823559D01*
X154545227Y-116823557D01*
X154505143Y-116691421D01*
X154491609Y-116554000D01*
X154505143Y-116416579D01*
X154545227Y-116284443D01*
X154610321Y-116162660D01*
X154697920Y-116055920D01*
X154804660Y-115968321D01*
X154804659Y-115968321D01*
X154804661Y-115968320D01*
X154926441Y-115903228D01*
X154926443Y-115903227D01*
X155058579Y-115863143D01*
X155161568Y-115853000D01*
X155930432Y-115853000D01*
X156033421Y-115863143D01*
X156033421Y-115863143D01*
G37*
G36*
X156033421Y-113863143D02*
G01*
X156165557Y-113903227D01*
X156165559Y-113903228D01*
X156287339Y-113968320D01*
X156287341Y-113968321D01*
X156287340Y-113968321D01*
X156394080Y-114055920D01*
X156481679Y-114162660D01*
X156546773Y-114284443D01*
X156586857Y-114416579D01*
X156600391Y-114554000D01*
X156586857Y-114691421D01*
X156546773Y-114823557D01*
X156546772Y-114823559D01*
X156481680Y-114945339D01*
X156394080Y-115052080D01*
X156287339Y-115139680D01*
X156165559Y-115204772D01*
X156165557Y-115204773D01*
X156033421Y-115244857D01*
X155930432Y-115255000D01*
X155161568Y-115255000D01*
X155058579Y-115244857D01*
X154926443Y-115204773D01*
X154926441Y-115204772D01*
X154804661Y-115139680D01*
X154697920Y-115052080D01*
X154610320Y-114945339D01*
X154545228Y-114823559D01*
X154545227Y-114823557D01*
X154505143Y-114691421D01*
X154491609Y-114554000D01*
X154505143Y-114416579D01*
X154545227Y-114284443D01*
X154610321Y-114162660D01*
X154697920Y-114055920D01*
X154804660Y-113968321D01*
X154804659Y-113968321D01*
X154804661Y-113968320D01*
X154926441Y-113903228D01*
X154926443Y-113903227D01*
X155058579Y-113863143D01*
X155161568Y-113853000D01*
X155930432Y-113853000D01*
X156033421Y-113863143D01*
X156033421Y-113863143D01*
G37*
G36*
X178033421Y-113863143D02*
G01*
X178165557Y-113903227D01*
X178165559Y-113903228D01*
X178287339Y-113968320D01*
X178287341Y-113968321D01*
X178287340Y-113968321D01*
X178394080Y-114055920D01*
X178481679Y-114162660D01*
X178546773Y-114284443D01*
X178586857Y-114416579D01*
X178600391Y-114554000D01*
X178586857Y-114691421D01*
X178546773Y-114823557D01*
X178546772Y-114823559D01*
X178481680Y-114945339D01*
X178394080Y-115052080D01*
X178287339Y-115139680D01*
X178165559Y-115204772D01*
X178165557Y-115204773D01*
X178033421Y-115244857D01*
X177930432Y-115255000D01*
X177161568Y-115255000D01*
X177058579Y-115244857D01*
X176926443Y-115204773D01*
X176926441Y-115204772D01*
X176804661Y-115139680D01*
X176697920Y-115052080D01*
X176610320Y-114945339D01*
X176545228Y-114823559D01*
X176545227Y-114823557D01*
X176505143Y-114691421D01*
X176491609Y-114554000D01*
X176505143Y-114416579D01*
X176545227Y-114284443D01*
X176610321Y-114162660D01*
X176697920Y-114055920D01*
X176804660Y-113968321D01*
X176804659Y-113968321D01*
X176804661Y-113968320D01*
X176926441Y-113903228D01*
X176926443Y-113903227D01*
X177058579Y-113863143D01*
X177161568Y-113853000D01*
X177930432Y-113853000D01*
X178033421Y-113863143D01*
X178033421Y-113863143D01*
G37*
G36*
X169285256Y-110913298D02*
G01*
X169391579Y-110934447D01*
X169692042Y-111058903D01*
X169962451Y-111239585D01*
X170192415Y-111469549D01*
X170373097Y-111739958D01*
X170467688Y-111968320D01*
X170497553Y-112040422D01*
X170561000Y-112359389D01*
X170561000Y-112684611D01*
X170559645Y-112691421D01*
X170497553Y-113003579D01*
X170373097Y-113304042D01*
X170192415Y-113574451D01*
X169962451Y-113804415D01*
X169692042Y-113985097D01*
X169391579Y-114109553D01*
X169285256Y-114130702D01*
X169072611Y-114173000D01*
X168747389Y-114173000D01*
X168534744Y-114130702D01*
X168428421Y-114109553D01*
X168127958Y-113985097D01*
X167857549Y-113804415D01*
X167627585Y-113574451D01*
X167446903Y-113304042D01*
X167322447Y-113003579D01*
X167260355Y-112691421D01*
X167259000Y-112684611D01*
X167259000Y-112359389D01*
X167322447Y-112040422D01*
X167352313Y-111968320D01*
X167446903Y-111739958D01*
X167627585Y-111469549D01*
X167857549Y-111239585D01*
X168127958Y-111058903D01*
X168428421Y-110934447D01*
X168534744Y-110913298D01*
X168747389Y-110871000D01*
X169072611Y-110871000D01*
X169285256Y-110913298D01*
X169285256Y-110913298D01*
G37*
G36*
X178033421Y-111863143D02*
G01*
X178165557Y-111903227D01*
X178165559Y-111903228D01*
X178287339Y-111968320D01*
X178287341Y-111968321D01*
X178287340Y-111968321D01*
X178394080Y-112055920D01*
X178481679Y-112162660D01*
X178546773Y-112284443D01*
X178586857Y-112416579D01*
X178600391Y-112554000D01*
X178586857Y-112691421D01*
X178546773Y-112823557D01*
X178546772Y-112823559D01*
X178481680Y-112945339D01*
X178394080Y-113052080D01*
X178287339Y-113139680D01*
X178165559Y-113204772D01*
X178165557Y-113204773D01*
X178033421Y-113244857D01*
X177930432Y-113255000D01*
X177161568Y-113255000D01*
X177058579Y-113244857D01*
X176926443Y-113204773D01*
X176926441Y-113204772D01*
X176804661Y-113139680D01*
X176697920Y-113052080D01*
X176610320Y-112945339D01*
X176545228Y-112823559D01*
X176545227Y-112823557D01*
X176505143Y-112691421D01*
X176491609Y-112554000D01*
X176505143Y-112416579D01*
X176545227Y-112284443D01*
X176610321Y-112162660D01*
X176697920Y-112055920D01*
X176804660Y-111968321D01*
X176804659Y-111968321D01*
X176804661Y-111968320D01*
X176926441Y-111903228D01*
X176926443Y-111903227D01*
X177058579Y-111863143D01*
X177161568Y-111853000D01*
X177930432Y-111853000D01*
X178033421Y-111863143D01*
X178033421Y-111863143D01*
G37*
G36*
X156033421Y-111863143D02*
G01*
X156165557Y-111903227D01*
X156165559Y-111903228D01*
X156287339Y-111968320D01*
X156287341Y-111968321D01*
X156287340Y-111968321D01*
X156394080Y-112055920D01*
X156481679Y-112162660D01*
X156546773Y-112284443D01*
X156586857Y-112416579D01*
X156600391Y-112554000D01*
X156586857Y-112691421D01*
X156546773Y-112823557D01*
X156546772Y-112823559D01*
X156481680Y-112945339D01*
X156394080Y-113052080D01*
X156287339Y-113139680D01*
X156165559Y-113204772D01*
X156165557Y-113204773D01*
X156033421Y-113244857D01*
X155930432Y-113255000D01*
X155161568Y-113255000D01*
X155058579Y-113244857D01*
X154926443Y-113204773D01*
X154926441Y-113204772D01*
X154804661Y-113139680D01*
X154697920Y-113052080D01*
X154610320Y-112945339D01*
X154545228Y-112823559D01*
X154545227Y-112823557D01*
X154505143Y-112691421D01*
X154491609Y-112554000D01*
X154505143Y-112416579D01*
X154545227Y-112284443D01*
X154610321Y-112162660D01*
X154697920Y-112055920D01*
X154804660Y-111968321D01*
X154804659Y-111968321D01*
X154804661Y-111968320D01*
X154926441Y-111903228D01*
X154926443Y-111903227D01*
X155058579Y-111863143D01*
X155161568Y-111853000D01*
X155930432Y-111853000D01*
X156033421Y-111863143D01*
X156033421Y-111863143D01*
G37*
G36*
X156033421Y-109863143D02*
G01*
X156165557Y-109903227D01*
X156165559Y-109903228D01*
X156287339Y-109968320D01*
X156287341Y-109968321D01*
X156287340Y-109968321D01*
X156394080Y-110055920D01*
X156481679Y-110162660D01*
X156546773Y-110284443D01*
X156586857Y-110416579D01*
X156600391Y-110554000D01*
X156586857Y-110691421D01*
X156546773Y-110823557D01*
X156546772Y-110823559D01*
X156481680Y-110945339D01*
X156394080Y-111052080D01*
X156287339Y-111139680D01*
X156165559Y-111204772D01*
X156165557Y-111204773D01*
X156033421Y-111244857D01*
X155930432Y-111255000D01*
X155161568Y-111255000D01*
X155058579Y-111244857D01*
X154926443Y-111204773D01*
X154926441Y-111204772D01*
X154804661Y-111139680D01*
X154697920Y-111052080D01*
X154610320Y-110945339D01*
X154545228Y-110823559D01*
X154545227Y-110823557D01*
X154505143Y-110691421D01*
X154491609Y-110554000D01*
X154505143Y-110416579D01*
X154545227Y-110284443D01*
X154610321Y-110162660D01*
X154697920Y-110055920D01*
X154804660Y-109968321D01*
X154804659Y-109968321D01*
X154804661Y-109968320D01*
X154926441Y-109903228D01*
X154926443Y-109903227D01*
X155058579Y-109863143D01*
X155161568Y-109853000D01*
X155930432Y-109853000D01*
X156033421Y-109863143D01*
X156033421Y-109863143D01*
G37*
G36*
X178033421Y-109863143D02*
G01*
X178165557Y-109903227D01*
X178165559Y-109903228D01*
X178287339Y-109968320D01*
X178287341Y-109968321D01*
X178287340Y-109968321D01*
X178394080Y-110055920D01*
X178481679Y-110162660D01*
X178546773Y-110284443D01*
X178586857Y-110416579D01*
X178600391Y-110554000D01*
X178586857Y-110691421D01*
X178546773Y-110823557D01*
X178546772Y-110823559D01*
X178481680Y-110945339D01*
X178394080Y-111052080D01*
X178287339Y-111139680D01*
X178165559Y-111204772D01*
X178165557Y-111204773D01*
X178033421Y-111244857D01*
X177930432Y-111255000D01*
X177161568Y-111255000D01*
X177058579Y-111244857D01*
X176926443Y-111204773D01*
X176926441Y-111204772D01*
X176804661Y-111139680D01*
X176697920Y-111052080D01*
X176610320Y-110945339D01*
X176545228Y-110823559D01*
X176545227Y-110823557D01*
X176505143Y-110691421D01*
X176491609Y-110554000D01*
X176505143Y-110416579D01*
X176545227Y-110284443D01*
X176610321Y-110162660D01*
X176697920Y-110055920D01*
X176804660Y-109968321D01*
X176804659Y-109968321D01*
X176804661Y-109968320D01*
X176926441Y-109903228D01*
X176926443Y-109903227D01*
X177058579Y-109863143D01*
X177161568Y-109853000D01*
X177930432Y-109853000D01*
X178033421Y-109863143D01*
X178033421Y-109863143D01*
G37*
G36*
X111144600Y-107814989D02*
G01*
X111177652Y-107825015D01*
X111208103Y-107841292D01*
X111234799Y-107863201D01*
X111256708Y-107889897D01*
X111272985Y-107920348D01*
X111283011Y-107953400D01*
X111287000Y-107993903D01*
X111287000Y-109430097D01*
X111283011Y-109470600D01*
X111272985Y-109503652D01*
X111256708Y-109534103D01*
X111234799Y-109560799D01*
X111208103Y-109582708D01*
X111177652Y-109598985D01*
X111144600Y-109609011D01*
X111104097Y-109613000D01*
X109367903Y-109613000D01*
X109327400Y-109609011D01*
X109294348Y-109598985D01*
X109263897Y-109582708D01*
X109237201Y-109560799D01*
X109215292Y-109534103D01*
X109199015Y-109503652D01*
X109188989Y-109470600D01*
X109185000Y-109430097D01*
X109185000Y-107993903D01*
X109188989Y-107953400D01*
X109199015Y-107920348D01*
X109215292Y-107889897D01*
X109237201Y-107863201D01*
X109263897Y-107841292D01*
X109294348Y-107825015D01*
X109327400Y-107814989D01*
X109367903Y-107811000D01*
X111104097Y-107811000D01*
X111144600Y-107814989D01*
X111144600Y-107814989D01*
G37*
G36*
X178033421Y-107863143D02*
G01*
X178165557Y-107903227D01*
X178165559Y-107903228D01*
X178287339Y-107968320D01*
X178287341Y-107968321D01*
X178287340Y-107968321D01*
X178394080Y-108055920D01*
X178481679Y-108162660D01*
X178546773Y-108284443D01*
X178586857Y-108416579D01*
X178600391Y-108554000D01*
X178586857Y-108691421D01*
X178546773Y-108823557D01*
X178546772Y-108823559D01*
X178481680Y-108945339D01*
X178394080Y-109052080D01*
X178287339Y-109139680D01*
X178165559Y-109204772D01*
X178165557Y-109204773D01*
X178033421Y-109244857D01*
X177930432Y-109255000D01*
X177161568Y-109255000D01*
X177058579Y-109244857D01*
X176926443Y-109204773D01*
X176926441Y-109204772D01*
X176804661Y-109139680D01*
X176697920Y-109052080D01*
X176610320Y-108945339D01*
X176545228Y-108823559D01*
X176545227Y-108823557D01*
X176505143Y-108691421D01*
X176491609Y-108554000D01*
X176505143Y-108416579D01*
X176545227Y-108284443D01*
X176610321Y-108162660D01*
X176697920Y-108055920D01*
X176804660Y-107968321D01*
X176804659Y-107968321D01*
X176804661Y-107968320D01*
X176926441Y-107903228D01*
X176926443Y-107903227D01*
X177058579Y-107863143D01*
X177161568Y-107853000D01*
X177930432Y-107853000D01*
X178033421Y-107863143D01*
X178033421Y-107863143D01*
G37*
G36*
X156033421Y-107863143D02*
G01*
X156165557Y-107903227D01*
X156165559Y-107903228D01*
X156287339Y-107968320D01*
X156287341Y-107968321D01*
X156287340Y-107968321D01*
X156394080Y-108055920D01*
X156481679Y-108162660D01*
X156546773Y-108284443D01*
X156586857Y-108416579D01*
X156600391Y-108554000D01*
X156586857Y-108691421D01*
X156546773Y-108823557D01*
X156546772Y-108823559D01*
X156481680Y-108945339D01*
X156394080Y-109052080D01*
X156287339Y-109139680D01*
X156165559Y-109204772D01*
X156165557Y-109204773D01*
X156033421Y-109244857D01*
X155930432Y-109255000D01*
X155161568Y-109255000D01*
X155058579Y-109244857D01*
X154926443Y-109204773D01*
X154926441Y-109204772D01*
X154804661Y-109139680D01*
X154697920Y-109052080D01*
X154610320Y-108945339D01*
X154545228Y-108823559D01*
X154545227Y-108823557D01*
X154505143Y-108691421D01*
X154491609Y-108554000D01*
X154505143Y-108416579D01*
X154545227Y-108284443D01*
X154610321Y-108162660D01*
X154697920Y-108055920D01*
X154804660Y-107968321D01*
X154804659Y-107968321D01*
X154804661Y-107968320D01*
X154926441Y-107903228D01*
X154926443Y-107903227D01*
X155058579Y-107863143D01*
X155161568Y-107853000D01*
X155930432Y-107853000D01*
X156033421Y-107863143D01*
X156033421Y-107863143D01*
G37*
G36*
X178033421Y-105863143D02*
G01*
X178165557Y-105903227D01*
X178165559Y-105903228D01*
X178287339Y-105968320D01*
X178287341Y-105968321D01*
X178287340Y-105968321D01*
X178394080Y-106055920D01*
X178481679Y-106162660D01*
X178546773Y-106284443D01*
X178586857Y-106416579D01*
X178600391Y-106554000D01*
X178586857Y-106691421D01*
X178546773Y-106823557D01*
X178546772Y-106823559D01*
X178481680Y-106945339D01*
X178394080Y-107052080D01*
X178287339Y-107139680D01*
X178165559Y-107204772D01*
X178165557Y-107204773D01*
X178033421Y-107244857D01*
X177930432Y-107255000D01*
X177161568Y-107255000D01*
X177058579Y-107244857D01*
X176926443Y-107204773D01*
X176926441Y-107204772D01*
X176804661Y-107139680D01*
X176697920Y-107052080D01*
X176610320Y-106945339D01*
X176545228Y-106823559D01*
X176545227Y-106823557D01*
X176505143Y-106691421D01*
X176491609Y-106554000D01*
X176505143Y-106416579D01*
X176545227Y-106284443D01*
X176610321Y-106162660D01*
X176697920Y-106055920D01*
X176804660Y-105968321D01*
X176804659Y-105968321D01*
X176804661Y-105968320D01*
X176926441Y-105903228D01*
X176926443Y-105903227D01*
X177058579Y-105863143D01*
X177161568Y-105853000D01*
X177930432Y-105853000D01*
X178033421Y-105863143D01*
X178033421Y-105863143D01*
G37*
G36*
X156033421Y-105863143D02*
G01*
X156165557Y-105903227D01*
X156165559Y-105903228D01*
X156287339Y-105968320D01*
X156287341Y-105968321D01*
X156287340Y-105968321D01*
X156394080Y-106055920D01*
X156481679Y-106162660D01*
X156546773Y-106284443D01*
X156586857Y-106416579D01*
X156600391Y-106554000D01*
X156586857Y-106691421D01*
X156546773Y-106823557D01*
X156546772Y-106823559D01*
X156481680Y-106945339D01*
X156394080Y-107052080D01*
X156287339Y-107139680D01*
X156165559Y-107204772D01*
X156165557Y-107204773D01*
X156033421Y-107244857D01*
X155930432Y-107255000D01*
X155161568Y-107255000D01*
X155058579Y-107244857D01*
X154926443Y-107204773D01*
X154926441Y-107204772D01*
X154804661Y-107139680D01*
X154697920Y-107052080D01*
X154610320Y-106945339D01*
X154545228Y-106823559D01*
X154545227Y-106823557D01*
X154505143Y-106691421D01*
X154491609Y-106554000D01*
X154505143Y-106416579D01*
X154545227Y-106284443D01*
X154610321Y-106162660D01*
X154697920Y-106055920D01*
X154804660Y-105968321D01*
X154804659Y-105968321D01*
X154804661Y-105968320D01*
X154926441Y-105903228D01*
X154926443Y-105903227D01*
X155058579Y-105863143D01*
X155161568Y-105853000D01*
X155930432Y-105853000D01*
X156033421Y-105863143D01*
X156033421Y-105863143D01*
G37*
G36*
X110496442Y-105317518D02*
G01*
X110562627Y-105324037D01*
X110732466Y-105375557D01*
X110888991Y-105459222D01*
X110924729Y-105488552D01*
X111026186Y-105571814D01*
X111109448Y-105673271D01*
X111138778Y-105709009D01*
X111222443Y-105865534D01*
X111273963Y-106035373D01*
X111291359Y-106212000D01*
X111273963Y-106388627D01*
X111222443Y-106558466D01*
X111138778Y-106714991D01*
X111109448Y-106750729D01*
X111026186Y-106852186D01*
X110924729Y-106935448D01*
X110888991Y-106964778D01*
X110732466Y-107048443D01*
X110562627Y-107099963D01*
X110496442Y-107106482D01*
X110430260Y-107113000D01*
X110041740Y-107113000D01*
X109975558Y-107106482D01*
X109909373Y-107099963D01*
X109739534Y-107048443D01*
X109583009Y-106964778D01*
X109547271Y-106935448D01*
X109445814Y-106852186D01*
X109362552Y-106750729D01*
X109333222Y-106714991D01*
X109249557Y-106558466D01*
X109198037Y-106388627D01*
X109180641Y-106212000D01*
X109198037Y-106035373D01*
X109249557Y-105865534D01*
X109333222Y-105709009D01*
X109362552Y-105673271D01*
X109445814Y-105571814D01*
X109547271Y-105488552D01*
X109583009Y-105459222D01*
X109739534Y-105375557D01*
X109909373Y-105324037D01*
X109975558Y-105317518D01*
X110041740Y-105311000D01*
X110430260Y-105311000D01*
X110496442Y-105317518D01*
X110496442Y-105317518D01*
G37*
G36*
X178033421Y-103863143D02*
G01*
X178165557Y-103903227D01*
X178165559Y-103903228D01*
X178287339Y-103968320D01*
X178287341Y-103968321D01*
X178287340Y-103968321D01*
X178394080Y-104055920D01*
X178481679Y-104162660D01*
X178546773Y-104284443D01*
X178586857Y-104416579D01*
X178600391Y-104554000D01*
X178586857Y-104691421D01*
X178546773Y-104823557D01*
X178546772Y-104823559D01*
X178481680Y-104945339D01*
X178394080Y-105052080D01*
X178287339Y-105139680D01*
X178165559Y-105204772D01*
X178165557Y-105204773D01*
X178033421Y-105244857D01*
X177930432Y-105255000D01*
X177161568Y-105255000D01*
X177058579Y-105244857D01*
X176926443Y-105204773D01*
X176926441Y-105204772D01*
X176804661Y-105139680D01*
X176697920Y-105052080D01*
X176610320Y-104945339D01*
X176545228Y-104823559D01*
X176545227Y-104823557D01*
X176505143Y-104691421D01*
X176491609Y-104554000D01*
X176505143Y-104416579D01*
X176545227Y-104284443D01*
X176610321Y-104162660D01*
X176697920Y-104055920D01*
X176804660Y-103968321D01*
X176804659Y-103968321D01*
X176804661Y-103968320D01*
X176926441Y-103903228D01*
X176926443Y-103903227D01*
X177058579Y-103863143D01*
X177161568Y-103853000D01*
X177930432Y-103853000D01*
X178033421Y-103863143D01*
X178033421Y-103863143D01*
G37*
G36*
X156033421Y-103863143D02*
G01*
X156165557Y-103903227D01*
X156165559Y-103903228D01*
X156287339Y-103968320D01*
X156287341Y-103968321D01*
X156287340Y-103968321D01*
X156394080Y-104055920D01*
X156481679Y-104162660D01*
X156546773Y-104284443D01*
X156586857Y-104416579D01*
X156600391Y-104554000D01*
X156586857Y-104691421D01*
X156546773Y-104823557D01*
X156546772Y-104823559D01*
X156481680Y-104945339D01*
X156394080Y-105052080D01*
X156287339Y-105139680D01*
X156165559Y-105204772D01*
X156165557Y-105204773D01*
X156033421Y-105244857D01*
X155930432Y-105255000D01*
X155161568Y-105255000D01*
X155058579Y-105244857D01*
X154926443Y-105204773D01*
X154926441Y-105204772D01*
X154804661Y-105139680D01*
X154697920Y-105052080D01*
X154610320Y-104945339D01*
X154545228Y-104823559D01*
X154545227Y-104823557D01*
X154505143Y-104691421D01*
X154491609Y-104554000D01*
X154505143Y-104416579D01*
X154545227Y-104284443D01*
X154610321Y-104162660D01*
X154697920Y-104055920D01*
X154804660Y-103968321D01*
X154804659Y-103968321D01*
X154804661Y-103968320D01*
X154926441Y-103903228D01*
X154926443Y-103903227D01*
X155058579Y-103863143D01*
X155161568Y-103853000D01*
X155930432Y-103853000D01*
X156033421Y-103863143D01*
X156033421Y-103863143D01*
G37*
G36*
X114963855Y-97142140D02*
G01*
X115027618Y-97148420D01*
X115118404Y-97175960D01*
X115150336Y-97185646D01*
X115263425Y-97246094D01*
X115362554Y-97327446D01*
X115443906Y-97426575D01*
X115504354Y-97539664D01*
X115504355Y-97539668D01*
X115541580Y-97662382D01*
X115554149Y-97790000D01*
X115541580Y-97917618D01*
X115521853Y-97982650D01*
X115504354Y-98040336D01*
X115443906Y-98153425D01*
X115362554Y-98252554D01*
X115263425Y-98333906D01*
X115150336Y-98394354D01*
X115118404Y-98404040D01*
X115027618Y-98431580D01*
X114963855Y-98437860D01*
X114931974Y-98441000D01*
X113668026Y-98441000D01*
X113636145Y-98437860D01*
X113572382Y-98431580D01*
X113481596Y-98404040D01*
X113449664Y-98394354D01*
X113336575Y-98333906D01*
X113237446Y-98252554D01*
X113156094Y-98153425D01*
X113095646Y-98040336D01*
X113078147Y-97982650D01*
X113058420Y-97917618D01*
X113045851Y-97790000D01*
X113058420Y-97662382D01*
X113095645Y-97539668D01*
X113095646Y-97539664D01*
X113156094Y-97426575D01*
X113237446Y-97327446D01*
X113336575Y-97246094D01*
X113449664Y-97185646D01*
X113481596Y-97175960D01*
X113572382Y-97148420D01*
X113636145Y-97142140D01*
X113668026Y-97139000D01*
X114931974Y-97139000D01*
X114963855Y-97142140D01*
X114963855Y-97142140D01*
G37*
G36*
X110828213Y-97296249D02*
G01*
X110922652Y-97324897D01*
X111009687Y-97371418D01*
X111085975Y-97434025D01*
X111148582Y-97510313D01*
X111195103Y-97597348D01*
X111223751Y-97691787D01*
X111233424Y-97790000D01*
X111223751Y-97888213D01*
X111195103Y-97982652D01*
X111148582Y-98069687D01*
X111085975Y-98145975D01*
X111009687Y-98208582D01*
X110922652Y-98255103D01*
X110828213Y-98283751D01*
X110754612Y-98291000D01*
X109805388Y-98291000D01*
X109731787Y-98283751D01*
X109637348Y-98255103D01*
X109550313Y-98208582D01*
X109474025Y-98145975D01*
X109411418Y-98069687D01*
X109364897Y-97982652D01*
X109336249Y-97888213D01*
X109326576Y-97790000D01*
X109336249Y-97691787D01*
X109364897Y-97597348D01*
X109411418Y-97510313D01*
X109474025Y-97434025D01*
X109550313Y-97371418D01*
X109637348Y-97324897D01*
X109731787Y-97296249D01*
X109805388Y-97289000D01*
X110754612Y-97289000D01*
X110828213Y-97296249D01*
X110828213Y-97296249D01*
G37*
G36*
X114963855Y-89522140D02*
G01*
X115027618Y-89528420D01*
X115118404Y-89555960D01*
X115150336Y-89565646D01*
X115263425Y-89626094D01*
X115362554Y-89707446D01*
X115443906Y-89806575D01*
X115504354Y-89919664D01*
X115504355Y-89919668D01*
X115541580Y-90042382D01*
X115554149Y-90170000D01*
X115541580Y-90297618D01*
X115521853Y-90362650D01*
X115504354Y-90420336D01*
X115443906Y-90533425D01*
X115362554Y-90632554D01*
X115263425Y-90713906D01*
X115150336Y-90774354D01*
X115118404Y-90784040D01*
X115027618Y-90811580D01*
X114963855Y-90817860D01*
X114931974Y-90821000D01*
X113668026Y-90821000D01*
X113636145Y-90817860D01*
X113572382Y-90811580D01*
X113481596Y-90784040D01*
X113449664Y-90774354D01*
X113336575Y-90713906D01*
X113237446Y-90632554D01*
X113156094Y-90533425D01*
X113095646Y-90420336D01*
X113078147Y-90362650D01*
X113058420Y-90297618D01*
X113045851Y-90170000D01*
X113058420Y-90042382D01*
X113095645Y-89919668D01*
X113095646Y-89919664D01*
X113156094Y-89806575D01*
X113237446Y-89707446D01*
X113336575Y-89626094D01*
X113449664Y-89565646D01*
X113481596Y-89555960D01*
X113572382Y-89528420D01*
X113636145Y-89522140D01*
X113668026Y-89519000D01*
X114931974Y-89519000D01*
X114963855Y-89522140D01*
X114963855Y-89522140D01*
G37*
G36*
X156365421Y-89335143D02*
G01*
X156497557Y-89375227D01*
X156497559Y-89375228D01*
X156619339Y-89440320D01*
X156726080Y-89527920D01*
X156813680Y-89634661D01*
X156851221Y-89704897D01*
X156878773Y-89756443D01*
X156918857Y-89888579D01*
X156932391Y-90026000D01*
X156918857Y-90163421D01*
X156878773Y-90295557D01*
X156878772Y-90295559D01*
X156813680Y-90417339D01*
X156726080Y-90524080D01*
X156619339Y-90611680D01*
X156521920Y-90663751D01*
X156497557Y-90676773D01*
X156365421Y-90716857D01*
X156262432Y-90727000D01*
X155493568Y-90727000D01*
X155390579Y-90716857D01*
X155258443Y-90676773D01*
X155234080Y-90663751D01*
X155136661Y-90611680D01*
X155029920Y-90524080D01*
X154942320Y-90417339D01*
X154877228Y-90295559D01*
X154877227Y-90295557D01*
X154837143Y-90163421D01*
X154823609Y-90026000D01*
X154837143Y-89888579D01*
X154877227Y-89756443D01*
X154904779Y-89704897D01*
X154942320Y-89634661D01*
X155029920Y-89527920D01*
X155136661Y-89440320D01*
X155258441Y-89375228D01*
X155258443Y-89375227D01*
X155390579Y-89335143D01*
X155493568Y-89325000D01*
X156262432Y-89325000D01*
X156365421Y-89335143D01*
X156365421Y-89335143D01*
G37*
G36*
X178365421Y-89335143D02*
G01*
X178497557Y-89375227D01*
X178497559Y-89375228D01*
X178619339Y-89440320D01*
X178726080Y-89527920D01*
X178813680Y-89634661D01*
X178851221Y-89704897D01*
X178878773Y-89756443D01*
X178918857Y-89888579D01*
X178932391Y-90026000D01*
X178918857Y-90163421D01*
X178878773Y-90295557D01*
X178878772Y-90295559D01*
X178813680Y-90417339D01*
X178726080Y-90524080D01*
X178619339Y-90611680D01*
X178521920Y-90663751D01*
X178497557Y-90676773D01*
X178365421Y-90716857D01*
X178262432Y-90727000D01*
X177493568Y-90727000D01*
X177390579Y-90716857D01*
X177258443Y-90676773D01*
X177234080Y-90663751D01*
X177136661Y-90611680D01*
X177029920Y-90524080D01*
X176942320Y-90417339D01*
X176877228Y-90295559D01*
X176877227Y-90295557D01*
X176837143Y-90163421D01*
X176823609Y-90026000D01*
X176837143Y-89888579D01*
X176877227Y-89756443D01*
X176904779Y-89704897D01*
X176942320Y-89634661D01*
X177029920Y-89527920D01*
X177136661Y-89440320D01*
X177258441Y-89375228D01*
X177258443Y-89375227D01*
X177390579Y-89335143D01*
X177493568Y-89325000D01*
X178262432Y-89325000D01*
X178365421Y-89335143D01*
X178365421Y-89335143D01*
G37*
G36*
X110828213Y-89676249D02*
G01*
X110922652Y-89704897D01*
X111009687Y-89751418D01*
X111085975Y-89814025D01*
X111148582Y-89890313D01*
X111195103Y-89977348D01*
X111223751Y-90071787D01*
X111233424Y-90170000D01*
X111223751Y-90268213D01*
X111195103Y-90362652D01*
X111148582Y-90449687D01*
X111085975Y-90525975D01*
X111009687Y-90588582D01*
X110922652Y-90635103D01*
X110828213Y-90663751D01*
X110754612Y-90671000D01*
X109805388Y-90671000D01*
X109731787Y-90663751D01*
X109637348Y-90635103D01*
X109550313Y-90588582D01*
X109474025Y-90525975D01*
X109411418Y-90449687D01*
X109364897Y-90362652D01*
X109336249Y-90268213D01*
X109326576Y-90170000D01*
X109336249Y-90071787D01*
X109364897Y-89977348D01*
X109411418Y-89890313D01*
X109474025Y-89814025D01*
X109550313Y-89751418D01*
X109637348Y-89704897D01*
X109731787Y-89676249D01*
X109805388Y-89669000D01*
X110754612Y-89669000D01*
X110828213Y-89676249D01*
X110828213Y-89676249D01*
G37*
G36*
X178365421Y-87335143D02*
G01*
X178497557Y-87375227D01*
X178497559Y-87375228D01*
X178619339Y-87440320D01*
X178619341Y-87440321D01*
X178619340Y-87440321D01*
X178726080Y-87527920D01*
X178813679Y-87634660D01*
X178878773Y-87756443D01*
X178918857Y-87888579D01*
X178932391Y-88026000D01*
X178918857Y-88163421D01*
X178878773Y-88295557D01*
X178878772Y-88295559D01*
X178813680Y-88417339D01*
X178726080Y-88524080D01*
X178619339Y-88611680D01*
X178497559Y-88676772D01*
X178497557Y-88676773D01*
X178365421Y-88716857D01*
X178262432Y-88727000D01*
X177493568Y-88727000D01*
X177390579Y-88716857D01*
X177258443Y-88676773D01*
X177258441Y-88676772D01*
X177136661Y-88611680D01*
X177029920Y-88524080D01*
X176942320Y-88417339D01*
X176877228Y-88295559D01*
X176877227Y-88295557D01*
X176837143Y-88163421D01*
X176823609Y-88026000D01*
X176837143Y-87888579D01*
X176877227Y-87756443D01*
X176942321Y-87634660D01*
X177029920Y-87527920D01*
X177136660Y-87440321D01*
X177136659Y-87440321D01*
X177136661Y-87440320D01*
X177258441Y-87375228D01*
X177258443Y-87375227D01*
X177390579Y-87335143D01*
X177493568Y-87325000D01*
X178262432Y-87325000D01*
X178365421Y-87335143D01*
X178365421Y-87335143D01*
G37*
G36*
X156365421Y-87335143D02*
G01*
X156497557Y-87375227D01*
X156497559Y-87375228D01*
X156619339Y-87440320D01*
X156619341Y-87440321D01*
X156619340Y-87440321D01*
X156726080Y-87527920D01*
X156813679Y-87634660D01*
X156878773Y-87756443D01*
X156918857Y-87888579D01*
X156932391Y-88026000D01*
X156918857Y-88163421D01*
X156878773Y-88295557D01*
X156878772Y-88295559D01*
X156813680Y-88417339D01*
X156726080Y-88524080D01*
X156619339Y-88611680D01*
X156497559Y-88676772D01*
X156497557Y-88676773D01*
X156365421Y-88716857D01*
X156262432Y-88727000D01*
X155493568Y-88727000D01*
X155390579Y-88716857D01*
X155258443Y-88676773D01*
X155258441Y-88676772D01*
X155136661Y-88611680D01*
X155029920Y-88524080D01*
X154942320Y-88417339D01*
X154877228Y-88295559D01*
X154877227Y-88295557D01*
X154837143Y-88163421D01*
X154823609Y-88026000D01*
X154837143Y-87888579D01*
X154877227Y-87756443D01*
X154942321Y-87634660D01*
X155029920Y-87527920D01*
X155136660Y-87440321D01*
X155136659Y-87440321D01*
X155136661Y-87440320D01*
X155258441Y-87375228D01*
X155258443Y-87375227D01*
X155390579Y-87335143D01*
X155493568Y-87325000D01*
X156262432Y-87325000D01*
X156365421Y-87335143D01*
X156365421Y-87335143D01*
G37*
G36*
X121551000Y-87769000D02*
G01*
X119749000Y-87769000D01*
X119749000Y-85967000D01*
X121551000Y-85967000D01*
X121551000Y-87769000D01*
X121551000Y-87769000D01*
G37*
G36*
X115455000Y-87515000D02*
G01*
X113653000Y-87515000D01*
X113653000Y-85713000D01*
X115455000Y-85713000D01*
X115455000Y-87515000D01*
X115455000Y-87515000D01*
G37*
G36*
X178365421Y-85335143D02*
G01*
X178497557Y-85375227D01*
X178497559Y-85375228D01*
X178619339Y-85440320D01*
X178726080Y-85527920D01*
X178813680Y-85634661D01*
X178878772Y-85756441D01*
X178878773Y-85756443D01*
X178918857Y-85888579D01*
X178932391Y-86026000D01*
X178918857Y-86163421D01*
X178878773Y-86295557D01*
X178878772Y-86295559D01*
X178813680Y-86417339D01*
X178726080Y-86524080D01*
X178619339Y-86611680D01*
X178497559Y-86676772D01*
X178497557Y-86676773D01*
X178365421Y-86716857D01*
X178262432Y-86727000D01*
X177493568Y-86727000D01*
X177390579Y-86716857D01*
X177258443Y-86676773D01*
X177258441Y-86676772D01*
X177136661Y-86611680D01*
X177029920Y-86524080D01*
X176942320Y-86417339D01*
X176877228Y-86295559D01*
X176877227Y-86295557D01*
X176837143Y-86163421D01*
X176823609Y-86026000D01*
X176837143Y-85888579D01*
X176877227Y-85756443D01*
X176877228Y-85756441D01*
X176942320Y-85634661D01*
X177029920Y-85527920D01*
X177136661Y-85440320D01*
X177258441Y-85375228D01*
X177258443Y-85375227D01*
X177390579Y-85335143D01*
X177493568Y-85325000D01*
X178262432Y-85325000D01*
X178365421Y-85335143D01*
X178365421Y-85335143D01*
G37*
G36*
X156365421Y-85335143D02*
G01*
X156497557Y-85375227D01*
X156497559Y-85375228D01*
X156619339Y-85440320D01*
X156726080Y-85527920D01*
X156813680Y-85634661D01*
X156878772Y-85756441D01*
X156878773Y-85756443D01*
X156918857Y-85888579D01*
X156932391Y-86026000D01*
X156918857Y-86163421D01*
X156878773Y-86295557D01*
X156878772Y-86295559D01*
X156813680Y-86417339D01*
X156726080Y-86524080D01*
X156619339Y-86611680D01*
X156497559Y-86676772D01*
X156497557Y-86676773D01*
X156365421Y-86716857D01*
X156262432Y-86727000D01*
X155493568Y-86727000D01*
X155390579Y-86716857D01*
X155258443Y-86676773D01*
X155258441Y-86676772D01*
X155136661Y-86611680D01*
X155029920Y-86524080D01*
X154942320Y-86417339D01*
X154877228Y-86295559D01*
X154877227Y-86295557D01*
X154837143Y-86163421D01*
X154823609Y-86026000D01*
X154837143Y-85888579D01*
X154877227Y-85756443D01*
X154877228Y-85756441D01*
X154942320Y-85634661D01*
X155029920Y-85527920D01*
X155136661Y-85440320D01*
X155258441Y-85375228D01*
X155258443Y-85375227D01*
X155390579Y-85335143D01*
X155493568Y-85325000D01*
X156262432Y-85325000D01*
X156365421Y-85335143D01*
X156365421Y-85335143D01*
G37*
G36*
X120760443Y-83433519D02*
G01*
X120826627Y-83440037D01*
X120996466Y-83491557D01*
X121152991Y-83575222D01*
X121188729Y-83604552D01*
X121290186Y-83687814D01*
X121373448Y-83789271D01*
X121402778Y-83825009D01*
X121486443Y-83981534D01*
X121537963Y-84151373D01*
X121555359Y-84328000D01*
X121537963Y-84504627D01*
X121486443Y-84674466D01*
X121402778Y-84830991D01*
X121373448Y-84866729D01*
X121290186Y-84968186D01*
X121188729Y-85051448D01*
X121152991Y-85080778D01*
X120996466Y-85164443D01*
X120826627Y-85215963D01*
X120760443Y-85222481D01*
X120694260Y-85229000D01*
X120605740Y-85229000D01*
X120539557Y-85222481D01*
X120473373Y-85215963D01*
X120303534Y-85164443D01*
X120147009Y-85080778D01*
X120111271Y-85051448D01*
X120009814Y-84968186D01*
X119926552Y-84866729D01*
X119897222Y-84830991D01*
X119813557Y-84674466D01*
X119762037Y-84504627D01*
X119744641Y-84328000D01*
X119762037Y-84151373D01*
X119813557Y-83981534D01*
X119897222Y-83825009D01*
X119926552Y-83789271D01*
X120009814Y-83687814D01*
X120111271Y-83604552D01*
X120147009Y-83575222D01*
X120303534Y-83491557D01*
X120473373Y-83440037D01*
X120539557Y-83433519D01*
X120605740Y-83427000D01*
X120694260Y-83427000D01*
X120760443Y-83433519D01*
X120760443Y-83433519D01*
G37*
G36*
X114664442Y-83179518D02*
G01*
X114730627Y-83186037D01*
X114900466Y-83237557D01*
X115056991Y-83321222D01*
X115092729Y-83350552D01*
X115194186Y-83433814D01*
X115271416Y-83527920D01*
X115306778Y-83571009D01*
X115390443Y-83727534D01*
X115441963Y-83897373D01*
X115459359Y-84074000D01*
X115441963Y-84250627D01*
X115390443Y-84420466D01*
X115306778Y-84576991D01*
X115278310Y-84611679D01*
X115194186Y-84714186D01*
X115092729Y-84797448D01*
X115056991Y-84826778D01*
X114900466Y-84910443D01*
X114730627Y-84961963D01*
X114667453Y-84968185D01*
X114598260Y-84975000D01*
X114509740Y-84975000D01*
X114440547Y-84968185D01*
X114377373Y-84961963D01*
X114207534Y-84910443D01*
X114051009Y-84826778D01*
X114015271Y-84797448D01*
X113913814Y-84714186D01*
X113829690Y-84611679D01*
X113801222Y-84576991D01*
X113717557Y-84420466D01*
X113666037Y-84250627D01*
X113648641Y-84074000D01*
X113666037Y-83897373D01*
X113717557Y-83727534D01*
X113801222Y-83571009D01*
X113836584Y-83527920D01*
X113913814Y-83433814D01*
X114015271Y-83350552D01*
X114051009Y-83321222D01*
X114207534Y-83237557D01*
X114377373Y-83186037D01*
X114443558Y-83179518D01*
X114509740Y-83173000D01*
X114598260Y-83173000D01*
X114664442Y-83179518D01*
X114664442Y-83179518D01*
G37*
G36*
X178365421Y-83335143D02*
G01*
X178497557Y-83375227D01*
X178497559Y-83375228D01*
X178619339Y-83440320D01*
X178726080Y-83527920D01*
X178813680Y-83634661D01*
X178842091Y-83687815D01*
X178878773Y-83756443D01*
X178918857Y-83888579D01*
X178932391Y-84026000D01*
X178918857Y-84163421D01*
X178878773Y-84295557D01*
X178878772Y-84295559D01*
X178813680Y-84417339D01*
X178726080Y-84524080D01*
X178619339Y-84611680D01*
X178497559Y-84676772D01*
X178497557Y-84676773D01*
X178365421Y-84716857D01*
X178262432Y-84727000D01*
X177493568Y-84727000D01*
X177390579Y-84716857D01*
X177258443Y-84676773D01*
X177258441Y-84676772D01*
X177136661Y-84611680D01*
X177029920Y-84524080D01*
X176942320Y-84417339D01*
X176877228Y-84295559D01*
X176877227Y-84295557D01*
X176837143Y-84163421D01*
X176823609Y-84026000D01*
X176837143Y-83888579D01*
X176877227Y-83756443D01*
X176913909Y-83687815D01*
X176942320Y-83634661D01*
X177029920Y-83527920D01*
X177136661Y-83440320D01*
X177258441Y-83375228D01*
X177258443Y-83375227D01*
X177390579Y-83335143D01*
X177493568Y-83325000D01*
X178262432Y-83325000D01*
X178365421Y-83335143D01*
X178365421Y-83335143D01*
G37*
G36*
X156365421Y-83335143D02*
G01*
X156497557Y-83375227D01*
X156497559Y-83375228D01*
X156619339Y-83440320D01*
X156726080Y-83527920D01*
X156813680Y-83634661D01*
X156842091Y-83687815D01*
X156878773Y-83756443D01*
X156918857Y-83888579D01*
X156932391Y-84026000D01*
X156918857Y-84163421D01*
X156878773Y-84295557D01*
X156878772Y-84295559D01*
X156813680Y-84417339D01*
X156726080Y-84524080D01*
X156619339Y-84611680D01*
X156497559Y-84676772D01*
X156497557Y-84676773D01*
X156365421Y-84716857D01*
X156262432Y-84727000D01*
X155493568Y-84727000D01*
X155390579Y-84716857D01*
X155258443Y-84676773D01*
X155258441Y-84676772D01*
X155136661Y-84611680D01*
X155029920Y-84524080D01*
X154942320Y-84417339D01*
X154877228Y-84295559D01*
X154877227Y-84295557D01*
X154837143Y-84163421D01*
X154823609Y-84026000D01*
X154837143Y-83888579D01*
X154877227Y-83756443D01*
X154913909Y-83687815D01*
X154942320Y-83634661D01*
X155029920Y-83527920D01*
X155136661Y-83440320D01*
X155258441Y-83375228D01*
X155258443Y-83375227D01*
X155390579Y-83335143D01*
X155493568Y-83325000D01*
X156262432Y-83325000D01*
X156365421Y-83335143D01*
X156365421Y-83335143D01*
G37*
G36*
X169285256Y-79671298D02*
G01*
X169391579Y-79692447D01*
X169692042Y-79816903D01*
X169962451Y-79997585D01*
X170192415Y-80227549D01*
X170373097Y-80497958D01*
X170490429Y-80781221D01*
X170497553Y-80798422D01*
X170544656Y-81035221D01*
X170561000Y-81117391D01*
X170561000Y-81442609D01*
X170497553Y-81761579D01*
X170444948Y-81888579D01*
X170383474Y-82036991D01*
X170373097Y-82062042D01*
X170192415Y-82332451D01*
X169962451Y-82562415D01*
X169692042Y-82743097D01*
X169391579Y-82867553D01*
X169285256Y-82888702D01*
X169072611Y-82931000D01*
X168747389Y-82931000D01*
X168534744Y-82888702D01*
X168428421Y-82867553D01*
X168127958Y-82743097D01*
X167857549Y-82562415D01*
X167627585Y-82332451D01*
X167446903Y-82062042D01*
X167436527Y-82036991D01*
X167375052Y-81888579D01*
X167322447Y-81761579D01*
X167259000Y-81442609D01*
X167259000Y-81117391D01*
X167275345Y-81035221D01*
X167322447Y-80798422D01*
X167329572Y-80781221D01*
X167446903Y-80497958D01*
X167627585Y-80227549D01*
X167857549Y-79997585D01*
X168127958Y-79816903D01*
X168428421Y-79692447D01*
X168534744Y-79671298D01*
X168747389Y-79629000D01*
X169072611Y-79629000D01*
X169285256Y-79671298D01*
X169285256Y-79671298D01*
G37*
G36*
X156365421Y-81335143D02*
G01*
X156497557Y-81375227D01*
X156497559Y-81375228D01*
X156619339Y-81440320D01*
X156726080Y-81527920D01*
X156813679Y-81634660D01*
X156878773Y-81756443D01*
X156918857Y-81888579D01*
X156932391Y-82026000D01*
X156918857Y-82163421D01*
X156880158Y-82290991D01*
X156878772Y-82295559D01*
X156813680Y-82417339D01*
X156726080Y-82524080D01*
X156619339Y-82611680D01*
X156497559Y-82676772D01*
X156497557Y-82676773D01*
X156365421Y-82716857D01*
X156262432Y-82727000D01*
X155493568Y-82727000D01*
X155390579Y-82716857D01*
X155258443Y-82676773D01*
X155258441Y-82676772D01*
X155136661Y-82611680D01*
X155029920Y-82524080D01*
X154942320Y-82417339D01*
X154877228Y-82295559D01*
X154875842Y-82290991D01*
X154837143Y-82163421D01*
X154823609Y-82026000D01*
X154837143Y-81888579D01*
X154877227Y-81756443D01*
X154942321Y-81634660D01*
X155029920Y-81527920D01*
X155136661Y-81440320D01*
X155258441Y-81375228D01*
X155258443Y-81375227D01*
X155390579Y-81335143D01*
X155493568Y-81325000D01*
X156262432Y-81325000D01*
X156365421Y-81335143D01*
X156365421Y-81335143D01*
G37*
G36*
X178365421Y-81335143D02*
G01*
X178497557Y-81375227D01*
X178497559Y-81375228D01*
X178619339Y-81440320D01*
X178726080Y-81527920D01*
X178813679Y-81634660D01*
X178878773Y-81756443D01*
X178918857Y-81888579D01*
X178932391Y-82026000D01*
X178918857Y-82163421D01*
X178880158Y-82290991D01*
X178878772Y-82295559D01*
X178813680Y-82417339D01*
X178726080Y-82524080D01*
X178619339Y-82611680D01*
X178497559Y-82676772D01*
X178497557Y-82676773D01*
X178365421Y-82716857D01*
X178262432Y-82727000D01*
X177493568Y-82727000D01*
X177390579Y-82716857D01*
X177258443Y-82676773D01*
X177258441Y-82676772D01*
X177136661Y-82611680D01*
X177029920Y-82524080D01*
X176942320Y-82417339D01*
X176877228Y-82295559D01*
X176875842Y-82290991D01*
X176837143Y-82163421D01*
X176823609Y-82026000D01*
X176837143Y-81888579D01*
X176877227Y-81756443D01*
X176942321Y-81634660D01*
X177029920Y-81527920D01*
X177136661Y-81440320D01*
X177258441Y-81375228D01*
X177258443Y-81375227D01*
X177390579Y-81335143D01*
X177493568Y-81325000D01*
X178262432Y-81325000D01*
X178365421Y-81335143D01*
X178365421Y-81335143D01*
G37*
G36*
X133460442Y-80893518D02*
G01*
X133526627Y-80900037D01*
X133696466Y-80951557D01*
X133852991Y-81035222D01*
X133888729Y-81064552D01*
X133990186Y-81147814D01*
X134073448Y-81249271D01*
X134102778Y-81285009D01*
X134186443Y-81441534D01*
X134237963Y-81611373D01*
X134255359Y-81788000D01*
X134237963Y-81964627D01*
X134186443Y-82134466D01*
X134102778Y-82290991D01*
X134099029Y-82295559D01*
X133990186Y-82428186D01*
X133888729Y-82511448D01*
X133852991Y-82540778D01*
X133696466Y-82624443D01*
X133526627Y-82675963D01*
X133460442Y-82682482D01*
X133394260Y-82689000D01*
X133305740Y-82689000D01*
X133239558Y-82682482D01*
X133173373Y-82675963D01*
X133003534Y-82624443D01*
X132847009Y-82540778D01*
X132811271Y-82511448D01*
X132709814Y-82428186D01*
X132600971Y-82295559D01*
X132597222Y-82290991D01*
X132513557Y-82134466D01*
X132462037Y-81964627D01*
X132444641Y-81788000D01*
X132462037Y-81611373D01*
X132513557Y-81441534D01*
X132597222Y-81285009D01*
X132626552Y-81249271D01*
X132709814Y-81147814D01*
X132811271Y-81064552D01*
X132847009Y-81035222D01*
X133003534Y-80951557D01*
X133173373Y-80900037D01*
X133239558Y-80893518D01*
X133305740Y-80887000D01*
X133394260Y-80887000D01*
X133460442Y-80893518D01*
X133460442Y-80893518D01*
G37*
G36*
X140318442Y-80893518D02*
G01*
X140384627Y-80900037D01*
X140554466Y-80951557D01*
X140710991Y-81035222D01*
X140746729Y-81064552D01*
X140848186Y-81147814D01*
X140931448Y-81249271D01*
X140960778Y-81285009D01*
X141044443Y-81441534D01*
X141095963Y-81611373D01*
X141113359Y-81788000D01*
X141095963Y-81964627D01*
X141044443Y-82134466D01*
X140960778Y-82290991D01*
X140957029Y-82295559D01*
X140848186Y-82428186D01*
X140746729Y-82511448D01*
X140710991Y-82540778D01*
X140554466Y-82624443D01*
X140384627Y-82675963D01*
X140318442Y-82682482D01*
X140252260Y-82689000D01*
X140163740Y-82689000D01*
X140097558Y-82682482D01*
X140031373Y-82675963D01*
X139861534Y-82624443D01*
X139705009Y-82540778D01*
X139669271Y-82511448D01*
X139567814Y-82428186D01*
X139458971Y-82295559D01*
X139455222Y-82290991D01*
X139371557Y-82134466D01*
X139320037Y-81964627D01*
X139302641Y-81788000D01*
X139320037Y-81611373D01*
X139371557Y-81441534D01*
X139455222Y-81285009D01*
X139484552Y-81249271D01*
X139567814Y-81147814D01*
X139669271Y-81064552D01*
X139705009Y-81035222D01*
X139861534Y-80951557D01*
X140031373Y-80900037D01*
X140097558Y-80893518D01*
X140163740Y-80887000D01*
X140252260Y-80887000D01*
X140318442Y-80893518D01*
X140318442Y-80893518D01*
G37*
G36*
X120760442Y-80893518D02*
G01*
X120826627Y-80900037D01*
X120996466Y-80951557D01*
X121152991Y-81035222D01*
X121188729Y-81064552D01*
X121290186Y-81147814D01*
X121373448Y-81249271D01*
X121402778Y-81285009D01*
X121486443Y-81441534D01*
X121537963Y-81611373D01*
X121555359Y-81788000D01*
X121537963Y-81964627D01*
X121486443Y-82134466D01*
X121402778Y-82290991D01*
X121399029Y-82295559D01*
X121290186Y-82428186D01*
X121188729Y-82511448D01*
X121152991Y-82540778D01*
X120996466Y-82624443D01*
X120826627Y-82675963D01*
X120760442Y-82682482D01*
X120694260Y-82689000D01*
X120605740Y-82689000D01*
X120539558Y-82682482D01*
X120473373Y-82675963D01*
X120303534Y-82624443D01*
X120147009Y-82540778D01*
X120111271Y-82511448D01*
X120009814Y-82428186D01*
X119900971Y-82295559D01*
X119897222Y-82290991D01*
X119813557Y-82134466D01*
X119762037Y-81964627D01*
X119744641Y-81788000D01*
X119762037Y-81611373D01*
X119813557Y-81441534D01*
X119897222Y-81285009D01*
X119926552Y-81249271D01*
X120009814Y-81147814D01*
X120111271Y-81064552D01*
X120147009Y-81035222D01*
X120303534Y-80951557D01*
X120473373Y-80900037D01*
X120539558Y-80893518D01*
X120605740Y-80887000D01*
X120694260Y-80887000D01*
X120760442Y-80893518D01*
X120760442Y-80893518D01*
G37*
G36*
X150478443Y-80639519D02*
G01*
X150544627Y-80646037D01*
X150714466Y-80697557D01*
X150714468Y-80697558D01*
X150769550Y-80727000D01*
X150870991Y-80781222D01*
X150891948Y-80798421D01*
X151008186Y-80893814D01*
X151091448Y-80995271D01*
X151120778Y-81031009D01*
X151120779Y-81031011D01*
X151166951Y-81117391D01*
X151204443Y-81187534D01*
X151255963Y-81357373D01*
X151273359Y-81534000D01*
X151255963Y-81710627D01*
X151232492Y-81788000D01*
X151204442Y-81880468D01*
X151200106Y-81888580D01*
X151120778Y-82036991D01*
X151100219Y-82062042D01*
X151008186Y-82174186D01*
X150906729Y-82257448D01*
X150870991Y-82286778D01*
X150714466Y-82370443D01*
X150544627Y-82421963D01*
X150481453Y-82428185D01*
X150412260Y-82435000D01*
X150323740Y-82435000D01*
X150254547Y-82428185D01*
X150191373Y-82421963D01*
X150021534Y-82370443D01*
X149865009Y-82286778D01*
X149829271Y-82257448D01*
X149727814Y-82174186D01*
X149635781Y-82062042D01*
X149615222Y-82036991D01*
X149535894Y-81888580D01*
X149531558Y-81880468D01*
X149503508Y-81788000D01*
X149480037Y-81710627D01*
X149462641Y-81534000D01*
X149480037Y-81357373D01*
X149531557Y-81187534D01*
X149569050Y-81117391D01*
X149615221Y-81031011D01*
X149615222Y-81031009D01*
X149644552Y-80995271D01*
X149727814Y-80893814D01*
X149844052Y-80798421D01*
X149865009Y-80781222D01*
X149966450Y-80727000D01*
X150021532Y-80697558D01*
X150021534Y-80697557D01*
X150191373Y-80646037D01*
X150257557Y-80639519D01*
X150323740Y-80633000D01*
X150412260Y-80633000D01*
X150478443Y-80639519D01*
X150478443Y-80639519D01*
G37*
G36*
X114664443Y-80639519D02*
G01*
X114730627Y-80646037D01*
X114900466Y-80697557D01*
X114900468Y-80697558D01*
X114955550Y-80727000D01*
X115056991Y-80781222D01*
X115077948Y-80798421D01*
X115194186Y-80893814D01*
X115277448Y-80995271D01*
X115306778Y-81031009D01*
X115306779Y-81031011D01*
X115352951Y-81117391D01*
X115390443Y-81187534D01*
X115441963Y-81357373D01*
X115459359Y-81534000D01*
X115441963Y-81710627D01*
X115418492Y-81788000D01*
X115390442Y-81880468D01*
X115386106Y-81888580D01*
X115306778Y-82036991D01*
X115286219Y-82062042D01*
X115194186Y-82174186D01*
X115092729Y-82257448D01*
X115056991Y-82286778D01*
X114900466Y-82370443D01*
X114730627Y-82421963D01*
X114667453Y-82428185D01*
X114598260Y-82435000D01*
X114509740Y-82435000D01*
X114440547Y-82428185D01*
X114377373Y-82421963D01*
X114207534Y-82370443D01*
X114051009Y-82286778D01*
X114015271Y-82257448D01*
X113913814Y-82174186D01*
X113821781Y-82062042D01*
X113801222Y-82036991D01*
X113721894Y-81888580D01*
X113717558Y-81880468D01*
X113689508Y-81788000D01*
X113666037Y-81710627D01*
X113648641Y-81534000D01*
X113666037Y-81357373D01*
X113717557Y-81187534D01*
X113755050Y-81117391D01*
X113801221Y-81031011D01*
X113801222Y-81031009D01*
X113830552Y-80995271D01*
X113913814Y-80893814D01*
X114030052Y-80798421D01*
X114051009Y-80781222D01*
X114152450Y-80727000D01*
X114207532Y-80697558D01*
X114207534Y-80697557D01*
X114377373Y-80646037D01*
X114443557Y-80639519D01*
X114509740Y-80633000D01*
X114598260Y-80633000D01*
X114664443Y-80639519D01*
X114664443Y-80639519D01*
G37*
G36*
X178365421Y-79335143D02*
G01*
X178497557Y-79375227D01*
X178497559Y-79375228D01*
X178619339Y-79440320D01*
X178619341Y-79440321D01*
X178619340Y-79440321D01*
X178726080Y-79527920D01*
X178813679Y-79634660D01*
X178878773Y-79756443D01*
X178918857Y-79888579D01*
X178932391Y-80026000D01*
X178918857Y-80163421D01*
X178878773Y-80295557D01*
X178878772Y-80295559D01*
X178813680Y-80417339D01*
X178726080Y-80524080D01*
X178619339Y-80611680D01*
X178497559Y-80676772D01*
X178497557Y-80676773D01*
X178365421Y-80716857D01*
X178262432Y-80727000D01*
X177493568Y-80727000D01*
X177390579Y-80716857D01*
X177258443Y-80676773D01*
X177258441Y-80676772D01*
X177136661Y-80611680D01*
X177029920Y-80524080D01*
X176942320Y-80417339D01*
X176877228Y-80295559D01*
X176877227Y-80295557D01*
X176837143Y-80163421D01*
X176823609Y-80026000D01*
X176837143Y-79888579D01*
X176877227Y-79756443D01*
X176942321Y-79634660D01*
X177029920Y-79527920D01*
X177136660Y-79440321D01*
X177136659Y-79440321D01*
X177136661Y-79440320D01*
X177258441Y-79375228D01*
X177258443Y-79375227D01*
X177390579Y-79335143D01*
X177493568Y-79325000D01*
X178262432Y-79325000D01*
X178365421Y-79335143D01*
X178365421Y-79335143D01*
G37*
G36*
X156365421Y-79335143D02*
G01*
X156497557Y-79375227D01*
X156497559Y-79375228D01*
X156619339Y-79440320D01*
X156619341Y-79440321D01*
X156619340Y-79440321D01*
X156726080Y-79527920D01*
X156813679Y-79634660D01*
X156878773Y-79756443D01*
X156918857Y-79888579D01*
X156932391Y-80026000D01*
X156918857Y-80163421D01*
X156878773Y-80295557D01*
X156878772Y-80295559D01*
X156813680Y-80417339D01*
X156726080Y-80524080D01*
X156619339Y-80611680D01*
X156497559Y-80676772D01*
X156497557Y-80676773D01*
X156365421Y-80716857D01*
X156262432Y-80727000D01*
X155493568Y-80727000D01*
X155390579Y-80716857D01*
X155258443Y-80676773D01*
X155258441Y-80676772D01*
X155136661Y-80611680D01*
X155029920Y-80524080D01*
X154942320Y-80417339D01*
X154877228Y-80295559D01*
X154877227Y-80295557D01*
X154837143Y-80163421D01*
X154823609Y-80026000D01*
X154837143Y-79888579D01*
X154877227Y-79756443D01*
X154942321Y-79634660D01*
X155029920Y-79527920D01*
X155136660Y-79440321D01*
X155136659Y-79440321D01*
X155136661Y-79440320D01*
X155258441Y-79375228D01*
X155258443Y-79375227D01*
X155390579Y-79335143D01*
X155493568Y-79325000D01*
X156262432Y-79325000D01*
X156365421Y-79335143D01*
X156365421Y-79335143D01*
G37*
G36*
X133460443Y-78353519D02*
G01*
X133526627Y-78360037D01*
X133696466Y-78411557D01*
X133852991Y-78495222D01*
X133888154Y-78524080D01*
X133990186Y-78607814D01*
X134046778Y-78676773D01*
X134102778Y-78745009D01*
X134186443Y-78901534D01*
X134237963Y-79071373D01*
X134255359Y-79248000D01*
X134237963Y-79424627D01*
X134186443Y-79594466D01*
X134102778Y-79750991D01*
X134073448Y-79786729D01*
X133990186Y-79888186D01*
X133888729Y-79971448D01*
X133852991Y-80000778D01*
X133696466Y-80084443D01*
X133526627Y-80135963D01*
X133460443Y-80142481D01*
X133394260Y-80149000D01*
X133305740Y-80149000D01*
X133239557Y-80142481D01*
X133173373Y-80135963D01*
X133003534Y-80084443D01*
X132847009Y-80000778D01*
X132811271Y-79971448D01*
X132709814Y-79888186D01*
X132626552Y-79786729D01*
X132597222Y-79750991D01*
X132513557Y-79594466D01*
X132462037Y-79424627D01*
X132444641Y-79248000D01*
X132462037Y-79071373D01*
X132513557Y-78901534D01*
X132597222Y-78745009D01*
X132653222Y-78676773D01*
X132709814Y-78607814D01*
X132811846Y-78524080D01*
X132847009Y-78495222D01*
X133003534Y-78411557D01*
X133173373Y-78360037D01*
X133239557Y-78353519D01*
X133305740Y-78347000D01*
X133394260Y-78347000D01*
X133460443Y-78353519D01*
X133460443Y-78353519D01*
G37*
G36*
X120760443Y-78353519D02*
G01*
X120826627Y-78360037D01*
X120996466Y-78411557D01*
X121152991Y-78495222D01*
X121188154Y-78524080D01*
X121290186Y-78607814D01*
X121346778Y-78676773D01*
X121402778Y-78745009D01*
X121486443Y-78901534D01*
X121537963Y-79071373D01*
X121555359Y-79248000D01*
X121537963Y-79424627D01*
X121486443Y-79594466D01*
X121402778Y-79750991D01*
X121373448Y-79786729D01*
X121290186Y-79888186D01*
X121188729Y-79971448D01*
X121152991Y-80000778D01*
X120996466Y-80084443D01*
X120826627Y-80135963D01*
X120760443Y-80142481D01*
X120694260Y-80149000D01*
X120605740Y-80149000D01*
X120539557Y-80142481D01*
X120473373Y-80135963D01*
X120303534Y-80084443D01*
X120147009Y-80000778D01*
X120111271Y-79971448D01*
X120009814Y-79888186D01*
X119926552Y-79786729D01*
X119897222Y-79750991D01*
X119813557Y-79594466D01*
X119762037Y-79424627D01*
X119744641Y-79248000D01*
X119762037Y-79071373D01*
X119813557Y-78901534D01*
X119897222Y-78745009D01*
X119953222Y-78676773D01*
X120009814Y-78607814D01*
X120111846Y-78524080D01*
X120147009Y-78495222D01*
X120303534Y-78411557D01*
X120473373Y-78360037D01*
X120539557Y-78353519D01*
X120605740Y-78347000D01*
X120694260Y-78347000D01*
X120760443Y-78353519D01*
X120760443Y-78353519D01*
G37*
G36*
X140318443Y-78353519D02*
G01*
X140384627Y-78360037D01*
X140554466Y-78411557D01*
X140710991Y-78495222D01*
X140746154Y-78524080D01*
X140848186Y-78607814D01*
X140904778Y-78676773D01*
X140960778Y-78745009D01*
X141044443Y-78901534D01*
X141095963Y-79071373D01*
X141113359Y-79248000D01*
X141095963Y-79424627D01*
X141044443Y-79594466D01*
X140960778Y-79750991D01*
X140931448Y-79786729D01*
X140848186Y-79888186D01*
X140746729Y-79971448D01*
X140710991Y-80000778D01*
X140554466Y-80084443D01*
X140384627Y-80135963D01*
X140318443Y-80142481D01*
X140252260Y-80149000D01*
X140163740Y-80149000D01*
X140097557Y-80142481D01*
X140031373Y-80135963D01*
X139861534Y-80084443D01*
X139705009Y-80000778D01*
X139669271Y-79971448D01*
X139567814Y-79888186D01*
X139484552Y-79786729D01*
X139455222Y-79750991D01*
X139371557Y-79594466D01*
X139320037Y-79424627D01*
X139302641Y-79248000D01*
X139320037Y-79071373D01*
X139371557Y-78901534D01*
X139455222Y-78745009D01*
X139511222Y-78676773D01*
X139567814Y-78607814D01*
X139669846Y-78524080D01*
X139705009Y-78495222D01*
X139861534Y-78411557D01*
X140031373Y-78360037D01*
X140097557Y-78353519D01*
X140163740Y-78347000D01*
X140252260Y-78347000D01*
X140318443Y-78353519D01*
X140318443Y-78353519D01*
G37*
G36*
X150478442Y-78099518D02*
G01*
X150544627Y-78106037D01*
X150714466Y-78157557D01*
X150870991Y-78241222D01*
X150906729Y-78270552D01*
X151008186Y-78353814D01*
X151091448Y-78455271D01*
X151120778Y-78491009D01*
X151120779Y-78491011D01*
X151185279Y-78611680D01*
X151204443Y-78647534D01*
X151255963Y-78817373D01*
X151273359Y-78994000D01*
X151255963Y-79170627D01*
X151204443Y-79340466D01*
X151120778Y-79496991D01*
X151095395Y-79527920D01*
X151008186Y-79634186D01*
X150906729Y-79717448D01*
X150870991Y-79746778D01*
X150714466Y-79830443D01*
X150544627Y-79881963D01*
X150481453Y-79888185D01*
X150412260Y-79895000D01*
X150323740Y-79895000D01*
X150254547Y-79888185D01*
X150191373Y-79881963D01*
X150021534Y-79830443D01*
X149865009Y-79746778D01*
X149829271Y-79717448D01*
X149727814Y-79634186D01*
X149640605Y-79527920D01*
X149615222Y-79496991D01*
X149531557Y-79340466D01*
X149480037Y-79170627D01*
X149462641Y-78994000D01*
X149480037Y-78817373D01*
X149531557Y-78647534D01*
X149550722Y-78611680D01*
X149615221Y-78491011D01*
X149615222Y-78491009D01*
X149644552Y-78455271D01*
X149727814Y-78353814D01*
X149829271Y-78270552D01*
X149865009Y-78241222D01*
X150021534Y-78157557D01*
X150191373Y-78106037D01*
X150257558Y-78099518D01*
X150323740Y-78093000D01*
X150412260Y-78093000D01*
X150478442Y-78099518D01*
X150478442Y-78099518D01*
G37*
G36*
X114664442Y-78099518D02*
G01*
X114730627Y-78106037D01*
X114900466Y-78157557D01*
X115056991Y-78241222D01*
X115092729Y-78270552D01*
X115194186Y-78353814D01*
X115277448Y-78455271D01*
X115306778Y-78491009D01*
X115306779Y-78491011D01*
X115371279Y-78611680D01*
X115390443Y-78647534D01*
X115441963Y-78817373D01*
X115459359Y-78994000D01*
X115441963Y-79170627D01*
X115390443Y-79340466D01*
X115306778Y-79496991D01*
X115281395Y-79527920D01*
X115194186Y-79634186D01*
X115092729Y-79717448D01*
X115056991Y-79746778D01*
X114900466Y-79830443D01*
X114730627Y-79881963D01*
X114667453Y-79888185D01*
X114598260Y-79895000D01*
X114509740Y-79895000D01*
X114440547Y-79888185D01*
X114377373Y-79881963D01*
X114207534Y-79830443D01*
X114051009Y-79746778D01*
X114015271Y-79717448D01*
X113913814Y-79634186D01*
X113826605Y-79527920D01*
X113801222Y-79496991D01*
X113717557Y-79340466D01*
X113666037Y-79170627D01*
X113648641Y-78994000D01*
X113666037Y-78817373D01*
X113717557Y-78647534D01*
X113736722Y-78611680D01*
X113801221Y-78491011D01*
X113801222Y-78491009D01*
X113830552Y-78455271D01*
X113913814Y-78353814D01*
X114015271Y-78270552D01*
X114051009Y-78241222D01*
X114207534Y-78157557D01*
X114377373Y-78106037D01*
X114443558Y-78099518D01*
X114509740Y-78093000D01*
X114598260Y-78093000D01*
X114664442Y-78099518D01*
X114664442Y-78099518D01*
G37*
G36*
X178365421Y-77335143D02*
G01*
X178497557Y-77375227D01*
X178497559Y-77375228D01*
X178619339Y-77440320D01*
X178726080Y-77527920D01*
X178792621Y-77609000D01*
X178813679Y-77634660D01*
X178878773Y-77756443D01*
X178918857Y-77888579D01*
X178932391Y-78026000D01*
X178918857Y-78163421D01*
X178878773Y-78295557D01*
X178878772Y-78295559D01*
X178813680Y-78417339D01*
X178726080Y-78524080D01*
X178619339Y-78611680D01*
X178552260Y-78647534D01*
X178497557Y-78676773D01*
X178365421Y-78716857D01*
X178262432Y-78727000D01*
X177493568Y-78727000D01*
X177390579Y-78716857D01*
X177258443Y-78676773D01*
X177203740Y-78647534D01*
X177136661Y-78611680D01*
X177029920Y-78524080D01*
X176942320Y-78417339D01*
X176877228Y-78295559D01*
X176877227Y-78295557D01*
X176837143Y-78163421D01*
X176823609Y-78026000D01*
X176837143Y-77888579D01*
X176877227Y-77756443D01*
X176942321Y-77634660D01*
X176963380Y-77609000D01*
X177029920Y-77527920D01*
X177136661Y-77440320D01*
X177258441Y-77375228D01*
X177258443Y-77375227D01*
X177390579Y-77335143D01*
X177493568Y-77325000D01*
X178262432Y-77325000D01*
X178365421Y-77335143D01*
X178365421Y-77335143D01*
G37*
G36*
X156365421Y-77335143D02*
G01*
X156497557Y-77375227D01*
X156497559Y-77375228D01*
X156619339Y-77440320D01*
X156726080Y-77527920D01*
X156792621Y-77609000D01*
X156813679Y-77634660D01*
X156878773Y-77756443D01*
X156918857Y-77888579D01*
X156932391Y-78026000D01*
X156918857Y-78163421D01*
X156878773Y-78295557D01*
X156878772Y-78295559D01*
X156813680Y-78417339D01*
X156726080Y-78524080D01*
X156619339Y-78611680D01*
X156552260Y-78647534D01*
X156497557Y-78676773D01*
X156365421Y-78716857D01*
X156262432Y-78727000D01*
X155493568Y-78727000D01*
X155390579Y-78716857D01*
X155258443Y-78676773D01*
X155203740Y-78647534D01*
X155136661Y-78611680D01*
X155029920Y-78524080D01*
X154942320Y-78417339D01*
X154877228Y-78295559D01*
X154877227Y-78295557D01*
X154837143Y-78163421D01*
X154823609Y-78026000D01*
X154837143Y-77888579D01*
X154877227Y-77756443D01*
X154942321Y-77634660D01*
X154963380Y-77609000D01*
X155029920Y-77527920D01*
X155136661Y-77440320D01*
X155258441Y-77375228D01*
X155258443Y-77375227D01*
X155390579Y-77335143D01*
X155493568Y-77325000D01*
X156262432Y-77325000D01*
X156365421Y-77335143D01*
X156365421Y-77335143D01*
G37*
G36*
X133460442Y-75813518D02*
G01*
X133526627Y-75820037D01*
X133696466Y-75871557D01*
X133852991Y-75955222D01*
X133888729Y-75984552D01*
X133990186Y-76067814D01*
X134068647Y-76163420D01*
X134102778Y-76205009D01*
X134186443Y-76361534D01*
X134237963Y-76531373D01*
X134255359Y-76708000D01*
X134237963Y-76884627D01*
X134186443Y-77054466D01*
X134102778Y-77210991D01*
X134073448Y-77246729D01*
X133990186Y-77348186D01*
X133888729Y-77431448D01*
X133852991Y-77460778D01*
X133696466Y-77544443D01*
X133526627Y-77595963D01*
X133460443Y-77602481D01*
X133394260Y-77609000D01*
X133305740Y-77609000D01*
X133239557Y-77602481D01*
X133173373Y-77595963D01*
X133003534Y-77544443D01*
X132847009Y-77460778D01*
X132811271Y-77431448D01*
X132709814Y-77348186D01*
X132626552Y-77246729D01*
X132597222Y-77210991D01*
X132513557Y-77054466D01*
X132462037Y-76884627D01*
X132444641Y-76708000D01*
X132462037Y-76531373D01*
X132513557Y-76361534D01*
X132597222Y-76205009D01*
X132631353Y-76163420D01*
X132709814Y-76067814D01*
X132811271Y-75984552D01*
X132847009Y-75955222D01*
X133003534Y-75871557D01*
X133173373Y-75820037D01*
X133239558Y-75813518D01*
X133305740Y-75807000D01*
X133394260Y-75807000D01*
X133460442Y-75813518D01*
X133460442Y-75813518D01*
G37*
G36*
X140318442Y-75813518D02*
G01*
X140384627Y-75820037D01*
X140554466Y-75871557D01*
X140710991Y-75955222D01*
X140746729Y-75984552D01*
X140848186Y-76067814D01*
X140926647Y-76163420D01*
X140960778Y-76205009D01*
X141044443Y-76361534D01*
X141095963Y-76531373D01*
X141113359Y-76708000D01*
X141095963Y-76884627D01*
X141044443Y-77054466D01*
X140960778Y-77210991D01*
X140931448Y-77246729D01*
X140848186Y-77348186D01*
X140746729Y-77431448D01*
X140710991Y-77460778D01*
X140554466Y-77544443D01*
X140384627Y-77595963D01*
X140318443Y-77602481D01*
X140252260Y-77609000D01*
X140163740Y-77609000D01*
X140097557Y-77602481D01*
X140031373Y-77595963D01*
X139861534Y-77544443D01*
X139705009Y-77460778D01*
X139669271Y-77431448D01*
X139567814Y-77348186D01*
X139484552Y-77246729D01*
X139455222Y-77210991D01*
X139371557Y-77054466D01*
X139320037Y-76884627D01*
X139302641Y-76708000D01*
X139320037Y-76531373D01*
X139371557Y-76361534D01*
X139455222Y-76205009D01*
X139489353Y-76163420D01*
X139567814Y-76067814D01*
X139669271Y-75984552D01*
X139705009Y-75955222D01*
X139861534Y-75871557D01*
X140031373Y-75820037D01*
X140097558Y-75813518D01*
X140163740Y-75807000D01*
X140252260Y-75807000D01*
X140318442Y-75813518D01*
X140318442Y-75813518D01*
G37*
G36*
X150478443Y-75559519D02*
G01*
X150544627Y-75566037D01*
X150714466Y-75617557D01*
X150870991Y-75701222D01*
X150906729Y-75730552D01*
X151008186Y-75813814D01*
X151091448Y-75915271D01*
X151120778Y-75951009D01*
X151204443Y-76107534D01*
X151255963Y-76277373D01*
X151273359Y-76454000D01*
X151255963Y-76630627D01*
X151204443Y-76800466D01*
X151120778Y-76956991D01*
X151091448Y-76992729D01*
X151008186Y-77094186D01*
X150906729Y-77177448D01*
X150870991Y-77206778D01*
X150714466Y-77290443D01*
X150544627Y-77341963D01*
X150481453Y-77348185D01*
X150412260Y-77355000D01*
X150323740Y-77355000D01*
X150254547Y-77348185D01*
X150191373Y-77341963D01*
X150021534Y-77290443D01*
X149865009Y-77206778D01*
X149829271Y-77177448D01*
X149727814Y-77094186D01*
X149644552Y-76992729D01*
X149615222Y-76956991D01*
X149531557Y-76800466D01*
X149480037Y-76630627D01*
X149462641Y-76454000D01*
X149480037Y-76277373D01*
X149531557Y-76107534D01*
X149615222Y-75951009D01*
X149644552Y-75915271D01*
X149727814Y-75813814D01*
X149829271Y-75730552D01*
X149865009Y-75701222D01*
X150021534Y-75617557D01*
X150191373Y-75566037D01*
X150257557Y-75559519D01*
X150323740Y-75553000D01*
X150412260Y-75553000D01*
X150478443Y-75559519D01*
X150478443Y-75559519D01*
G37*
G36*
X178365421Y-75335143D02*
G01*
X178497557Y-75375227D01*
X178497559Y-75375228D01*
X178619339Y-75440320D01*
X178726080Y-75527920D01*
X178813680Y-75634661D01*
X178849257Y-75701222D01*
X178878773Y-75756443D01*
X178918857Y-75888579D01*
X178932391Y-76026000D01*
X178918857Y-76163421D01*
X178878773Y-76295557D01*
X178878772Y-76295559D01*
X178813680Y-76417339D01*
X178726080Y-76524080D01*
X178619339Y-76611680D01*
X178583891Y-76630627D01*
X178497557Y-76676773D01*
X178365421Y-76716857D01*
X178262432Y-76727000D01*
X177493568Y-76727000D01*
X177390579Y-76716857D01*
X177258443Y-76676773D01*
X177172109Y-76630627D01*
X177136661Y-76611680D01*
X177029920Y-76524080D01*
X176942320Y-76417339D01*
X176877228Y-76295559D01*
X176877227Y-76295557D01*
X176837143Y-76163421D01*
X176823609Y-76026000D01*
X176837143Y-75888579D01*
X176877227Y-75756443D01*
X176906743Y-75701222D01*
X176942320Y-75634661D01*
X177029920Y-75527920D01*
X177136661Y-75440320D01*
X177258441Y-75375228D01*
X177258443Y-75375227D01*
X177390579Y-75335143D01*
X177493568Y-75325000D01*
X178262432Y-75325000D01*
X178365421Y-75335143D01*
X178365421Y-75335143D01*
G37*
G36*
X156365421Y-75335143D02*
G01*
X156497557Y-75375227D01*
X156497559Y-75375228D01*
X156619339Y-75440320D01*
X156726080Y-75527920D01*
X156813680Y-75634661D01*
X156849257Y-75701222D01*
X156878773Y-75756443D01*
X156918857Y-75888579D01*
X156932391Y-76026000D01*
X156918857Y-76163421D01*
X156878773Y-76295557D01*
X156878772Y-76295559D01*
X156813680Y-76417339D01*
X156726080Y-76524080D01*
X156619339Y-76611680D01*
X156583891Y-76630627D01*
X156497557Y-76676773D01*
X156365421Y-76716857D01*
X156262432Y-76727000D01*
X155493568Y-76727000D01*
X155390579Y-76716857D01*
X155258443Y-76676773D01*
X155172109Y-76630627D01*
X155136661Y-76611680D01*
X155029920Y-76524080D01*
X154942320Y-76417339D01*
X154877228Y-76295559D01*
X154877227Y-76295557D01*
X154837143Y-76163421D01*
X154823609Y-76026000D01*
X154837143Y-75888579D01*
X154877227Y-75756443D01*
X154906743Y-75701222D01*
X154942320Y-75634661D01*
X155029920Y-75527920D01*
X155136661Y-75440320D01*
X155258441Y-75375228D01*
X155258443Y-75375227D01*
X155390579Y-75335143D01*
X155493568Y-75325000D01*
X156262432Y-75325000D01*
X156365421Y-75335143D01*
X156365421Y-75335143D01*
G37*
G36*
X116707256Y-72813298D02*
G01*
X116813579Y-72834447D01*
X117114042Y-72958903D01*
X117384451Y-73139585D01*
X117614415Y-73369549D01*
X117795097Y-73639958D01*
X117898080Y-73888580D01*
X117919553Y-73940422D01*
X117983000Y-74259389D01*
X117983000Y-74584611D01*
X117956694Y-74716857D01*
X117919553Y-74903579D01*
X117795097Y-75204042D01*
X117614415Y-75474451D01*
X117384451Y-75704415D01*
X117114042Y-75885097D01*
X117114041Y-75885098D01*
X117114040Y-75885098D01*
X117026037Y-75921550D01*
X116813579Y-76009553D01*
X116730894Y-76026000D01*
X116494611Y-76073000D01*
X116169389Y-76073000D01*
X115933106Y-76026000D01*
X115850421Y-76009553D01*
X115637963Y-75921550D01*
X115549960Y-75885098D01*
X115549959Y-75885098D01*
X115549958Y-75885097D01*
X115279549Y-75704415D01*
X115049585Y-75474451D01*
X114868903Y-75204042D01*
X114744447Y-74903579D01*
X114707306Y-74716857D01*
X114681000Y-74584611D01*
X114681000Y-74259389D01*
X114744447Y-73940422D01*
X114765921Y-73888580D01*
X114868903Y-73639958D01*
X115049585Y-73369549D01*
X115279549Y-73139585D01*
X115549958Y-72958903D01*
X115850421Y-72834447D01*
X115956744Y-72813298D01*
X116169389Y-72771000D01*
X116494611Y-72771000D01*
X116707256Y-72813298D01*
X116707256Y-72813298D01*
G37*
G36*
X141109000Y-75069000D02*
G01*
X139307000Y-75069000D01*
X139307000Y-73267000D01*
X141109000Y-73267000D01*
X141109000Y-75069000D01*
X141109000Y-75069000D01*
G37*
G36*
X134251000Y-75069000D02*
G01*
X132449000Y-75069000D01*
X132449000Y-73267000D01*
X134251000Y-73267000D01*
X134251000Y-75069000D01*
X134251000Y-75069000D01*
G37*
G36*
X151269000Y-74815000D02*
G01*
X149467000Y-74815000D01*
X149467000Y-73013000D01*
X151269000Y-73013000D01*
X151269000Y-74815000D01*
X151269000Y-74815000D01*
G37*
G36*
X156365421Y-73335143D02*
G01*
X156497557Y-73375227D01*
X156497559Y-73375228D01*
X156619339Y-73440320D01*
X156619341Y-73440321D01*
X156619340Y-73440321D01*
X156726080Y-73527920D01*
X156813679Y-73634660D01*
X156878773Y-73756443D01*
X156918857Y-73888579D01*
X156932391Y-74026000D01*
X156918857Y-74163421D01*
X156878773Y-74295557D01*
X156878772Y-74295559D01*
X156813680Y-74417339D01*
X156726080Y-74524080D01*
X156619339Y-74611680D01*
X156497559Y-74676772D01*
X156497557Y-74676773D01*
X156365421Y-74716857D01*
X156262432Y-74727000D01*
X155493568Y-74727000D01*
X155390579Y-74716857D01*
X155258443Y-74676773D01*
X155258441Y-74676772D01*
X155136661Y-74611680D01*
X155029920Y-74524080D01*
X154942320Y-74417339D01*
X154877228Y-74295559D01*
X154877227Y-74295557D01*
X154837143Y-74163421D01*
X154823609Y-74026000D01*
X154837143Y-73888579D01*
X154877227Y-73756443D01*
X154942321Y-73634660D01*
X155029920Y-73527920D01*
X155136660Y-73440321D01*
X155136659Y-73440321D01*
X155136661Y-73440320D01*
X155258441Y-73375228D01*
X155258443Y-73375227D01*
X155390579Y-73335143D01*
X155493568Y-73325000D01*
X156262432Y-73325000D01*
X156365421Y-73335143D01*
X156365421Y-73335143D01*
G37*
G36*
X178365421Y-73335143D02*
G01*
X178497557Y-73375227D01*
X178497559Y-73375228D01*
X178619339Y-73440320D01*
X178619341Y-73440321D01*
X178619340Y-73440321D01*
X178726080Y-73527920D01*
X178813679Y-73634660D01*
X178878773Y-73756443D01*
X178918857Y-73888579D01*
X178932391Y-74026000D01*
X178918857Y-74163421D01*
X178878773Y-74295557D01*
X178878772Y-74295559D01*
X178813680Y-74417339D01*
X178726080Y-74524080D01*
X178619339Y-74611680D01*
X178497559Y-74676772D01*
X178497557Y-74676773D01*
X178365421Y-74716857D01*
X178262432Y-74727000D01*
X177493568Y-74727000D01*
X177390579Y-74716857D01*
X177258443Y-74676773D01*
X177258441Y-74676772D01*
X177136661Y-74611680D01*
X177029920Y-74524080D01*
X176942320Y-74417339D01*
X176877228Y-74295559D01*
X176877227Y-74295557D01*
X176837143Y-74163421D01*
X176823609Y-74026000D01*
X176837143Y-73888579D01*
X176877227Y-73756443D01*
X176942321Y-73634660D01*
X177029920Y-73527920D01*
X177136660Y-73440321D01*
X177136659Y-73440321D01*
X177136661Y-73440320D01*
X177258441Y-73375228D01*
X177258443Y-73375227D01*
X177390579Y-73335143D01*
X177493568Y-73325000D01*
X178262432Y-73325000D01*
X178365421Y-73335143D01*
X178365421Y-73335143D01*
G37*
G36*
X156365421Y-71335143D02*
G01*
X156497557Y-71375227D01*
X156497559Y-71375228D01*
X156619339Y-71440320D01*
X156619341Y-71440321D01*
X156619340Y-71440321D01*
X156726080Y-71527920D01*
X156813679Y-71634660D01*
X156878773Y-71756443D01*
X156918857Y-71888579D01*
X156932391Y-72026000D01*
X156918857Y-72163421D01*
X156878773Y-72295557D01*
X156878772Y-72295559D01*
X156813680Y-72417339D01*
X156726080Y-72524080D01*
X156619339Y-72611680D01*
X156497559Y-72676772D01*
X156497557Y-72676773D01*
X156365421Y-72716857D01*
X156262432Y-72727000D01*
X155493568Y-72727000D01*
X155390579Y-72716857D01*
X155258443Y-72676773D01*
X155258441Y-72676772D01*
X155136661Y-72611680D01*
X155029920Y-72524080D01*
X154942320Y-72417339D01*
X154877228Y-72295559D01*
X154877227Y-72295557D01*
X154837143Y-72163421D01*
X154823609Y-72026000D01*
X154837143Y-71888579D01*
X154877227Y-71756443D01*
X154942321Y-71634660D01*
X155029920Y-71527920D01*
X155136660Y-71440321D01*
X155136659Y-71440321D01*
X155136661Y-71440320D01*
X155258441Y-71375228D01*
X155258443Y-71375227D01*
X155390579Y-71335143D01*
X155493568Y-71325000D01*
X156262432Y-71325000D01*
X156365421Y-71335143D01*
X156365421Y-71335143D01*
G37*
G36*
X178365421Y-71335143D02*
G01*
X178497557Y-71375227D01*
X178497559Y-71375228D01*
X178619339Y-71440320D01*
X178619341Y-71440321D01*
X178619340Y-71440321D01*
X178726080Y-71527920D01*
X178813679Y-71634660D01*
X178878773Y-71756443D01*
X178918857Y-71888579D01*
X178932391Y-72026000D01*
X178918857Y-72163421D01*
X178878773Y-72295557D01*
X178878772Y-72295559D01*
X178813680Y-72417339D01*
X178726080Y-72524080D01*
X178619339Y-72611680D01*
X178497559Y-72676772D01*
X178497557Y-72676773D01*
X178365421Y-72716857D01*
X178262432Y-72727000D01*
X177493568Y-72727000D01*
X177390579Y-72716857D01*
X177258443Y-72676773D01*
X177258441Y-72676772D01*
X177136661Y-72611680D01*
X177029920Y-72524080D01*
X176942320Y-72417339D01*
X176877228Y-72295559D01*
X176877227Y-72295557D01*
X176837143Y-72163421D01*
X176823609Y-72026000D01*
X176837143Y-71888579D01*
X176877227Y-71756443D01*
X176942321Y-71634660D01*
X177029920Y-71527920D01*
X177136660Y-71440321D01*
X177136659Y-71440321D01*
X177136661Y-71440320D01*
X177258441Y-71375228D01*
X177258443Y-71375227D01*
X177390579Y-71335143D01*
X177493568Y-71325000D01*
X178262432Y-71325000D01*
X178365421Y-71335143D01*
X178365421Y-71335143D01*
G37*
M02*
