M48
; DRILL file {KiCad (5.1.2)-1} date 08/15/19 00:33:53
; FORMAT={-:-/ absolute / inch / decimal}
; #@! TF.CreationDate,2019-08-15T00:33:53+05:30
; #@! TF.GenerationSoftware,Kicad,Pcbnew,(5.1.2)-1
; #@! TF.FileFunction,Plated,1,2,PTH
FMAT,2
INCH
T1C0.0157
T2C0.0217
T3C0.0315
T4C0.0335
T5C0.0394
%
G90
G05
T1
X4.28Y-4.08
X4.28Y-4.12
X4.29Y-3.14
X4.29Y-3.17
X4.29Y-3.5
X4.31Y-3.48
X4.32Y-3.17
X4.32Y-4.08
X4.3417Y-3.7383
X4.37Y-3.21
X4.37Y-3.3513
X4.38Y-2.82
X4.39Y-3.03
X4.4091Y-2.9609
X4.41Y-2.82
X4.42Y-3.92
X4.42Y-3.95
X4.42Y-3.98
X4.43Y-3.89
X4.43Y-4.21
X4.43Y-4.25
X4.43Y-4.29
X4.58Y-3.6
X4.5943Y-4.0857
X4.5943Y-4.1157
X4.61Y-3.98
X4.6232Y-4.2732
X4.625Y-3.955
X4.63Y-4.36
X4.63Y-4.39
X4.63Y-4.42
X4.645Y-3.935
X4.6468Y-4.2732
X4.65Y-3.73
X4.65Y-3.76
X4.65Y-4.11
X4.66Y-3.65
X4.665Y-3.915
X4.67Y-3.58
X4.68Y-3.75
X4.69Y-2.82
X4.7Y-2.97
X4.71Y-3.55
X4.71Y-3.58
X4.72Y-2.82
X4.79Y-3.85
X4.81Y-4.18
X4.81Y-4.2
X4.82Y-4.05
X4.83Y-3.74
X4.83Y-3.94
X4.83Y-4.18
X4.84Y-4.01
X4.8409Y-2.9509
X4.8482Y-3.4718
X4.85Y-3.55
X4.87Y-2.81
X4.88Y-4.72
X4.9Y-2.81
X4.935Y-3.265
X4.94Y-3.62
X4.95Y-3.32
X4.95Y-3.35
X4.95Y-3.43
X4.95Y-3.81
X4.95Y-4.72
X4.95Y-4.8
X4.9594Y-3.6806
X4.9594Y-3.7106
X4.96Y-3.93
X4.96Y-3.93
X4.96Y-4.33
X4.97Y-3.45
X4.97Y-3.5
X4.99Y-4.04
X5.01Y-3.93
X5.03Y-4.02
X5.04Y-3.35
X5.0413Y-3.4413
X5.06Y-3.63
X5.06Y-3.93
X5.07Y-2.92
X5.07Y-3.8
X5.08Y-4.02
X5.1Y-3.94
X5.1Y-4.31
X5.13Y-4.3
X5.14Y-4.35
X5.15Y-3.86
X5.16Y-4.3
X5.18Y-4.32
X5.1832Y-4.4568
X5.2Y-3.34
X5.2Y-4.34
X5.2Y-4.53
X5.22Y-4.25
X5.22Y-4.39
X5.23Y-3.84
X5.24Y-3.74
X5.24Y-3.81
X5.24Y-4.27
X5.25Y-3.42
X5.2527Y-4.4827
X5.26Y-3.9
X5.26Y-4.29
X5.27Y-3.64
X5.27Y-4.17
X5.27Y-4.47
X5.28Y-3.75
X5.28Y-3.79
X5.28Y-3.86
X5.28Y-4.31
X5.29Y-4.19
X5.32Y-3.55
X5.32Y-3.87
X5.32Y-4.72
X5.325Y-3.835
X5.37Y-4.55
X5.3806Y-3.3394
X5.39Y-3.64
X5.39Y-4.72
X5.39Y-4.8
X5.4Y-3.71
X5.41Y-3.93
X5.41Y-4.08
X5.42Y-3.29
X5.42Y-3.67
X5.42Y-4.37
X5.42Y-4.46
X5.43Y-4.43
X5.43Y-4.52
X5.44Y-4.33
X5.45Y-3.29
X5.45Y-4.24
X5.46Y-4.29
X5.47Y-3.67
X5.47Y-4.22
X5.48Y-3.29
X5.5Y-3.42
X5.5Y-4.35
X5.51Y-3.65
X5.51Y-3.67
X5.51Y-4.18
X5.51Y-4.2
X5.51Y-4.31
X5.515Y-4.555
X5.53Y-4.42
X5.55Y-3.67
X5.57Y-3.93
X5.58Y-4.1
X5.58Y-4.56
X5.59Y-3.31
X5.59Y-4.71
X5.6Y-4.27
X5.61Y-3.4
X5.61Y-4.87
X5.62Y-3.69
X5.64Y-3.09
X5.64Y-4.59
X5.65Y-4.61
X5.65Y-4.66
X5.66Y-3.78
X5.67Y-2.83
X5.67Y-4.59
X5.6964Y-3.8764
X5.7Y-3.75
X5.71Y-3.6
X5.72Y-3.79
X5.73Y-3.4
X5.74Y-3.77
X5.7678Y-3.83
X5.77Y-3.67
X5.77Y-3.87
X5.77Y-4.04
X5.7739Y-3.9139
X5.78Y-3.95
X5.78Y-4.64
X5.8Y-4.62
X5.8Y-4.64
X5.82Y-3.42
X5.82Y-3.56
X5.82Y-4.04
X5.8282Y-3.3018
X5.83Y-3.47
X5.84Y-2.84
X5.84Y-3.76
X5.86Y-2.82
X5.86Y-2.84
X5.87Y-3.61
X5.87Y-3.98
X5.87Y-4.02
X5.87Y-4.05
X5.88Y-3.79
X5.9Y-4.1
X5.9Y-4.17
X5.93Y-3.52
X5.9319Y-3.3481
X5.97Y-3.99
X5.9803Y-2.8603
X5.99Y-2.9
X5.99Y-3.89
X5.9939Y-3.9361
X6.01Y-2.87
X6.01Y-3.53
X6.03Y-3.63
X6.06Y-3.67
X6.07Y-3.97
X6.08Y-3.73
X6.09Y-3.85
X6.1Y-3.6023
X6.11Y-3.7
X6.12Y-3.76
X6.14Y-3.7
X6.16Y-3.74
X6.18Y-3.83
X6.21Y-2.93
X6.21Y-3.52
X6.21Y-3.55
X6.21Y-3.78
X6.22Y-2.9
X6.23Y-2.87
X6.23Y-4.31
X6.24Y-3.44
X6.24Y-3.52
X6.24Y-3.55
X6.24Y-3.66
X6.26Y-3.64
X6.3Y-3.21
X6.32Y-3.93
X6.34Y-3.14
X6.36Y-4.66
X6.4Y-3.23
X6.41Y-3.95
X6.43Y-3.27
X6.43Y-3.79
X6.47Y-3.16
X6.49Y-3.14
X6.49Y-3.66
X6.49Y-3.85
X6.5Y-3.63
X6.51Y-3.12
X6.52Y-3.59
X6.53Y-3.1
X6.53Y-3.77
X6.55Y-3.08
X6.55Y-4.07
X6.55Y-4.15
X6.58Y-3.77
X6.61Y-4.07
X6.63Y-4.02
X6.6372Y-3.8328
X6.64Y-3.77
X6.65Y-3.5
X6.6533Y-2.9467
X6.66Y-4.65
X6.68Y-3.76
X6.68Y-4.22
X6.7Y-3.32
X6.72Y-3.3
X6.74Y-3.28
X6.75Y-3.1
X6.75Y-4.04
X6.75Y-4.2
X6.76Y-3.26
X6.77Y-4.78
X6.78Y-3.24
X6.795Y-3.825
X6.8Y-3.02
X6.8Y-4.78
X6.81Y-3.51
X6.815Y-3.805
X6.83Y-3.13
X6.83Y-3.85
X6.85Y-3.83
X6.87Y-3.5
X6.88Y-4.78
X6.91Y-4.78
T2
X4.3417Y-3.55
X4.3417Y-3.85
T3
X6.1369Y-2.8357
X6.1369Y-2.9144
X6.1369Y-2.9931
X6.1369Y-3.0719
X6.1369Y-3.1506
X6.1369Y-3.2294
X6.1369Y-3.3081
X6.1369Y-3.3869
X6.1369Y-3.4656
X6.1369Y-3.5443
X7.0031Y-2.8357
X7.0031Y-2.9144
X7.0031Y-2.9931
X7.0031Y-3.0719
X7.0031Y-3.1506
X7.0031Y-3.2294
X7.0031Y-3.3081
X7.0031Y-3.3869
X7.0031Y-3.4656
X7.0031Y-3.5443
X6.1239Y-4.1163
X6.1239Y-4.195
X6.1239Y-4.2738
X6.1239Y-4.3525
X6.1239Y-4.4313
X6.1239Y-4.51
X6.1239Y-4.5887
X6.1239Y-4.6675
X6.1239Y-4.7462
X6.1239Y-4.825
X6.99Y-4.1163
X6.99Y-4.195
X6.99Y-4.2738
X6.99Y-4.3525
X6.99Y-4.4313
X6.99Y-4.51
X6.99Y-4.5887
X6.99Y-4.6675
X6.99Y-4.7462
X6.99Y-4.825
T4
X4.5Y-3.55
X4.5Y-3.85
T5
X5.52Y-2.92
X5.52Y-3.02
X5.52Y-3.12
X5.52Y-3.22
X5.92Y-2.91
X5.92Y-3.01
X5.92Y-3.11
X5.92Y-3.21
X4.75Y-3.12
X4.75Y-3.22
X4.75Y-3.32
X4.75Y-3.42
X4.51Y-3.11
X4.51Y-3.21
X4.51Y-3.31
X4.51Y-3.41
X4.34Y-4.1816
X4.34Y-4.28
X5.25Y-2.92
X5.25Y-3.02
X5.25Y-3.12
X5.25Y-3.22
T0
M30
