G04 #@! TF.GenerationSoftware,KiCad,Pcbnew,(5.1.2)-1*
G04 #@! TF.CreationDate,2019-08-15T00:33:36+05:30*
G04 #@! TF.ProjectId,SAM21,53414d32-312e-46b6-9963-61645f706362,rev?*
G04 #@! TF.SameCoordinates,Original*
G04 #@! TF.FileFunction,Legend,Top*
G04 #@! TF.FilePolarity,Positive*
%FSLAX46Y46*%
G04 Gerber Fmt 4.6, Leading zero omitted, Abs format (unit mm)*
G04 Created by KiCad (PCBNEW (5.1.2)-1) date 2019-08-15 00:33:36*
%MOMM*%
%LPD*%
G04 APERTURE LIST*
%ADD10C,0.300000*%
%ADD11C,0.150000*%
%ADD12C,0.120000*%
%ADD13C,0.127000*%
%ADD14C,0.050000*%
%ADD15C,0.200000*%
%ADD16C,0.100000*%
G04 APERTURE END LIST*
D10*
X117538571Y-87991142D02*
X118681428Y-87991142D01*
X118110000Y-88562571D02*
X118110000Y-87419714D01*
X117538571Y-78593142D02*
X118681428Y-78593142D01*
X111442571Y-78593142D02*
X112585428Y-78593142D01*
X111442571Y-87737142D02*
X112585428Y-87737142D01*
X112014000Y-88308571D02*
X112014000Y-87165714D01*
D11*
X164663714Y-76668380D02*
X165330380Y-77668380D01*
X165330380Y-76668380D02*
X164663714Y-77668380D01*
X166044666Y-77144571D02*
X166187523Y-77192190D01*
X166235142Y-77239809D01*
X166282761Y-77335047D01*
X166282761Y-77477904D01*
X166235142Y-77573142D01*
X166187523Y-77620761D01*
X166092285Y-77668380D01*
X165711333Y-77668380D01*
X165711333Y-76668380D01*
X166044666Y-76668380D01*
X166139904Y-76716000D01*
X166187523Y-76763619D01*
X166235142Y-76858857D01*
X166235142Y-76954095D01*
X166187523Y-77049333D01*
X166139904Y-77096952D01*
X166044666Y-77144571D01*
X165711333Y-77144571D01*
X166711333Y-77144571D02*
X167044666Y-77144571D01*
X167187523Y-77668380D02*
X166711333Y-77668380D01*
X166711333Y-76668380D01*
X167187523Y-76668380D01*
X167616095Y-77144571D02*
X167949428Y-77144571D01*
X168092285Y-77668380D02*
X167616095Y-77668380D01*
X167616095Y-76668380D01*
X168092285Y-76668380D01*
X168473238Y-76763619D02*
X168520857Y-76716000D01*
X168616095Y-76668380D01*
X168854190Y-76668380D01*
X168949428Y-76716000D01*
X168997047Y-76763619D01*
X169044666Y-76858857D01*
X169044666Y-76954095D01*
X168997047Y-77096952D01*
X168425619Y-77668380D01*
X169044666Y-77668380D01*
D12*
X174498000Y-85344000D02*
X174498000Y-75438000D01*
X159258000Y-75438000D02*
X159258000Y-85344000D01*
X159258000Y-85344000D02*
X174498000Y-85344000D01*
X172974000Y-70104000D02*
X174498000Y-75438000D01*
X161290000Y-70104000D02*
X172974000Y-70104000D01*
X159258000Y-75438000D02*
X161290000Y-70104000D01*
D11*
X167822285Y-117641619D02*
X167155619Y-116641619D01*
X167155619Y-117641619D02*
X167822285Y-116641619D01*
X166441333Y-117165428D02*
X166298476Y-117117809D01*
X166250857Y-117070190D01*
X166203238Y-116974952D01*
X166203238Y-116832095D01*
X166250857Y-116736857D01*
X166298476Y-116689238D01*
X166393714Y-116641619D01*
X166774666Y-116641619D01*
X166774666Y-117641619D01*
X166441333Y-117641619D01*
X166346095Y-117594000D01*
X166298476Y-117546380D01*
X166250857Y-117451142D01*
X166250857Y-117355904D01*
X166298476Y-117260666D01*
X166346095Y-117213047D01*
X166441333Y-117165428D01*
X166774666Y-117165428D01*
X165774666Y-117165428D02*
X165441333Y-117165428D01*
X165298476Y-116641619D02*
X165774666Y-116641619D01*
X165774666Y-117641619D01*
X165298476Y-117641619D01*
X164869904Y-117165428D02*
X164536571Y-117165428D01*
X164393714Y-116641619D02*
X164869904Y-116641619D01*
X164869904Y-117641619D01*
X164393714Y-117641619D01*
X163441333Y-116641619D02*
X164012761Y-116641619D01*
X163727047Y-116641619D02*
X163727047Y-117641619D01*
X163822285Y-117498761D01*
X163917523Y-117403523D01*
X164012761Y-117355904D01*
D12*
X160528000Y-124206000D02*
X159004000Y-118872000D01*
X172466000Y-124206000D02*
X160528000Y-124206000D01*
X174498000Y-118872000D02*
X172466000Y-124206000D01*
X174498000Y-108966000D02*
X174244000Y-108966000D01*
X174498000Y-118872000D02*
X174498000Y-108966000D01*
X159004000Y-108966000D02*
X159004000Y-118872000D01*
X174244000Y-108966000D02*
X159004000Y-108966000D01*
D11*
X172497714Y-93924380D02*
X171926285Y-93924380D01*
X172212000Y-93924380D02*
X172212000Y-92924380D01*
X172116761Y-93067238D01*
X172021523Y-93162476D01*
X171926285Y-93210095D01*
X135342380Y-75152095D02*
X135342380Y-74580666D01*
X136342380Y-74866380D02*
X135342380Y-74866380D01*
X135342380Y-74342571D02*
X136342380Y-73675904D01*
X135342380Y-73675904D02*
X136342380Y-74342571D01*
X135437619Y-73342571D02*
X135390000Y-73294952D01*
X135342380Y-73199714D01*
X135342380Y-72961619D01*
X135390000Y-72866380D01*
X135437619Y-72818761D01*
X135532857Y-72771142D01*
X135628095Y-72771142D01*
X135770952Y-72818761D01*
X136342380Y-73390190D01*
X136342380Y-72771142D01*
X136342380Y-77350857D02*
X135866190Y-77684190D01*
X136342380Y-77922285D02*
X135342380Y-77922285D01*
X135342380Y-77541333D01*
X135390000Y-77446095D01*
X135437619Y-77398476D01*
X135532857Y-77350857D01*
X135675714Y-77350857D01*
X135770952Y-77398476D01*
X135818571Y-77446095D01*
X135866190Y-77541333D01*
X135866190Y-77922285D01*
X135342380Y-77017523D02*
X136342380Y-76350857D01*
X135342380Y-76350857D02*
X136342380Y-77017523D01*
X135437619Y-76017523D02*
X135390000Y-75969904D01*
X135342380Y-75874666D01*
X135342380Y-75636571D01*
X135390000Y-75541333D01*
X135437619Y-75493714D01*
X135532857Y-75446095D01*
X135628095Y-75446095D01*
X135770952Y-75493714D01*
X136342380Y-76065142D01*
X136342380Y-75446095D01*
X136866380Y-74898095D02*
X136866380Y-74326666D01*
X137866380Y-74612380D02*
X136866380Y-74612380D01*
X136866380Y-74088571D02*
X137866380Y-73421904D01*
X136866380Y-73421904D02*
X137866380Y-74088571D01*
X137866380Y-72517142D02*
X137866380Y-73088571D01*
X137866380Y-72802857D02*
X136866380Y-72802857D01*
X137009238Y-72898095D01*
X137104476Y-72993333D01*
X137152095Y-73088571D01*
X137866380Y-77096857D02*
X137390190Y-77430190D01*
X137866380Y-77668285D02*
X136866380Y-77668285D01*
X136866380Y-77287333D01*
X136914000Y-77192095D01*
X136961619Y-77144476D01*
X137056857Y-77096857D01*
X137199714Y-77096857D01*
X137294952Y-77144476D01*
X137342571Y-77192095D01*
X137390190Y-77287333D01*
X137390190Y-77668285D01*
X136866380Y-76763523D02*
X137866380Y-76096857D01*
X136866380Y-76096857D02*
X137866380Y-76763523D01*
X137866380Y-75192095D02*
X137866380Y-75763523D01*
X137866380Y-75477809D02*
X136866380Y-75477809D01*
X137009238Y-75573047D01*
X137104476Y-75668285D01*
X137152095Y-75763523D01*
X112720380Y-81772000D02*
X111720380Y-81772000D01*
X111720380Y-81105333D02*
X111720380Y-80914857D01*
X111768000Y-80819619D01*
X111863238Y-80724380D01*
X112053714Y-80676761D01*
X112387047Y-80676761D01*
X112577523Y-80724380D01*
X112672761Y-80819619D01*
X112720380Y-80914857D01*
X112720380Y-81105333D01*
X112672761Y-81200571D01*
X112577523Y-81295809D01*
X112387047Y-81343428D01*
X112053714Y-81343428D01*
X111863238Y-81295809D01*
X111768000Y-81200571D01*
X111720380Y-81105333D01*
X112053714Y-79819619D02*
X112720380Y-79819619D01*
X111672761Y-80057714D02*
X112387047Y-80295809D01*
X112387047Y-79676761D01*
X112720380Y-85074000D02*
X111720380Y-85074000D01*
X111720380Y-84407333D02*
X111720380Y-84216857D01*
X111768000Y-84121619D01*
X111863238Y-84026380D01*
X112053714Y-83978761D01*
X112387047Y-83978761D01*
X112577523Y-84026380D01*
X112672761Y-84121619D01*
X112720380Y-84216857D01*
X112720380Y-84407333D01*
X112672761Y-84502571D01*
X112577523Y-84597809D01*
X112387047Y-84645428D01*
X112053714Y-84645428D01*
X111863238Y-84597809D01*
X111768000Y-84502571D01*
X111720380Y-84407333D01*
X111720380Y-83645428D02*
X111720380Y-83026380D01*
X112101333Y-83359714D01*
X112101333Y-83216857D01*
X112148952Y-83121619D01*
X112196571Y-83074000D01*
X112291809Y-83026380D01*
X112529904Y-83026380D01*
X112625142Y-83074000D01*
X112672761Y-83121619D01*
X112720380Y-83216857D01*
X112720380Y-83502571D01*
X112672761Y-83597809D01*
X112625142Y-83645428D01*
X118816380Y-85582000D02*
X117816380Y-85582000D01*
X117816380Y-84915333D02*
X117816380Y-84724857D01*
X117864000Y-84629619D01*
X117959238Y-84534380D01*
X118149714Y-84486761D01*
X118483047Y-84486761D01*
X118673523Y-84534380D01*
X118768761Y-84629619D01*
X118816380Y-84724857D01*
X118816380Y-84915333D01*
X118768761Y-85010571D01*
X118673523Y-85105809D01*
X118483047Y-85153428D01*
X118149714Y-85153428D01*
X117959238Y-85105809D01*
X117864000Y-85010571D01*
X117816380Y-84915333D01*
X117816380Y-83582000D02*
X117816380Y-84058190D01*
X118292571Y-84105809D01*
X118244952Y-84058190D01*
X118197333Y-83962952D01*
X118197333Y-83724857D01*
X118244952Y-83629619D01*
X118292571Y-83582000D01*
X118387809Y-83534380D01*
X118625904Y-83534380D01*
X118721142Y-83582000D01*
X118768761Y-83629619D01*
X118816380Y-83724857D01*
X118816380Y-83962952D01*
X118768761Y-84058190D01*
X118721142Y-84105809D01*
X118816380Y-81772000D02*
X117816380Y-81772000D01*
X117816380Y-81105333D02*
X117816380Y-80914857D01*
X117864000Y-80819619D01*
X117959238Y-80724380D01*
X118149714Y-80676761D01*
X118483047Y-80676761D01*
X118673523Y-80724380D01*
X118768761Y-80819619D01*
X118816380Y-80914857D01*
X118816380Y-81105333D01*
X118768761Y-81200571D01*
X118673523Y-81295809D01*
X118483047Y-81343428D01*
X118149714Y-81343428D01*
X117959238Y-81295809D01*
X117864000Y-81200571D01*
X117816380Y-81105333D01*
X117816380Y-79819619D02*
X117816380Y-80010095D01*
X117864000Y-80105333D01*
X117911619Y-80152952D01*
X118054476Y-80248190D01*
X118244952Y-80295809D01*
X118625904Y-80295809D01*
X118721142Y-80248190D01*
X118768761Y-80200571D01*
X118816380Y-80105333D01*
X118816380Y-79914857D01*
X118768761Y-79819619D01*
X118721142Y-79772000D01*
X118625904Y-79724380D01*
X118387809Y-79724380D01*
X118292571Y-79772000D01*
X118244952Y-79819619D01*
X118197333Y-79914857D01*
X118197333Y-80105333D01*
X118244952Y-80200571D01*
X118292571Y-80248190D01*
X118387809Y-80295809D01*
D12*
X158601210Y-71882000D02*
G75*
G03X158601210Y-71882000I-359210J0D01*
G01*
X163711334Y-70876000D02*
X157378000Y-70876000D01*
X163711334Y-71236000D02*
X163711334Y-70876000D01*
X170044666Y-71236000D02*
X163711334Y-71236000D01*
X170044666Y-70876000D02*
X170044666Y-71236000D01*
X176378000Y-70876000D02*
X170044666Y-70876000D01*
X176378000Y-91176000D02*
X176378000Y-70876000D01*
X157378000Y-91176000D02*
X176378000Y-91176000D01*
X157378000Y-70876000D02*
X157378000Y-91176000D01*
X112846000Y-111622000D02*
X112846000Y-109122000D01*
X110346000Y-111622000D02*
X112846000Y-111622000D01*
X111046000Y-104602000D02*
X112546000Y-104602000D01*
X111046000Y-103602000D02*
X111046000Y-104602000D01*
X111046000Y-110322000D02*
X112546000Y-110322000D01*
X111046000Y-111322000D02*
X111046000Y-110322000D01*
X110236000Y-104102000D02*
X110236000Y-103602000D01*
X109026000Y-104102000D02*
X110236000Y-104102000D01*
X109026000Y-110822000D02*
X109026000Y-104102000D01*
X110236000Y-110822000D02*
X109026000Y-110822000D01*
X110236000Y-111322000D02*
X110236000Y-110822000D01*
X108526000Y-103602000D02*
X108526000Y-111322000D01*
X112546000Y-103602000D02*
X108526000Y-103602000D01*
X112546000Y-111322000D02*
X112546000Y-103602000D01*
X108526000Y-111322000D02*
X112546000Y-111322000D01*
D11*
X172360000Y-92770000D02*
X172360000Y-98745000D01*
X165460000Y-94295000D02*
X165460000Y-98745000D01*
D13*
X146546000Y-105616000D02*
X146546000Y-104736000D01*
X145046000Y-105616000D02*
X145046000Y-104736000D01*
X109180000Y-97980000D02*
X107880000Y-97980000D01*
X109130000Y-89980000D02*
X107880000Y-89980000D01*
X112710000Y-97980000D02*
X111380000Y-97980000D01*
X112720000Y-89980000D02*
X111390000Y-89980000D01*
X114480000Y-95690000D02*
X114480000Y-96910000D01*
X114480000Y-91060000D02*
X114480000Y-92210000D01*
D14*
G36*
X149126000Y-95226000D02*
G01*
X149119460Y-95226000D01*
X149106380Y-95225310D01*
X149093360Y-95223950D01*
X149080430Y-95221900D01*
X149067620Y-95219180D01*
X149054970Y-95215790D01*
X149042520Y-95211740D01*
X149030300Y-95207050D01*
X149018340Y-95201720D01*
X149006670Y-95195780D01*
X148995330Y-95189230D01*
X148984350Y-95182100D01*
X148973760Y-95174410D01*
X148963580Y-95166170D01*
X148953850Y-95157410D01*
X148944600Y-95148150D01*
X148935830Y-95138420D01*
X148927590Y-95128240D01*
X148919900Y-95117650D01*
X148912770Y-95106670D01*
X148906220Y-95095330D01*
X148900280Y-95083670D01*
X148894950Y-95071710D01*
X148890260Y-95059480D01*
X148886210Y-95047030D01*
X148882820Y-95034380D01*
X148880100Y-95021580D01*
X148878050Y-95008640D01*
X148876690Y-94995620D01*
X148876000Y-94982550D01*
X148876000Y-94976000D01*
X148876000Y-94969460D01*
X148876690Y-94956380D01*
X148878050Y-94943360D01*
X148880100Y-94930430D01*
X148882820Y-94917620D01*
X148886210Y-94904970D01*
X148890260Y-94892520D01*
X148894950Y-94880300D01*
X148900280Y-94868340D01*
X148906220Y-94856670D01*
X148912770Y-94845330D01*
X148919900Y-94834350D01*
X148927590Y-94823760D01*
X148935830Y-94813580D01*
X148944590Y-94803850D01*
X148953850Y-94794600D01*
X148963580Y-94785830D01*
X148973760Y-94777590D01*
X148984350Y-94769900D01*
X148995330Y-94762770D01*
X149006670Y-94756220D01*
X149018330Y-94750280D01*
X149030290Y-94744950D01*
X149042520Y-94740260D01*
X149054970Y-94736210D01*
X149067620Y-94732820D01*
X149080420Y-94730100D01*
X149093360Y-94728050D01*
X149106380Y-94726690D01*
X149119450Y-94726000D01*
X149126000Y-94726000D01*
X149132540Y-94726000D01*
X149145620Y-94726690D01*
X149158640Y-94728050D01*
X149171570Y-94730100D01*
X149184380Y-94732820D01*
X149197030Y-94736210D01*
X149209480Y-94740260D01*
X149221700Y-94744950D01*
X149233660Y-94750280D01*
X149245330Y-94756220D01*
X149256670Y-94762770D01*
X149267650Y-94769900D01*
X149278240Y-94777590D01*
X149288420Y-94785830D01*
X149298150Y-94794590D01*
X149307400Y-94803850D01*
X149316170Y-94813580D01*
X149324410Y-94823760D01*
X149332100Y-94834350D01*
X149339230Y-94845330D01*
X149345780Y-94856670D01*
X149351720Y-94868330D01*
X149357050Y-94880290D01*
X149361740Y-94892520D01*
X149365790Y-94904970D01*
X149369180Y-94917620D01*
X149371900Y-94930420D01*
X149373950Y-94943360D01*
X149375310Y-94956380D01*
X149376000Y-94969450D01*
X149376000Y-94976000D01*
X149376000Y-94982540D01*
X149375310Y-94995620D01*
X149373950Y-95008640D01*
X149371900Y-95021570D01*
X149369180Y-95034380D01*
X149365790Y-95047030D01*
X149361740Y-95059480D01*
X149357050Y-95071700D01*
X149351720Y-95083660D01*
X149345780Y-95095330D01*
X149339230Y-95106670D01*
X149332100Y-95117650D01*
X149324410Y-95128240D01*
X149316170Y-95138420D01*
X149307410Y-95148150D01*
X149298150Y-95157400D01*
X149288420Y-95166170D01*
X149278240Y-95174410D01*
X149267650Y-95182100D01*
X149256670Y-95189230D01*
X149245330Y-95195780D01*
X149233670Y-95201720D01*
X149221710Y-95207050D01*
X149209480Y-95211740D01*
X149197030Y-95215790D01*
X149184380Y-95219180D01*
X149171580Y-95221900D01*
X149158640Y-95223950D01*
X149145620Y-95225310D01*
X149132550Y-95226000D01*
X149126000Y-95226000D01*
G37*
X149126000Y-95226000D02*
X149119460Y-95226000D01*
X149106380Y-95225310D01*
X149093360Y-95223950D01*
X149080430Y-95221900D01*
X149067620Y-95219180D01*
X149054970Y-95215790D01*
X149042520Y-95211740D01*
X149030300Y-95207050D01*
X149018340Y-95201720D01*
X149006670Y-95195780D01*
X148995330Y-95189230D01*
X148984350Y-95182100D01*
X148973760Y-95174410D01*
X148963580Y-95166170D01*
X148953850Y-95157410D01*
X148944600Y-95148150D01*
X148935830Y-95138420D01*
X148927590Y-95128240D01*
X148919900Y-95117650D01*
X148912770Y-95106670D01*
X148906220Y-95095330D01*
X148900280Y-95083670D01*
X148894950Y-95071710D01*
X148890260Y-95059480D01*
X148886210Y-95047030D01*
X148882820Y-95034380D01*
X148880100Y-95021580D01*
X148878050Y-95008640D01*
X148876690Y-94995620D01*
X148876000Y-94982550D01*
X148876000Y-94976000D01*
X148876000Y-94969460D01*
X148876690Y-94956380D01*
X148878050Y-94943360D01*
X148880100Y-94930430D01*
X148882820Y-94917620D01*
X148886210Y-94904970D01*
X148890260Y-94892520D01*
X148894950Y-94880300D01*
X148900280Y-94868340D01*
X148906220Y-94856670D01*
X148912770Y-94845330D01*
X148919900Y-94834350D01*
X148927590Y-94823760D01*
X148935830Y-94813580D01*
X148944590Y-94803850D01*
X148953850Y-94794600D01*
X148963580Y-94785830D01*
X148973760Y-94777590D01*
X148984350Y-94769900D01*
X148995330Y-94762770D01*
X149006670Y-94756220D01*
X149018330Y-94750280D01*
X149030290Y-94744950D01*
X149042520Y-94740260D01*
X149054970Y-94736210D01*
X149067620Y-94732820D01*
X149080420Y-94730100D01*
X149093360Y-94728050D01*
X149106380Y-94726690D01*
X149119450Y-94726000D01*
X149126000Y-94726000D01*
X149132540Y-94726000D01*
X149145620Y-94726690D01*
X149158640Y-94728050D01*
X149171570Y-94730100D01*
X149184380Y-94732820D01*
X149197030Y-94736210D01*
X149209480Y-94740260D01*
X149221700Y-94744950D01*
X149233660Y-94750280D01*
X149245330Y-94756220D01*
X149256670Y-94762770D01*
X149267650Y-94769900D01*
X149278240Y-94777590D01*
X149288420Y-94785830D01*
X149298150Y-94794590D01*
X149307400Y-94803850D01*
X149316170Y-94813580D01*
X149324410Y-94823760D01*
X149332100Y-94834350D01*
X149339230Y-94845330D01*
X149345780Y-94856670D01*
X149351720Y-94868330D01*
X149357050Y-94880290D01*
X149361740Y-94892520D01*
X149365790Y-94904970D01*
X149369180Y-94917620D01*
X149371900Y-94930420D01*
X149373950Y-94943360D01*
X149375310Y-94956380D01*
X149376000Y-94969450D01*
X149376000Y-94976000D01*
X149376000Y-94982540D01*
X149375310Y-94995620D01*
X149373950Y-95008640D01*
X149371900Y-95021570D01*
X149369180Y-95034380D01*
X149365790Y-95047030D01*
X149361740Y-95059480D01*
X149357050Y-95071700D01*
X149351720Y-95083660D01*
X149345780Y-95095330D01*
X149339230Y-95106670D01*
X149332100Y-95117650D01*
X149324410Y-95128240D01*
X149316170Y-95138420D01*
X149307410Y-95148150D01*
X149298150Y-95157400D01*
X149288420Y-95166170D01*
X149278240Y-95174410D01*
X149267650Y-95182100D01*
X149256670Y-95189230D01*
X149245330Y-95195780D01*
X149233670Y-95201720D01*
X149221710Y-95207050D01*
X149209480Y-95211740D01*
X149197030Y-95215790D01*
X149184380Y-95219180D01*
X149171580Y-95221900D01*
X149158640Y-95223950D01*
X149145620Y-95225310D01*
X149132550Y-95226000D01*
X149126000Y-95226000D01*
X149376000Y-94976000D02*
G75*
G03X149376000Y-94976000I-250000J0D01*
G01*
D15*
X152326000Y-94026000D02*
X149426000Y-94026000D01*
X152326000Y-93426000D02*
X152326000Y-94026000D01*
X149426000Y-93426000D02*
X152326000Y-93426000D01*
X149426000Y-94026000D02*
X149426000Y-93426000D01*
D14*
G36*
X127891000Y-83542000D02*
G01*
X127884460Y-83542000D01*
X127871380Y-83541310D01*
X127858360Y-83539950D01*
X127845430Y-83537900D01*
X127832620Y-83535180D01*
X127819970Y-83531790D01*
X127807520Y-83527740D01*
X127795300Y-83523050D01*
X127783340Y-83517720D01*
X127771670Y-83511780D01*
X127760330Y-83505230D01*
X127749350Y-83498100D01*
X127738760Y-83490410D01*
X127728580Y-83482170D01*
X127718850Y-83473410D01*
X127709600Y-83464150D01*
X127700830Y-83454420D01*
X127692590Y-83444240D01*
X127684900Y-83433650D01*
X127677770Y-83422670D01*
X127671220Y-83411330D01*
X127665280Y-83399670D01*
X127659950Y-83387710D01*
X127655260Y-83375480D01*
X127651210Y-83363030D01*
X127647820Y-83350380D01*
X127645100Y-83337580D01*
X127643050Y-83324640D01*
X127641690Y-83311620D01*
X127641000Y-83298550D01*
X127641000Y-83292000D01*
X127641000Y-83285460D01*
X127641690Y-83272380D01*
X127643050Y-83259360D01*
X127645100Y-83246430D01*
X127647820Y-83233620D01*
X127651210Y-83220970D01*
X127655260Y-83208520D01*
X127659950Y-83196300D01*
X127665280Y-83184340D01*
X127671220Y-83172670D01*
X127677770Y-83161330D01*
X127684900Y-83150350D01*
X127692590Y-83139760D01*
X127700830Y-83129580D01*
X127709590Y-83119850D01*
X127718850Y-83110600D01*
X127728580Y-83101830D01*
X127738760Y-83093590D01*
X127749350Y-83085900D01*
X127760330Y-83078770D01*
X127771670Y-83072220D01*
X127783330Y-83066280D01*
X127795290Y-83060950D01*
X127807520Y-83056260D01*
X127819970Y-83052210D01*
X127832620Y-83048820D01*
X127845420Y-83046100D01*
X127858360Y-83044050D01*
X127871380Y-83042690D01*
X127884450Y-83042000D01*
X127891000Y-83042000D01*
X127897540Y-83042000D01*
X127910620Y-83042690D01*
X127923640Y-83044050D01*
X127936570Y-83046100D01*
X127949380Y-83048820D01*
X127962030Y-83052210D01*
X127974480Y-83056260D01*
X127986700Y-83060950D01*
X127998660Y-83066280D01*
X128010330Y-83072220D01*
X128021670Y-83078770D01*
X128032650Y-83085900D01*
X128043240Y-83093590D01*
X128053420Y-83101830D01*
X128063150Y-83110590D01*
X128072400Y-83119850D01*
X128081170Y-83129580D01*
X128089410Y-83139760D01*
X128097100Y-83150350D01*
X128104230Y-83161330D01*
X128110780Y-83172670D01*
X128116720Y-83184330D01*
X128122050Y-83196290D01*
X128126740Y-83208520D01*
X128130790Y-83220970D01*
X128134180Y-83233620D01*
X128136900Y-83246420D01*
X128138950Y-83259360D01*
X128140310Y-83272380D01*
X128141000Y-83285450D01*
X128141000Y-83292000D01*
X128141000Y-83298540D01*
X128140310Y-83311620D01*
X128138950Y-83324640D01*
X128136900Y-83337570D01*
X128134180Y-83350380D01*
X128130790Y-83363030D01*
X128126740Y-83375480D01*
X128122050Y-83387700D01*
X128116720Y-83399660D01*
X128110780Y-83411330D01*
X128104230Y-83422670D01*
X128097100Y-83433650D01*
X128089410Y-83444240D01*
X128081170Y-83454420D01*
X128072410Y-83464150D01*
X128063150Y-83473400D01*
X128053420Y-83482170D01*
X128043240Y-83490410D01*
X128032650Y-83498100D01*
X128021670Y-83505230D01*
X128010330Y-83511780D01*
X127998670Y-83517720D01*
X127986710Y-83523050D01*
X127974480Y-83527740D01*
X127962030Y-83531790D01*
X127949380Y-83535180D01*
X127936580Y-83537900D01*
X127923640Y-83539950D01*
X127910620Y-83541310D01*
X127897550Y-83542000D01*
X127891000Y-83542000D01*
G37*
X127891000Y-83542000D02*
X127884460Y-83542000D01*
X127871380Y-83541310D01*
X127858360Y-83539950D01*
X127845430Y-83537900D01*
X127832620Y-83535180D01*
X127819970Y-83531790D01*
X127807520Y-83527740D01*
X127795300Y-83523050D01*
X127783340Y-83517720D01*
X127771670Y-83511780D01*
X127760330Y-83505230D01*
X127749350Y-83498100D01*
X127738760Y-83490410D01*
X127728580Y-83482170D01*
X127718850Y-83473410D01*
X127709600Y-83464150D01*
X127700830Y-83454420D01*
X127692590Y-83444240D01*
X127684900Y-83433650D01*
X127677770Y-83422670D01*
X127671220Y-83411330D01*
X127665280Y-83399670D01*
X127659950Y-83387710D01*
X127655260Y-83375480D01*
X127651210Y-83363030D01*
X127647820Y-83350380D01*
X127645100Y-83337580D01*
X127643050Y-83324640D01*
X127641690Y-83311620D01*
X127641000Y-83298550D01*
X127641000Y-83292000D01*
X127641000Y-83285460D01*
X127641690Y-83272380D01*
X127643050Y-83259360D01*
X127645100Y-83246430D01*
X127647820Y-83233620D01*
X127651210Y-83220970D01*
X127655260Y-83208520D01*
X127659950Y-83196300D01*
X127665280Y-83184340D01*
X127671220Y-83172670D01*
X127677770Y-83161330D01*
X127684900Y-83150350D01*
X127692590Y-83139760D01*
X127700830Y-83129580D01*
X127709590Y-83119850D01*
X127718850Y-83110600D01*
X127728580Y-83101830D01*
X127738760Y-83093590D01*
X127749350Y-83085900D01*
X127760330Y-83078770D01*
X127771670Y-83072220D01*
X127783330Y-83066280D01*
X127795290Y-83060950D01*
X127807520Y-83056260D01*
X127819970Y-83052210D01*
X127832620Y-83048820D01*
X127845420Y-83046100D01*
X127858360Y-83044050D01*
X127871380Y-83042690D01*
X127884450Y-83042000D01*
X127891000Y-83042000D01*
X127897540Y-83042000D01*
X127910620Y-83042690D01*
X127923640Y-83044050D01*
X127936570Y-83046100D01*
X127949380Y-83048820D01*
X127962030Y-83052210D01*
X127974480Y-83056260D01*
X127986700Y-83060950D01*
X127998660Y-83066280D01*
X128010330Y-83072220D01*
X128021670Y-83078770D01*
X128032650Y-83085900D01*
X128043240Y-83093590D01*
X128053420Y-83101830D01*
X128063150Y-83110590D01*
X128072400Y-83119850D01*
X128081170Y-83129580D01*
X128089410Y-83139760D01*
X128097100Y-83150350D01*
X128104230Y-83161330D01*
X128110780Y-83172670D01*
X128116720Y-83184330D01*
X128122050Y-83196290D01*
X128126740Y-83208520D01*
X128130790Y-83220970D01*
X128134180Y-83233620D01*
X128136900Y-83246420D01*
X128138950Y-83259360D01*
X128140310Y-83272380D01*
X128141000Y-83285450D01*
X128141000Y-83292000D01*
X128141000Y-83298540D01*
X128140310Y-83311620D01*
X128138950Y-83324640D01*
X128136900Y-83337570D01*
X128134180Y-83350380D01*
X128130790Y-83363030D01*
X128126740Y-83375480D01*
X128122050Y-83387700D01*
X128116720Y-83399660D01*
X128110780Y-83411330D01*
X128104230Y-83422670D01*
X128097100Y-83433650D01*
X128089410Y-83444240D01*
X128081170Y-83454420D01*
X128072410Y-83464150D01*
X128063150Y-83473400D01*
X128053420Y-83482170D01*
X128043240Y-83490410D01*
X128032650Y-83498100D01*
X128021670Y-83505230D01*
X128010330Y-83511780D01*
X127998670Y-83517720D01*
X127986710Y-83523050D01*
X127974480Y-83527740D01*
X127962030Y-83531790D01*
X127949380Y-83535180D01*
X127936580Y-83537900D01*
X127923640Y-83539950D01*
X127910620Y-83541310D01*
X127897550Y-83542000D01*
X127891000Y-83542000D01*
X128141000Y-83292000D02*
G75*
G03X128141000Y-83292000I-250000J0D01*
G01*
D15*
X131091000Y-82342000D02*
X128191000Y-82342000D01*
X131091000Y-81742000D02*
X131091000Y-82342000D01*
X128191000Y-81742000D02*
X131091000Y-81742000D01*
X128191000Y-82342000D02*
X128191000Y-81742000D01*
D14*
G36*
X145947000Y-120932000D02*
G01*
X145947000Y-120925460D01*
X145947690Y-120912380D01*
X145949050Y-120899360D01*
X145951100Y-120886430D01*
X145953820Y-120873620D01*
X145957210Y-120860970D01*
X145961260Y-120848520D01*
X145965950Y-120836300D01*
X145971280Y-120824340D01*
X145977220Y-120812670D01*
X145983770Y-120801330D01*
X145990900Y-120790350D01*
X145998590Y-120779760D01*
X146006830Y-120769580D01*
X146015590Y-120759850D01*
X146024850Y-120750600D01*
X146034580Y-120741830D01*
X146044760Y-120733590D01*
X146055350Y-120725900D01*
X146066330Y-120718770D01*
X146077670Y-120712220D01*
X146089330Y-120706280D01*
X146101290Y-120700950D01*
X146113520Y-120696260D01*
X146125970Y-120692210D01*
X146138620Y-120688820D01*
X146151420Y-120686100D01*
X146164360Y-120684050D01*
X146177380Y-120682690D01*
X146190450Y-120682000D01*
X146197000Y-120682000D01*
X146203540Y-120682000D01*
X146216620Y-120682690D01*
X146229640Y-120684050D01*
X146242570Y-120686100D01*
X146255380Y-120688820D01*
X146268030Y-120692210D01*
X146280480Y-120696260D01*
X146292700Y-120700950D01*
X146304660Y-120706280D01*
X146316330Y-120712220D01*
X146327670Y-120718770D01*
X146338650Y-120725900D01*
X146349240Y-120733590D01*
X146359420Y-120741830D01*
X146369150Y-120750590D01*
X146378400Y-120759850D01*
X146387170Y-120769580D01*
X146395410Y-120779760D01*
X146403100Y-120790350D01*
X146410230Y-120801330D01*
X146416780Y-120812670D01*
X146422720Y-120824330D01*
X146428050Y-120836290D01*
X146432740Y-120848520D01*
X146436790Y-120860970D01*
X146440180Y-120873620D01*
X146442900Y-120886420D01*
X146444950Y-120899360D01*
X146446310Y-120912380D01*
X146447000Y-120925450D01*
X146447000Y-120932000D01*
X146447000Y-120938540D01*
X146446310Y-120951620D01*
X146444950Y-120964640D01*
X146442900Y-120977570D01*
X146440180Y-120990380D01*
X146436790Y-121003030D01*
X146432740Y-121015480D01*
X146428050Y-121027700D01*
X146422720Y-121039660D01*
X146416780Y-121051330D01*
X146410230Y-121062670D01*
X146403100Y-121073650D01*
X146395410Y-121084240D01*
X146387170Y-121094420D01*
X146378410Y-121104150D01*
X146369150Y-121113400D01*
X146359420Y-121122170D01*
X146349240Y-121130410D01*
X146338650Y-121138100D01*
X146327670Y-121145230D01*
X146316330Y-121151780D01*
X146304670Y-121157720D01*
X146292710Y-121163050D01*
X146280480Y-121167740D01*
X146268030Y-121171790D01*
X146255380Y-121175180D01*
X146242580Y-121177900D01*
X146229640Y-121179950D01*
X146216620Y-121181310D01*
X146203550Y-121182000D01*
X146197000Y-121182000D01*
X146190460Y-121182000D01*
X146177380Y-121181310D01*
X146164360Y-121179950D01*
X146151430Y-121177900D01*
X146138620Y-121175180D01*
X146125970Y-121171790D01*
X146113520Y-121167740D01*
X146101300Y-121163050D01*
X146089340Y-121157720D01*
X146077670Y-121151780D01*
X146066330Y-121145230D01*
X146055350Y-121138100D01*
X146044760Y-121130410D01*
X146034580Y-121122170D01*
X146024850Y-121113410D01*
X146015600Y-121104150D01*
X146006830Y-121094420D01*
X145998590Y-121084240D01*
X145990900Y-121073650D01*
X145983770Y-121062670D01*
X145977220Y-121051330D01*
X145971280Y-121039670D01*
X145965950Y-121027710D01*
X145961260Y-121015480D01*
X145957210Y-121003030D01*
X145953820Y-120990380D01*
X145951100Y-120977580D01*
X145949050Y-120964640D01*
X145947690Y-120951620D01*
X145947000Y-120938550D01*
X145947000Y-120932000D01*
G37*
X145947000Y-120932000D02*
X145947000Y-120925460D01*
X145947690Y-120912380D01*
X145949050Y-120899360D01*
X145951100Y-120886430D01*
X145953820Y-120873620D01*
X145957210Y-120860970D01*
X145961260Y-120848520D01*
X145965950Y-120836300D01*
X145971280Y-120824340D01*
X145977220Y-120812670D01*
X145983770Y-120801330D01*
X145990900Y-120790350D01*
X145998590Y-120779760D01*
X146006830Y-120769580D01*
X146015590Y-120759850D01*
X146024850Y-120750600D01*
X146034580Y-120741830D01*
X146044760Y-120733590D01*
X146055350Y-120725900D01*
X146066330Y-120718770D01*
X146077670Y-120712220D01*
X146089330Y-120706280D01*
X146101290Y-120700950D01*
X146113520Y-120696260D01*
X146125970Y-120692210D01*
X146138620Y-120688820D01*
X146151420Y-120686100D01*
X146164360Y-120684050D01*
X146177380Y-120682690D01*
X146190450Y-120682000D01*
X146197000Y-120682000D01*
X146203540Y-120682000D01*
X146216620Y-120682690D01*
X146229640Y-120684050D01*
X146242570Y-120686100D01*
X146255380Y-120688820D01*
X146268030Y-120692210D01*
X146280480Y-120696260D01*
X146292700Y-120700950D01*
X146304660Y-120706280D01*
X146316330Y-120712220D01*
X146327670Y-120718770D01*
X146338650Y-120725900D01*
X146349240Y-120733590D01*
X146359420Y-120741830D01*
X146369150Y-120750590D01*
X146378400Y-120759850D01*
X146387170Y-120769580D01*
X146395410Y-120779760D01*
X146403100Y-120790350D01*
X146410230Y-120801330D01*
X146416780Y-120812670D01*
X146422720Y-120824330D01*
X146428050Y-120836290D01*
X146432740Y-120848520D01*
X146436790Y-120860970D01*
X146440180Y-120873620D01*
X146442900Y-120886420D01*
X146444950Y-120899360D01*
X146446310Y-120912380D01*
X146447000Y-120925450D01*
X146447000Y-120932000D01*
X146447000Y-120938540D01*
X146446310Y-120951620D01*
X146444950Y-120964640D01*
X146442900Y-120977570D01*
X146440180Y-120990380D01*
X146436790Y-121003030D01*
X146432740Y-121015480D01*
X146428050Y-121027700D01*
X146422720Y-121039660D01*
X146416780Y-121051330D01*
X146410230Y-121062670D01*
X146403100Y-121073650D01*
X146395410Y-121084240D01*
X146387170Y-121094420D01*
X146378410Y-121104150D01*
X146369150Y-121113400D01*
X146359420Y-121122170D01*
X146349240Y-121130410D01*
X146338650Y-121138100D01*
X146327670Y-121145230D01*
X146316330Y-121151780D01*
X146304670Y-121157720D01*
X146292710Y-121163050D01*
X146280480Y-121167740D01*
X146268030Y-121171790D01*
X146255380Y-121175180D01*
X146242580Y-121177900D01*
X146229640Y-121179950D01*
X146216620Y-121181310D01*
X146203550Y-121182000D01*
X146197000Y-121182000D01*
X146190460Y-121182000D01*
X146177380Y-121181310D01*
X146164360Y-121179950D01*
X146151430Y-121177900D01*
X146138620Y-121175180D01*
X146125970Y-121171790D01*
X146113520Y-121167740D01*
X146101300Y-121163050D01*
X146089340Y-121157720D01*
X146077670Y-121151780D01*
X146066330Y-121145230D01*
X146055350Y-121138100D01*
X146044760Y-121130410D01*
X146034580Y-121122170D01*
X146024850Y-121113410D01*
X146015600Y-121104150D01*
X146006830Y-121094420D01*
X145998590Y-121084240D01*
X145990900Y-121073650D01*
X145983770Y-121062670D01*
X145977220Y-121051330D01*
X145971280Y-121039670D01*
X145965950Y-121027710D01*
X145961260Y-121015480D01*
X145957210Y-121003030D01*
X145953820Y-120990380D01*
X145951100Y-120977580D01*
X145949050Y-120964640D01*
X145947690Y-120951620D01*
X145947000Y-120938550D01*
X145947000Y-120932000D01*
X146447000Y-120932000D02*
G75*
G03X146447000Y-120932000I-250000J0D01*
G01*
D15*
X147147000Y-124132000D02*
X147147000Y-121232000D01*
X147747000Y-124132000D02*
X147147000Y-124132000D01*
X147747000Y-121232000D02*
X147747000Y-124132000D01*
X147147000Y-121232000D02*
X147747000Y-121232000D01*
D14*
G36*
X142264000Y-86388000D02*
G01*
X142264000Y-86381460D01*
X142264690Y-86368380D01*
X142266050Y-86355360D01*
X142268100Y-86342430D01*
X142270820Y-86329620D01*
X142274210Y-86316970D01*
X142278260Y-86304520D01*
X142282950Y-86292300D01*
X142288280Y-86280340D01*
X142294220Y-86268670D01*
X142300770Y-86257330D01*
X142307900Y-86246350D01*
X142315590Y-86235760D01*
X142323830Y-86225580D01*
X142332590Y-86215850D01*
X142341850Y-86206600D01*
X142351580Y-86197830D01*
X142361760Y-86189590D01*
X142372350Y-86181900D01*
X142383330Y-86174770D01*
X142394670Y-86168220D01*
X142406330Y-86162280D01*
X142418290Y-86156950D01*
X142430520Y-86152260D01*
X142442970Y-86148210D01*
X142455620Y-86144820D01*
X142468420Y-86142100D01*
X142481360Y-86140050D01*
X142494380Y-86138690D01*
X142507450Y-86138000D01*
X142514000Y-86138000D01*
X142520540Y-86138000D01*
X142533620Y-86138690D01*
X142546640Y-86140050D01*
X142559570Y-86142100D01*
X142572380Y-86144820D01*
X142585030Y-86148210D01*
X142597480Y-86152260D01*
X142609700Y-86156950D01*
X142621660Y-86162280D01*
X142633330Y-86168220D01*
X142644670Y-86174770D01*
X142655650Y-86181900D01*
X142666240Y-86189590D01*
X142676420Y-86197830D01*
X142686150Y-86206590D01*
X142695400Y-86215850D01*
X142704170Y-86225580D01*
X142712410Y-86235760D01*
X142720100Y-86246350D01*
X142727230Y-86257330D01*
X142733780Y-86268670D01*
X142739720Y-86280330D01*
X142745050Y-86292290D01*
X142749740Y-86304520D01*
X142753790Y-86316970D01*
X142757180Y-86329620D01*
X142759900Y-86342420D01*
X142761950Y-86355360D01*
X142763310Y-86368380D01*
X142764000Y-86381450D01*
X142764000Y-86388000D01*
X142764000Y-86394540D01*
X142763310Y-86407620D01*
X142761950Y-86420640D01*
X142759900Y-86433570D01*
X142757180Y-86446380D01*
X142753790Y-86459030D01*
X142749740Y-86471480D01*
X142745050Y-86483700D01*
X142739720Y-86495660D01*
X142733780Y-86507330D01*
X142727230Y-86518670D01*
X142720100Y-86529650D01*
X142712410Y-86540240D01*
X142704170Y-86550420D01*
X142695410Y-86560150D01*
X142686150Y-86569400D01*
X142676420Y-86578170D01*
X142666240Y-86586410D01*
X142655650Y-86594100D01*
X142644670Y-86601230D01*
X142633330Y-86607780D01*
X142621670Y-86613720D01*
X142609710Y-86619050D01*
X142597480Y-86623740D01*
X142585030Y-86627790D01*
X142572380Y-86631180D01*
X142559580Y-86633900D01*
X142546640Y-86635950D01*
X142533620Y-86637310D01*
X142520550Y-86638000D01*
X142514000Y-86638000D01*
X142507460Y-86638000D01*
X142494380Y-86637310D01*
X142481360Y-86635950D01*
X142468430Y-86633900D01*
X142455620Y-86631180D01*
X142442970Y-86627790D01*
X142430520Y-86623740D01*
X142418300Y-86619050D01*
X142406340Y-86613720D01*
X142394670Y-86607780D01*
X142383330Y-86601230D01*
X142372350Y-86594100D01*
X142361760Y-86586410D01*
X142351580Y-86578170D01*
X142341850Y-86569410D01*
X142332600Y-86560150D01*
X142323830Y-86550420D01*
X142315590Y-86540240D01*
X142307900Y-86529650D01*
X142300770Y-86518670D01*
X142294220Y-86507330D01*
X142288280Y-86495670D01*
X142282950Y-86483710D01*
X142278260Y-86471480D01*
X142274210Y-86459030D01*
X142270820Y-86446380D01*
X142268100Y-86433580D01*
X142266050Y-86420640D01*
X142264690Y-86407620D01*
X142264000Y-86394550D01*
X142264000Y-86388000D01*
G37*
X142264000Y-86388000D02*
X142264000Y-86381460D01*
X142264690Y-86368380D01*
X142266050Y-86355360D01*
X142268100Y-86342430D01*
X142270820Y-86329620D01*
X142274210Y-86316970D01*
X142278260Y-86304520D01*
X142282950Y-86292300D01*
X142288280Y-86280340D01*
X142294220Y-86268670D01*
X142300770Y-86257330D01*
X142307900Y-86246350D01*
X142315590Y-86235760D01*
X142323830Y-86225580D01*
X142332590Y-86215850D01*
X142341850Y-86206600D01*
X142351580Y-86197830D01*
X142361760Y-86189590D01*
X142372350Y-86181900D01*
X142383330Y-86174770D01*
X142394670Y-86168220D01*
X142406330Y-86162280D01*
X142418290Y-86156950D01*
X142430520Y-86152260D01*
X142442970Y-86148210D01*
X142455620Y-86144820D01*
X142468420Y-86142100D01*
X142481360Y-86140050D01*
X142494380Y-86138690D01*
X142507450Y-86138000D01*
X142514000Y-86138000D01*
X142520540Y-86138000D01*
X142533620Y-86138690D01*
X142546640Y-86140050D01*
X142559570Y-86142100D01*
X142572380Y-86144820D01*
X142585030Y-86148210D01*
X142597480Y-86152260D01*
X142609700Y-86156950D01*
X142621660Y-86162280D01*
X142633330Y-86168220D01*
X142644670Y-86174770D01*
X142655650Y-86181900D01*
X142666240Y-86189590D01*
X142676420Y-86197830D01*
X142686150Y-86206590D01*
X142695400Y-86215850D01*
X142704170Y-86225580D01*
X142712410Y-86235760D01*
X142720100Y-86246350D01*
X142727230Y-86257330D01*
X142733780Y-86268670D01*
X142739720Y-86280330D01*
X142745050Y-86292290D01*
X142749740Y-86304520D01*
X142753790Y-86316970D01*
X142757180Y-86329620D01*
X142759900Y-86342420D01*
X142761950Y-86355360D01*
X142763310Y-86368380D01*
X142764000Y-86381450D01*
X142764000Y-86388000D01*
X142764000Y-86394540D01*
X142763310Y-86407620D01*
X142761950Y-86420640D01*
X142759900Y-86433570D01*
X142757180Y-86446380D01*
X142753790Y-86459030D01*
X142749740Y-86471480D01*
X142745050Y-86483700D01*
X142739720Y-86495660D01*
X142733780Y-86507330D01*
X142727230Y-86518670D01*
X142720100Y-86529650D01*
X142712410Y-86540240D01*
X142704170Y-86550420D01*
X142695410Y-86560150D01*
X142686150Y-86569400D01*
X142676420Y-86578170D01*
X142666240Y-86586410D01*
X142655650Y-86594100D01*
X142644670Y-86601230D01*
X142633330Y-86607780D01*
X142621670Y-86613720D01*
X142609710Y-86619050D01*
X142597480Y-86623740D01*
X142585030Y-86627790D01*
X142572380Y-86631180D01*
X142559580Y-86633900D01*
X142546640Y-86635950D01*
X142533620Y-86637310D01*
X142520550Y-86638000D01*
X142514000Y-86638000D01*
X142507460Y-86638000D01*
X142494380Y-86637310D01*
X142481360Y-86635950D01*
X142468430Y-86633900D01*
X142455620Y-86631180D01*
X142442970Y-86627790D01*
X142430520Y-86623740D01*
X142418300Y-86619050D01*
X142406340Y-86613720D01*
X142394670Y-86607780D01*
X142383330Y-86601230D01*
X142372350Y-86594100D01*
X142361760Y-86586410D01*
X142351580Y-86578170D01*
X142341850Y-86569410D01*
X142332600Y-86560150D01*
X142323830Y-86550420D01*
X142315590Y-86540240D01*
X142307900Y-86529650D01*
X142300770Y-86518670D01*
X142294220Y-86507330D01*
X142288280Y-86495670D01*
X142282950Y-86483710D01*
X142278260Y-86471480D01*
X142274210Y-86459030D01*
X142270820Y-86446380D01*
X142268100Y-86433580D01*
X142266050Y-86420640D01*
X142264690Y-86407620D01*
X142264000Y-86394550D01*
X142264000Y-86388000D01*
X142764000Y-86388000D02*
G75*
G03X142764000Y-86388000I-250000J0D01*
G01*
D15*
X143464000Y-89588000D02*
X143464000Y-86688000D01*
X144064000Y-89588000D02*
X143464000Y-89588000D01*
X144064000Y-86688000D02*
X144064000Y-89588000D01*
X143464000Y-86688000D02*
X144064000Y-86688000D01*
D10*
X143896000Y-104604000D02*
G75*
G03X143896000Y-104604000I-100000J0D01*
G01*
D13*
X142946000Y-98354000D02*
X142546000Y-98354000D01*
X142946000Y-98754000D02*
X142946000Y-98354000D01*
X135946000Y-98354000D02*
X135946000Y-98754000D01*
X136346000Y-98354000D02*
X135946000Y-98354000D01*
X135946000Y-105354000D02*
X135946000Y-104954000D01*
X136346000Y-105354000D02*
X135946000Y-105354000D01*
X142946000Y-105354000D02*
X142946000Y-104954000D01*
X142546000Y-105354000D02*
X142946000Y-105354000D01*
D12*
X123431000Y-114250000D02*
X123431000Y-114315000D01*
X119901000Y-114250000D02*
X119901000Y-114315000D01*
X123431000Y-107845000D02*
X123431000Y-107910000D01*
X119901000Y-107845000D02*
X119901000Y-107910000D01*
X118576000Y-107910000D02*
X119901000Y-107910000D01*
X119901000Y-114315000D02*
X123431000Y-114315000D01*
X119901000Y-107845000D02*
X123431000Y-107845000D01*
X138954000Y-123522000D02*
X138954000Y-123972000D01*
X132654000Y-123972000D02*
X132654000Y-123522000D01*
X138954000Y-123972000D02*
X132654000Y-123972000D01*
X132654000Y-122222000D02*
X132654000Y-119522000D01*
X138954000Y-119522000D02*
X138954000Y-122222000D01*
X132654000Y-117772000D02*
X132654000Y-118172000D01*
X138954000Y-117772000D02*
X132654000Y-117772000D01*
X138954000Y-118222000D02*
X138954000Y-117772000D01*
X121732000Y-118222000D02*
X121732000Y-117772000D01*
X128032000Y-117772000D02*
X128032000Y-118222000D01*
X121732000Y-117772000D02*
X128032000Y-117772000D01*
X128032000Y-119522000D02*
X128032000Y-122222000D01*
X121732000Y-122222000D02*
X121732000Y-119522000D01*
X128032000Y-123972000D02*
X128032000Y-123572000D01*
X121732000Y-123972000D02*
X128032000Y-123972000D01*
X121732000Y-123522000D02*
X121732000Y-123972000D01*
D13*
X130368000Y-95658000D02*
G75*
G03X130368000Y-95658000I-200000J0D01*
G01*
X130568000Y-95658000D02*
X130568000Y-93658000D01*
X132568000Y-95658000D02*
X130568000Y-95658000D01*
X132568000Y-93658000D02*
X132568000Y-95658000D01*
X130568000Y-93658000D02*
X132568000Y-93658000D01*
D12*
X175541210Y-122698000D02*
G75*
G03X175541210Y-122698000I-359210J0D01*
G01*
X169712666Y-123704000D02*
X176046000Y-123704000D01*
X169712666Y-123344000D02*
X169712666Y-123704000D01*
X163379334Y-123344000D02*
X169712666Y-123344000D01*
X163379334Y-123704000D02*
X163379334Y-123344000D01*
X157046000Y-123704000D02*
X163379334Y-123704000D01*
X157046000Y-103404000D02*
X157046000Y-123704000D01*
X176046000Y-103404000D02*
X157046000Y-103404000D01*
X176046000Y-123704000D02*
X176046000Y-103404000D01*
X124760000Y-97474000D02*
X124160000Y-97474000D01*
X123760000Y-96074000D02*
X123760000Y-96074000D01*
X124960000Y-96074000D02*
X123760000Y-96074000D01*
X113350000Y-98938000D02*
X119360000Y-98938000D01*
X115600000Y-105758000D02*
X119360000Y-105758000D01*
X119360000Y-98938000D02*
X119360000Y-100198000D01*
X119360000Y-105758000D02*
X119360000Y-104498000D01*
X131120000Y-87648000D02*
X131120000Y-89108000D01*
X127960000Y-87648000D02*
X127960000Y-89808000D01*
X127960000Y-87648000D02*
X128890000Y-87648000D01*
X131120000Y-87648000D02*
X130190000Y-87648000D01*
X138412000Y-89276000D02*
X136952000Y-89276000D01*
X138412000Y-86116000D02*
X136252000Y-86116000D01*
X138412000Y-86116000D02*
X138412000Y-87046000D01*
X138412000Y-89276000D02*
X138412000Y-88346000D01*
X152898000Y-86632000D02*
X152898000Y-88092000D01*
X149738000Y-86632000D02*
X149738000Y-88792000D01*
X149738000Y-86632000D02*
X150668000Y-86632000D01*
X152898000Y-86632000D02*
X151968000Y-86632000D01*
X146090000Y-83060000D02*
X146090000Y-84520000D01*
X142930000Y-83060000D02*
X142930000Y-85220000D01*
X142930000Y-83060000D02*
X143860000Y-83060000D01*
X146090000Y-83060000D02*
X145160000Y-83060000D01*
X171572000Y-102634000D02*
X171572000Y-104094000D01*
X168412000Y-102634000D02*
X168412000Y-104794000D01*
X168412000Y-102634000D02*
X169342000Y-102634000D01*
X171572000Y-102634000D02*
X170642000Y-102634000D01*
X176675000Y-93477000D02*
X178135000Y-93477000D01*
X176675000Y-96637000D02*
X178835000Y-96637000D01*
X176675000Y-96637000D02*
X176675000Y-95707000D01*
X176675000Y-93477000D02*
X176675000Y-94407000D01*
X148592000Y-97673279D02*
X148592000Y-97347721D01*
X147572000Y-97673279D02*
X147572000Y-97347721D01*
X120650000Y-88198000D02*
X119320000Y-88198000D01*
X119320000Y-88198000D02*
X119320000Y-86868000D01*
X119320000Y-85598000D02*
X119320000Y-77918000D01*
X121980000Y-77918000D02*
X119320000Y-77918000D01*
X121980000Y-85598000D02*
X121980000Y-77918000D01*
X121980000Y-85598000D02*
X119320000Y-85598000D01*
X140208000Y-72838000D02*
X141538000Y-72838000D01*
X141538000Y-72838000D02*
X141538000Y-74168000D01*
X141538000Y-75438000D02*
X141538000Y-83118000D01*
X138878000Y-83118000D02*
X141538000Y-83118000D01*
X138878000Y-75438000D02*
X138878000Y-83118000D01*
X138878000Y-75438000D02*
X141538000Y-75438000D01*
X133350000Y-72838000D02*
X134680000Y-72838000D01*
X134680000Y-72838000D02*
X134680000Y-74168000D01*
X134680000Y-75438000D02*
X134680000Y-83118000D01*
X132020000Y-83118000D02*
X134680000Y-83118000D01*
X132020000Y-75438000D02*
X132020000Y-83118000D01*
X132020000Y-75438000D02*
X134680000Y-75438000D01*
X150368000Y-72584000D02*
X151698000Y-72584000D01*
X151698000Y-72584000D02*
X151698000Y-73914000D01*
X151698000Y-75184000D02*
X151698000Y-82864000D01*
X149038000Y-82864000D02*
X151698000Y-82864000D01*
X149038000Y-75184000D02*
X149038000Y-82864000D01*
X149038000Y-75184000D02*
X151698000Y-75184000D01*
X114554000Y-87944000D02*
X113224000Y-87944000D01*
X113224000Y-87944000D02*
X113224000Y-86614000D01*
X113224000Y-85344000D02*
X113224000Y-77664000D01*
X115884000Y-77664000D02*
X113224000Y-77664000D01*
X115884000Y-85344000D02*
X115884000Y-77664000D01*
X115884000Y-85344000D02*
X113224000Y-85344000D01*
X113464078Y-114098000D02*
X112946922Y-114098000D01*
X113464078Y-115518000D02*
X112946922Y-115518000D01*
X109526000Y-100071422D02*
X109526000Y-100588578D01*
X110946000Y-100071422D02*
X110946000Y-100588578D01*
X146968000Y-71992000D02*
X145558000Y-71992000D01*
X145558000Y-74312000D02*
X147588000Y-74312000D01*
X145558000Y-74312000D02*
X145558000Y-73652000D01*
X145558000Y-72652000D02*
X145558000Y-71992000D01*
X146714000Y-76056000D02*
X145304000Y-76056000D01*
X145304000Y-78376000D02*
X147334000Y-78376000D01*
X145304000Y-78376000D02*
X145304000Y-77716000D01*
X145304000Y-76716000D02*
X145304000Y-76056000D01*
X126844000Y-73804000D02*
X128254000Y-73804000D01*
X128254000Y-71484000D02*
X126224000Y-71484000D01*
X128254000Y-71484000D02*
X128254000Y-72144000D01*
X128254000Y-73144000D02*
X128254000Y-73804000D01*
X126828000Y-77868000D02*
X128238000Y-77868000D01*
X128238000Y-75548000D02*
X126208000Y-75548000D01*
X128238000Y-75548000D02*
X128238000Y-76208000D01*
X128238000Y-77208000D02*
X128238000Y-77868000D01*
D16*
X136702000Y-82855000D02*
G75*
G03X136702000Y-82855000I-50000J0D01*
G01*
X152704000Y-74371000D02*
G75*
G03X152704000Y-74371000I-50000J0D01*
G01*
D12*
X172830000Y-110318000D02*
X172830000Y-111728000D01*
X175150000Y-111728000D02*
X175150000Y-109698000D01*
X175150000Y-111728000D02*
X174490000Y-111728000D01*
X173490000Y-111728000D02*
X172830000Y-111728000D01*
X159910000Y-84484000D02*
X159910000Y-83074000D01*
X157590000Y-83074000D02*
X157590000Y-85104000D01*
X157590000Y-83074000D02*
X158250000Y-83074000D01*
X159250000Y-83074000D02*
X159910000Y-83074000D01*
X108314000Y-71980000D02*
X108314000Y-73390000D01*
X110634000Y-73390000D02*
X110634000Y-71360000D01*
X110634000Y-73390000D02*
X109974000Y-73390000D01*
X108974000Y-73390000D02*
X108314000Y-73390000D01*
X111142000Y-86262000D02*
X111142000Y-84852000D01*
X108822000Y-84852000D02*
X108822000Y-86882000D01*
X108822000Y-84852000D02*
X109482000Y-84852000D01*
X110482000Y-84852000D02*
X111142000Y-84852000D01*
X122538000Y-79600000D02*
X122538000Y-81010000D01*
X124858000Y-81010000D02*
X124858000Y-78980000D01*
X124858000Y-81010000D02*
X124198000Y-81010000D01*
X123198000Y-81010000D02*
X122538000Y-81010000D01*
X120760000Y-71710000D02*
X120760000Y-73120000D01*
X123080000Y-73120000D02*
X123080000Y-71090000D01*
X123080000Y-73120000D02*
X122420000Y-73120000D01*
X121420000Y-73120000D02*
X120760000Y-73120000D01*
D16*
X149351000Y-71628000D02*
G75*
G03X149351000Y-71628000I-50000J0D01*
G01*
X153466000Y-117505000D02*
G75*
G03X153466000Y-117505000I-50000J0D01*
G01*
D12*
X132172000Y-105410000D02*
X132172000Y-107260000D01*
X130972000Y-105410000D02*
X130972000Y-107260000D01*
X130972000Y-107260000D02*
X132172000Y-107260000D01*
X114170000Y-112176000D02*
X116020000Y-112176000D01*
X114170000Y-113376000D02*
X116020000Y-113376000D01*
X116020000Y-113376000D02*
X116020000Y-112176000D01*
X111086000Y-112072000D02*
X111086000Y-114622000D01*
X109386000Y-112072000D02*
X109386000Y-114622000D01*
X111086000Y-112072000D02*
X109386000Y-112072000D01*
D16*
X132308000Y-112776000D02*
G75*
G03X132308000Y-112776000I-50000J0D01*
G01*
X130022000Y-112776000D02*
G75*
G03X130022000Y-112776000I-50000J0D01*
G01*
D12*
X161850000Y-72560922D02*
X161850000Y-73078078D01*
X163270000Y-72560922D02*
X163270000Y-73078078D01*
X158802000Y-72560922D02*
X158802000Y-73078078D01*
X160222000Y-72560922D02*
X160222000Y-73078078D01*
X167842000Y-121495078D02*
X167842000Y-120977922D01*
X166422000Y-121495078D02*
X166422000Y-120977922D01*
X171144000Y-121670578D02*
X171144000Y-121153422D01*
X169724000Y-121670578D02*
X169724000Y-121153422D01*
X124766000Y-104564922D02*
X124766000Y-105082078D01*
X126186000Y-104564922D02*
X126186000Y-105082078D01*
D11*
X165432095Y-85812380D02*
X165432095Y-86621904D01*
X165479714Y-86717142D01*
X165527333Y-86764761D01*
X165622571Y-86812380D01*
X165813047Y-86812380D01*
X165908285Y-86764761D01*
X165955904Y-86717142D01*
X166003523Y-86621904D01*
X166003523Y-85812380D01*
X166384476Y-85812380D02*
X167051142Y-85812380D01*
X166622571Y-86812380D01*
X110156666Y-102068380D02*
X110156666Y-102782666D01*
X110109047Y-102925523D01*
X110013809Y-103020761D01*
X109870952Y-103068380D01*
X109775714Y-103068380D01*
X110537619Y-102068380D02*
X111156666Y-102068380D01*
X110823333Y-102449333D01*
X110966190Y-102449333D01*
X111061428Y-102496952D01*
X111109047Y-102544571D01*
X111156666Y-102639809D01*
X111156666Y-102877904D01*
X111109047Y-102973142D01*
X111061428Y-103020761D01*
X110966190Y-103068380D01*
X110680476Y-103068380D01*
X110585238Y-103020761D01*
X110537619Y-102973142D01*
X164298380Y-97281904D02*
X165107904Y-97281904D01*
X165203142Y-97234285D01*
X165250761Y-97186666D01*
X165298380Y-97091428D01*
X165298380Y-96900952D01*
X165250761Y-96805714D01*
X165203142Y-96758095D01*
X165107904Y-96710476D01*
X164298380Y-96710476D01*
X164631714Y-95805714D02*
X165298380Y-95805714D01*
X164250761Y-96043809D02*
X164965047Y-96281904D01*
X164965047Y-95662857D01*
D14*
X144078467Y-106144384D02*
X144266510Y-106144384D01*
X143871621Y-106276014D02*
X144078467Y-106144384D01*
X143871621Y-106012754D01*
X144266510Y-105674278D02*
X144266510Y-105899929D01*
X144266510Y-105787103D02*
X143871621Y-105787103D01*
X143928033Y-105824712D01*
X143965642Y-105862320D01*
X143984446Y-105899929D01*
X147246230Y-107179721D02*
X147246230Y-106935525D01*
X147396504Y-107067015D01*
X147396504Y-107010662D01*
X147415289Y-106973094D01*
X147434073Y-106954309D01*
X147471642Y-106935525D01*
X147565563Y-106935525D01*
X147603132Y-106954309D01*
X147621916Y-106973094D01*
X147640701Y-107010662D01*
X147640701Y-107123368D01*
X147621916Y-107160937D01*
X147603132Y-107179721D01*
X147283798Y-106785250D02*
X147265014Y-106766466D01*
X147246230Y-106728897D01*
X147246230Y-106634976D01*
X147265014Y-106597407D01*
X147283798Y-106578623D01*
X147321367Y-106559838D01*
X147358936Y-106559838D01*
X147415289Y-106578623D01*
X147640701Y-106804035D01*
X147640701Y-106559838D01*
X147603132Y-106390779D02*
X147621916Y-106371995D01*
X147640701Y-106390779D01*
X147621916Y-106409564D01*
X147603132Y-106390779D01*
X147640701Y-106390779D01*
X147246230Y-106240505D02*
X147246230Y-105977524D01*
X147640701Y-106146583D01*
X147246230Y-105658190D02*
X147246230Y-105733328D01*
X147265014Y-105770896D01*
X147283798Y-105789681D01*
X147340151Y-105827249D01*
X147415289Y-105846034D01*
X147565563Y-105846034D01*
X147603132Y-105827249D01*
X147621916Y-105808465D01*
X147640701Y-105770896D01*
X147640701Y-105695759D01*
X147621916Y-105658190D01*
X147603132Y-105639406D01*
X147565563Y-105620622D01*
X147471642Y-105620622D01*
X147434073Y-105639406D01*
X147415289Y-105658190D01*
X147396504Y-105695759D01*
X147396504Y-105770896D01*
X147415289Y-105808465D01*
X147434073Y-105827249D01*
X147471642Y-105846034D01*
X147415289Y-105395210D02*
X147396504Y-105432778D01*
X147377720Y-105451563D01*
X147340151Y-105470347D01*
X147321367Y-105470347D01*
X147283798Y-105451563D01*
X147265014Y-105432778D01*
X147246230Y-105395210D01*
X147246230Y-105320072D01*
X147265014Y-105282504D01*
X147283798Y-105263719D01*
X147321367Y-105244935D01*
X147340151Y-105244935D01*
X147377720Y-105263719D01*
X147396504Y-105282504D01*
X147415289Y-105320072D01*
X147415289Y-105395210D01*
X147434073Y-105432778D01*
X147452857Y-105451563D01*
X147490426Y-105470347D01*
X147565563Y-105470347D01*
X147603132Y-105451563D01*
X147621916Y-105432778D01*
X147640701Y-105395210D01*
X147640701Y-105320072D01*
X147621916Y-105282504D01*
X147603132Y-105263719D01*
X147565563Y-105244935D01*
X147490426Y-105244935D01*
X147452857Y-105263719D01*
X147434073Y-105282504D01*
X147415289Y-105320072D01*
X147640701Y-105075876D02*
X147246230Y-105075876D01*
X147490426Y-105038307D02*
X147640701Y-104925601D01*
X147377720Y-104925601D02*
X147527995Y-105075876D01*
X147640701Y-104756542D02*
X147246230Y-104756542D01*
X147434073Y-104756542D02*
X147434073Y-104531130D01*
X147640701Y-104531130D02*
X147246230Y-104531130D01*
X147377720Y-104380856D02*
X147377720Y-104174228D01*
X147640701Y-104380856D01*
X147640701Y-104174228D01*
D11*
X108418380Y-88979333D02*
X109132666Y-88979333D01*
X109275523Y-89026952D01*
X109370761Y-89122190D01*
X109418380Y-89265047D01*
X109418380Y-89360285D01*
X109418380Y-87979333D02*
X109418380Y-88550761D01*
X109418380Y-88265047D02*
X108418380Y-88265047D01*
X108561238Y-88360285D01*
X108656476Y-88455523D01*
X108704095Y-88550761D01*
D14*
X108164380Y-99151019D02*
X108164380Y-99341495D01*
X108212000Y-99436733D01*
X108259619Y-99484352D01*
X108402476Y-99579590D01*
X108592952Y-99627209D01*
X108973904Y-99627209D01*
X109069142Y-99579590D01*
X109116761Y-99531971D01*
X109164380Y-99436733D01*
X109164380Y-99246257D01*
X109116761Y-99151019D01*
X109069142Y-99103400D01*
X108973904Y-99055780D01*
X108735809Y-99055780D01*
X108640571Y-99103400D01*
X108592952Y-99151019D01*
X108545333Y-99246257D01*
X108545333Y-99436733D01*
X108592952Y-99531971D01*
X108640571Y-99579590D01*
X108735809Y-99627209D01*
X108259619Y-98674828D02*
X108212000Y-98627209D01*
X108164380Y-98531971D01*
X108164380Y-98293876D01*
X108212000Y-98198638D01*
X108259619Y-98151019D01*
X108354857Y-98103400D01*
X108450095Y-98103400D01*
X108592952Y-98151019D01*
X109164380Y-98722447D01*
X109164380Y-98103400D01*
X109164380Y-97627209D02*
X109164380Y-97436733D01*
X109116761Y-97341495D01*
X109069142Y-97293876D01*
X108926285Y-97198638D01*
X108735809Y-97151019D01*
X108354857Y-97151019D01*
X108259619Y-97198638D01*
X108212000Y-97246257D01*
X108164380Y-97341495D01*
X108164380Y-97531971D01*
X108212000Y-97627209D01*
X108259619Y-97674828D01*
X108354857Y-97722447D01*
X108592952Y-97722447D01*
X108688190Y-97674828D01*
X108735809Y-97627209D01*
X108783428Y-97531971D01*
X108783428Y-97341495D01*
X108735809Y-97246257D01*
X108688190Y-97198638D01*
X108592952Y-97151019D01*
X109164380Y-96198638D02*
X109164380Y-96770066D01*
X109164380Y-96484352D02*
X108164380Y-96484352D01*
X108307238Y-96579590D01*
X108402476Y-96674828D01*
X108450095Y-96770066D01*
X108164380Y-95579590D02*
X108164380Y-95484352D01*
X108212000Y-95389114D01*
X108259619Y-95341495D01*
X108354857Y-95293876D01*
X108545333Y-95246257D01*
X108783428Y-95246257D01*
X108973904Y-95293876D01*
X109069142Y-95341495D01*
X109116761Y-95389114D01*
X109164380Y-95484352D01*
X109164380Y-95579590D01*
X109116761Y-95674828D01*
X109069142Y-95722447D01*
X108973904Y-95770066D01*
X108783428Y-95817685D01*
X108545333Y-95817685D01*
X108354857Y-95770066D01*
X108259619Y-95722447D01*
X108212000Y-95674828D01*
X108164380Y-95579590D01*
X108164380Y-94341495D02*
X108164380Y-94817685D01*
X108640571Y-94865304D01*
X108592952Y-94817685D01*
X108545333Y-94722447D01*
X108545333Y-94484352D01*
X108592952Y-94389114D01*
X108640571Y-94341495D01*
X108735809Y-94293876D01*
X108973904Y-94293876D01*
X109069142Y-94341495D01*
X109116761Y-94389114D01*
X109164380Y-94484352D01*
X109164380Y-94722447D01*
X109116761Y-94817685D01*
X109069142Y-94865304D01*
X109164380Y-93341495D02*
X109164380Y-93912923D01*
X109164380Y-93627209D02*
X108164380Y-93627209D01*
X108307238Y-93722447D01*
X108402476Y-93817685D01*
X108450095Y-93912923D01*
X108164380Y-92436733D02*
X108164380Y-92912923D01*
X108640571Y-92960542D01*
X108592952Y-92912923D01*
X108545333Y-92817685D01*
X108545333Y-92579590D01*
X108592952Y-92484352D01*
X108640571Y-92436733D01*
X108735809Y-92389114D01*
X108973904Y-92389114D01*
X109069142Y-92436733D01*
X109116761Y-92484352D01*
X109164380Y-92579590D01*
X109164380Y-92817685D01*
X109116761Y-92912923D01*
X109069142Y-92960542D01*
X108164380Y-91770066D02*
X108164380Y-91674828D01*
X108212000Y-91579590D01*
X108259619Y-91531971D01*
X108354857Y-91484352D01*
X108545333Y-91436733D01*
X108783428Y-91436733D01*
X108973904Y-91484352D01*
X109069142Y-91531971D01*
X109116761Y-91579590D01*
X109164380Y-91674828D01*
X109164380Y-91770066D01*
X109116761Y-91865304D01*
X109069142Y-91912923D01*
X108973904Y-91960542D01*
X108783428Y-92008161D01*
X108545333Y-92008161D01*
X108354857Y-91960542D01*
X108259619Y-91912923D01*
X108212000Y-91865304D01*
X108164380Y-91770066D01*
X108164380Y-90531971D02*
X108164380Y-91008161D01*
X108640571Y-91055780D01*
X108592952Y-91008161D01*
X108545333Y-90912923D01*
X108545333Y-90674828D01*
X108592952Y-90579590D01*
X108640571Y-90531971D01*
X108735809Y-90484352D01*
X108973904Y-90484352D01*
X109069142Y-90531971D01*
X109116761Y-90579590D01*
X109164380Y-90674828D01*
X109164380Y-90912923D01*
X109116761Y-91008161D01*
X109069142Y-91055780D01*
X108259619Y-90103400D02*
X108212000Y-90055780D01*
X108164380Y-89960542D01*
X108164380Y-89722447D01*
X108212000Y-89627209D01*
X108259619Y-89579590D01*
X108354857Y-89531971D01*
X108450095Y-89531971D01*
X108592952Y-89579590D01*
X109164380Y-90151019D01*
X109164380Y-89531971D01*
X109164380Y-88579590D02*
X109164380Y-89151019D01*
X109164380Y-88865304D02*
X108164380Y-88865304D01*
X108307238Y-88960542D01*
X108402476Y-89055780D01*
X108450095Y-89151019D01*
D11*
X152709714Y-93416380D02*
X152709714Y-92416380D01*
X152947809Y-92416380D01*
X153090666Y-92464000D01*
X153185904Y-92559238D01*
X153233523Y-92654476D01*
X153281142Y-92844952D01*
X153281142Y-92987809D01*
X153233523Y-93178285D01*
X153185904Y-93273523D01*
X153090666Y-93368761D01*
X152947809Y-93416380D01*
X152709714Y-93416380D01*
X153662095Y-92511619D02*
X153709714Y-92464000D01*
X153804952Y-92416380D01*
X154043047Y-92416380D01*
X154138285Y-92464000D01*
X154185904Y-92511619D01*
X154233523Y-92606857D01*
X154233523Y-92702095D01*
X154185904Y-92844952D01*
X153614476Y-93416380D01*
X154233523Y-93416380D01*
X155185904Y-93416380D02*
X154614476Y-93416380D01*
X154900190Y-93416380D02*
X154900190Y-92416380D01*
X154804952Y-92559238D01*
X154709714Y-92654476D01*
X154614476Y-92702095D01*
D14*
X148788380Y-97111714D02*
X147788380Y-97111714D01*
X147788380Y-96897428D01*
X147836000Y-96768857D01*
X147931238Y-96683142D01*
X148026476Y-96640285D01*
X148216952Y-96597428D01*
X148359809Y-96597428D01*
X148550285Y-96640285D01*
X148645523Y-96683142D01*
X148740761Y-96768857D01*
X148788380Y-96897428D01*
X148788380Y-97111714D01*
X148788380Y-96211714D02*
X147788380Y-96211714D01*
X148502666Y-95911714D01*
X147788380Y-95611714D01*
X148788380Y-95611714D01*
X148788380Y-95183142D02*
X147788380Y-95183142D01*
X147788380Y-94840285D01*
X147836000Y-94754571D01*
X147883619Y-94711714D01*
X147978857Y-94668857D01*
X148121714Y-94668857D01*
X148216952Y-94711714D01*
X148264571Y-94754571D01*
X148312190Y-94840285D01*
X148312190Y-95183142D01*
X148788380Y-93811714D02*
X148788380Y-94326000D01*
X148788380Y-94068857D02*
X147788380Y-94068857D01*
X147931238Y-94154571D01*
X148026476Y-94240285D01*
X148074095Y-94326000D01*
X147788380Y-93254571D02*
X147788380Y-93168857D01*
X147836000Y-93083142D01*
X147883619Y-93040285D01*
X147978857Y-92997428D01*
X148169333Y-92954571D01*
X148407428Y-92954571D01*
X148597904Y-92997428D01*
X148693142Y-93040285D01*
X148740761Y-93083142D01*
X148788380Y-93168857D01*
X148788380Y-93254571D01*
X148740761Y-93340285D01*
X148693142Y-93383142D01*
X148597904Y-93426000D01*
X148407428Y-93468857D01*
X148169333Y-93468857D01*
X147978857Y-93426000D01*
X147883619Y-93383142D01*
X147836000Y-93340285D01*
X147788380Y-93254571D01*
X148121714Y-92183142D02*
X148788380Y-92183142D01*
X147740761Y-92397428D02*
X148455047Y-92611714D01*
X148455047Y-92054571D01*
X147788380Y-91283142D02*
X147788380Y-91711714D01*
X148264571Y-91754571D01*
X148216952Y-91711714D01*
X148169333Y-91626000D01*
X148169333Y-91411714D01*
X148216952Y-91326000D01*
X148264571Y-91283142D01*
X148359809Y-91240285D01*
X148597904Y-91240285D01*
X148693142Y-91283142D01*
X148740761Y-91326000D01*
X148788380Y-91411714D01*
X148788380Y-91626000D01*
X148740761Y-91711714D01*
X148693142Y-91754571D01*
X147788380Y-90854571D02*
X148597904Y-90854571D01*
X148693142Y-90811714D01*
X148740761Y-90768857D01*
X148788380Y-90683142D01*
X148788380Y-90511714D01*
X148740761Y-90426000D01*
X148693142Y-90383142D01*
X148597904Y-90340285D01*
X147788380Y-90340285D01*
D11*
X127452380Y-84864285D02*
X126452380Y-84864285D01*
X126452380Y-84626190D01*
X126500000Y-84483333D01*
X126595238Y-84388095D01*
X126690476Y-84340476D01*
X126880952Y-84292857D01*
X127023809Y-84292857D01*
X127214285Y-84340476D01*
X127309523Y-84388095D01*
X127404761Y-84483333D01*
X127452380Y-84626190D01*
X127452380Y-84864285D01*
X126547619Y-83911904D02*
X126500000Y-83864285D01*
X126452380Y-83769047D01*
X126452380Y-83530952D01*
X126500000Y-83435714D01*
X126547619Y-83388095D01*
X126642857Y-83340476D01*
X126738095Y-83340476D01*
X126880952Y-83388095D01*
X127452380Y-83959523D01*
X127452380Y-83340476D01*
X126547619Y-82959523D02*
X126500000Y-82911904D01*
X126452380Y-82816666D01*
X126452380Y-82578571D01*
X126500000Y-82483333D01*
X126547619Y-82435714D01*
X126642857Y-82388095D01*
X126738095Y-82388095D01*
X126880952Y-82435714D01*
X127452380Y-83007142D01*
X127452380Y-82388095D01*
D14*
X126283380Y-85427714D02*
X125283380Y-85427714D01*
X125283380Y-85213428D01*
X125331000Y-85084857D01*
X125426238Y-84999142D01*
X125521476Y-84956285D01*
X125711952Y-84913428D01*
X125854809Y-84913428D01*
X126045285Y-84956285D01*
X126140523Y-84999142D01*
X126235761Y-85084857D01*
X126283380Y-85213428D01*
X126283380Y-85427714D01*
X126283380Y-84527714D02*
X125283380Y-84527714D01*
X125997666Y-84227714D01*
X125283380Y-83927714D01*
X126283380Y-83927714D01*
X126283380Y-83499142D02*
X125283380Y-83499142D01*
X125283380Y-83156285D01*
X125331000Y-83070571D01*
X125378619Y-83027714D01*
X125473857Y-82984857D01*
X125616714Y-82984857D01*
X125711952Y-83027714D01*
X125759571Y-83070571D01*
X125807190Y-83156285D01*
X125807190Y-83499142D01*
X126283380Y-82127714D02*
X126283380Y-82642000D01*
X126283380Y-82384857D02*
X125283380Y-82384857D01*
X125426238Y-82470571D01*
X125521476Y-82556285D01*
X125569095Y-82642000D01*
X125283380Y-81570571D02*
X125283380Y-81484857D01*
X125331000Y-81399142D01*
X125378619Y-81356285D01*
X125473857Y-81313428D01*
X125664333Y-81270571D01*
X125902428Y-81270571D01*
X126092904Y-81313428D01*
X126188142Y-81356285D01*
X126235761Y-81399142D01*
X126283380Y-81484857D01*
X126283380Y-81570571D01*
X126235761Y-81656285D01*
X126188142Y-81699142D01*
X126092904Y-81742000D01*
X125902428Y-81784857D01*
X125664333Y-81784857D01*
X125473857Y-81742000D01*
X125378619Y-81699142D01*
X125331000Y-81656285D01*
X125283380Y-81570571D01*
X125616714Y-80499142D02*
X126283380Y-80499142D01*
X125235761Y-80713428D02*
X125950047Y-80927714D01*
X125950047Y-80370571D01*
X125283380Y-79599142D02*
X125283380Y-80027714D01*
X125759571Y-80070571D01*
X125711952Y-80027714D01*
X125664333Y-79942000D01*
X125664333Y-79727714D01*
X125711952Y-79642000D01*
X125759571Y-79599142D01*
X125854809Y-79556285D01*
X126092904Y-79556285D01*
X126188142Y-79599142D01*
X126235761Y-79642000D01*
X126283380Y-79727714D01*
X126283380Y-79942000D01*
X126235761Y-80027714D01*
X126188142Y-80070571D01*
X125283380Y-79170571D02*
X126092904Y-79170571D01*
X126188142Y-79127714D01*
X126235761Y-79084857D01*
X126283380Y-78999142D01*
X126283380Y-78827714D01*
X126235761Y-78742000D01*
X126188142Y-78699142D01*
X126092904Y-78656285D01*
X125283380Y-78656285D01*
D11*
X146486714Y-120594380D02*
X146486714Y-119594380D01*
X146724809Y-119594380D01*
X146867666Y-119642000D01*
X146962904Y-119737238D01*
X147010523Y-119832476D01*
X147058142Y-120022952D01*
X147058142Y-120165809D01*
X147010523Y-120356285D01*
X146962904Y-120451523D01*
X146867666Y-120546761D01*
X146724809Y-120594380D01*
X146486714Y-120594380D01*
X147439095Y-119689619D02*
X147486714Y-119642000D01*
X147581952Y-119594380D01*
X147820047Y-119594380D01*
X147915285Y-119642000D01*
X147962904Y-119689619D01*
X148010523Y-119784857D01*
X148010523Y-119880095D01*
X147962904Y-120022952D01*
X147391476Y-120594380D01*
X148010523Y-120594380D01*
X148629571Y-119594380D02*
X148724809Y-119594380D01*
X148820047Y-119642000D01*
X148867666Y-119689619D01*
X148915285Y-119784857D01*
X148962904Y-119975333D01*
X148962904Y-120213428D01*
X148915285Y-120403904D01*
X148867666Y-120499142D01*
X148820047Y-120546761D01*
X148724809Y-120594380D01*
X148629571Y-120594380D01*
X148534333Y-120546761D01*
X148486714Y-120499142D01*
X148439095Y-120403904D01*
X148391476Y-120213428D01*
X148391476Y-119975333D01*
X148439095Y-119784857D01*
X148486714Y-119689619D01*
X148534333Y-119642000D01*
X148629571Y-119594380D01*
D14*
X144061285Y-125674380D02*
X144061285Y-124674380D01*
X144275571Y-124674380D01*
X144404142Y-124722000D01*
X144489857Y-124817238D01*
X144532714Y-124912476D01*
X144575571Y-125102952D01*
X144575571Y-125245809D01*
X144532714Y-125436285D01*
X144489857Y-125531523D01*
X144404142Y-125626761D01*
X144275571Y-125674380D01*
X144061285Y-125674380D01*
X144961285Y-125674380D02*
X144961285Y-124674380D01*
X145261285Y-125388666D01*
X145561285Y-124674380D01*
X145561285Y-125674380D01*
X145989857Y-125674380D02*
X145989857Y-124674380D01*
X146332714Y-124674380D01*
X146418428Y-124722000D01*
X146461285Y-124769619D01*
X146504142Y-124864857D01*
X146504142Y-125007714D01*
X146461285Y-125102952D01*
X146418428Y-125150571D01*
X146332714Y-125198190D01*
X145989857Y-125198190D01*
X147361285Y-125674380D02*
X146847000Y-125674380D01*
X147104142Y-125674380D02*
X147104142Y-124674380D01*
X147018428Y-124817238D01*
X146932714Y-124912476D01*
X146847000Y-124960095D01*
X147918428Y-124674380D02*
X148004142Y-124674380D01*
X148089857Y-124722000D01*
X148132714Y-124769619D01*
X148175571Y-124864857D01*
X148218428Y-125055333D01*
X148218428Y-125293428D01*
X148175571Y-125483904D01*
X148132714Y-125579142D01*
X148089857Y-125626761D01*
X148004142Y-125674380D01*
X147918428Y-125674380D01*
X147832714Y-125626761D01*
X147789857Y-125579142D01*
X147747000Y-125483904D01*
X147704142Y-125293428D01*
X147704142Y-125055333D01*
X147747000Y-124864857D01*
X147789857Y-124769619D01*
X147832714Y-124722000D01*
X147918428Y-124674380D01*
X148989857Y-125007714D02*
X148989857Y-125674380D01*
X148775571Y-124626761D02*
X148561285Y-125341047D01*
X149118428Y-125341047D01*
X149889857Y-124674380D02*
X149461285Y-124674380D01*
X149418428Y-125150571D01*
X149461285Y-125102952D01*
X149547000Y-125055333D01*
X149761285Y-125055333D01*
X149847000Y-125102952D01*
X149889857Y-125150571D01*
X149932714Y-125245809D01*
X149932714Y-125483904D01*
X149889857Y-125579142D01*
X149847000Y-125626761D01*
X149761285Y-125674380D01*
X149547000Y-125674380D01*
X149461285Y-125626761D01*
X149418428Y-125579142D01*
X150318428Y-124674380D02*
X150318428Y-125483904D01*
X150361285Y-125579142D01*
X150404142Y-125626761D01*
X150489857Y-125674380D01*
X150661285Y-125674380D01*
X150747000Y-125626761D01*
X150789857Y-125579142D01*
X150832714Y-125483904D01*
X150832714Y-124674380D01*
D11*
X142379714Y-91130380D02*
X142379714Y-90130380D01*
X142617809Y-90130380D01*
X142760666Y-90178000D01*
X142855904Y-90273238D01*
X142903523Y-90368476D01*
X142951142Y-90558952D01*
X142951142Y-90701809D01*
X142903523Y-90892285D01*
X142855904Y-90987523D01*
X142760666Y-91082761D01*
X142617809Y-91130380D01*
X142379714Y-91130380D01*
X143332095Y-90225619D02*
X143379714Y-90178000D01*
X143474952Y-90130380D01*
X143713047Y-90130380D01*
X143808285Y-90178000D01*
X143855904Y-90225619D01*
X143903523Y-90320857D01*
X143903523Y-90416095D01*
X143855904Y-90558952D01*
X143284476Y-91130380D01*
X143903523Y-91130380D01*
X144236857Y-90130380D02*
X144855904Y-90130380D01*
X144522571Y-90511333D01*
X144665428Y-90511333D01*
X144760666Y-90558952D01*
X144808285Y-90606571D01*
X144855904Y-90701809D01*
X144855904Y-90939904D01*
X144808285Y-91035142D01*
X144760666Y-91082761D01*
X144665428Y-91130380D01*
X144379714Y-91130380D01*
X144284476Y-91082761D01*
X144236857Y-91035142D01*
D14*
X140378285Y-91130380D02*
X140378285Y-90130380D01*
X140592571Y-90130380D01*
X140721142Y-90178000D01*
X140806857Y-90273238D01*
X140849714Y-90368476D01*
X140892571Y-90558952D01*
X140892571Y-90701809D01*
X140849714Y-90892285D01*
X140806857Y-90987523D01*
X140721142Y-91082761D01*
X140592571Y-91130380D01*
X140378285Y-91130380D01*
X141278285Y-91130380D02*
X141278285Y-90130380D01*
X141578285Y-90844666D01*
X141878285Y-90130380D01*
X141878285Y-91130380D01*
X142306857Y-91130380D02*
X142306857Y-90130380D01*
X142649714Y-90130380D01*
X142735428Y-90178000D01*
X142778285Y-90225619D01*
X142821142Y-90320857D01*
X142821142Y-90463714D01*
X142778285Y-90558952D01*
X142735428Y-90606571D01*
X142649714Y-90654190D01*
X142306857Y-90654190D01*
X143678285Y-91130380D02*
X143164000Y-91130380D01*
X143421142Y-91130380D02*
X143421142Y-90130380D01*
X143335428Y-90273238D01*
X143249714Y-90368476D01*
X143164000Y-90416095D01*
X144235428Y-90130380D02*
X144321142Y-90130380D01*
X144406857Y-90178000D01*
X144449714Y-90225619D01*
X144492571Y-90320857D01*
X144535428Y-90511333D01*
X144535428Y-90749428D01*
X144492571Y-90939904D01*
X144449714Y-91035142D01*
X144406857Y-91082761D01*
X144321142Y-91130380D01*
X144235428Y-91130380D01*
X144149714Y-91082761D01*
X144106857Y-91035142D01*
X144064000Y-90939904D01*
X144021142Y-90749428D01*
X144021142Y-90511333D01*
X144064000Y-90320857D01*
X144106857Y-90225619D01*
X144149714Y-90178000D01*
X144235428Y-90130380D01*
X145306857Y-90463714D02*
X145306857Y-91130380D01*
X145092571Y-90082761D02*
X144878285Y-90797047D01*
X145435428Y-90797047D01*
X146206857Y-90130380D02*
X145778285Y-90130380D01*
X145735428Y-90606571D01*
X145778285Y-90558952D01*
X145864000Y-90511333D01*
X146078285Y-90511333D01*
X146164000Y-90558952D01*
X146206857Y-90606571D01*
X146249714Y-90701809D01*
X146249714Y-90939904D01*
X146206857Y-91035142D01*
X146164000Y-91082761D01*
X146078285Y-91130380D01*
X145864000Y-91130380D01*
X145778285Y-91082761D01*
X145735428Y-91035142D01*
X146635428Y-90130380D02*
X146635428Y-90939904D01*
X146678285Y-91035142D01*
X146721142Y-91082761D01*
X146806857Y-91130380D01*
X146978285Y-91130380D01*
X147064000Y-91082761D01*
X147106857Y-91035142D01*
X147149714Y-90939904D01*
X147149714Y-90130380D01*
D11*
X142745558Y-106130557D02*
X142745558Y-106942776D01*
X142793335Y-107038332D01*
X142841113Y-107086109D01*
X142936668Y-107133887D01*
X143127779Y-107133887D01*
X143223334Y-107086109D01*
X143271111Y-107038332D01*
X143318889Y-106942776D01*
X143318889Y-106130557D01*
X144322219Y-107133887D02*
X143748888Y-107133887D01*
X144035553Y-107133887D02*
X144035553Y-106130557D01*
X143939998Y-106273890D01*
X143844443Y-106369445D01*
X143748888Y-106417223D01*
D14*
X132271285Y-96941410D02*
X132749600Y-96941410D01*
X132175622Y-97228398D02*
X132510442Y-96223938D01*
X132845262Y-97228398D01*
X133036588Y-96223938D02*
X133610565Y-96223938D01*
X133323577Y-97228398D02*
X133323577Y-96223938D01*
X133897554Y-97180567D02*
X134041048Y-97228398D01*
X134280205Y-97228398D01*
X134375868Y-97180567D01*
X134423700Y-97132735D01*
X134471531Y-97037072D01*
X134471531Y-96941410D01*
X134423700Y-96845747D01*
X134375868Y-96797915D01*
X134280205Y-96750084D01*
X134088880Y-96702252D01*
X133993217Y-96654421D01*
X133945385Y-96606590D01*
X133897554Y-96510927D01*
X133897554Y-96415264D01*
X133945385Y-96319601D01*
X133993217Y-96271770D01*
X134088880Y-96223938D01*
X134328037Y-96223938D01*
X134471531Y-96271770D01*
X134854182Y-96941410D02*
X135332497Y-96941410D01*
X134758520Y-97228398D02*
X135093340Y-96223938D01*
X135428160Y-97228398D01*
X135762980Y-97228398D02*
X135762980Y-96223938D01*
X136097800Y-96941410D01*
X136432620Y-96223938D01*
X136432620Y-97228398D01*
X136910934Y-97228398D02*
X136910934Y-96223938D01*
X137150091Y-96223938D01*
X137293585Y-96271770D01*
X137389248Y-96367432D01*
X137437080Y-96463095D01*
X137484911Y-96654421D01*
X137484911Y-96797915D01*
X137437080Y-96989241D01*
X137389248Y-97084904D01*
X137293585Y-97180567D01*
X137150091Y-97228398D01*
X136910934Y-97228398D01*
X137867562Y-96319601D02*
X137915394Y-96271770D01*
X138011057Y-96223938D01*
X138250214Y-96223938D01*
X138345877Y-96271770D01*
X138393708Y-96319601D01*
X138441540Y-96415264D01*
X138441540Y-96510927D01*
X138393708Y-96654421D01*
X137819731Y-97228398D01*
X138441540Y-97228398D01*
X139398168Y-97228398D02*
X138824191Y-97228398D01*
X139111180Y-97228398D02*
X139111180Y-96223938D01*
X139015517Y-96367432D01*
X138919854Y-96463095D01*
X138824191Y-96510927D01*
X140354797Y-96271770D02*
X140259134Y-96223938D01*
X140115640Y-96223938D01*
X139972145Y-96271770D01*
X139876482Y-96367432D01*
X139828651Y-96463095D01*
X139780820Y-96654421D01*
X139780820Y-96797915D01*
X139828651Y-96989241D01*
X139876482Y-97084904D01*
X139972145Y-97180567D01*
X140115640Y-97228398D01*
X140211302Y-97228398D01*
X140354797Y-97180567D01*
X140402628Y-97132735D01*
X140402628Y-96797915D01*
X140211302Y-96797915D01*
X141359257Y-97228398D02*
X140785280Y-97228398D01*
X141072268Y-97228398D02*
X141072268Y-96223938D01*
X140976605Y-96367432D01*
X140880942Y-96463095D01*
X140785280Y-96510927D01*
X141933234Y-96654421D02*
X141837571Y-96606590D01*
X141789740Y-96558758D01*
X141741908Y-96463095D01*
X141741908Y-96415264D01*
X141789740Y-96319601D01*
X141837571Y-96271770D01*
X141933234Y-96223938D01*
X142124560Y-96223938D01*
X142220222Y-96271770D01*
X142268054Y-96319601D01*
X142315885Y-96415264D01*
X142315885Y-96463095D01*
X142268054Y-96558758D01*
X142220222Y-96606590D01*
X142124560Y-96654421D01*
X141933234Y-96654421D01*
X141837571Y-96702252D01*
X141789740Y-96750084D01*
X141741908Y-96845747D01*
X141741908Y-97037072D01*
X141789740Y-97132735D01*
X141837571Y-97180567D01*
X141933234Y-97228398D01*
X142124560Y-97228398D01*
X142220222Y-97180567D01*
X142268054Y-97132735D01*
X142315885Y-97037072D01*
X142315885Y-96845747D01*
X142268054Y-96750084D01*
X142220222Y-96702252D01*
X142124560Y-96654421D01*
X142698537Y-96941410D02*
X143176851Y-96941410D01*
X142602874Y-97228398D02*
X142937694Y-96223938D01*
X143272514Y-97228398D01*
X143607334Y-96845747D02*
X144372637Y-96845747D01*
X144850951Y-97228398D02*
X144850951Y-96223938D01*
X145185771Y-96941410D01*
X145520591Y-96223938D01*
X145520591Y-97228398D01*
X145998905Y-96223938D02*
X145998905Y-97037072D01*
X146046737Y-97132735D01*
X146094568Y-97180567D01*
X146190231Y-97228398D01*
X146381557Y-97228398D01*
X146477220Y-97180567D01*
X146525051Y-97132735D01*
X146572882Y-97037072D01*
X146572882Y-96223938D01*
D11*
X121332666Y-106297380D02*
X121332666Y-107011666D01*
X121285047Y-107154523D01*
X121189809Y-107249761D01*
X121046952Y-107297380D01*
X120951714Y-107297380D01*
X121761238Y-106392619D02*
X121808857Y-106345000D01*
X121904095Y-106297380D01*
X122142190Y-106297380D01*
X122237428Y-106345000D01*
X122285047Y-106392619D01*
X122332666Y-106487857D01*
X122332666Y-106583095D01*
X122285047Y-106725952D01*
X121713619Y-107297380D01*
X122332666Y-107297380D01*
X141374761Y-122491333D02*
X141422380Y-122348476D01*
X141422380Y-122110380D01*
X141374761Y-122015142D01*
X141327142Y-121967523D01*
X141231904Y-121919904D01*
X141136666Y-121919904D01*
X141041428Y-121967523D01*
X140993809Y-122015142D01*
X140946190Y-122110380D01*
X140898571Y-122300857D01*
X140850952Y-122396095D01*
X140803333Y-122443714D01*
X140708095Y-122491333D01*
X140612857Y-122491333D01*
X140517619Y-122443714D01*
X140470000Y-122396095D01*
X140422380Y-122300857D01*
X140422380Y-122062761D01*
X140470000Y-121919904D01*
X140422380Y-121586571D02*
X141422380Y-121348476D01*
X140708095Y-121158000D01*
X141422380Y-120967523D01*
X140422380Y-120729428D01*
X140517619Y-120396095D02*
X140470000Y-120348476D01*
X140422380Y-120253238D01*
X140422380Y-120015142D01*
X140470000Y-119919904D01*
X140517619Y-119872285D01*
X140612857Y-119824666D01*
X140708095Y-119824666D01*
X140850952Y-119872285D01*
X141422380Y-120443714D01*
X141422380Y-119824666D01*
X130706761Y-122427333D02*
X130754380Y-122284476D01*
X130754380Y-122046380D01*
X130706761Y-121951142D01*
X130659142Y-121903523D01*
X130563904Y-121855904D01*
X130468666Y-121855904D01*
X130373428Y-121903523D01*
X130325809Y-121951142D01*
X130278190Y-122046380D01*
X130230571Y-122236857D01*
X130182952Y-122332095D01*
X130135333Y-122379714D01*
X130040095Y-122427333D01*
X129944857Y-122427333D01*
X129849619Y-122379714D01*
X129802000Y-122332095D01*
X129754380Y-122236857D01*
X129754380Y-121998761D01*
X129802000Y-121855904D01*
X129754380Y-121522571D02*
X130754380Y-121284476D01*
X130040095Y-121094000D01*
X130754380Y-120903523D01*
X129754380Y-120665428D01*
X130754380Y-119760666D02*
X130754380Y-120332095D01*
X130754380Y-120046380D02*
X129754380Y-120046380D01*
X129897238Y-120141619D01*
X129992476Y-120236857D01*
X130040095Y-120332095D01*
X132842095Y-94110380D02*
X132842095Y-94919904D01*
X132889714Y-95015142D01*
X132937333Y-95062761D01*
X133032571Y-95110380D01*
X133223047Y-95110380D01*
X133318285Y-95062761D01*
X133365904Y-95015142D01*
X133413523Y-94919904D01*
X133413523Y-94110380D01*
X133937333Y-95110380D02*
X134127809Y-95110380D01*
X134223047Y-95062761D01*
X134270666Y-95015142D01*
X134365904Y-94872285D01*
X134413523Y-94681809D01*
X134413523Y-94300857D01*
X134365904Y-94205619D01*
X134318285Y-94158000D01*
X134223047Y-94110380D01*
X134032571Y-94110380D01*
X133937333Y-94158000D01*
X133889714Y-94205619D01*
X133842095Y-94300857D01*
X133842095Y-94538952D01*
X133889714Y-94634190D01*
X133937333Y-94681809D01*
X134032571Y-94729428D01*
X134223047Y-94729428D01*
X134318285Y-94681809D01*
X134365904Y-94634190D01*
X134413523Y-94538952D01*
D14*
X125343000Y-90889666D02*
X125819190Y-90889666D01*
X125247761Y-91175380D02*
X125581095Y-90175380D01*
X125914428Y-91175380D01*
X126104904Y-90175380D02*
X126676333Y-90175380D01*
X126390619Y-91175380D02*
X126390619Y-90175380D01*
X127009666Y-90651571D02*
X127343000Y-90651571D01*
X127485857Y-91175380D02*
X127009666Y-91175380D01*
X127009666Y-90175380D01*
X127485857Y-90175380D01*
X128485857Y-91080142D02*
X128438238Y-91127761D01*
X128295380Y-91175380D01*
X128200142Y-91175380D01*
X128057285Y-91127761D01*
X127962047Y-91032523D01*
X127914428Y-90937285D01*
X127866809Y-90746809D01*
X127866809Y-90603952D01*
X127914428Y-90413476D01*
X127962047Y-90318238D01*
X128057285Y-90223000D01*
X128200142Y-90175380D01*
X128295380Y-90175380D01*
X128438238Y-90223000D01*
X128485857Y-90270619D01*
X129485857Y-91080142D02*
X129438238Y-91127761D01*
X129295380Y-91175380D01*
X129200142Y-91175380D01*
X129057285Y-91127761D01*
X128962047Y-91032523D01*
X128914428Y-90937285D01*
X128866809Y-90746809D01*
X128866809Y-90603952D01*
X128914428Y-90413476D01*
X128962047Y-90318238D01*
X129057285Y-90223000D01*
X129200142Y-90175380D01*
X129295380Y-90175380D01*
X129438238Y-90223000D01*
X129485857Y-90270619D01*
X130343000Y-90175380D02*
X130152523Y-90175380D01*
X130057285Y-90223000D01*
X130009666Y-90270619D01*
X129914428Y-90413476D01*
X129866809Y-90603952D01*
X129866809Y-90984904D01*
X129914428Y-91080142D01*
X129962047Y-91127761D01*
X130057285Y-91175380D01*
X130247761Y-91175380D01*
X130343000Y-91127761D01*
X130390619Y-91080142D01*
X130438238Y-90984904D01*
X130438238Y-90746809D01*
X130390619Y-90651571D01*
X130343000Y-90603952D01*
X130247761Y-90556333D01*
X130057285Y-90556333D01*
X129962047Y-90603952D01*
X129914428Y-90651571D01*
X129866809Y-90746809D01*
X131057285Y-90175380D02*
X131152523Y-90175380D01*
X131247761Y-90223000D01*
X131295380Y-90270619D01*
X131343000Y-90365857D01*
X131390619Y-90556333D01*
X131390619Y-90794428D01*
X131343000Y-90984904D01*
X131295380Y-91080142D01*
X131247761Y-91127761D01*
X131152523Y-91175380D01*
X131057285Y-91175380D01*
X130962047Y-91127761D01*
X130914428Y-91080142D01*
X130866809Y-90984904D01*
X130819190Y-90794428D01*
X130819190Y-90556333D01*
X130866809Y-90365857D01*
X130914428Y-90270619D01*
X130962047Y-90223000D01*
X131057285Y-90175380D01*
X131962047Y-90603952D02*
X131866809Y-90556333D01*
X131819190Y-90508714D01*
X131771571Y-90413476D01*
X131771571Y-90365857D01*
X131819190Y-90270619D01*
X131866809Y-90223000D01*
X131962047Y-90175380D01*
X132152523Y-90175380D01*
X132247761Y-90223000D01*
X132295380Y-90270619D01*
X132343000Y-90365857D01*
X132343000Y-90413476D01*
X132295380Y-90508714D01*
X132247761Y-90556333D01*
X132152523Y-90603952D01*
X131962047Y-90603952D01*
X131866809Y-90651571D01*
X131819190Y-90699190D01*
X131771571Y-90794428D01*
X131771571Y-90984904D01*
X131819190Y-91080142D01*
X131866809Y-91127761D01*
X131962047Y-91175380D01*
X132152523Y-91175380D01*
X132247761Y-91127761D01*
X132295380Y-91080142D01*
X132343000Y-90984904D01*
X132343000Y-90794428D01*
X132295380Y-90699190D01*
X132247761Y-90651571D01*
X132152523Y-90603952D01*
X132723952Y-90889666D02*
X133200142Y-90889666D01*
X132628714Y-91175380D02*
X132962047Y-90175380D01*
X133295380Y-91175380D01*
X133628714Y-90794428D02*
X134390619Y-90794428D01*
X134866809Y-91175380D02*
X134866809Y-90175380D01*
X135200142Y-90889666D01*
X135533476Y-90175380D01*
X135533476Y-91175380D01*
X135962047Y-90889666D02*
X136438238Y-90889666D01*
X135866809Y-91175380D02*
X136200142Y-90175380D01*
X136533476Y-91175380D01*
X136866809Y-91175380D02*
X136866809Y-90175380D01*
X136866809Y-90651571D02*
X137438238Y-90651571D01*
X137438238Y-91175380D02*
X137438238Y-90175380D01*
X137914428Y-91175380D02*
X137914428Y-90175380D01*
X138152523Y-90175380D01*
X138295380Y-90223000D01*
X138390619Y-90318238D01*
X138438238Y-90413476D01*
X138485857Y-90603952D01*
X138485857Y-90746809D01*
X138438238Y-90937285D01*
X138390619Y-91032523D01*
X138295380Y-91127761D01*
X138152523Y-91175380D01*
X137914428Y-91175380D01*
X138866809Y-90889666D02*
X139343000Y-90889666D01*
X138771571Y-91175380D02*
X139104904Y-90175380D01*
X139438238Y-91175380D01*
D11*
X165100095Y-111974380D02*
X165100095Y-112783904D01*
X165147714Y-112879142D01*
X165195333Y-112926761D01*
X165290571Y-112974380D01*
X165481047Y-112974380D01*
X165576285Y-112926761D01*
X165623904Y-112879142D01*
X165671523Y-112783904D01*
X165671523Y-111974380D01*
X166623904Y-111974380D02*
X166147714Y-111974380D01*
X166100095Y-112450571D01*
X166147714Y-112402952D01*
X166242952Y-112355333D01*
X166481047Y-112355333D01*
X166576285Y-112402952D01*
X166623904Y-112450571D01*
X166671523Y-112545809D01*
X166671523Y-112783904D01*
X166623904Y-112879142D01*
X166576285Y-112926761D01*
X166481047Y-112974380D01*
X166242952Y-112974380D01*
X166147714Y-112926761D01*
X166100095Y-112879142D01*
X123798095Y-94626380D02*
X123798095Y-95435904D01*
X123845714Y-95531142D01*
X123893333Y-95578761D01*
X123988571Y-95626380D01*
X124179047Y-95626380D01*
X124274285Y-95578761D01*
X124321904Y-95531142D01*
X124369523Y-95435904D01*
X124369523Y-94626380D01*
X124750476Y-94626380D02*
X125369523Y-94626380D01*
X125036190Y-95007333D01*
X125179047Y-95007333D01*
X125274285Y-95054952D01*
X125321904Y-95102571D01*
X125369523Y-95197809D01*
X125369523Y-95435904D01*
X125321904Y-95531142D01*
X125274285Y-95578761D01*
X125179047Y-95626380D01*
X124893333Y-95626380D01*
X124798095Y-95578761D01*
X124750476Y-95531142D01*
X116536095Y-106118380D02*
X116536095Y-106927904D01*
X116583714Y-107023142D01*
X116631333Y-107070761D01*
X116726571Y-107118380D01*
X116917047Y-107118380D01*
X117012285Y-107070761D01*
X117059904Y-107023142D01*
X117107523Y-106927904D01*
X117107523Y-106118380D01*
X117536095Y-106213619D02*
X117583714Y-106166000D01*
X117678952Y-106118380D01*
X117917047Y-106118380D01*
X118012285Y-106166000D01*
X118059904Y-106213619D01*
X118107523Y-106308857D01*
X118107523Y-106404095D01*
X118059904Y-106546952D01*
X117488476Y-107118380D01*
X118107523Y-107118380D01*
X128412142Y-92300380D02*
X128078809Y-91824190D01*
X127840714Y-92300380D02*
X127840714Y-91300380D01*
X128221666Y-91300380D01*
X128316904Y-91348000D01*
X128364523Y-91395619D01*
X128412142Y-91490857D01*
X128412142Y-91633714D01*
X128364523Y-91728952D01*
X128316904Y-91776571D01*
X128221666Y-91824190D01*
X127840714Y-91824190D01*
X129269285Y-91633714D02*
X129269285Y-92300380D01*
X129031190Y-91252761D02*
X128793095Y-91967047D01*
X129412142Y-91967047D01*
X129697857Y-91300380D02*
X130316904Y-91300380D01*
X129983571Y-91681333D01*
X130126428Y-91681333D01*
X130221666Y-91728952D01*
X130269285Y-91776571D01*
X130316904Y-91871809D01*
X130316904Y-92109904D01*
X130269285Y-92205142D01*
X130221666Y-92252761D01*
X130126428Y-92300380D01*
X129840714Y-92300380D01*
X129745476Y-92252761D01*
X129697857Y-92205142D01*
X138374380Y-80883857D02*
X137898190Y-81217190D01*
X138374380Y-81455285D02*
X137374380Y-81455285D01*
X137374380Y-81074333D01*
X137422000Y-80979095D01*
X137469619Y-80931476D01*
X137564857Y-80883857D01*
X137707714Y-80883857D01*
X137802952Y-80931476D01*
X137850571Y-80979095D01*
X137898190Y-81074333D01*
X137898190Y-81455285D01*
X137707714Y-80026714D02*
X138374380Y-80026714D01*
X137326761Y-80264809D02*
X138041047Y-80502904D01*
X138041047Y-79883857D01*
X137469619Y-79550523D02*
X137422000Y-79502904D01*
X137374380Y-79407666D01*
X137374380Y-79169571D01*
X137422000Y-79074333D01*
X137469619Y-79026714D01*
X137564857Y-78979095D01*
X137660095Y-78979095D01*
X137802952Y-79026714D01*
X138374380Y-79598142D01*
X138374380Y-78979095D01*
X142636142Y-78838380D02*
X142302809Y-78362190D01*
X142064714Y-78838380D02*
X142064714Y-77838380D01*
X142445666Y-77838380D01*
X142540904Y-77886000D01*
X142588523Y-77933619D01*
X142636142Y-78028857D01*
X142636142Y-78171714D01*
X142588523Y-78266952D01*
X142540904Y-78314571D01*
X142445666Y-78362190D01*
X142064714Y-78362190D01*
X143493285Y-78171714D02*
X143493285Y-78838380D01*
X143255190Y-77790761D02*
X143017095Y-78505047D01*
X143636142Y-78505047D01*
X144540904Y-78838380D02*
X143969476Y-78838380D01*
X144255190Y-78838380D02*
X144255190Y-77838380D01*
X144159952Y-77981238D01*
X144064714Y-78076476D01*
X143969476Y-78124095D01*
X142659142Y-74774380D02*
X142325809Y-74298190D01*
X142087714Y-74774380D02*
X142087714Y-73774380D01*
X142468666Y-73774380D01*
X142563904Y-73822000D01*
X142611523Y-73869619D01*
X142659142Y-73964857D01*
X142659142Y-74107714D01*
X142611523Y-74202952D01*
X142563904Y-74250571D01*
X142468666Y-74298190D01*
X142087714Y-74298190D01*
X143516285Y-74107714D02*
X143516285Y-74774380D01*
X143278190Y-73726761D02*
X143040095Y-74441047D01*
X143659142Y-74441047D01*
X144230571Y-73774380D02*
X144325809Y-73774380D01*
X144421047Y-73822000D01*
X144468666Y-73869619D01*
X144516285Y-73964857D01*
X144563904Y-74155333D01*
X144563904Y-74393428D01*
X144516285Y-74583904D01*
X144468666Y-74679142D01*
X144421047Y-74726761D01*
X144325809Y-74774380D01*
X144230571Y-74774380D01*
X144135333Y-74726761D01*
X144087714Y-74679142D01*
X144040095Y-74583904D01*
X143992476Y-74393428D01*
X143992476Y-74155333D01*
X144040095Y-73964857D01*
X144087714Y-73869619D01*
X144135333Y-73822000D01*
X144230571Y-73774380D01*
X129382142Y-86458380D02*
X129048809Y-85982190D01*
X128810714Y-86458380D02*
X128810714Y-85458380D01*
X129191666Y-85458380D01*
X129286904Y-85506000D01*
X129334523Y-85553619D01*
X129382142Y-85648857D01*
X129382142Y-85791714D01*
X129334523Y-85886952D01*
X129286904Y-85934571D01*
X129191666Y-85982190D01*
X128810714Y-85982190D01*
X129715476Y-85458380D02*
X130334523Y-85458380D01*
X130001190Y-85839333D01*
X130144047Y-85839333D01*
X130239285Y-85886952D01*
X130286904Y-85934571D01*
X130334523Y-86029809D01*
X130334523Y-86267904D01*
X130286904Y-86363142D01*
X130239285Y-86410761D01*
X130144047Y-86458380D01*
X129858333Y-86458380D01*
X129763095Y-86410761D01*
X129715476Y-86363142D01*
X130810714Y-86458380D02*
X131001190Y-86458380D01*
X131096428Y-86410761D01*
X131144047Y-86363142D01*
X131239285Y-86220285D01*
X131286904Y-86029809D01*
X131286904Y-85648857D01*
X131239285Y-85553619D01*
X131191666Y-85506000D01*
X131096428Y-85458380D01*
X130905952Y-85458380D01*
X130810714Y-85506000D01*
X130763095Y-85553619D01*
X130715476Y-85648857D01*
X130715476Y-85886952D01*
X130763095Y-85982190D01*
X130810714Y-86029809D01*
X130905952Y-86077428D01*
X131096428Y-86077428D01*
X131191666Y-86029809D01*
X131239285Y-85982190D01*
X131286904Y-85886952D01*
X129913142Y-75990380D02*
X129579809Y-75514190D01*
X129341714Y-75990380D02*
X129341714Y-74990380D01*
X129722666Y-74990380D01*
X129817904Y-75038000D01*
X129865523Y-75085619D01*
X129913142Y-75180857D01*
X129913142Y-75323714D01*
X129865523Y-75418952D01*
X129817904Y-75466571D01*
X129722666Y-75514190D01*
X129341714Y-75514190D01*
X130246476Y-74990380D02*
X130865523Y-74990380D01*
X130532190Y-75371333D01*
X130675047Y-75371333D01*
X130770285Y-75418952D01*
X130817904Y-75466571D01*
X130865523Y-75561809D01*
X130865523Y-75799904D01*
X130817904Y-75895142D01*
X130770285Y-75942761D01*
X130675047Y-75990380D01*
X130389333Y-75990380D01*
X130294095Y-75942761D01*
X130246476Y-75895142D01*
X131436952Y-75418952D02*
X131341714Y-75371333D01*
X131294095Y-75323714D01*
X131246476Y-75228476D01*
X131246476Y-75180857D01*
X131294095Y-75085619D01*
X131341714Y-75038000D01*
X131436952Y-74990380D01*
X131627428Y-74990380D01*
X131722666Y-75038000D01*
X131770285Y-75085619D01*
X131817904Y-75180857D01*
X131817904Y-75228476D01*
X131770285Y-75323714D01*
X131722666Y-75371333D01*
X131627428Y-75418952D01*
X131436952Y-75418952D01*
X131341714Y-75466571D01*
X131294095Y-75514190D01*
X131246476Y-75609428D01*
X131246476Y-75799904D01*
X131294095Y-75895142D01*
X131341714Y-75942761D01*
X131436952Y-75990380D01*
X131627428Y-75990380D01*
X131722666Y-75942761D01*
X131770285Y-75895142D01*
X131817904Y-75799904D01*
X131817904Y-75609428D01*
X131770285Y-75514190D01*
X131722666Y-75466571D01*
X131627428Y-75418952D01*
X130167142Y-71926380D02*
X129833809Y-71450190D01*
X129595714Y-71926380D02*
X129595714Y-70926380D01*
X129976666Y-70926380D01*
X130071904Y-70974000D01*
X130119523Y-71021619D01*
X130167142Y-71116857D01*
X130167142Y-71259714D01*
X130119523Y-71354952D01*
X130071904Y-71402571D01*
X129976666Y-71450190D01*
X129595714Y-71450190D01*
X130500476Y-70926380D02*
X131119523Y-70926380D01*
X130786190Y-71307333D01*
X130929047Y-71307333D01*
X131024285Y-71354952D01*
X131071904Y-71402571D01*
X131119523Y-71497809D01*
X131119523Y-71735904D01*
X131071904Y-71831142D01*
X131024285Y-71878761D01*
X130929047Y-71926380D01*
X130643333Y-71926380D01*
X130548095Y-71878761D01*
X130500476Y-71831142D01*
X131452857Y-70926380D02*
X132119523Y-70926380D01*
X131690952Y-71926380D01*
X135580380Y-88272857D02*
X135104190Y-88606190D01*
X135580380Y-88844285D02*
X134580380Y-88844285D01*
X134580380Y-88463333D01*
X134628000Y-88368095D01*
X134675619Y-88320476D01*
X134770857Y-88272857D01*
X134913714Y-88272857D01*
X135008952Y-88320476D01*
X135056571Y-88368095D01*
X135104190Y-88463333D01*
X135104190Y-88844285D01*
X134580380Y-87939523D02*
X134580380Y-87320476D01*
X134961333Y-87653809D01*
X134961333Y-87510952D01*
X135008952Y-87415714D01*
X135056571Y-87368095D01*
X135151809Y-87320476D01*
X135389904Y-87320476D01*
X135485142Y-87368095D01*
X135532761Y-87415714D01*
X135580380Y-87510952D01*
X135580380Y-87796666D01*
X135532761Y-87891904D01*
X135485142Y-87939523D01*
X134580380Y-86463333D02*
X134580380Y-86653809D01*
X134628000Y-86749047D01*
X134675619Y-86796666D01*
X134818476Y-86891904D01*
X135008952Y-86939523D01*
X135389904Y-86939523D01*
X135485142Y-86891904D01*
X135532761Y-86844285D01*
X135580380Y-86749047D01*
X135580380Y-86558571D01*
X135532761Y-86463333D01*
X135485142Y-86415714D01*
X135389904Y-86368095D01*
X135151809Y-86368095D01*
X135056571Y-86415714D01*
X135008952Y-86463333D01*
X134961333Y-86558571D01*
X134961333Y-86749047D01*
X135008952Y-86844285D01*
X135056571Y-86891904D01*
X135151809Y-86939523D01*
X154122380Y-79382857D02*
X153646190Y-79716190D01*
X154122380Y-79954285D02*
X153122380Y-79954285D01*
X153122380Y-79573333D01*
X153170000Y-79478095D01*
X153217619Y-79430476D01*
X153312857Y-79382857D01*
X153455714Y-79382857D01*
X153550952Y-79430476D01*
X153598571Y-79478095D01*
X153646190Y-79573333D01*
X153646190Y-79954285D01*
X153122380Y-79049523D02*
X153122380Y-78430476D01*
X153503333Y-78763809D01*
X153503333Y-78620952D01*
X153550952Y-78525714D01*
X153598571Y-78478095D01*
X153693809Y-78430476D01*
X153931904Y-78430476D01*
X154027142Y-78478095D01*
X154074761Y-78525714D01*
X154122380Y-78620952D01*
X154122380Y-78906666D01*
X154074761Y-79001904D01*
X154027142Y-79049523D01*
X153122380Y-77525714D02*
X153122380Y-78001904D01*
X153598571Y-78049523D01*
X153550952Y-78001904D01*
X153503333Y-77906666D01*
X153503333Y-77668571D01*
X153550952Y-77573333D01*
X153598571Y-77525714D01*
X153693809Y-77478095D01*
X153931904Y-77478095D01*
X154027142Y-77525714D01*
X154074761Y-77573333D01*
X154122380Y-77668571D01*
X154122380Y-77906666D01*
X154074761Y-78001904D01*
X154027142Y-78049523D01*
X141676380Y-88803857D02*
X141200190Y-89137190D01*
X141676380Y-89375285D02*
X140676380Y-89375285D01*
X140676380Y-88994333D01*
X140724000Y-88899095D01*
X140771619Y-88851476D01*
X140866857Y-88803857D01*
X141009714Y-88803857D01*
X141104952Y-88851476D01*
X141152571Y-88899095D01*
X141200190Y-88994333D01*
X141200190Y-89375285D01*
X140676380Y-88470523D02*
X140676380Y-87851476D01*
X141057333Y-88184809D01*
X141057333Y-88041952D01*
X141104952Y-87946714D01*
X141152571Y-87899095D01*
X141247809Y-87851476D01*
X141485904Y-87851476D01*
X141581142Y-87899095D01*
X141628761Y-87946714D01*
X141676380Y-88041952D01*
X141676380Y-88327666D01*
X141628761Y-88422904D01*
X141581142Y-88470523D01*
X141009714Y-86994333D02*
X141676380Y-86994333D01*
X140628761Y-87232428D02*
X141343047Y-87470523D01*
X141343047Y-86851476D01*
X150487142Y-85542380D02*
X150153809Y-85066190D01*
X149915714Y-85542380D02*
X149915714Y-84542380D01*
X150296666Y-84542380D01*
X150391904Y-84590000D01*
X150439523Y-84637619D01*
X150487142Y-84732857D01*
X150487142Y-84875714D01*
X150439523Y-84970952D01*
X150391904Y-85018571D01*
X150296666Y-85066190D01*
X149915714Y-85066190D01*
X150820476Y-84542380D02*
X151439523Y-84542380D01*
X151106190Y-84923333D01*
X151249047Y-84923333D01*
X151344285Y-84970952D01*
X151391904Y-85018571D01*
X151439523Y-85113809D01*
X151439523Y-85351904D01*
X151391904Y-85447142D01*
X151344285Y-85494761D01*
X151249047Y-85542380D01*
X150963333Y-85542380D01*
X150868095Y-85494761D01*
X150820476Y-85447142D01*
X151772857Y-84542380D02*
X152391904Y-84542380D01*
X152058571Y-84923333D01*
X152201428Y-84923333D01*
X152296666Y-84970952D01*
X152344285Y-85018571D01*
X152391904Y-85113809D01*
X152391904Y-85351904D01*
X152344285Y-85447142D01*
X152296666Y-85494761D01*
X152201428Y-85542380D01*
X151915714Y-85542380D01*
X151820476Y-85494761D01*
X151772857Y-85447142D01*
X149296380Y-85986857D02*
X148820190Y-86320190D01*
X149296380Y-86558285D02*
X148296380Y-86558285D01*
X148296380Y-86177333D01*
X148344000Y-86082095D01*
X148391619Y-86034476D01*
X148486857Y-85986857D01*
X148629714Y-85986857D01*
X148724952Y-86034476D01*
X148772571Y-86082095D01*
X148820190Y-86177333D01*
X148820190Y-86558285D01*
X148296380Y-85653523D02*
X148296380Y-85034476D01*
X148677333Y-85367809D01*
X148677333Y-85224952D01*
X148724952Y-85129714D01*
X148772571Y-85082095D01*
X148867809Y-85034476D01*
X149105904Y-85034476D01*
X149201142Y-85082095D01*
X149248761Y-85129714D01*
X149296380Y-85224952D01*
X149296380Y-85510666D01*
X149248761Y-85605904D01*
X149201142Y-85653523D01*
X148391619Y-84653523D02*
X148344000Y-84605904D01*
X148296380Y-84510666D01*
X148296380Y-84272571D01*
X148344000Y-84177333D01*
X148391619Y-84129714D01*
X148486857Y-84082095D01*
X148582095Y-84082095D01*
X148724952Y-84129714D01*
X149296380Y-84701142D01*
X149296380Y-84082095D01*
X143883142Y-81986380D02*
X143549809Y-81510190D01*
X143311714Y-81986380D02*
X143311714Y-80986380D01*
X143692666Y-80986380D01*
X143787904Y-81034000D01*
X143835523Y-81081619D01*
X143883142Y-81176857D01*
X143883142Y-81319714D01*
X143835523Y-81414952D01*
X143787904Y-81462571D01*
X143692666Y-81510190D01*
X143311714Y-81510190D01*
X144216476Y-80986380D02*
X144835523Y-80986380D01*
X144502190Y-81367333D01*
X144645047Y-81367333D01*
X144740285Y-81414952D01*
X144787904Y-81462571D01*
X144835523Y-81557809D01*
X144835523Y-81795904D01*
X144787904Y-81891142D01*
X144740285Y-81938761D01*
X144645047Y-81986380D01*
X144359333Y-81986380D01*
X144264095Y-81938761D01*
X144216476Y-81891142D01*
X145787904Y-81986380D02*
X145216476Y-81986380D01*
X145502190Y-81986380D02*
X145502190Y-80986380D01*
X145406952Y-81129238D01*
X145311714Y-81224476D01*
X145216476Y-81272095D01*
X147518380Y-82684857D02*
X147042190Y-83018190D01*
X147518380Y-83256285D02*
X146518380Y-83256285D01*
X146518380Y-82875333D01*
X146566000Y-82780095D01*
X146613619Y-82732476D01*
X146708857Y-82684857D01*
X146851714Y-82684857D01*
X146946952Y-82732476D01*
X146994571Y-82780095D01*
X147042190Y-82875333D01*
X147042190Y-83256285D01*
X146518380Y-82351523D02*
X146518380Y-81732476D01*
X146899333Y-82065809D01*
X146899333Y-81922952D01*
X146946952Y-81827714D01*
X146994571Y-81780095D01*
X147089809Y-81732476D01*
X147327904Y-81732476D01*
X147423142Y-81780095D01*
X147470761Y-81827714D01*
X147518380Y-81922952D01*
X147518380Y-82208666D01*
X147470761Y-82303904D01*
X147423142Y-82351523D01*
X146518380Y-81113428D02*
X146518380Y-81018190D01*
X146566000Y-80922952D01*
X146613619Y-80875333D01*
X146708857Y-80827714D01*
X146899333Y-80780095D01*
X147137428Y-80780095D01*
X147327904Y-80827714D01*
X147423142Y-80875333D01*
X147470761Y-80922952D01*
X147518380Y-81018190D01*
X147518380Y-81113428D01*
X147470761Y-81208666D01*
X147423142Y-81256285D01*
X147327904Y-81303904D01*
X147137428Y-81351523D01*
X146899333Y-81351523D01*
X146708857Y-81303904D01*
X146613619Y-81256285D01*
X146566000Y-81208666D01*
X146518380Y-81113428D01*
X173878142Y-113836380D02*
X173544809Y-113360190D01*
X173306714Y-113836380D02*
X173306714Y-112836380D01*
X173687666Y-112836380D01*
X173782904Y-112884000D01*
X173830523Y-112931619D01*
X173878142Y-113026857D01*
X173878142Y-113169714D01*
X173830523Y-113264952D01*
X173782904Y-113312571D01*
X173687666Y-113360190D01*
X173306714Y-113360190D01*
X174259095Y-112931619D02*
X174306714Y-112884000D01*
X174401952Y-112836380D01*
X174640047Y-112836380D01*
X174735285Y-112884000D01*
X174782904Y-112931619D01*
X174830523Y-113026857D01*
X174830523Y-113122095D01*
X174782904Y-113264952D01*
X174211476Y-113836380D01*
X174830523Y-113836380D01*
X175306714Y-113836380D02*
X175497190Y-113836380D01*
X175592428Y-113788761D01*
X175640047Y-113741142D01*
X175735285Y-113598285D01*
X175782904Y-113407809D01*
X175782904Y-113026857D01*
X175735285Y-112931619D01*
X175687666Y-112884000D01*
X175592428Y-112836380D01*
X175401952Y-112836380D01*
X175306714Y-112884000D01*
X175259095Y-112931619D01*
X175211476Y-113026857D01*
X175211476Y-113264952D01*
X175259095Y-113360190D01*
X175306714Y-113407809D01*
X175401952Y-113455428D01*
X175592428Y-113455428D01*
X175687666Y-113407809D01*
X175735285Y-113360190D01*
X175782904Y-113264952D01*
X159964380Y-81160857D02*
X159488190Y-81494190D01*
X159964380Y-81732285D02*
X158964380Y-81732285D01*
X158964380Y-81351333D01*
X159012000Y-81256095D01*
X159059619Y-81208476D01*
X159154857Y-81160857D01*
X159297714Y-81160857D01*
X159392952Y-81208476D01*
X159440571Y-81256095D01*
X159488190Y-81351333D01*
X159488190Y-81732285D01*
X159059619Y-80779904D02*
X159012000Y-80732285D01*
X158964380Y-80637047D01*
X158964380Y-80398952D01*
X159012000Y-80303714D01*
X159059619Y-80256095D01*
X159154857Y-80208476D01*
X159250095Y-80208476D01*
X159392952Y-80256095D01*
X159964380Y-80827523D01*
X159964380Y-80208476D01*
X159392952Y-79637047D02*
X159345333Y-79732285D01*
X159297714Y-79779904D01*
X159202476Y-79827523D01*
X159154857Y-79827523D01*
X159059619Y-79779904D01*
X159012000Y-79732285D01*
X158964380Y-79637047D01*
X158964380Y-79446571D01*
X159012000Y-79351333D01*
X159059619Y-79303714D01*
X159154857Y-79256095D01*
X159202476Y-79256095D01*
X159297714Y-79303714D01*
X159345333Y-79351333D01*
X159392952Y-79446571D01*
X159392952Y-79637047D01*
X159440571Y-79732285D01*
X159488190Y-79779904D01*
X159583428Y-79827523D01*
X159773904Y-79827523D01*
X159869142Y-79779904D01*
X159916761Y-79732285D01*
X159964380Y-79637047D01*
X159964380Y-79446571D01*
X159916761Y-79351333D01*
X159869142Y-79303714D01*
X159773904Y-79256095D01*
X159583428Y-79256095D01*
X159488190Y-79303714D01*
X159440571Y-79351333D01*
X159392952Y-79446571D01*
X111096380Y-76334857D02*
X110620190Y-76668190D01*
X111096380Y-76906285D02*
X110096380Y-76906285D01*
X110096380Y-76525333D01*
X110144000Y-76430095D01*
X110191619Y-76382476D01*
X110286857Y-76334857D01*
X110429714Y-76334857D01*
X110524952Y-76382476D01*
X110572571Y-76430095D01*
X110620190Y-76525333D01*
X110620190Y-76906285D01*
X110191619Y-75953904D02*
X110144000Y-75906285D01*
X110096380Y-75811047D01*
X110096380Y-75572952D01*
X110144000Y-75477714D01*
X110191619Y-75430095D01*
X110286857Y-75382476D01*
X110382095Y-75382476D01*
X110524952Y-75430095D01*
X111096380Y-76001523D01*
X111096380Y-75382476D01*
X110096380Y-75049142D02*
X110096380Y-74382476D01*
X111096380Y-74811047D01*
X109264380Y-83169857D02*
X108788190Y-83503190D01*
X109264380Y-83741285D02*
X108264380Y-83741285D01*
X108264380Y-83360333D01*
X108312000Y-83265095D01*
X108359619Y-83217476D01*
X108454857Y-83169857D01*
X108597714Y-83169857D01*
X108692952Y-83217476D01*
X108740571Y-83265095D01*
X108788190Y-83360333D01*
X108788190Y-83741285D01*
X108359619Y-82788904D02*
X108312000Y-82741285D01*
X108264380Y-82646047D01*
X108264380Y-82407952D01*
X108312000Y-82312714D01*
X108359619Y-82265095D01*
X108454857Y-82217476D01*
X108550095Y-82217476D01*
X108692952Y-82265095D01*
X109264380Y-82836523D01*
X109264380Y-82217476D01*
X108264380Y-81360333D02*
X108264380Y-81550809D01*
X108312000Y-81646047D01*
X108359619Y-81693666D01*
X108502476Y-81788904D01*
X108692952Y-81836523D01*
X109073904Y-81836523D01*
X109169142Y-81788904D01*
X109216761Y-81741285D01*
X109264380Y-81646047D01*
X109264380Y-81455571D01*
X109216761Y-81360333D01*
X109169142Y-81312714D01*
X109073904Y-81265095D01*
X108835809Y-81265095D01*
X108740571Y-81312714D01*
X108692952Y-81360333D01*
X108645333Y-81455571D01*
X108645333Y-81646047D01*
X108692952Y-81741285D01*
X108740571Y-81788904D01*
X108835809Y-81836523D01*
X125320380Y-83954857D02*
X124844190Y-84288190D01*
X125320380Y-84526285D02*
X124320380Y-84526285D01*
X124320380Y-84145333D01*
X124368000Y-84050095D01*
X124415619Y-84002476D01*
X124510857Y-83954857D01*
X124653714Y-83954857D01*
X124748952Y-84002476D01*
X124796571Y-84050095D01*
X124844190Y-84145333D01*
X124844190Y-84526285D01*
X124415619Y-83573904D02*
X124368000Y-83526285D01*
X124320380Y-83431047D01*
X124320380Y-83192952D01*
X124368000Y-83097714D01*
X124415619Y-83050095D01*
X124510857Y-83002476D01*
X124606095Y-83002476D01*
X124748952Y-83050095D01*
X125320380Y-83621523D01*
X125320380Y-83002476D01*
X124320380Y-82097714D02*
X124320380Y-82573904D01*
X124796571Y-82621523D01*
X124748952Y-82573904D01*
X124701333Y-82478666D01*
X124701333Y-82240571D01*
X124748952Y-82145333D01*
X124796571Y-82097714D01*
X124891809Y-82050095D01*
X125129904Y-82050095D01*
X125225142Y-82097714D01*
X125272761Y-82145333D01*
X125320380Y-82240571D01*
X125320380Y-82478666D01*
X125272761Y-82573904D01*
X125225142Y-82621523D01*
X121102380Y-75826857D02*
X120626190Y-76160190D01*
X121102380Y-76398285D02*
X120102380Y-76398285D01*
X120102380Y-76017333D01*
X120150000Y-75922095D01*
X120197619Y-75874476D01*
X120292857Y-75826857D01*
X120435714Y-75826857D01*
X120530952Y-75874476D01*
X120578571Y-75922095D01*
X120626190Y-76017333D01*
X120626190Y-76398285D01*
X120197619Y-75445904D02*
X120150000Y-75398285D01*
X120102380Y-75303047D01*
X120102380Y-75064952D01*
X120150000Y-74969714D01*
X120197619Y-74922095D01*
X120292857Y-74874476D01*
X120388095Y-74874476D01*
X120530952Y-74922095D01*
X121102380Y-75493523D01*
X121102380Y-74874476D01*
X120435714Y-74017333D02*
X121102380Y-74017333D01*
X120054761Y-74255428D02*
X120769047Y-74493523D01*
X120769047Y-73874476D01*
X174132142Y-87166380D02*
X173798809Y-86690190D01*
X173560714Y-87166380D02*
X173560714Y-86166380D01*
X173941666Y-86166380D01*
X174036904Y-86214000D01*
X174084523Y-86261619D01*
X174132142Y-86356857D01*
X174132142Y-86499714D01*
X174084523Y-86594952D01*
X174036904Y-86642571D01*
X173941666Y-86690190D01*
X173560714Y-86690190D01*
X174513095Y-86261619D02*
X174560714Y-86214000D01*
X174655952Y-86166380D01*
X174894047Y-86166380D01*
X174989285Y-86214000D01*
X175036904Y-86261619D01*
X175084523Y-86356857D01*
X175084523Y-86452095D01*
X175036904Y-86594952D01*
X174465476Y-87166380D01*
X175084523Y-87166380D01*
X175417857Y-86166380D02*
X176036904Y-86166380D01*
X175703571Y-86547333D01*
X175846428Y-86547333D01*
X175941666Y-86594952D01*
X175989285Y-86642571D01*
X176036904Y-86737809D01*
X176036904Y-86975904D01*
X175989285Y-87071142D01*
X175941666Y-87118761D01*
X175846428Y-87166380D01*
X175560714Y-87166380D01*
X175465476Y-87118761D01*
X175417857Y-87071142D01*
X174086142Y-77514380D02*
X173752809Y-77038190D01*
X173514714Y-77514380D02*
X173514714Y-76514380D01*
X173895666Y-76514380D01*
X173990904Y-76562000D01*
X174038523Y-76609619D01*
X174086142Y-76704857D01*
X174086142Y-76847714D01*
X174038523Y-76942952D01*
X173990904Y-76990571D01*
X173895666Y-77038190D01*
X173514714Y-77038190D01*
X174467095Y-76609619D02*
X174514714Y-76562000D01*
X174609952Y-76514380D01*
X174848047Y-76514380D01*
X174943285Y-76562000D01*
X174990904Y-76609619D01*
X175038523Y-76704857D01*
X175038523Y-76800095D01*
X174990904Y-76942952D01*
X174419476Y-77514380D01*
X175038523Y-77514380D01*
X175419476Y-76609619D02*
X175467095Y-76562000D01*
X175562333Y-76514380D01*
X175800428Y-76514380D01*
X175895666Y-76562000D01*
X175943285Y-76609619D01*
X175990904Y-76704857D01*
X175990904Y-76800095D01*
X175943285Y-76942952D01*
X175371857Y-77514380D01*
X175990904Y-77514380D01*
X151503142Y-106855380D02*
X151169809Y-106379190D01*
X150931714Y-106855380D02*
X150931714Y-105855380D01*
X151312666Y-105855380D01*
X151407904Y-105903000D01*
X151455523Y-105950619D01*
X151503142Y-106045857D01*
X151503142Y-106188714D01*
X151455523Y-106283952D01*
X151407904Y-106331571D01*
X151312666Y-106379190D01*
X150931714Y-106379190D01*
X151884095Y-105950619D02*
X151931714Y-105903000D01*
X152026952Y-105855380D01*
X152265047Y-105855380D01*
X152360285Y-105903000D01*
X152407904Y-105950619D01*
X152455523Y-106045857D01*
X152455523Y-106141095D01*
X152407904Y-106283952D01*
X151836476Y-106855380D01*
X152455523Y-106855380D01*
X153407904Y-106855380D02*
X152836476Y-106855380D01*
X153122190Y-106855380D02*
X153122190Y-105855380D01*
X153026952Y-105998238D01*
X152931714Y-106093476D01*
X152836476Y-106141095D01*
X158694380Y-77096857D02*
X158218190Y-77430190D01*
X158694380Y-77668285D02*
X157694380Y-77668285D01*
X157694380Y-77287333D01*
X157742000Y-77192095D01*
X157789619Y-77144476D01*
X157884857Y-77096857D01*
X158027714Y-77096857D01*
X158122952Y-77144476D01*
X158170571Y-77192095D01*
X158218190Y-77287333D01*
X158218190Y-77668285D01*
X157789619Y-76715904D02*
X157742000Y-76668285D01*
X157694380Y-76573047D01*
X157694380Y-76334952D01*
X157742000Y-76239714D01*
X157789619Y-76192095D01*
X157884857Y-76144476D01*
X157980095Y-76144476D01*
X158122952Y-76192095D01*
X158694380Y-76763523D01*
X158694380Y-76144476D01*
X157694380Y-75525428D02*
X157694380Y-75430190D01*
X157742000Y-75334952D01*
X157789619Y-75287333D01*
X157884857Y-75239714D01*
X158075333Y-75192095D01*
X158313428Y-75192095D01*
X158503904Y-75239714D01*
X158599142Y-75287333D01*
X158646761Y-75334952D01*
X158694380Y-75430190D01*
X158694380Y-75525428D01*
X158646761Y-75620666D01*
X158599142Y-75668285D01*
X158503904Y-75715904D01*
X158313428Y-75763523D01*
X158075333Y-75763523D01*
X157884857Y-75715904D01*
X157789619Y-75668285D01*
X157742000Y-75620666D01*
X157694380Y-75525428D01*
X140627142Y-93670380D02*
X140293809Y-93194190D01*
X140055714Y-93670380D02*
X140055714Y-92670380D01*
X140436666Y-92670380D01*
X140531904Y-92718000D01*
X140579523Y-92765619D01*
X140627142Y-92860857D01*
X140627142Y-93003714D01*
X140579523Y-93098952D01*
X140531904Y-93146571D01*
X140436666Y-93194190D01*
X140055714Y-93194190D01*
X141579523Y-93670380D02*
X141008095Y-93670380D01*
X141293809Y-93670380D02*
X141293809Y-92670380D01*
X141198571Y-92813238D01*
X141103333Y-92908476D01*
X141008095Y-92956095D01*
X142055714Y-93670380D02*
X142246190Y-93670380D01*
X142341428Y-93622761D01*
X142389047Y-93575142D01*
X142484285Y-93432285D01*
X142531904Y-93241809D01*
X142531904Y-92860857D01*
X142484285Y-92765619D01*
X142436666Y-92718000D01*
X142341428Y-92670380D01*
X142150952Y-92670380D01*
X142055714Y-92718000D01*
X142008095Y-92765619D01*
X141960476Y-92860857D01*
X141960476Y-93098952D01*
X142008095Y-93194190D01*
X142055714Y-93241809D01*
X142150952Y-93289428D01*
X142341428Y-93289428D01*
X142436666Y-93241809D01*
X142484285Y-93194190D01*
X142531904Y-93098952D01*
X152796142Y-71064380D02*
X152462809Y-70588190D01*
X152224714Y-71064380D02*
X152224714Y-70064380D01*
X152605666Y-70064380D01*
X152700904Y-70112000D01*
X152748523Y-70159619D01*
X152796142Y-70254857D01*
X152796142Y-70397714D01*
X152748523Y-70492952D01*
X152700904Y-70540571D01*
X152605666Y-70588190D01*
X152224714Y-70588190D01*
X153748523Y-71064380D02*
X153177095Y-71064380D01*
X153462809Y-71064380D02*
X153462809Y-70064380D01*
X153367571Y-70207238D01*
X153272333Y-70302476D01*
X153177095Y-70350095D01*
X154319952Y-70492952D02*
X154224714Y-70445333D01*
X154177095Y-70397714D01*
X154129476Y-70302476D01*
X154129476Y-70254857D01*
X154177095Y-70159619D01*
X154224714Y-70112000D01*
X154319952Y-70064380D01*
X154510428Y-70064380D01*
X154605666Y-70112000D01*
X154653285Y-70159619D01*
X154700904Y-70254857D01*
X154700904Y-70302476D01*
X154653285Y-70397714D01*
X154605666Y-70445333D01*
X154510428Y-70492952D01*
X154319952Y-70492952D01*
X154224714Y-70540571D01*
X154177095Y-70588190D01*
X154129476Y-70683428D01*
X154129476Y-70873904D01*
X154177095Y-70969142D01*
X154224714Y-71016761D01*
X154319952Y-71064380D01*
X154510428Y-71064380D01*
X154605666Y-71016761D01*
X154653285Y-70969142D01*
X154700904Y-70873904D01*
X154700904Y-70683428D01*
X154653285Y-70588190D01*
X154605666Y-70540571D01*
X154510428Y-70492952D01*
X153868380Y-91574857D02*
X153392190Y-91908190D01*
X153868380Y-92146285D02*
X152868380Y-92146285D01*
X152868380Y-91765333D01*
X152916000Y-91670095D01*
X152963619Y-91622476D01*
X153058857Y-91574857D01*
X153201714Y-91574857D01*
X153296952Y-91622476D01*
X153344571Y-91670095D01*
X153392190Y-91765333D01*
X153392190Y-92146285D01*
X153868380Y-90622476D02*
X153868380Y-91193904D01*
X153868380Y-90908190D02*
X152868380Y-90908190D01*
X153011238Y-91003428D01*
X153106476Y-91098666D01*
X153154095Y-91193904D01*
X152868380Y-90289142D02*
X152868380Y-89622476D01*
X153868380Y-90051047D01*
X149042380Y-92336857D02*
X148566190Y-92670190D01*
X149042380Y-92908285D02*
X148042380Y-92908285D01*
X148042380Y-92527333D01*
X148090000Y-92432095D01*
X148137619Y-92384476D01*
X148232857Y-92336857D01*
X148375714Y-92336857D01*
X148470952Y-92384476D01*
X148518571Y-92432095D01*
X148566190Y-92527333D01*
X148566190Y-92908285D01*
X149042380Y-91384476D02*
X149042380Y-91955904D01*
X149042380Y-91670190D02*
X148042380Y-91670190D01*
X148185238Y-91765428D01*
X148280476Y-91860666D01*
X148328095Y-91955904D01*
X148042380Y-90527333D02*
X148042380Y-90717809D01*
X148090000Y-90813047D01*
X148137619Y-90860666D01*
X148280476Y-90955904D01*
X148470952Y-91003523D01*
X148851904Y-91003523D01*
X148947142Y-90955904D01*
X148994761Y-90908285D01*
X149042380Y-90813047D01*
X149042380Y-90622571D01*
X148994761Y-90527333D01*
X148947142Y-90479714D01*
X148851904Y-90432095D01*
X148613809Y-90432095D01*
X148518571Y-90479714D01*
X148470952Y-90527333D01*
X148423333Y-90622571D01*
X148423333Y-90813047D01*
X148470952Y-90908285D01*
X148518571Y-90955904D01*
X148613809Y-91003523D01*
X153868380Y-123624857D02*
X153392190Y-123958190D01*
X153868380Y-124196285D02*
X152868380Y-124196285D01*
X152868380Y-123815333D01*
X152916000Y-123720095D01*
X152963619Y-123672476D01*
X153058857Y-123624857D01*
X153201714Y-123624857D01*
X153296952Y-123672476D01*
X153344571Y-123720095D01*
X153392190Y-123815333D01*
X153392190Y-124196285D01*
X153868380Y-122672476D02*
X153868380Y-123243904D01*
X153868380Y-122958190D02*
X152868380Y-122958190D01*
X153011238Y-123053428D01*
X153106476Y-123148666D01*
X153154095Y-123243904D01*
X152868380Y-121767714D02*
X152868380Y-122243904D01*
X153344571Y-122291523D01*
X153296952Y-122243904D01*
X153249333Y-122148666D01*
X153249333Y-121910571D01*
X153296952Y-121815333D01*
X153344571Y-121767714D01*
X153439809Y-121720095D01*
X153677904Y-121720095D01*
X153773142Y-121767714D01*
X153820761Y-121815333D01*
X153868380Y-121910571D01*
X153868380Y-122148666D01*
X153820761Y-122243904D01*
X153773142Y-122291523D01*
X151836380Y-122308857D02*
X151360190Y-122642190D01*
X151836380Y-122880285D02*
X150836380Y-122880285D01*
X150836380Y-122499333D01*
X150884000Y-122404095D01*
X150931619Y-122356476D01*
X151026857Y-122308857D01*
X151169714Y-122308857D01*
X151264952Y-122356476D01*
X151312571Y-122404095D01*
X151360190Y-122499333D01*
X151360190Y-122880285D01*
X151836380Y-121356476D02*
X151836380Y-121927904D01*
X151836380Y-121642190D02*
X150836380Y-121642190D01*
X150979238Y-121737428D01*
X151074476Y-121832666D01*
X151122095Y-121927904D01*
X151169714Y-120499333D02*
X151836380Y-120499333D01*
X150788761Y-120737428D02*
X151503047Y-120975523D01*
X151503047Y-120356476D01*
X144724380Y-121419857D02*
X144248190Y-121753190D01*
X144724380Y-121991285D02*
X143724380Y-121991285D01*
X143724380Y-121610333D01*
X143772000Y-121515095D01*
X143819619Y-121467476D01*
X143914857Y-121419857D01*
X144057714Y-121419857D01*
X144152952Y-121467476D01*
X144200571Y-121515095D01*
X144248190Y-121610333D01*
X144248190Y-121991285D01*
X144724380Y-120467476D02*
X144724380Y-121038904D01*
X144724380Y-120753190D02*
X143724380Y-120753190D01*
X143867238Y-120848428D01*
X143962476Y-120943666D01*
X144010095Y-121038904D01*
X143724380Y-120134142D02*
X143724380Y-119515095D01*
X144105333Y-119848428D01*
X144105333Y-119705571D01*
X144152952Y-119610333D01*
X144200571Y-119562714D01*
X144295809Y-119515095D01*
X144533904Y-119515095D01*
X144629142Y-119562714D01*
X144676761Y-119610333D01*
X144724380Y-119705571D01*
X144724380Y-119991285D01*
X144676761Y-120086523D01*
X144629142Y-120134142D01*
X147693142Y-119070380D02*
X147359809Y-118594190D01*
X147121714Y-119070380D02*
X147121714Y-118070380D01*
X147502666Y-118070380D01*
X147597904Y-118118000D01*
X147645523Y-118165619D01*
X147693142Y-118260857D01*
X147693142Y-118403714D01*
X147645523Y-118498952D01*
X147597904Y-118546571D01*
X147502666Y-118594190D01*
X147121714Y-118594190D01*
X148645523Y-119070380D02*
X148074095Y-119070380D01*
X148359809Y-119070380D02*
X148359809Y-118070380D01*
X148264571Y-118213238D01*
X148169333Y-118308476D01*
X148074095Y-118356095D01*
X149026476Y-118165619D02*
X149074095Y-118118000D01*
X149169333Y-118070380D01*
X149407428Y-118070380D01*
X149502666Y-118118000D01*
X149550285Y-118165619D01*
X149597904Y-118260857D01*
X149597904Y-118356095D01*
X149550285Y-118498952D01*
X148978857Y-119070380D01*
X149597904Y-119070380D01*
X173624142Y-120240380D02*
X173290809Y-119764190D01*
X173052714Y-120240380D02*
X173052714Y-119240380D01*
X173433666Y-119240380D01*
X173528904Y-119288000D01*
X173576523Y-119335619D01*
X173624142Y-119430857D01*
X173624142Y-119573714D01*
X173576523Y-119668952D01*
X173528904Y-119716571D01*
X173433666Y-119764190D01*
X173052714Y-119764190D01*
X174576523Y-120240380D02*
X174005095Y-120240380D01*
X174290809Y-120240380D02*
X174290809Y-119240380D01*
X174195571Y-119383238D01*
X174100333Y-119478476D01*
X174005095Y-119526095D01*
X175528904Y-120240380D02*
X174957476Y-120240380D01*
X175243190Y-120240380D02*
X175243190Y-119240380D01*
X175147952Y-119383238D01*
X175052714Y-119478476D01*
X174957476Y-119526095D01*
X169716380Y-119029857D02*
X169240190Y-119363190D01*
X169716380Y-119601285D02*
X168716380Y-119601285D01*
X168716380Y-119220333D01*
X168764000Y-119125095D01*
X168811619Y-119077476D01*
X168906857Y-119029857D01*
X169049714Y-119029857D01*
X169144952Y-119077476D01*
X169192571Y-119125095D01*
X169240190Y-119220333D01*
X169240190Y-119601285D01*
X169716380Y-118077476D02*
X169716380Y-118648904D01*
X169716380Y-118363190D02*
X168716380Y-118363190D01*
X168859238Y-118458428D01*
X168954476Y-118553666D01*
X169002095Y-118648904D01*
X168716380Y-117458428D02*
X168716380Y-117363190D01*
X168764000Y-117267952D01*
X168811619Y-117220333D01*
X168906857Y-117172714D01*
X169097333Y-117125095D01*
X169335428Y-117125095D01*
X169525904Y-117172714D01*
X169621142Y-117220333D01*
X169668761Y-117267952D01*
X169716380Y-117363190D01*
X169716380Y-117458428D01*
X169668761Y-117553666D01*
X169621142Y-117601285D01*
X169525904Y-117648904D01*
X169335428Y-117696523D01*
X169097333Y-117696523D01*
X168906857Y-117648904D01*
X168811619Y-117601285D01*
X168764000Y-117553666D01*
X168716380Y-117458428D01*
X159830333Y-87982380D02*
X159497000Y-87506190D01*
X159258904Y-87982380D02*
X159258904Y-86982380D01*
X159639857Y-86982380D01*
X159735095Y-87030000D01*
X159782714Y-87077619D01*
X159830333Y-87172857D01*
X159830333Y-87315714D01*
X159782714Y-87410952D01*
X159735095Y-87458571D01*
X159639857Y-87506190D01*
X159258904Y-87506190D01*
X160306523Y-87982380D02*
X160497000Y-87982380D01*
X160592238Y-87934761D01*
X160639857Y-87887142D01*
X160735095Y-87744285D01*
X160782714Y-87553809D01*
X160782714Y-87172857D01*
X160735095Y-87077619D01*
X160687476Y-87030000D01*
X160592238Y-86982380D01*
X160401761Y-86982380D01*
X160306523Y-87030000D01*
X160258904Y-87077619D01*
X160211285Y-87172857D01*
X160211285Y-87410952D01*
X160258904Y-87506190D01*
X160306523Y-87553809D01*
X160401761Y-87601428D01*
X160592238Y-87601428D01*
X160687476Y-87553809D01*
X160735095Y-87506190D01*
X160782714Y-87410952D01*
X173807380Y-95901666D02*
X173331190Y-96235000D01*
X173807380Y-96473095D02*
X172807380Y-96473095D01*
X172807380Y-96092142D01*
X172855000Y-95996904D01*
X172902619Y-95949285D01*
X172997857Y-95901666D01*
X173140714Y-95901666D01*
X173235952Y-95949285D01*
X173283571Y-95996904D01*
X173331190Y-96092142D01*
X173331190Y-96473095D01*
X173235952Y-95330238D02*
X173188333Y-95425476D01*
X173140714Y-95473095D01*
X173045476Y-95520714D01*
X172997857Y-95520714D01*
X172902619Y-95473095D01*
X172855000Y-95425476D01*
X172807380Y-95330238D01*
X172807380Y-95139761D01*
X172855000Y-95044523D01*
X172902619Y-94996904D01*
X172997857Y-94949285D01*
X173045476Y-94949285D01*
X173140714Y-94996904D01*
X173188333Y-95044523D01*
X173235952Y-95139761D01*
X173235952Y-95330238D01*
X173283571Y-95425476D01*
X173331190Y-95473095D01*
X173426428Y-95520714D01*
X173616904Y-95520714D01*
X173712142Y-95473095D01*
X173759761Y-95425476D01*
X173807380Y-95330238D01*
X173807380Y-95139761D01*
X173759761Y-95044523D01*
X173712142Y-94996904D01*
X173616904Y-94949285D01*
X173426428Y-94949285D01*
X173331190Y-94996904D01*
X173283571Y-95044523D01*
X173235952Y-95139761D01*
X128060380Y-106107666D02*
X127584190Y-106441000D01*
X128060380Y-106679095D02*
X127060380Y-106679095D01*
X127060380Y-106298142D01*
X127108000Y-106202904D01*
X127155619Y-106155285D01*
X127250857Y-106107666D01*
X127393714Y-106107666D01*
X127488952Y-106155285D01*
X127536571Y-106202904D01*
X127584190Y-106298142D01*
X127584190Y-106679095D01*
X127060380Y-105774333D02*
X127060380Y-105107666D01*
X128060380Y-105536238D01*
X131024333Y-110942380D02*
X130691000Y-110466190D01*
X130452904Y-110942380D02*
X130452904Y-109942380D01*
X130833857Y-109942380D01*
X130929095Y-109990000D01*
X130976714Y-110037619D01*
X131024333Y-110132857D01*
X131024333Y-110275714D01*
X130976714Y-110370952D01*
X130929095Y-110418571D01*
X130833857Y-110466190D01*
X130452904Y-110466190D01*
X131881476Y-109942380D02*
X131691000Y-109942380D01*
X131595761Y-109990000D01*
X131548142Y-110037619D01*
X131452904Y-110180476D01*
X131405285Y-110370952D01*
X131405285Y-110751904D01*
X131452904Y-110847142D01*
X131500523Y-110894761D01*
X131595761Y-110942380D01*
X131786238Y-110942380D01*
X131881476Y-110894761D01*
X131929095Y-110847142D01*
X131976714Y-110751904D01*
X131976714Y-110513809D01*
X131929095Y-110418571D01*
X131881476Y-110370952D01*
X131786238Y-110323333D01*
X131595761Y-110323333D01*
X131500523Y-110370952D01*
X131452904Y-110418571D01*
X131405285Y-110513809D01*
X128715333Y-110942380D02*
X128382000Y-110466190D01*
X128143904Y-110942380D02*
X128143904Y-109942380D01*
X128524857Y-109942380D01*
X128620095Y-109990000D01*
X128667714Y-110037619D01*
X128715333Y-110132857D01*
X128715333Y-110275714D01*
X128667714Y-110370952D01*
X128620095Y-110418571D01*
X128524857Y-110466190D01*
X128143904Y-110466190D01*
X129620095Y-109942380D02*
X129143904Y-109942380D01*
X129096285Y-110418571D01*
X129143904Y-110370952D01*
X129239142Y-110323333D01*
X129477238Y-110323333D01*
X129572476Y-110370952D01*
X129620095Y-110418571D01*
X129667714Y-110513809D01*
X129667714Y-110751904D01*
X129620095Y-110847142D01*
X129572476Y-110894761D01*
X129477238Y-110942380D01*
X129239142Y-110942380D01*
X129143904Y-110894761D01*
X129096285Y-110847142D01*
X124504380Y-116521666D02*
X124028190Y-116855000D01*
X124504380Y-117093095D02*
X123504380Y-117093095D01*
X123504380Y-116712142D01*
X123552000Y-116616904D01*
X123599619Y-116569285D01*
X123694857Y-116521666D01*
X123837714Y-116521666D01*
X123932952Y-116569285D01*
X123980571Y-116616904D01*
X124028190Y-116712142D01*
X124028190Y-117093095D01*
X123837714Y-115664523D02*
X124504380Y-115664523D01*
X123456761Y-115902619D02*
X124171047Y-116140714D01*
X124171047Y-115521666D01*
X136750380Y-116775666D02*
X136274190Y-117109000D01*
X136750380Y-117347095D02*
X135750380Y-117347095D01*
X135750380Y-116966142D01*
X135798000Y-116870904D01*
X135845619Y-116823285D01*
X135940857Y-116775666D01*
X136083714Y-116775666D01*
X136178952Y-116823285D01*
X136226571Y-116870904D01*
X136274190Y-116966142D01*
X136274190Y-117347095D01*
X135750380Y-116442333D02*
X135750380Y-115823285D01*
X136131333Y-116156619D01*
X136131333Y-116013761D01*
X136178952Y-115918523D01*
X136226571Y-115870904D01*
X136321809Y-115823285D01*
X136559904Y-115823285D01*
X136655142Y-115870904D01*
X136702761Y-115918523D01*
X136750380Y-116013761D01*
X136750380Y-116299476D01*
X136702761Y-116394714D01*
X136655142Y-116442333D01*
X136231333Y-115260380D02*
X135898000Y-114784190D01*
X135659904Y-115260380D02*
X135659904Y-114260380D01*
X136040857Y-114260380D01*
X136136095Y-114308000D01*
X136183714Y-114355619D01*
X136231333Y-114450857D01*
X136231333Y-114593714D01*
X136183714Y-114688952D01*
X136136095Y-114736571D01*
X136040857Y-114784190D01*
X135659904Y-114784190D01*
X136612285Y-114355619D02*
X136659904Y-114308000D01*
X136755142Y-114260380D01*
X136993238Y-114260380D01*
X137088476Y-114308000D01*
X137136095Y-114355619D01*
X137183714Y-114450857D01*
X137183714Y-114546095D01*
X137136095Y-114688952D01*
X136564666Y-115260380D01*
X137183714Y-115260380D01*
X117943333Y-91892380D02*
X117610000Y-91416190D01*
X117371904Y-91892380D02*
X117371904Y-90892380D01*
X117752857Y-90892380D01*
X117848095Y-90940000D01*
X117895714Y-90987619D01*
X117943333Y-91082857D01*
X117943333Y-91225714D01*
X117895714Y-91320952D01*
X117848095Y-91368571D01*
X117752857Y-91416190D01*
X117371904Y-91416190D01*
X118895714Y-91892380D02*
X118324285Y-91892380D01*
X118610000Y-91892380D02*
X118610000Y-90892380D01*
X118514761Y-91035238D01*
X118419523Y-91130476D01*
X118324285Y-91178095D01*
X127587619Y-88979428D02*
X127540000Y-89074666D01*
X127444761Y-89169904D01*
X127301904Y-89312761D01*
X127254285Y-89408000D01*
X127254285Y-89503238D01*
X127492380Y-89455619D02*
X127444761Y-89550857D01*
X127349523Y-89646095D01*
X127159047Y-89693714D01*
X126825714Y-89693714D01*
X126635238Y-89646095D01*
X126540000Y-89550857D01*
X126492380Y-89455619D01*
X126492380Y-89265142D01*
X126540000Y-89169904D01*
X126635238Y-89074666D01*
X126825714Y-89027047D01*
X127159047Y-89027047D01*
X127349523Y-89074666D01*
X127444761Y-89169904D01*
X127492380Y-89265142D01*
X127492380Y-89455619D01*
X127492380Y-88074666D02*
X127492380Y-88646095D01*
X127492380Y-88360380D02*
X126492380Y-88360380D01*
X126635238Y-88455619D01*
X126730476Y-88550857D01*
X126778095Y-88646095D01*
X126492380Y-87455619D02*
X126492380Y-87360380D01*
X126540000Y-87265142D01*
X126587619Y-87217523D01*
X126682857Y-87169904D01*
X126873333Y-87122285D01*
X127111428Y-87122285D01*
X127301904Y-87169904D01*
X127397142Y-87217523D01*
X127444761Y-87265142D01*
X127492380Y-87360380D01*
X127492380Y-87455619D01*
X127444761Y-87550857D01*
X127397142Y-87598476D01*
X127301904Y-87646095D01*
X127111428Y-87693714D01*
X126873333Y-87693714D01*
X126682857Y-87646095D01*
X126587619Y-87598476D01*
X126540000Y-87550857D01*
X126492380Y-87455619D01*
X137556761Y-85743619D02*
X137461523Y-85696000D01*
X137366285Y-85600761D01*
X137223428Y-85457904D01*
X137128190Y-85410285D01*
X137032952Y-85410285D01*
X137080571Y-85648380D02*
X136985333Y-85600761D01*
X136890095Y-85505523D01*
X136842476Y-85315047D01*
X136842476Y-84981714D01*
X136890095Y-84791238D01*
X136985333Y-84696000D01*
X137080571Y-84648380D01*
X137271047Y-84648380D01*
X137366285Y-84696000D01*
X137461523Y-84791238D01*
X137509142Y-84981714D01*
X137509142Y-85315047D01*
X137461523Y-85505523D01*
X137366285Y-85600761D01*
X137271047Y-85648380D01*
X137080571Y-85648380D01*
X138080571Y-85076952D02*
X137985333Y-85029333D01*
X137937714Y-84981714D01*
X137890095Y-84886476D01*
X137890095Y-84838857D01*
X137937714Y-84743619D01*
X137985333Y-84696000D01*
X138080571Y-84648380D01*
X138271047Y-84648380D01*
X138366285Y-84696000D01*
X138413904Y-84743619D01*
X138461523Y-84838857D01*
X138461523Y-84886476D01*
X138413904Y-84981714D01*
X138366285Y-85029333D01*
X138271047Y-85076952D01*
X138080571Y-85076952D01*
X137985333Y-85124571D01*
X137937714Y-85172190D01*
X137890095Y-85267428D01*
X137890095Y-85457904D01*
X137937714Y-85553142D01*
X137985333Y-85600761D01*
X138080571Y-85648380D01*
X138271047Y-85648380D01*
X138366285Y-85600761D01*
X138413904Y-85553142D01*
X138461523Y-85457904D01*
X138461523Y-85267428D01*
X138413904Y-85172190D01*
X138366285Y-85124571D01*
X138271047Y-85076952D01*
X154471619Y-87979238D02*
X154424000Y-88074476D01*
X154328761Y-88169714D01*
X154185904Y-88312571D01*
X154138285Y-88407809D01*
X154138285Y-88503047D01*
X154376380Y-88455428D02*
X154328761Y-88550666D01*
X154233523Y-88645904D01*
X154043047Y-88693523D01*
X153709714Y-88693523D01*
X153519238Y-88645904D01*
X153424000Y-88550666D01*
X153376380Y-88455428D01*
X153376380Y-88264952D01*
X153424000Y-88169714D01*
X153519238Y-88074476D01*
X153709714Y-88026857D01*
X154043047Y-88026857D01*
X154233523Y-88074476D01*
X154328761Y-88169714D01*
X154376380Y-88264952D01*
X154376380Y-88455428D01*
X153376380Y-87169714D02*
X153376380Y-87360190D01*
X153424000Y-87455428D01*
X153471619Y-87503047D01*
X153614476Y-87598285D01*
X153804952Y-87645904D01*
X154185904Y-87645904D01*
X154281142Y-87598285D01*
X154328761Y-87550666D01*
X154376380Y-87455428D01*
X154376380Y-87264952D01*
X154328761Y-87169714D01*
X154281142Y-87122095D01*
X154185904Y-87074476D01*
X153947809Y-87074476D01*
X153852571Y-87122095D01*
X153804952Y-87169714D01*
X153757333Y-87264952D01*
X153757333Y-87455428D01*
X153804952Y-87550666D01*
X153852571Y-87598285D01*
X153947809Y-87645904D01*
X142557619Y-84407238D02*
X142510000Y-84502476D01*
X142414761Y-84597714D01*
X142271904Y-84740571D01*
X142224285Y-84835809D01*
X142224285Y-84931047D01*
X142462380Y-84883428D02*
X142414761Y-84978666D01*
X142319523Y-85073904D01*
X142129047Y-85121523D01*
X141795714Y-85121523D01*
X141605238Y-85073904D01*
X141510000Y-84978666D01*
X141462380Y-84883428D01*
X141462380Y-84692952D01*
X141510000Y-84597714D01*
X141605238Y-84502476D01*
X141795714Y-84454857D01*
X142129047Y-84454857D01*
X142319523Y-84502476D01*
X142414761Y-84597714D01*
X142462380Y-84692952D01*
X142462380Y-84883428D01*
X141462380Y-83550095D02*
X141462380Y-84026285D01*
X141938571Y-84073904D01*
X141890952Y-84026285D01*
X141843333Y-83931047D01*
X141843333Y-83692952D01*
X141890952Y-83597714D01*
X141938571Y-83550095D01*
X142033809Y-83502476D01*
X142271904Y-83502476D01*
X142367142Y-83550095D01*
X142414761Y-83597714D01*
X142462380Y-83692952D01*
X142462380Y-83931047D01*
X142414761Y-84026285D01*
X142367142Y-84073904D01*
X173145619Y-104489238D02*
X173098000Y-104584476D01*
X173002761Y-104679714D01*
X172859904Y-104822571D01*
X172812285Y-104917809D01*
X172812285Y-105013047D01*
X173050380Y-104965428D02*
X173002761Y-105060666D01*
X172907523Y-105155904D01*
X172717047Y-105203523D01*
X172383714Y-105203523D01*
X172193238Y-105155904D01*
X172098000Y-105060666D01*
X172050380Y-104965428D01*
X172050380Y-104774952D01*
X172098000Y-104679714D01*
X172193238Y-104584476D01*
X172383714Y-104536857D01*
X172717047Y-104536857D01*
X172907523Y-104584476D01*
X173002761Y-104679714D01*
X173050380Y-104774952D01*
X173050380Y-104965428D01*
X172145619Y-104155904D02*
X172098000Y-104108285D01*
X172050380Y-104013047D01*
X172050380Y-103774952D01*
X172098000Y-103679714D01*
X172145619Y-103632095D01*
X172240857Y-103584476D01*
X172336095Y-103584476D01*
X172478952Y-103632095D01*
X173050380Y-104203523D01*
X173050380Y-103584476D01*
X177339761Y-98104619D02*
X177244523Y-98057000D01*
X177149285Y-97961761D01*
X177006428Y-97818904D01*
X176911190Y-97771285D01*
X176815952Y-97771285D01*
X176863571Y-98009380D02*
X176768333Y-97961761D01*
X176673095Y-97866523D01*
X176625476Y-97676047D01*
X176625476Y-97342714D01*
X176673095Y-97152238D01*
X176768333Y-97057000D01*
X176863571Y-97009380D01*
X177054047Y-97009380D01*
X177149285Y-97057000D01*
X177244523Y-97152238D01*
X177292142Y-97342714D01*
X177292142Y-97676047D01*
X177244523Y-97866523D01*
X177149285Y-97961761D01*
X177054047Y-98009380D01*
X176863571Y-98009380D01*
X178244523Y-98009380D02*
X177673095Y-98009380D01*
X177958809Y-98009380D02*
X177958809Y-97009380D01*
X177863571Y-97152238D01*
X177768333Y-97247476D01*
X177673095Y-97295095D01*
X147104380Y-97677166D02*
X147104380Y-98153357D01*
X146104380Y-98153357D01*
X147104380Y-96820023D02*
X147104380Y-97391452D01*
X147104380Y-97105738D02*
X146104380Y-97105738D01*
X146247238Y-97200976D01*
X146342476Y-97296214D01*
X146390095Y-97391452D01*
X121880380Y-89995333D02*
X122594666Y-89995333D01*
X122737523Y-90042952D01*
X122832761Y-90138190D01*
X122880380Y-90281047D01*
X122880380Y-90376285D01*
X122308952Y-89376285D02*
X122261333Y-89471523D01*
X122213714Y-89519142D01*
X122118476Y-89566761D01*
X122070857Y-89566761D01*
X121975619Y-89519142D01*
X121928000Y-89471523D01*
X121880380Y-89376285D01*
X121880380Y-89185809D01*
X121928000Y-89090571D01*
X121975619Y-89042952D01*
X122070857Y-88995333D01*
X122118476Y-88995333D01*
X122213714Y-89042952D01*
X122261333Y-89090571D01*
X122308952Y-89185809D01*
X122308952Y-89376285D01*
X122356571Y-89471523D01*
X122404190Y-89519142D01*
X122499428Y-89566761D01*
X122689904Y-89566761D01*
X122785142Y-89519142D01*
X122832761Y-89471523D01*
X122880380Y-89376285D01*
X122880380Y-89185809D01*
X122832761Y-89090571D01*
X122785142Y-89042952D01*
X122689904Y-88995333D01*
X122499428Y-88995333D01*
X122404190Y-89042952D01*
X122356571Y-89090571D01*
X122308952Y-89185809D01*
X139660380Y-84661333D02*
X140374666Y-84661333D01*
X140517523Y-84708952D01*
X140612761Y-84804190D01*
X140660380Y-84947047D01*
X140660380Y-85042285D01*
X139660380Y-84280380D02*
X139660380Y-83613714D01*
X140660380Y-84042285D01*
X133056380Y-84661333D02*
X133770666Y-84661333D01*
X133913523Y-84708952D01*
X134008761Y-84804190D01*
X134056380Y-84947047D01*
X134056380Y-85042285D01*
X133056380Y-83756571D02*
X133056380Y-83947047D01*
X133104000Y-84042285D01*
X133151619Y-84089904D01*
X133294476Y-84185142D01*
X133484952Y-84232761D01*
X133865904Y-84232761D01*
X133961142Y-84185142D01*
X134008761Y-84137523D01*
X134056380Y-84042285D01*
X134056380Y-83851809D01*
X134008761Y-83756571D01*
X133961142Y-83708952D01*
X133865904Y-83661333D01*
X133627809Y-83661333D01*
X133532571Y-83708952D01*
X133484952Y-83756571D01*
X133437333Y-83851809D01*
X133437333Y-84042285D01*
X133484952Y-84137523D01*
X133532571Y-84185142D01*
X133627809Y-84232761D01*
X152360380Y-82121333D02*
X153074666Y-82121333D01*
X153217523Y-82168952D01*
X153312761Y-82264190D01*
X153360380Y-82407047D01*
X153360380Y-82502285D01*
X152360380Y-81168952D02*
X152360380Y-81645142D01*
X152836571Y-81692761D01*
X152788952Y-81645142D01*
X152741333Y-81549904D01*
X152741333Y-81311809D01*
X152788952Y-81216571D01*
X152836571Y-81168952D01*
X152931809Y-81121333D01*
X153169904Y-81121333D01*
X153265142Y-81168952D01*
X153312761Y-81216571D01*
X153360380Y-81311809D01*
X153360380Y-81549904D01*
X153312761Y-81645142D01*
X153265142Y-81692761D01*
X115530380Y-89741333D02*
X116244666Y-89741333D01*
X116387523Y-89788952D01*
X116482761Y-89884190D01*
X116530380Y-90027047D01*
X116530380Y-90122285D01*
X115863714Y-88836571D02*
X116530380Y-88836571D01*
X115482761Y-89074666D02*
X116197047Y-89312761D01*
X116197047Y-88693714D01*
X112872166Y-116386571D02*
X112538833Y-116386571D01*
X112538833Y-116910380D02*
X112538833Y-115910380D01*
X113015023Y-115910380D01*
X113348357Y-116005619D02*
X113395976Y-115958000D01*
X113491214Y-115910380D01*
X113729309Y-115910380D01*
X113824547Y-115958000D01*
X113872166Y-116005619D01*
X113919785Y-116100857D01*
X113919785Y-116196095D01*
X113872166Y-116338952D01*
X113300738Y-116910380D01*
X113919785Y-116910380D01*
X111814571Y-100663333D02*
X111814571Y-100996666D01*
X112338380Y-100996666D02*
X111338380Y-100996666D01*
X111338380Y-100520476D01*
X112338380Y-99615714D02*
X112338380Y-100187142D01*
X112338380Y-99901428D02*
X111338380Y-99901428D01*
X111481238Y-99996666D01*
X111576476Y-100091904D01*
X111624095Y-100187142D01*
X145123714Y-75554380D02*
X145123714Y-74554380D01*
X145361809Y-74554380D01*
X145504666Y-74602000D01*
X145599904Y-74697238D01*
X145647523Y-74792476D01*
X145695142Y-74982952D01*
X145695142Y-75125809D01*
X145647523Y-75316285D01*
X145599904Y-75411523D01*
X145504666Y-75506761D01*
X145361809Y-75554380D01*
X145123714Y-75554380D01*
X146647523Y-75554380D02*
X146076095Y-75554380D01*
X146361809Y-75554380D02*
X146361809Y-74554380D01*
X146266571Y-74697238D01*
X146171333Y-74792476D01*
X146076095Y-74840095D01*
X147123714Y-75554380D02*
X147314190Y-75554380D01*
X147409428Y-75506761D01*
X147457047Y-75459142D01*
X147552285Y-75316285D01*
X147599904Y-75125809D01*
X147599904Y-74744857D01*
X147552285Y-74649619D01*
X147504666Y-74602000D01*
X147409428Y-74554380D01*
X147218952Y-74554380D01*
X147123714Y-74602000D01*
X147076095Y-74649619D01*
X147028476Y-74744857D01*
X147028476Y-74982952D01*
X147076095Y-75078190D01*
X147123714Y-75125809D01*
X147218952Y-75173428D01*
X147409428Y-75173428D01*
X147504666Y-75125809D01*
X147552285Y-75078190D01*
X147599904Y-74982952D01*
X144869714Y-79618380D02*
X144869714Y-78618380D01*
X145107809Y-78618380D01*
X145250666Y-78666000D01*
X145345904Y-78761238D01*
X145393523Y-78856476D01*
X145441142Y-79046952D01*
X145441142Y-79189809D01*
X145393523Y-79380285D01*
X145345904Y-79475523D01*
X145250666Y-79570761D01*
X145107809Y-79618380D01*
X144869714Y-79618380D01*
X146393523Y-79618380D02*
X145822095Y-79618380D01*
X146107809Y-79618380D02*
X146107809Y-78618380D01*
X146012571Y-78761238D01*
X145917333Y-78856476D01*
X145822095Y-78904095D01*
X146964952Y-79046952D02*
X146869714Y-78999333D01*
X146822095Y-78951714D01*
X146774476Y-78856476D01*
X146774476Y-78808857D01*
X146822095Y-78713619D01*
X146869714Y-78666000D01*
X146964952Y-78618380D01*
X147155428Y-78618380D01*
X147250666Y-78666000D01*
X147298285Y-78713619D01*
X147345904Y-78808857D01*
X147345904Y-78856476D01*
X147298285Y-78951714D01*
X147250666Y-78999333D01*
X147155428Y-79046952D01*
X146964952Y-79046952D01*
X146869714Y-79094571D01*
X146822095Y-79142190D01*
X146774476Y-79237428D01*
X146774476Y-79427904D01*
X146822095Y-79523142D01*
X146869714Y-79570761D01*
X146964952Y-79618380D01*
X147155428Y-79618380D01*
X147250666Y-79570761D01*
X147298285Y-79523142D01*
X147345904Y-79427904D01*
X147345904Y-79237428D01*
X147298285Y-79142190D01*
X147250666Y-79094571D01*
X147155428Y-79046952D01*
X126259714Y-71146380D02*
X126259714Y-70146380D01*
X126497809Y-70146380D01*
X126640666Y-70194000D01*
X126735904Y-70289238D01*
X126783523Y-70384476D01*
X126831142Y-70574952D01*
X126831142Y-70717809D01*
X126783523Y-70908285D01*
X126735904Y-71003523D01*
X126640666Y-71098761D01*
X126497809Y-71146380D01*
X126259714Y-71146380D01*
X127783523Y-71146380D02*
X127212095Y-71146380D01*
X127497809Y-71146380D02*
X127497809Y-70146380D01*
X127402571Y-70289238D01*
X127307333Y-70384476D01*
X127212095Y-70432095D01*
X128116857Y-70146380D02*
X128783523Y-70146380D01*
X128354952Y-71146380D01*
X126547714Y-75128380D02*
X126547714Y-74128380D01*
X126785809Y-74128380D01*
X126928666Y-74176000D01*
X127023904Y-74271238D01*
X127071523Y-74366476D01*
X127119142Y-74556952D01*
X127119142Y-74699809D01*
X127071523Y-74890285D01*
X127023904Y-74985523D01*
X126928666Y-75080761D01*
X126785809Y-75128380D01*
X126547714Y-75128380D01*
X128071523Y-75128380D02*
X127500095Y-75128380D01*
X127785809Y-75128380D02*
X127785809Y-74128380D01*
X127690571Y-74271238D01*
X127595333Y-74366476D01*
X127500095Y-74414095D01*
X128928666Y-74128380D02*
X128738190Y-74128380D01*
X128642952Y-74176000D01*
X128595333Y-74223619D01*
X128500095Y-74366476D01*
X128452476Y-74556952D01*
X128452476Y-74937904D01*
X128500095Y-75033142D01*
X128547714Y-75080761D01*
X128642952Y-75128380D01*
X128833428Y-75128380D01*
X128928666Y-75080761D01*
X128976285Y-75033142D01*
X129023904Y-74937904D01*
X129023904Y-74699809D01*
X128976285Y-74604571D01*
X128928666Y-74556952D01*
X128833428Y-74509333D01*
X128642952Y-74509333D01*
X128547714Y-74556952D01*
X128500095Y-74604571D01*
X128452476Y-74699809D01*
X136088380Y-83002285D02*
X135088380Y-83002285D01*
X135088380Y-82764190D01*
X135136000Y-82621333D01*
X135231238Y-82526095D01*
X135326476Y-82478476D01*
X135516952Y-82430857D01*
X135659809Y-82430857D01*
X135850285Y-82478476D01*
X135945523Y-82526095D01*
X136040761Y-82621333D01*
X136088380Y-82764190D01*
X136088380Y-83002285D01*
X136088380Y-81478476D02*
X136088380Y-82049904D01*
X136088380Y-81764190D02*
X135088380Y-81764190D01*
X135231238Y-81859428D01*
X135326476Y-81954666D01*
X135374095Y-82049904D01*
X135088380Y-80573714D02*
X135088380Y-81049904D01*
X135564571Y-81097523D01*
X135516952Y-81049904D01*
X135469333Y-80954666D01*
X135469333Y-80716571D01*
X135516952Y-80621333D01*
X135564571Y-80573714D01*
X135659809Y-80526095D01*
X135897904Y-80526095D01*
X135993142Y-80573714D01*
X136040761Y-80621333D01*
X136088380Y-80716571D01*
X136088380Y-80954666D01*
X136040761Y-81049904D01*
X135993142Y-81097523D01*
X154376380Y-76548285D02*
X153376380Y-76548285D01*
X153376380Y-76310190D01*
X153424000Y-76167333D01*
X153519238Y-76072095D01*
X153614476Y-76024476D01*
X153804952Y-75976857D01*
X153947809Y-75976857D01*
X154138285Y-76024476D01*
X154233523Y-76072095D01*
X154328761Y-76167333D01*
X154376380Y-76310190D01*
X154376380Y-76548285D01*
X154376380Y-75024476D02*
X154376380Y-75595904D01*
X154376380Y-75310190D02*
X153376380Y-75310190D01*
X153519238Y-75405428D01*
X153614476Y-75500666D01*
X153662095Y-75595904D01*
X153709714Y-74167333D02*
X154376380Y-74167333D01*
X153328761Y-74405428D02*
X154043047Y-74643523D01*
X154043047Y-74024476D01*
X172775714Y-108640380D02*
X172775714Y-107640380D01*
X173013809Y-107640380D01*
X173156666Y-107688000D01*
X173251904Y-107783238D01*
X173299523Y-107878476D01*
X173347142Y-108068952D01*
X173347142Y-108211809D01*
X173299523Y-108402285D01*
X173251904Y-108497523D01*
X173156666Y-108592761D01*
X173013809Y-108640380D01*
X172775714Y-108640380D01*
X174299523Y-108640380D02*
X173728095Y-108640380D01*
X174013809Y-108640380D02*
X174013809Y-107640380D01*
X173918571Y-107783238D01*
X173823333Y-107878476D01*
X173728095Y-107926095D01*
X174632857Y-107640380D02*
X175251904Y-107640380D01*
X174918571Y-108021333D01*
X175061428Y-108021333D01*
X175156666Y-108068952D01*
X175204285Y-108116571D01*
X175251904Y-108211809D01*
X175251904Y-108449904D01*
X175204285Y-108545142D01*
X175156666Y-108592761D01*
X175061428Y-108640380D01*
X174775714Y-108640380D01*
X174680476Y-108592761D01*
X174632857Y-108545142D01*
X161234380Y-85068285D02*
X160234380Y-85068285D01*
X160234380Y-84830190D01*
X160282000Y-84687333D01*
X160377238Y-84592095D01*
X160472476Y-84544476D01*
X160662952Y-84496857D01*
X160805809Y-84496857D01*
X160996285Y-84544476D01*
X161091523Y-84592095D01*
X161186761Y-84687333D01*
X161234380Y-84830190D01*
X161234380Y-85068285D01*
X161234380Y-83544476D02*
X161234380Y-84115904D01*
X161234380Y-83830190D02*
X160234380Y-83830190D01*
X160377238Y-83925428D01*
X160472476Y-84020666D01*
X160520095Y-84115904D01*
X160329619Y-83163523D02*
X160282000Y-83115904D01*
X160234380Y-83020666D01*
X160234380Y-82782571D01*
X160282000Y-82687333D01*
X160329619Y-82639714D01*
X160424857Y-82592095D01*
X160520095Y-82592095D01*
X160662952Y-82639714D01*
X161234380Y-83211142D01*
X161234380Y-82592095D01*
X111876380Y-73824285D02*
X110876380Y-73824285D01*
X110876380Y-73586190D01*
X110924000Y-73443333D01*
X111019238Y-73348095D01*
X111114476Y-73300476D01*
X111304952Y-73252857D01*
X111447809Y-73252857D01*
X111638285Y-73300476D01*
X111733523Y-73348095D01*
X111828761Y-73443333D01*
X111876380Y-73586190D01*
X111876380Y-73824285D01*
X111876380Y-72300476D02*
X111876380Y-72871904D01*
X111876380Y-72586190D02*
X110876380Y-72586190D01*
X111019238Y-72681428D01*
X111114476Y-72776666D01*
X111162095Y-72871904D01*
X111876380Y-71348095D02*
X111876380Y-71919523D01*
X111876380Y-71633809D02*
X110876380Y-71633809D01*
X111019238Y-71729047D01*
X111114476Y-71824285D01*
X111162095Y-71919523D01*
X108402380Y-86558285D02*
X107402380Y-86558285D01*
X107402380Y-86320190D01*
X107450000Y-86177333D01*
X107545238Y-86082095D01*
X107640476Y-86034476D01*
X107830952Y-85986857D01*
X107973809Y-85986857D01*
X108164285Y-86034476D01*
X108259523Y-86082095D01*
X108354761Y-86177333D01*
X108402380Y-86320190D01*
X108402380Y-86558285D01*
X108402380Y-85034476D02*
X108402380Y-85605904D01*
X108402380Y-85320190D02*
X107402380Y-85320190D01*
X107545238Y-85415428D01*
X107640476Y-85510666D01*
X107688095Y-85605904D01*
X107402380Y-84415428D02*
X107402380Y-84320190D01*
X107450000Y-84224952D01*
X107497619Y-84177333D01*
X107592857Y-84129714D01*
X107783333Y-84082095D01*
X108021428Y-84082095D01*
X108211904Y-84129714D01*
X108307142Y-84177333D01*
X108354761Y-84224952D01*
X108402380Y-84320190D01*
X108402380Y-84415428D01*
X108354761Y-84510666D01*
X108307142Y-84558285D01*
X108211904Y-84605904D01*
X108021428Y-84653523D01*
X107783333Y-84653523D01*
X107592857Y-84605904D01*
X107497619Y-84558285D01*
X107450000Y-84510666D01*
X107402380Y-84415428D01*
X126100380Y-80968095D02*
X125100380Y-80968095D01*
X125100380Y-80730000D01*
X125148000Y-80587142D01*
X125243238Y-80491904D01*
X125338476Y-80444285D01*
X125528952Y-80396666D01*
X125671809Y-80396666D01*
X125862285Y-80444285D01*
X125957523Y-80491904D01*
X126052761Y-80587142D01*
X126100380Y-80730000D01*
X126100380Y-80968095D01*
X126100380Y-79920476D02*
X126100380Y-79730000D01*
X126052761Y-79634761D01*
X126005142Y-79587142D01*
X125862285Y-79491904D01*
X125671809Y-79444285D01*
X125290857Y-79444285D01*
X125195619Y-79491904D01*
X125148000Y-79539523D01*
X125100380Y-79634761D01*
X125100380Y-79825238D01*
X125148000Y-79920476D01*
X125195619Y-79968095D01*
X125290857Y-80015714D01*
X125528952Y-80015714D01*
X125624190Y-79968095D01*
X125671809Y-79920476D01*
X125719428Y-79825238D01*
X125719428Y-79634761D01*
X125671809Y-79539523D01*
X125624190Y-79491904D01*
X125528952Y-79444285D01*
X120340380Y-73078095D02*
X119340380Y-73078095D01*
X119340380Y-72840000D01*
X119388000Y-72697142D01*
X119483238Y-72601904D01*
X119578476Y-72554285D01*
X119768952Y-72506666D01*
X119911809Y-72506666D01*
X120102285Y-72554285D01*
X120197523Y-72601904D01*
X120292761Y-72697142D01*
X120340380Y-72840000D01*
X120340380Y-73078095D01*
X119768952Y-71935238D02*
X119721333Y-72030476D01*
X119673714Y-72078095D01*
X119578476Y-72125714D01*
X119530857Y-72125714D01*
X119435619Y-72078095D01*
X119388000Y-72030476D01*
X119340380Y-71935238D01*
X119340380Y-71744761D01*
X119388000Y-71649523D01*
X119435619Y-71601904D01*
X119530857Y-71554285D01*
X119578476Y-71554285D01*
X119673714Y-71601904D01*
X119721333Y-71649523D01*
X119768952Y-71744761D01*
X119768952Y-71935238D01*
X119816571Y-72030476D01*
X119864190Y-72078095D01*
X119959428Y-72125714D01*
X120149904Y-72125714D01*
X120245142Y-72078095D01*
X120292761Y-72030476D01*
X120340380Y-71935238D01*
X120340380Y-71744761D01*
X120292761Y-71649523D01*
X120245142Y-71601904D01*
X120149904Y-71554285D01*
X119959428Y-71554285D01*
X119864190Y-71601904D01*
X119816571Y-71649523D01*
X119768952Y-71744761D01*
X149629904Y-71064380D02*
X149629904Y-70064380D01*
X149868000Y-70064380D01*
X150010857Y-70112000D01*
X150106095Y-70207238D01*
X150153714Y-70302476D01*
X150201333Y-70492952D01*
X150201333Y-70635809D01*
X150153714Y-70826285D01*
X150106095Y-70921523D01*
X150010857Y-71016761D01*
X149868000Y-71064380D01*
X149629904Y-71064380D01*
X150534666Y-70064380D02*
X151201333Y-70064380D01*
X150772761Y-71064380D01*
X152598380Y-119356095D02*
X151598380Y-119356095D01*
X151598380Y-119118000D01*
X151646000Y-118975142D01*
X151741238Y-118879904D01*
X151836476Y-118832285D01*
X152026952Y-118784666D01*
X152169809Y-118784666D01*
X152360285Y-118832285D01*
X152455523Y-118879904D01*
X152550761Y-118975142D01*
X152598380Y-119118000D01*
X152598380Y-119356095D01*
X151598380Y-117927523D02*
X151598380Y-118118000D01*
X151646000Y-118213238D01*
X151693619Y-118260857D01*
X151836476Y-118356095D01*
X152026952Y-118403714D01*
X152407904Y-118403714D01*
X152503142Y-118356095D01*
X152550761Y-118308476D01*
X152598380Y-118213238D01*
X152598380Y-118022761D01*
X152550761Y-117927523D01*
X152503142Y-117879904D01*
X152407904Y-117832285D01*
X152169809Y-117832285D01*
X152074571Y-117879904D01*
X152026952Y-117927523D01*
X151979333Y-118022761D01*
X151979333Y-118213238D01*
X152026952Y-118308476D01*
X152074571Y-118356095D01*
X152169809Y-118403714D01*
X132024380Y-109072095D02*
X131024380Y-109072095D01*
X131024380Y-108834000D01*
X131072000Y-108691142D01*
X131167238Y-108595904D01*
X131262476Y-108548285D01*
X131452952Y-108500666D01*
X131595809Y-108500666D01*
X131786285Y-108548285D01*
X131881523Y-108595904D01*
X131976761Y-108691142D01*
X132024380Y-108834000D01*
X132024380Y-109072095D01*
X131024380Y-107595904D02*
X131024380Y-108072095D01*
X131500571Y-108119714D01*
X131452952Y-108072095D01*
X131405333Y-107976857D01*
X131405333Y-107738761D01*
X131452952Y-107643523D01*
X131500571Y-107595904D01*
X131595809Y-107548285D01*
X131833904Y-107548285D01*
X131929142Y-107595904D01*
X131976761Y-107643523D01*
X132024380Y-107738761D01*
X132024380Y-107976857D01*
X131976761Y-108072095D01*
X131929142Y-108119714D01*
X114323904Y-111958380D02*
X114323904Y-110958380D01*
X114562000Y-110958380D01*
X114704857Y-111006000D01*
X114800095Y-111101238D01*
X114847714Y-111196476D01*
X114895333Y-111386952D01*
X114895333Y-111529809D01*
X114847714Y-111720285D01*
X114800095Y-111815523D01*
X114704857Y-111910761D01*
X114562000Y-111958380D01*
X114323904Y-111958380D01*
X115752476Y-111291714D02*
X115752476Y-111958380D01*
X115514380Y-110910761D02*
X115276285Y-111625047D01*
X115895333Y-111625047D01*
X110434380Y-116816095D02*
X109434380Y-116816095D01*
X109434380Y-116578000D01*
X109482000Y-116435142D01*
X109577238Y-116339904D01*
X109672476Y-116292285D01*
X109862952Y-116244666D01*
X110005809Y-116244666D01*
X110196285Y-116292285D01*
X110291523Y-116339904D01*
X110386761Y-116435142D01*
X110434380Y-116578000D01*
X110434380Y-116816095D01*
X109434380Y-115911333D02*
X109434380Y-115292285D01*
X109815333Y-115625619D01*
X109815333Y-115482761D01*
X109862952Y-115387523D01*
X109910571Y-115339904D01*
X110005809Y-115292285D01*
X110243904Y-115292285D01*
X110339142Y-115339904D01*
X110386761Y-115387523D01*
X110434380Y-115482761D01*
X110434380Y-115768476D01*
X110386761Y-115863714D01*
X110339142Y-115911333D01*
X130429904Y-114398380D02*
X130429904Y-113398380D01*
X130668000Y-113398380D01*
X130810857Y-113446000D01*
X130906095Y-113541238D01*
X130953714Y-113636476D01*
X131001333Y-113826952D01*
X131001333Y-113969809D01*
X130953714Y-114160285D01*
X130906095Y-114255523D01*
X130810857Y-114350761D01*
X130668000Y-114398380D01*
X130429904Y-114398380D01*
X131382285Y-113493619D02*
X131429904Y-113446000D01*
X131525142Y-113398380D01*
X131763238Y-113398380D01*
X131858476Y-113446000D01*
X131906095Y-113493619D01*
X131953714Y-113588857D01*
X131953714Y-113684095D01*
X131906095Y-113826952D01*
X131334666Y-114398380D01*
X131953714Y-114398380D01*
X128143904Y-114398380D02*
X128143904Y-113398380D01*
X128382000Y-113398380D01*
X128524857Y-113446000D01*
X128620095Y-113541238D01*
X128667714Y-113636476D01*
X128715333Y-113826952D01*
X128715333Y-113969809D01*
X128667714Y-114160285D01*
X128620095Y-114255523D01*
X128524857Y-114350761D01*
X128382000Y-114398380D01*
X128143904Y-114398380D01*
X129667714Y-114398380D02*
X129096285Y-114398380D01*
X129382000Y-114398380D02*
X129382000Y-113398380D01*
X129286761Y-113541238D01*
X129191523Y-113636476D01*
X129096285Y-113684095D01*
X129913142Y-78589142D02*
X129865523Y-78636761D01*
X129722666Y-78684380D01*
X129627428Y-78684380D01*
X129484571Y-78636761D01*
X129389333Y-78541523D01*
X129341714Y-78446285D01*
X129294095Y-78255809D01*
X129294095Y-78112952D01*
X129341714Y-77922476D01*
X129389333Y-77827238D01*
X129484571Y-77732000D01*
X129627428Y-77684380D01*
X129722666Y-77684380D01*
X129865523Y-77732000D01*
X129913142Y-77779619D01*
X130294095Y-77779619D02*
X130341714Y-77732000D01*
X130436952Y-77684380D01*
X130675047Y-77684380D01*
X130770285Y-77732000D01*
X130817904Y-77779619D01*
X130865523Y-77874857D01*
X130865523Y-77970095D01*
X130817904Y-78112952D01*
X130246476Y-78684380D01*
X130865523Y-78684380D01*
X131770285Y-77684380D02*
X131294095Y-77684380D01*
X131246476Y-78160571D01*
X131294095Y-78112952D01*
X131389333Y-78065333D01*
X131627428Y-78065333D01*
X131722666Y-78112952D01*
X131770285Y-78160571D01*
X131817904Y-78255809D01*
X131817904Y-78493904D01*
X131770285Y-78589142D01*
X131722666Y-78636761D01*
X131627428Y-78684380D01*
X131389333Y-78684380D01*
X131294095Y-78636761D01*
X131246476Y-78589142D01*
X147931142Y-89542857D02*
X147978761Y-89590476D01*
X148026380Y-89733333D01*
X148026380Y-89828571D01*
X147978761Y-89971428D01*
X147883523Y-90066666D01*
X147788285Y-90114285D01*
X147597809Y-90161904D01*
X147454952Y-90161904D01*
X147264476Y-90114285D01*
X147169238Y-90066666D01*
X147074000Y-89971428D01*
X147026380Y-89828571D01*
X147026380Y-89733333D01*
X147074000Y-89590476D01*
X147121619Y-89542857D01*
X147121619Y-89161904D02*
X147074000Y-89114285D01*
X147026380Y-89019047D01*
X147026380Y-88780952D01*
X147074000Y-88685714D01*
X147121619Y-88638095D01*
X147216857Y-88590476D01*
X147312095Y-88590476D01*
X147454952Y-88638095D01*
X148026380Y-89209523D01*
X148026380Y-88590476D01*
X147359714Y-87733333D02*
X148026380Y-87733333D01*
X146978761Y-87971428D02*
X147693047Y-88209523D01*
X147693047Y-87590476D01*
X127865142Y-94853857D02*
X127912761Y-94901476D01*
X127960380Y-95044333D01*
X127960380Y-95139571D01*
X127912761Y-95282428D01*
X127817523Y-95377666D01*
X127722285Y-95425285D01*
X127531809Y-95472904D01*
X127388952Y-95472904D01*
X127198476Y-95425285D01*
X127103238Y-95377666D01*
X127008000Y-95282428D01*
X126960380Y-95139571D01*
X126960380Y-95044333D01*
X127008000Y-94901476D01*
X127055619Y-94853857D01*
X127055619Y-94472904D02*
X127008000Y-94425285D01*
X126960380Y-94330047D01*
X126960380Y-94091952D01*
X127008000Y-93996714D01*
X127055619Y-93949095D01*
X127150857Y-93901476D01*
X127246095Y-93901476D01*
X127388952Y-93949095D01*
X127960380Y-94520523D01*
X127960380Y-93901476D01*
X126960380Y-93568142D02*
X126960380Y-92949095D01*
X127341333Y-93282428D01*
X127341333Y-93139571D01*
X127388952Y-93044333D01*
X127436571Y-92996714D01*
X127531809Y-92949095D01*
X127769904Y-92949095D01*
X127865142Y-92996714D01*
X127912761Y-93044333D01*
X127960380Y-93139571D01*
X127960380Y-93425285D01*
X127912761Y-93520523D01*
X127865142Y-93568142D01*
X165965142Y-75572857D02*
X166012761Y-75620476D01*
X166060380Y-75763333D01*
X166060380Y-75858571D01*
X166012761Y-76001428D01*
X165917523Y-76096666D01*
X165822285Y-76144285D01*
X165631809Y-76191904D01*
X165488952Y-76191904D01*
X165298476Y-76144285D01*
X165203238Y-76096666D01*
X165108000Y-76001428D01*
X165060380Y-75858571D01*
X165060380Y-75763333D01*
X165108000Y-75620476D01*
X165155619Y-75572857D01*
X165155619Y-75191904D02*
X165108000Y-75144285D01*
X165060380Y-75049047D01*
X165060380Y-74810952D01*
X165108000Y-74715714D01*
X165155619Y-74668095D01*
X165250857Y-74620476D01*
X165346095Y-74620476D01*
X165488952Y-74668095D01*
X166060380Y-75239523D01*
X166060380Y-74620476D01*
X165155619Y-74239523D02*
X165108000Y-74191904D01*
X165060380Y-74096666D01*
X165060380Y-73858571D01*
X165108000Y-73763333D01*
X165155619Y-73715714D01*
X165250857Y-73668095D01*
X165346095Y-73668095D01*
X165488952Y-73715714D01*
X166060380Y-74287142D01*
X166060380Y-73668095D01*
X164567142Y-73462357D02*
X164614761Y-73509976D01*
X164662380Y-73652833D01*
X164662380Y-73748071D01*
X164614761Y-73890928D01*
X164519523Y-73986166D01*
X164424285Y-74033785D01*
X164233809Y-74081404D01*
X164090952Y-74081404D01*
X163900476Y-74033785D01*
X163805238Y-73986166D01*
X163710000Y-73890928D01*
X163662380Y-73748071D01*
X163662380Y-73652833D01*
X163710000Y-73509976D01*
X163757619Y-73462357D01*
X163757619Y-73081404D02*
X163710000Y-73033785D01*
X163662380Y-72938547D01*
X163662380Y-72700452D01*
X163710000Y-72605214D01*
X163757619Y-72557595D01*
X163852857Y-72509976D01*
X163948095Y-72509976D01*
X164090952Y-72557595D01*
X164662380Y-73129023D01*
X164662380Y-72509976D01*
X164662380Y-71557595D02*
X164662380Y-72129023D01*
X164662380Y-71843309D02*
X163662380Y-71843309D01*
X163805238Y-71938547D01*
X163900476Y-72033785D01*
X163948095Y-72129023D01*
X161519142Y-73462357D02*
X161566761Y-73509976D01*
X161614380Y-73652833D01*
X161614380Y-73748071D01*
X161566761Y-73890928D01*
X161471523Y-73986166D01*
X161376285Y-74033785D01*
X161185809Y-74081404D01*
X161042952Y-74081404D01*
X160852476Y-74033785D01*
X160757238Y-73986166D01*
X160662000Y-73890928D01*
X160614380Y-73748071D01*
X160614380Y-73652833D01*
X160662000Y-73509976D01*
X160709619Y-73462357D01*
X160709619Y-73081404D02*
X160662000Y-73033785D01*
X160614380Y-72938547D01*
X160614380Y-72700452D01*
X160662000Y-72605214D01*
X160709619Y-72557595D01*
X160804857Y-72509976D01*
X160900095Y-72509976D01*
X161042952Y-72557595D01*
X161614380Y-73129023D01*
X161614380Y-72509976D01*
X160614380Y-71890928D02*
X160614380Y-71795690D01*
X160662000Y-71700452D01*
X160709619Y-71652833D01*
X160804857Y-71605214D01*
X160995333Y-71557595D01*
X161233428Y-71557595D01*
X161423904Y-71605214D01*
X161519142Y-71652833D01*
X161566761Y-71700452D01*
X161614380Y-71795690D01*
X161614380Y-71890928D01*
X161566761Y-71986166D01*
X161519142Y-72033785D01*
X161423904Y-72081404D01*
X161233428Y-72129023D01*
X160995333Y-72129023D01*
X160804857Y-72081404D01*
X160709619Y-72033785D01*
X160662000Y-71986166D01*
X160614380Y-71890928D01*
X173177142Y-122585857D02*
X173224761Y-122633476D01*
X173272380Y-122776333D01*
X173272380Y-122871571D01*
X173224761Y-123014428D01*
X173129523Y-123109666D01*
X173034285Y-123157285D01*
X172843809Y-123204904D01*
X172700952Y-123204904D01*
X172510476Y-123157285D01*
X172415238Y-123109666D01*
X172320000Y-123014428D01*
X172272380Y-122871571D01*
X172272380Y-122776333D01*
X172320000Y-122633476D01*
X172367619Y-122585857D01*
X173272380Y-121633476D02*
X173272380Y-122204904D01*
X173272380Y-121919190D02*
X172272380Y-121919190D01*
X172415238Y-122014428D01*
X172510476Y-122109666D01*
X172558095Y-122204904D01*
X173272380Y-121157285D02*
X173272380Y-120966809D01*
X173224761Y-120871571D01*
X173177142Y-120823952D01*
X173034285Y-120728714D01*
X172843809Y-120681095D01*
X172462857Y-120681095D01*
X172367619Y-120728714D01*
X172320000Y-120776333D01*
X172272380Y-120871571D01*
X172272380Y-121062047D01*
X172320000Y-121157285D01*
X172367619Y-121204904D01*
X172462857Y-121252523D01*
X172700952Y-121252523D01*
X172796190Y-121204904D01*
X172843809Y-121157285D01*
X172891428Y-121062047D01*
X172891428Y-120871571D01*
X172843809Y-120776333D01*
X172796190Y-120728714D01*
X172700952Y-120681095D01*
X165839142Y-121879357D02*
X165886761Y-121926976D01*
X165934380Y-122069833D01*
X165934380Y-122165071D01*
X165886761Y-122307928D01*
X165791523Y-122403166D01*
X165696285Y-122450785D01*
X165505809Y-122498404D01*
X165362952Y-122498404D01*
X165172476Y-122450785D01*
X165077238Y-122403166D01*
X164982000Y-122307928D01*
X164934380Y-122165071D01*
X164934380Y-122069833D01*
X164982000Y-121926976D01*
X165029619Y-121879357D01*
X165934380Y-120926976D02*
X165934380Y-121498404D01*
X165934380Y-121212690D02*
X164934380Y-121212690D01*
X165077238Y-121307928D01*
X165172476Y-121403166D01*
X165220095Y-121498404D01*
X165362952Y-120355547D02*
X165315333Y-120450785D01*
X165267714Y-120498404D01*
X165172476Y-120546023D01*
X165124857Y-120546023D01*
X165029619Y-120498404D01*
X164982000Y-120450785D01*
X164934380Y-120355547D01*
X164934380Y-120165071D01*
X164982000Y-120069833D01*
X165029619Y-120022214D01*
X165124857Y-119974595D01*
X165172476Y-119974595D01*
X165267714Y-120022214D01*
X165315333Y-120069833D01*
X165362952Y-120165071D01*
X165362952Y-120355547D01*
X165410571Y-120450785D01*
X165458190Y-120498404D01*
X165553428Y-120546023D01*
X165743904Y-120546023D01*
X165839142Y-120498404D01*
X165886761Y-120450785D01*
X165934380Y-120355547D01*
X165934380Y-120165071D01*
X165886761Y-120069833D01*
X165839142Y-120022214D01*
X165743904Y-119974595D01*
X165553428Y-119974595D01*
X165458190Y-120022214D01*
X165410571Y-120069833D01*
X165362952Y-120165071D01*
X169141142Y-122054857D02*
X169188761Y-122102476D01*
X169236380Y-122245333D01*
X169236380Y-122340571D01*
X169188761Y-122483428D01*
X169093523Y-122578666D01*
X168998285Y-122626285D01*
X168807809Y-122673904D01*
X168664952Y-122673904D01*
X168474476Y-122626285D01*
X168379238Y-122578666D01*
X168284000Y-122483428D01*
X168236380Y-122340571D01*
X168236380Y-122245333D01*
X168284000Y-122102476D01*
X168331619Y-122054857D01*
X169236380Y-121102476D02*
X169236380Y-121673904D01*
X169236380Y-121388190D02*
X168236380Y-121388190D01*
X168379238Y-121483428D01*
X168474476Y-121578666D01*
X168522095Y-121673904D01*
X168236380Y-120769142D02*
X168236380Y-120102476D01*
X169236380Y-120531047D01*
X176141142Y-101703142D02*
X176093523Y-101750761D01*
X175950666Y-101798380D01*
X175855428Y-101798380D01*
X175712571Y-101750761D01*
X175617333Y-101655523D01*
X175569714Y-101560285D01*
X175522095Y-101369809D01*
X175522095Y-101226952D01*
X175569714Y-101036476D01*
X175617333Y-100941238D01*
X175712571Y-100846000D01*
X175855428Y-100798380D01*
X175950666Y-100798380D01*
X176093523Y-100846000D01*
X176141142Y-100893619D01*
X177093523Y-101798380D02*
X176522095Y-101798380D01*
X176807809Y-101798380D02*
X176807809Y-100798380D01*
X176712571Y-100941238D01*
X176617333Y-101036476D01*
X176522095Y-101084095D01*
X177950666Y-100798380D02*
X177760190Y-100798380D01*
X177664952Y-100846000D01*
X177617333Y-100893619D01*
X177522095Y-101036476D01*
X177474476Y-101226952D01*
X177474476Y-101607904D01*
X177522095Y-101703142D01*
X177569714Y-101750761D01*
X177664952Y-101798380D01*
X177855428Y-101798380D01*
X177950666Y-101750761D01*
X177998285Y-101703142D01*
X178045904Y-101607904D01*
X178045904Y-101369809D01*
X177998285Y-101274571D01*
X177950666Y-101226952D01*
X177855428Y-101179333D01*
X177664952Y-101179333D01*
X177569714Y-101226952D01*
X177522095Y-101274571D01*
X177474476Y-101369809D01*
X127483142Y-105466357D02*
X127530761Y-105513976D01*
X127578380Y-105656833D01*
X127578380Y-105752071D01*
X127530761Y-105894928D01*
X127435523Y-105990166D01*
X127340285Y-106037785D01*
X127149809Y-106085404D01*
X127006952Y-106085404D01*
X126816476Y-106037785D01*
X126721238Y-105990166D01*
X126626000Y-105894928D01*
X126578380Y-105752071D01*
X126578380Y-105656833D01*
X126626000Y-105513976D01*
X126673619Y-105466357D01*
X127578380Y-104513976D02*
X127578380Y-105085404D01*
X127578380Y-104799690D02*
X126578380Y-104799690D01*
X126721238Y-104894928D01*
X126816476Y-104990166D01*
X126864095Y-105085404D01*
X126578380Y-103609214D02*
X126578380Y-104085404D01*
X127054571Y-104133023D01*
X127006952Y-104085404D01*
X126959333Y-103990166D01*
X126959333Y-103752071D01*
X127006952Y-103656833D01*
X127054571Y-103609214D01*
X127149809Y-103561595D01*
X127387904Y-103561595D01*
X127483142Y-103609214D01*
X127530761Y-103656833D01*
X127578380Y-103752071D01*
X127578380Y-103990166D01*
X127530761Y-104085404D01*
X127483142Y-104133023D01*
X124209142Y-105013857D02*
X124256761Y-105061476D01*
X124304380Y-105204333D01*
X124304380Y-105299571D01*
X124256761Y-105442428D01*
X124161523Y-105537666D01*
X124066285Y-105585285D01*
X123875809Y-105632904D01*
X123732952Y-105632904D01*
X123542476Y-105585285D01*
X123447238Y-105537666D01*
X123352000Y-105442428D01*
X123304380Y-105299571D01*
X123304380Y-105204333D01*
X123352000Y-105061476D01*
X123399619Y-105013857D01*
X124304380Y-104061476D02*
X124304380Y-104632904D01*
X124304380Y-104347190D02*
X123304380Y-104347190D01*
X123447238Y-104442428D01*
X123542476Y-104537666D01*
X123590095Y-104632904D01*
X123637714Y-103204333D02*
X124304380Y-103204333D01*
X123256761Y-103442428D02*
X123971047Y-103680523D01*
X123971047Y-103061476D01*
X113888142Y-107137142D02*
X113840523Y-107184761D01*
X113697666Y-107232380D01*
X113602428Y-107232380D01*
X113459571Y-107184761D01*
X113364333Y-107089523D01*
X113316714Y-106994285D01*
X113269095Y-106803809D01*
X113269095Y-106660952D01*
X113316714Y-106470476D01*
X113364333Y-106375238D01*
X113459571Y-106280000D01*
X113602428Y-106232380D01*
X113697666Y-106232380D01*
X113840523Y-106280000D01*
X113888142Y-106327619D01*
X114840523Y-107232380D02*
X114269095Y-107232380D01*
X114554809Y-107232380D02*
X114554809Y-106232380D01*
X114459571Y-106375238D01*
X114364333Y-106470476D01*
X114269095Y-106518095D01*
X115173857Y-106232380D02*
X115792904Y-106232380D01*
X115459571Y-106613333D01*
X115602428Y-106613333D01*
X115697666Y-106660952D01*
X115745285Y-106708571D01*
X115792904Y-106803809D01*
X115792904Y-107041904D01*
X115745285Y-107137142D01*
X115697666Y-107184761D01*
X115602428Y-107232380D01*
X115316714Y-107232380D01*
X115221476Y-107184761D01*
X115173857Y-107137142D01*
X113934142Y-109423142D02*
X113886523Y-109470761D01*
X113743666Y-109518380D01*
X113648428Y-109518380D01*
X113505571Y-109470761D01*
X113410333Y-109375523D01*
X113362714Y-109280285D01*
X113315095Y-109089809D01*
X113315095Y-108946952D01*
X113362714Y-108756476D01*
X113410333Y-108661238D01*
X113505571Y-108566000D01*
X113648428Y-108518380D01*
X113743666Y-108518380D01*
X113886523Y-108566000D01*
X113934142Y-108613619D01*
X114886523Y-109518380D02*
X114315095Y-109518380D01*
X114600809Y-109518380D02*
X114600809Y-108518380D01*
X114505571Y-108661238D01*
X114410333Y-108756476D01*
X114315095Y-108804095D01*
X115267476Y-108613619D02*
X115315095Y-108566000D01*
X115410333Y-108518380D01*
X115648428Y-108518380D01*
X115743666Y-108566000D01*
X115791285Y-108613619D01*
X115838904Y-108708857D01*
X115838904Y-108804095D01*
X115791285Y-108946952D01*
X115219857Y-109518380D01*
X115838904Y-109518380D01*
X136494142Y-113895142D02*
X136446523Y-113942761D01*
X136303666Y-113990380D01*
X136208428Y-113990380D01*
X136065571Y-113942761D01*
X135970333Y-113847523D01*
X135922714Y-113752285D01*
X135875095Y-113561809D01*
X135875095Y-113418952D01*
X135922714Y-113228476D01*
X135970333Y-113133238D01*
X136065571Y-113038000D01*
X136208428Y-112990380D01*
X136303666Y-112990380D01*
X136446523Y-113038000D01*
X136494142Y-113085619D01*
X137446523Y-113990380D02*
X136875095Y-113990380D01*
X137160809Y-113990380D02*
X137160809Y-112990380D01*
X137065571Y-113133238D01*
X136970333Y-113228476D01*
X136875095Y-113276095D01*
X138398904Y-113990380D02*
X137827476Y-113990380D01*
X138113190Y-113990380D02*
X138113190Y-112990380D01*
X138017952Y-113133238D01*
X137922714Y-113228476D01*
X137827476Y-113276095D01*
X118313142Y-98155857D02*
X118360761Y-98203476D01*
X118408380Y-98346333D01*
X118408380Y-98441571D01*
X118360761Y-98584428D01*
X118265523Y-98679666D01*
X118170285Y-98727285D01*
X117979809Y-98774904D01*
X117836952Y-98774904D01*
X117646476Y-98727285D01*
X117551238Y-98679666D01*
X117456000Y-98584428D01*
X117408380Y-98441571D01*
X117408380Y-98346333D01*
X117456000Y-98203476D01*
X117503619Y-98155857D01*
X118408380Y-97203476D02*
X118408380Y-97774904D01*
X118408380Y-97489190D02*
X117408380Y-97489190D01*
X117551238Y-97584428D01*
X117646476Y-97679666D01*
X117694095Y-97774904D01*
X117408380Y-96584428D02*
X117408380Y-96489190D01*
X117456000Y-96393952D01*
X117503619Y-96346333D01*
X117598857Y-96298714D01*
X117789333Y-96251095D01*
X118027428Y-96251095D01*
X118217904Y-96298714D01*
X118313142Y-96346333D01*
X118360761Y-96393952D01*
X118408380Y-96489190D01*
X118408380Y-96584428D01*
X118360761Y-96679666D01*
X118313142Y-96727285D01*
X118217904Y-96774904D01*
X118027428Y-96822523D01*
X117789333Y-96822523D01*
X117598857Y-96774904D01*
X117503619Y-96727285D01*
X117456000Y-96679666D01*
X117408380Y-96584428D01*
X129897142Y-101512666D02*
X129944761Y-101560285D01*
X129992380Y-101703142D01*
X129992380Y-101798380D01*
X129944761Y-101941238D01*
X129849523Y-102036476D01*
X129754285Y-102084095D01*
X129563809Y-102131714D01*
X129420952Y-102131714D01*
X129230476Y-102084095D01*
X129135238Y-102036476D01*
X129040000Y-101941238D01*
X128992380Y-101798380D01*
X128992380Y-101703142D01*
X129040000Y-101560285D01*
X129087619Y-101512666D01*
X129992380Y-101036476D02*
X129992380Y-100846000D01*
X129944761Y-100750761D01*
X129897142Y-100703142D01*
X129754285Y-100607904D01*
X129563809Y-100560285D01*
X129182857Y-100560285D01*
X129087619Y-100607904D01*
X129040000Y-100655523D01*
X128992380Y-100750761D01*
X128992380Y-100941238D01*
X129040000Y-101036476D01*
X129087619Y-101084095D01*
X129182857Y-101131714D01*
X129420952Y-101131714D01*
X129516190Y-101084095D01*
X129563809Y-101036476D01*
X129611428Y-100941238D01*
X129611428Y-100750761D01*
X129563809Y-100655523D01*
X129516190Y-100607904D01*
X129420952Y-100560285D01*
X131167142Y-101512666D02*
X131214761Y-101560285D01*
X131262380Y-101703142D01*
X131262380Y-101798380D01*
X131214761Y-101941238D01*
X131119523Y-102036476D01*
X131024285Y-102084095D01*
X130833809Y-102131714D01*
X130690952Y-102131714D01*
X130500476Y-102084095D01*
X130405238Y-102036476D01*
X130310000Y-101941238D01*
X130262380Y-101798380D01*
X130262380Y-101703142D01*
X130310000Y-101560285D01*
X130357619Y-101512666D01*
X130690952Y-100941238D02*
X130643333Y-101036476D01*
X130595714Y-101084095D01*
X130500476Y-101131714D01*
X130452857Y-101131714D01*
X130357619Y-101084095D01*
X130310000Y-101036476D01*
X130262380Y-100941238D01*
X130262380Y-100750761D01*
X130310000Y-100655523D01*
X130357619Y-100607904D01*
X130452857Y-100560285D01*
X130500476Y-100560285D01*
X130595714Y-100607904D01*
X130643333Y-100655523D01*
X130690952Y-100750761D01*
X130690952Y-100941238D01*
X130738571Y-101036476D01*
X130786190Y-101084095D01*
X130881428Y-101131714D01*
X131071904Y-101131714D01*
X131167142Y-101084095D01*
X131214761Y-101036476D01*
X131262380Y-100941238D01*
X131262380Y-100750761D01*
X131214761Y-100655523D01*
X131167142Y-100607904D01*
X131071904Y-100560285D01*
X130881428Y-100560285D01*
X130786190Y-100607904D01*
X130738571Y-100655523D01*
X130690952Y-100750761D01*
X132437142Y-101512666D02*
X132484761Y-101560285D01*
X132532380Y-101703142D01*
X132532380Y-101798380D01*
X132484761Y-101941238D01*
X132389523Y-102036476D01*
X132294285Y-102084095D01*
X132103809Y-102131714D01*
X131960952Y-102131714D01*
X131770476Y-102084095D01*
X131675238Y-102036476D01*
X131580000Y-101941238D01*
X131532380Y-101798380D01*
X131532380Y-101703142D01*
X131580000Y-101560285D01*
X131627619Y-101512666D01*
X131532380Y-101179333D02*
X131532380Y-100512666D01*
X132532380Y-100941238D01*
X150224333Y-101957142D02*
X150176714Y-102004761D01*
X150033857Y-102052380D01*
X149938619Y-102052380D01*
X149795761Y-102004761D01*
X149700523Y-101909523D01*
X149652904Y-101814285D01*
X149605285Y-101623809D01*
X149605285Y-101480952D01*
X149652904Y-101290476D01*
X149700523Y-101195238D01*
X149795761Y-101100000D01*
X149938619Y-101052380D01*
X150033857Y-101052380D01*
X150176714Y-101100000D01*
X150224333Y-101147619D01*
X151081476Y-101052380D02*
X150891000Y-101052380D01*
X150795761Y-101100000D01*
X150748142Y-101147619D01*
X150652904Y-101290476D01*
X150605285Y-101480952D01*
X150605285Y-101861904D01*
X150652904Y-101957142D01*
X150700523Y-102004761D01*
X150795761Y-102052380D01*
X150986238Y-102052380D01*
X151081476Y-102004761D01*
X151129095Y-101957142D01*
X151176714Y-101861904D01*
X151176714Y-101623809D01*
X151129095Y-101528571D01*
X151081476Y-101480952D01*
X150986238Y-101433333D01*
X150795761Y-101433333D01*
X150700523Y-101480952D01*
X150652904Y-101528571D01*
X150605285Y-101623809D01*
X150247333Y-100941142D02*
X150199714Y-100988761D01*
X150056857Y-101036380D01*
X149961619Y-101036380D01*
X149818761Y-100988761D01*
X149723523Y-100893523D01*
X149675904Y-100798285D01*
X149628285Y-100607809D01*
X149628285Y-100464952D01*
X149675904Y-100274476D01*
X149723523Y-100179238D01*
X149818761Y-100084000D01*
X149961619Y-100036380D01*
X150056857Y-100036380D01*
X150199714Y-100084000D01*
X150247333Y-100131619D01*
X151152095Y-100036380D02*
X150675904Y-100036380D01*
X150628285Y-100512571D01*
X150675904Y-100464952D01*
X150771142Y-100417333D01*
X151009238Y-100417333D01*
X151104476Y-100464952D01*
X151152095Y-100512571D01*
X151199714Y-100607809D01*
X151199714Y-100845904D01*
X151152095Y-100941142D01*
X151104476Y-100988761D01*
X151009238Y-101036380D01*
X150771142Y-101036380D01*
X150675904Y-100988761D01*
X150628285Y-100941142D01*
X150201333Y-99925142D02*
X150153714Y-99972761D01*
X150010857Y-100020380D01*
X149915619Y-100020380D01*
X149772761Y-99972761D01*
X149677523Y-99877523D01*
X149629904Y-99782285D01*
X149582285Y-99591809D01*
X149582285Y-99448952D01*
X149629904Y-99258476D01*
X149677523Y-99163238D01*
X149772761Y-99068000D01*
X149915619Y-99020380D01*
X150010857Y-99020380D01*
X150153714Y-99068000D01*
X150201333Y-99115619D01*
X151058476Y-99353714D02*
X151058476Y-100020380D01*
X150820380Y-98972761D02*
X150582285Y-99687047D01*
X151201333Y-99687047D01*
X140311142Y-106107666D02*
X140358761Y-106155285D01*
X140406380Y-106298142D01*
X140406380Y-106393380D01*
X140358761Y-106536238D01*
X140263523Y-106631476D01*
X140168285Y-106679095D01*
X139977809Y-106726714D01*
X139834952Y-106726714D01*
X139644476Y-106679095D01*
X139549238Y-106631476D01*
X139454000Y-106536238D01*
X139406380Y-106393380D01*
X139406380Y-106298142D01*
X139454000Y-106155285D01*
X139501619Y-106107666D01*
X139406380Y-105774333D02*
X139406380Y-105155285D01*
X139787333Y-105488619D01*
X139787333Y-105345761D01*
X139834952Y-105250523D01*
X139882571Y-105202904D01*
X139977809Y-105155285D01*
X140215904Y-105155285D01*
X140311142Y-105202904D01*
X140358761Y-105250523D01*
X140406380Y-105345761D01*
X140406380Y-105631476D01*
X140358761Y-105726714D01*
X140311142Y-105774333D01*
X148031142Y-104329666D02*
X148078761Y-104377285D01*
X148126380Y-104520142D01*
X148126380Y-104615380D01*
X148078761Y-104758238D01*
X147983523Y-104853476D01*
X147888285Y-104901095D01*
X147697809Y-104948714D01*
X147554952Y-104948714D01*
X147364476Y-104901095D01*
X147269238Y-104853476D01*
X147174000Y-104758238D01*
X147126380Y-104615380D01*
X147126380Y-104520142D01*
X147174000Y-104377285D01*
X147221619Y-104329666D01*
X147221619Y-103948714D02*
X147174000Y-103901095D01*
X147126380Y-103805857D01*
X147126380Y-103567761D01*
X147174000Y-103472523D01*
X147221619Y-103424904D01*
X147316857Y-103377285D01*
X147412095Y-103377285D01*
X147554952Y-103424904D01*
X148126380Y-103996333D01*
X148126380Y-103377285D01*
X148031142Y-106592666D02*
X148078761Y-106640285D01*
X148126380Y-106783142D01*
X148126380Y-106878380D01*
X148078761Y-107021238D01*
X147983523Y-107116476D01*
X147888285Y-107164095D01*
X147697809Y-107211714D01*
X147554952Y-107211714D01*
X147364476Y-107164095D01*
X147269238Y-107116476D01*
X147174000Y-107021238D01*
X147126380Y-106878380D01*
X147126380Y-106783142D01*
X147174000Y-106640285D01*
X147221619Y-106592666D01*
X148126380Y-105640285D02*
X148126380Y-106211714D01*
X148126380Y-105926000D02*
X147126380Y-105926000D01*
X147269238Y-106021238D01*
X147364476Y-106116476D01*
X147412095Y-106211714D01*
M02*
