G04 #@! TF.GenerationSoftware,KiCad,Pcbnew,(5.1.2)-1*
G04 #@! TF.CreationDate,2019-08-19T21:36:10+05:30*
G04 #@! TF.ProjectId,SAM21,53414d32-312e-46b6-9963-61645f706362,v1*
G04 #@! TF.SameCoordinates,Original*
G04 #@! TF.FileFunction,Copper,L2,Bot*
G04 #@! TF.FilePolarity,Positive*
%FSLAX46Y46*%
G04 Gerber Fmt 4.6, Leading zero omitted, Abs format (unit mm)*
G04 Created by KiCad (PCBNEW (5.1.2)-1) date 2019-08-19 21:36:11*
%MOMM*%
%LPD*%
G04 APERTURE LIST*
%ADD10O,2.000000X1.300000*%
%ADD11O,2.000000X1.700000*%
%ADD12C,0.100000*%
%ADD13C,1.700000*%
%ADD14O,1.800000X0.900000*%
%ADD15O,2.400000X1.200000*%
%ADD16O,1.700000X1.700000*%
%ADD17R,1.700000X1.700000*%
%ADD18C,0.800000*%
%ADD19C,0.500000*%
%ADD20C,0.250000*%
%ADD21C,0.254000*%
G04 APERTURE END LIST*
D10*
X155878000Y-90026000D03*
X177878000Y-90026000D03*
X155878000Y-88026000D03*
X177878000Y-88026000D03*
X155878000Y-86026000D03*
X177878000Y-86026000D03*
X155878000Y-84026000D03*
X177878000Y-84026000D03*
X155878000Y-82026000D03*
X177878000Y-82026000D03*
X155878000Y-80026000D03*
X177878000Y-80026000D03*
X155878000Y-78026000D03*
X177878000Y-78026000D03*
X155878000Y-76026000D03*
X177878000Y-76026000D03*
X155878000Y-74026000D03*
X177878000Y-74026000D03*
X155878000Y-72026000D03*
X177878000Y-72026000D03*
D11*
X110236000Y-106212000D03*
D12*
G36*
X111010504Y-107863204D02*
G01*
X111034773Y-107866804D01*
X111058571Y-107872765D01*
X111081671Y-107881030D01*
X111103849Y-107891520D01*
X111124893Y-107904133D01*
X111144598Y-107918747D01*
X111162777Y-107935223D01*
X111179253Y-107953402D01*
X111193867Y-107973107D01*
X111206480Y-107994151D01*
X111216970Y-108016329D01*
X111225235Y-108039429D01*
X111231196Y-108063227D01*
X111234796Y-108087496D01*
X111236000Y-108112000D01*
X111236000Y-109312000D01*
X111234796Y-109336504D01*
X111231196Y-109360773D01*
X111225235Y-109384571D01*
X111216970Y-109407671D01*
X111206480Y-109429849D01*
X111193867Y-109450893D01*
X111179253Y-109470598D01*
X111162777Y-109488777D01*
X111144598Y-109505253D01*
X111124893Y-109519867D01*
X111103849Y-109532480D01*
X111081671Y-109542970D01*
X111058571Y-109551235D01*
X111034773Y-109557196D01*
X111010504Y-109560796D01*
X110986000Y-109562000D01*
X109486000Y-109562000D01*
X109461496Y-109560796D01*
X109437227Y-109557196D01*
X109413429Y-109551235D01*
X109390329Y-109542970D01*
X109368151Y-109532480D01*
X109347107Y-109519867D01*
X109327402Y-109505253D01*
X109309223Y-109488777D01*
X109292747Y-109470598D01*
X109278133Y-109450893D01*
X109265520Y-109429849D01*
X109255030Y-109407671D01*
X109246765Y-109384571D01*
X109240804Y-109360773D01*
X109237204Y-109336504D01*
X109236000Y-109312000D01*
X109236000Y-108112000D01*
X109237204Y-108087496D01*
X109240804Y-108063227D01*
X109246765Y-108039429D01*
X109255030Y-108016329D01*
X109265520Y-107994151D01*
X109278133Y-107973107D01*
X109292747Y-107953402D01*
X109309223Y-107935223D01*
X109327402Y-107918747D01*
X109347107Y-107904133D01*
X109368151Y-107891520D01*
X109390329Y-107881030D01*
X109413429Y-107872765D01*
X109437227Y-107866804D01*
X109461496Y-107863204D01*
X109486000Y-107862000D01*
X110986000Y-107862000D01*
X111010504Y-107863204D01*
X111010504Y-107863204D01*
G37*
D13*
X110236000Y-108712000D03*
D14*
X110280000Y-97790000D03*
X110280000Y-90170000D03*
D15*
X114300000Y-97790000D03*
X114300000Y-90170000D03*
D10*
X177546000Y-104554000D03*
X155546000Y-104554000D03*
X177546000Y-106554000D03*
X155546000Y-106554000D03*
X177546000Y-108554000D03*
X155546000Y-108554000D03*
X177546000Y-110554000D03*
X155546000Y-110554000D03*
X177546000Y-112554000D03*
X155546000Y-112554000D03*
X177546000Y-114554000D03*
X155546000Y-114554000D03*
X177546000Y-116554000D03*
X155546000Y-116554000D03*
X177546000Y-118554000D03*
X155546000Y-118554000D03*
X177546000Y-120554000D03*
X155546000Y-120554000D03*
X177546000Y-122554000D03*
X155546000Y-122554000D03*
D16*
X120650000Y-79248000D03*
X120650000Y-81788000D03*
X120650000Y-84328000D03*
D17*
X120650000Y-86868000D03*
D16*
X140208000Y-81788000D03*
X140208000Y-79248000D03*
X140208000Y-76708000D03*
D17*
X140208000Y-74168000D03*
D16*
X133350000Y-81788000D03*
X133350000Y-79248000D03*
X133350000Y-76708000D03*
D17*
X133350000Y-74168000D03*
D16*
X150368000Y-81534000D03*
X150368000Y-78994000D03*
X150368000Y-76454000D03*
D17*
X150368000Y-73914000D03*
D16*
X114554000Y-78994000D03*
X114554000Y-81534000D03*
X114554000Y-84074000D03*
D17*
X114554000Y-86614000D03*
D18*
X139395200Y-99847400D03*
X138430000Y-99822000D03*
X150622000Y-89408000D03*
X125730000Y-85090000D03*
X125730000Y-84328000D03*
X126238000Y-87630000D03*
X125730000Y-87122000D03*
X147828000Y-86868000D03*
X146812000Y-117856000D03*
X141732000Y-104140000D03*
X141478000Y-99822000D03*
X137414000Y-99822000D03*
X125730000Y-96774000D03*
X138430000Y-107696000D03*
X138938000Y-107188000D03*
X123698000Y-71374000D03*
X124460000Y-71374000D03*
X119888000Y-71628000D03*
X119126000Y-71628000D03*
X111252000Y-71628000D03*
X112014000Y-71628000D03*
X109728000Y-80518000D03*
X108966000Y-80518000D03*
X108966000Y-79756000D03*
X112522000Y-98806000D03*
X112268000Y-99568000D03*
X112268000Y-100330000D03*
X112268000Y-101092000D03*
X135128000Y-119888000D03*
X136906000Y-119888000D03*
X136906000Y-121920000D03*
X123952000Y-119888000D03*
X125730000Y-119888000D03*
X125730000Y-121920000D03*
X117602000Y-112268000D03*
X117602000Y-111506000D03*
X117602000Y-110744000D03*
X125968176Y-93487824D03*
X125968176Y-94249824D03*
X119634000Y-90170000D03*
X119634000Y-90932000D03*
X118618000Y-90932000D03*
X118364000Y-92710000D03*
X118110000Y-94742000D03*
X118872000Y-95250000D03*
X118110000Y-95504000D03*
X108712000Y-104648000D03*
X108712000Y-103632000D03*
X109728000Y-103632000D03*
X112522000Y-106934000D03*
X112522000Y-107950000D03*
X112522000Y-108966000D03*
X143510000Y-117094000D03*
X175514000Y-121412000D03*
X171958000Y-121412000D03*
X172720000Y-121412000D03*
X174752000Y-121412000D03*
X157734000Y-90170000D03*
X157734000Y-89408000D03*
X158496000Y-89408000D03*
X158496000Y-90170000D03*
X153162000Y-92202000D03*
X164338000Y-80264000D03*
X164846000Y-79756000D03*
X165354000Y-79248000D03*
X165862000Y-78740000D03*
X166370000Y-78232000D03*
X172212000Y-82296000D03*
X171704000Y-82804000D03*
X171196000Y-83312000D03*
X170688000Y-83820000D03*
X170180000Y-84328000D03*
X132080000Y-110236000D03*
X131572000Y-109728000D03*
X129540000Y-109474000D03*
X130302000Y-109220000D03*
X131064000Y-109220000D03*
X132588000Y-107950000D03*
X133096000Y-108458000D03*
X133604000Y-108966000D03*
X134112000Y-109474000D03*
X122174000Y-106680000D03*
X122174000Y-106172000D03*
X122682000Y-106172000D03*
X148336000Y-72136000D03*
X148844000Y-71628000D03*
X148844000Y-72136000D03*
X149098000Y-101092000D03*
X149098000Y-102108000D03*
X149098000Y-102870000D03*
X144018000Y-116586000D03*
X143256000Y-116586000D03*
X147320000Y-117348000D03*
X147320000Y-117856000D03*
X165100000Y-92202000D03*
X164846000Y-92964000D03*
X173990000Y-97282000D03*
X173482000Y-97790000D03*
X158242000Y-72898000D03*
X157988000Y-73660000D03*
X157734000Y-74422000D03*
X133858000Y-113538000D03*
X133418000Y-113860000D03*
X131653000Y-113203000D03*
X149860000Y-104140000D03*
X149860000Y-105918000D03*
X137668000Y-83566000D03*
X138430000Y-83566000D03*
X139192000Y-83566000D03*
X152146000Y-73660000D03*
X151900010Y-72652010D03*
X152654000Y-72898000D03*
X145643600Y-109626400D03*
X147955000Y-109677200D03*
X150164800Y-109677200D03*
X145719800Y-111633000D03*
X148082000Y-111683800D03*
X150139400Y-111734600D03*
X139954000Y-92710000D03*
X139954000Y-93218000D03*
X145796000Y-95758000D03*
X145288000Y-96266000D03*
X139954000Y-106680000D03*
X139954000Y-106172000D03*
X155956000Y-93980000D03*
X155194000Y-93980000D03*
X158496000Y-92964000D03*
X159004000Y-92456000D03*
X117430000Y-108540000D03*
X118028000Y-108540000D03*
X132080000Y-115062000D03*
X134366000Y-106426000D03*
X133858000Y-105918000D03*
X172593000Y-97155000D03*
X173101000Y-96647000D03*
X163322000Y-83058000D03*
X121666000Y-97790000D03*
X123190000Y-90170000D03*
X138176000Y-109982000D03*
X136398000Y-115570000D03*
X117094000Y-101092000D03*
X117475000Y-100457000D03*
X117983000Y-99949000D03*
X118491000Y-99441000D03*
X116694001Y-104539999D03*
X116694001Y-103777999D03*
X109474000Y-88392000D03*
X108966000Y-88900000D03*
X168993000Y-74847000D03*
X172720000Y-76708000D03*
X153924000Y-93218000D03*
X152654000Y-89662000D03*
X146558000Y-102616000D03*
X122959000Y-74953000D03*
X125984000Y-99822000D03*
X125984000Y-99822000D03*
X126746000Y-102616000D03*
X147828000Y-102616000D03*
X125349000Y-82931000D03*
X127254000Y-99822000D03*
X127762000Y-102108000D03*
X143764000Y-96012000D03*
X110998000Y-85123000D03*
X143510000Y-118364000D03*
X144687294Y-98459294D03*
X111991000Y-75207000D03*
X146500998Y-97282000D03*
X152146000Y-98806000D03*
X155448000Y-95504000D03*
X158496000Y-87376000D03*
X146558000Y-98298000D03*
X152244499Y-99977501D03*
X158242000Y-109474000D03*
X169672000Y-107188000D03*
X128048000Y-87408000D03*
X128016000Y-85090000D03*
X139700000Y-86868000D03*
X142494000Y-86360000D03*
X110280000Y-94952000D03*
X139954000Y-109474000D03*
X125984000Y-109982000D03*
X139700000Y-110490000D03*
X110998000Y-81534000D03*
X111506000Y-76962000D03*
X150669000Y-85043000D03*
X141986000Y-119634000D03*
X141732000Y-115824000D03*
X165862000Y-95758000D03*
X171450000Y-78740000D03*
X157734000Y-96012000D03*
X119380000Y-75438000D03*
X132867400Y-96748600D03*
X128524000Y-92202000D03*
X123144999Y-88183001D03*
X118110000Y-104394000D03*
X122428000Y-102870000D03*
X122682000Y-100076000D03*
X137668000Y-110998000D03*
X130556000Y-110490000D03*
X171450000Y-106680000D03*
X142240000Y-108458000D03*
X116332000Y-91440000D03*
X125476000Y-91948000D03*
X126238000Y-88900000D03*
X138684000Y-108966000D03*
X132588000Y-111506000D03*
X138734800Y-112395000D03*
X140538200Y-112141000D03*
X142494000Y-123698000D03*
X169164000Y-118110000D03*
X137668000Y-113284000D03*
X161544000Y-118364000D03*
X140081000Y-115697000D03*
X137922000Y-114808000D03*
X130175000Y-97790000D03*
X143256000Y-78486000D03*
X128778000Y-96520000D03*
X144018000Y-71882000D03*
X149352000Y-96266000D03*
X122682000Y-94996000D03*
X133096000Y-98247200D03*
X165608000Y-91186000D03*
X142748000Y-93726000D03*
X163322000Y-96266000D03*
X134112000Y-98247200D03*
X172974000Y-89154000D03*
X156972000Y-97282000D03*
X154178000Y-100838000D03*
X124510800Y-102158800D03*
X129540000Y-100076000D03*
X134874000Y-97078800D03*
X164846000Y-97790000D03*
X169672000Y-95504000D03*
X133146800Y-94310200D03*
X160020000Y-81534000D03*
X174498000Y-88900000D03*
X161036000Y-79756000D03*
X134416800Y-95478600D03*
X132080000Y-84836000D03*
X171450000Y-102616000D03*
X134391400Y-94310200D03*
X133858000Y-92456000D03*
X137160000Y-94234000D03*
X135128000Y-90170000D03*
X136668000Y-84820000D03*
X133350000Y-86868000D03*
X148036000Y-83866000D03*
X148082000Y-88138000D03*
X137668000Y-93218000D03*
X148336000Y-95504000D03*
X146558000Y-93218000D03*
X154686000Y-97790000D03*
X156464000Y-94996000D03*
X154939695Y-91497990D03*
X149098000Y-91694000D03*
X145542000Y-86360000D03*
X144780000Y-95250000D03*
X140970000Y-93218000D03*
X146656499Y-99412499D03*
X141986000Y-84074000D03*
X151638000Y-101346000D03*
X154432000Y-94742000D03*
X146812000Y-100457000D03*
X129032000Y-102108000D03*
X128524000Y-99822000D03*
X128778000Y-74168000D03*
X168402000Y-102108000D03*
X166370000Y-105410000D03*
X166370000Y-103378000D03*
X162560000Y-82042000D03*
X162814000Y-100330000D03*
X167132000Y-95758000D03*
X168910000Y-88900000D03*
X173482000Y-79502000D03*
X135128000Y-98247200D03*
X168585000Y-97353000D03*
X168656000Y-95758000D03*
X167894000Y-103378000D03*
X138938000Y-93218000D03*
X136779000Y-92608400D03*
X145034000Y-91440000D03*
X147828000Y-90424000D03*
X160528000Y-99822000D03*
D19*
X168402000Y-84328000D02*
X170180000Y-84328000D01*
X164338000Y-80264000D02*
X168402000Y-84328000D01*
X170122315Y-83820000D02*
X170688000Y-83820000D01*
X168344315Y-83820000D02*
X170122315Y-83820000D01*
X164846000Y-80321685D02*
X168344315Y-83820000D01*
X164846000Y-79756000D02*
X164846000Y-80321685D01*
X170630315Y-83312000D02*
X171196000Y-83312000D01*
X170612314Y-83330001D02*
X170630315Y-83312000D01*
X167925999Y-83330001D02*
X170612314Y-83330001D01*
X165354000Y-80758002D02*
X167925999Y-83330001D01*
X165354000Y-79248000D02*
X165354000Y-80758002D01*
X172212000Y-81730315D02*
X172212000Y-82296000D01*
X172212000Y-81547998D02*
X172212000Y-81730315D01*
X168896002Y-78232000D02*
X172212000Y-81547998D01*
X166370000Y-78232000D02*
X168896002Y-78232000D01*
X165862000Y-78740000D02*
X168910000Y-78740000D01*
X171704000Y-82238315D02*
X171704000Y-82804000D01*
X171704000Y-81039998D02*
X171704000Y-82238315D01*
X169894001Y-79229999D02*
X171704000Y-81039998D01*
X169399999Y-79229999D02*
X169894001Y-79229999D01*
X168910000Y-78740000D02*
X169399999Y-79229999D01*
X171704000Y-82804000D02*
X171196000Y-83312000D01*
D20*
X147160001Y-117130999D02*
X147348501Y-117319499D01*
D19*
X146558000Y-116586000D02*
X147320000Y-117348000D01*
X144018000Y-116586000D02*
X146558000Y-116586000D01*
X146050000Y-117094000D02*
X146812000Y-117856000D01*
X143510000Y-117094000D02*
X146050000Y-117094000D01*
X146050000Y-116586000D02*
X147320000Y-117856000D01*
X143256000Y-116586000D02*
X146050000Y-116586000D01*
X165100000Y-92202000D02*
X172466000Y-92202000D01*
X173990000Y-93726000D02*
X173990000Y-97282000D01*
X172466000Y-92202000D02*
X173990000Y-93726000D01*
X173990000Y-97282000D02*
X173482000Y-97790000D01*
X164846000Y-92456000D02*
X165100000Y-92202000D01*
X164846000Y-92964000D02*
X164846000Y-92456000D01*
X132761000Y-113203000D02*
X133418000Y-113860000D01*
X131653000Y-113203000D02*
X132761000Y-113203000D01*
X133740000Y-113538000D02*
X133418000Y-113860000D01*
X133858000Y-113538000D02*
X133740000Y-113538000D01*
X137668000Y-84131685D02*
X137668000Y-83566000D01*
X137668000Y-85078002D02*
X137668000Y-84131685D01*
X138430000Y-84316002D02*
X138430000Y-83566000D01*
X136773001Y-85973001D02*
X138430000Y-84316002D01*
X136773001Y-85973001D02*
X137668000Y-85078002D01*
X136784999Y-85973001D02*
X139192000Y-83566000D01*
X136773001Y-85973001D02*
X136784999Y-85973001D01*
X125730000Y-87122000D02*
X125730000Y-84582000D01*
X145796000Y-95758000D02*
X145796000Y-95758000D01*
X157480000Y-93980000D02*
X159004000Y-92456000D01*
X155194000Y-93980000D02*
X157480000Y-93980000D01*
X117430000Y-108540000D02*
X119970000Y-108540000D01*
X119970000Y-108540000D02*
X127082000Y-108540000D01*
X127082000Y-108540000D02*
X130302000Y-111760000D01*
X130302000Y-111760000D02*
X130302000Y-114300000D01*
X130302000Y-114300000D02*
X130302000Y-114554000D01*
X130302000Y-114554000D02*
X130810000Y-115062000D01*
X130810000Y-115062000D02*
X132080000Y-115062000D01*
X132080000Y-115062000D02*
X132334000Y-115062000D01*
X145288000Y-96266000D02*
X145796000Y-95758000D01*
X139954000Y-92710000D02*
X139954000Y-93218000D01*
X133858000Y-105918000D02*
X134874000Y-106934000D01*
X139554001Y-106280001D02*
X139954000Y-106680000D01*
X139446000Y-106172000D02*
X139554001Y-106280001D01*
X138695998Y-106172000D02*
X139446000Y-106172000D01*
X137933998Y-106934000D02*
X138695998Y-106172000D01*
X134874000Y-106934000D02*
X137933998Y-106934000D01*
X140394990Y-92269010D02*
X139954000Y-92710000D01*
X143779824Y-92269010D02*
X140394990Y-92269010D01*
X145796000Y-95758000D02*
X145796000Y-94285186D01*
X145796000Y-94285186D02*
X143779824Y-92269010D01*
X172593000Y-97155000D02*
X173289990Y-96458010D01*
X173289990Y-96458010D02*
X173166010Y-96458010D01*
X163322000Y-83058000D02*
X163322000Y-83058000D01*
X172593000Y-98159002D02*
X172593000Y-97155000D01*
X173890001Y-98640001D02*
X173073999Y-98640001D01*
X173073999Y-98640001D02*
X172593000Y-98159002D01*
X163322000Y-84570002D02*
X169353008Y-90601010D01*
X163322000Y-83058000D02*
X163322000Y-84570002D01*
X169353008Y-90601010D02*
X171854973Y-90601010D01*
X171854973Y-90601010D02*
X174840001Y-93586038D01*
X174840001Y-93586038D02*
X174840001Y-97690001D01*
X174840001Y-97690001D02*
X173890001Y-98640001D01*
X121666000Y-97790000D02*
X121666000Y-94234000D01*
X121666000Y-94234000D02*
X122428000Y-93472000D01*
X122428000Y-93472000D02*
X122428000Y-90932000D01*
X122428000Y-90932000D02*
X123190000Y-90170000D01*
X123190000Y-90170000D02*
X123190000Y-90170000D01*
D20*
X138575999Y-110381999D02*
X138176000Y-109982000D01*
X138575999Y-111163003D02*
X138575999Y-110381999D01*
X138007503Y-111731499D02*
X138575999Y-111163003D01*
X137518701Y-111731499D02*
X138007503Y-111731499D01*
X136398000Y-115570000D02*
X136398000Y-112852200D01*
X136398000Y-112852200D02*
X137518701Y-111731499D01*
D19*
X118491000Y-99695000D02*
X117094000Y-101092000D01*
X118491000Y-99441000D02*
X118491000Y-99695000D01*
X116694001Y-101491999D02*
X116694001Y-103777999D01*
X117094000Y-101092000D02*
X116694001Y-101491999D01*
X116694001Y-104539999D02*
X116694001Y-104539999D01*
X116694001Y-103777999D02*
X116694001Y-104539999D01*
X111252000Y-86614000D02*
X114554000Y-86614000D01*
X108966000Y-88900000D02*
X111252000Y-86614000D01*
X169838000Y-75692000D02*
X168993000Y-74847000D01*
X170942000Y-75692000D02*
X169838000Y-75692000D01*
X171958000Y-76708000D02*
X170942000Y-75692000D01*
X172720000Y-76708000D02*
X171958000Y-76708000D01*
D20*
X152654000Y-89662000D02*
X154178000Y-91186000D01*
X153924000Y-93218000D02*
X154432000Y-92710000D01*
X154432000Y-92710000D02*
X154432000Y-92063297D01*
X154178000Y-91809297D02*
X154178000Y-91186000D01*
X154432000Y-92063297D02*
X154178000Y-91809297D01*
X122959000Y-75518685D02*
X124206000Y-76765685D01*
X122959000Y-74953000D02*
X122959000Y-75518685D01*
X124206000Y-76765685D02*
X124206000Y-98044000D01*
X124206000Y-98044000D02*
X125984000Y-99822000D01*
X125984000Y-99822000D02*
X125984000Y-99822000D01*
X125984000Y-99822000D02*
X125984000Y-99822000D01*
X127290999Y-103160999D02*
X126746000Y-102616000D01*
X142276999Y-103160999D02*
X127290999Y-103160999D01*
X142748000Y-103632000D02*
X142276999Y-103160999D01*
X143764000Y-103632000D02*
X142748000Y-103632000D01*
X146558000Y-102616000D02*
X144780000Y-102616000D01*
X144780000Y-102616000D02*
X143764000Y-103632000D01*
X125349000Y-82931000D02*
X125730000Y-83312000D01*
X125730000Y-83312000D02*
X127000000Y-84582000D01*
X127000000Y-84582000D02*
X127000000Y-99568000D01*
X127000000Y-99568000D02*
X127254000Y-99822000D01*
X127254000Y-99822000D02*
X127254000Y-99822000D01*
X147102999Y-101890999D02*
X147428001Y-102216001D01*
X146209999Y-101890999D02*
X147102999Y-101890999D01*
X147428001Y-102216001D02*
X147828000Y-102616000D01*
X145992998Y-102108000D02*
X146209999Y-101890999D01*
X128364989Y-102710989D02*
X142463400Y-102710990D01*
X127762000Y-102108000D02*
X128364989Y-102710989D01*
X142463400Y-102710990D02*
X142934400Y-103181990D01*
X142934400Y-103181990D02*
X143577600Y-103181990D01*
X143577600Y-103181990D02*
X144651590Y-102108000D01*
X144651590Y-102108000D02*
X145992998Y-102108000D01*
X111313999Y-85438999D02*
X115664001Y-85438999D01*
X110998000Y-85123000D02*
X111313999Y-85438999D01*
X115664001Y-85438999D02*
X115825010Y-85600008D01*
X115825010Y-85600008D02*
X115825010Y-90698961D01*
X109054990Y-101237992D02*
X126180998Y-118364000D01*
X115825010Y-90698961D02*
X109054990Y-97468981D01*
X109054990Y-97468981D02*
X109054990Y-101237992D01*
X126180998Y-118364000D02*
X143510000Y-118364000D01*
X143510000Y-118364000D02*
X143510000Y-118364000D01*
X112390999Y-75606999D02*
X111991000Y-75207000D01*
X114597409Y-75606999D02*
X112390999Y-75606999D01*
X117348000Y-78357590D02*
X114597409Y-75606999D01*
X117348000Y-96266000D02*
X117348000Y-78357590D01*
X122174000Y-101092000D02*
X117348000Y-96266000D01*
X144687294Y-98459294D02*
X143578588Y-99568000D01*
X143578588Y-99568000D02*
X142805002Y-99568000D01*
X142805002Y-99568000D02*
X141121991Y-101251011D01*
X141121991Y-101251011D02*
X123406013Y-101251011D01*
X123406013Y-101251011D02*
X123247002Y-101092000D01*
X123247002Y-101092000D02*
X122174000Y-101092000D01*
X146500998Y-97282000D02*
X150622000Y-97282000D01*
X150622000Y-97282000D02*
X152146000Y-98806000D01*
X152146000Y-98806000D02*
X152146000Y-98806000D01*
X155847999Y-95903999D02*
X155448000Y-95504000D01*
X156629003Y-95903999D02*
X155847999Y-95903999D01*
X158356992Y-95561990D02*
X158082001Y-95286999D01*
X159705190Y-95561990D02*
X158356992Y-95561990D01*
X158895999Y-87775999D02*
X159911999Y-87775999D01*
X157246003Y-95286999D02*
X156629003Y-95903999D01*
X158496000Y-87376000D02*
X158895999Y-87775999D01*
X158082001Y-95286999D02*
X157246003Y-95286999D01*
X159911999Y-87775999D02*
X160331990Y-88195990D01*
X160331990Y-88195990D02*
X160331991Y-91937403D01*
X160782000Y-94485180D02*
X159705190Y-95561990D01*
X160331991Y-91937403D02*
X160782000Y-92387412D01*
X160782000Y-92387412D02*
X160782000Y-94485180D01*
X150564998Y-98298000D02*
X152244499Y-99977501D01*
X146558000Y-98298000D02*
X150564998Y-98298000D01*
X152244499Y-99977501D02*
X152342998Y-100076000D01*
X158242000Y-109474000D02*
X167386000Y-109474000D01*
X167386000Y-109474000D02*
X169672000Y-107188000D01*
X169672000Y-107188000D02*
X169672000Y-107188000D01*
X127648001Y-87008001D02*
X127648001Y-85457999D01*
X128048000Y-87408000D02*
X127648001Y-87008001D01*
X127648001Y-85457999D02*
X128016000Y-85090000D01*
X128016000Y-85090000D02*
X128016000Y-85090000D01*
X139700000Y-86868000D02*
X141986000Y-86868000D01*
X141986000Y-86868000D02*
X142494000Y-86360000D01*
X142494000Y-86360000D02*
X142494000Y-86360000D01*
X112850000Y-97790000D02*
X110280000Y-97790000D01*
X114300000Y-97790000D02*
X112850000Y-97790000D01*
X110280000Y-90170000D02*
X114300000Y-90170000D01*
X110280000Y-90170000D02*
X110280000Y-94952000D01*
X110280000Y-95206000D02*
X110236000Y-95250000D01*
X110280000Y-94952000D02*
X110280000Y-95206000D01*
X125984000Y-109982000D02*
X125984000Y-109982000D01*
X140970000Y-109474000D02*
X139954000Y-109474000D01*
X125984000Y-113284000D02*
X128995001Y-116295001D01*
X125984000Y-109982000D02*
X125984000Y-113284000D01*
X128995001Y-116295001D02*
X138212999Y-116295001D01*
X138212999Y-116295001D02*
X141478000Y-113030000D01*
X141478000Y-113030000D02*
X141478000Y-109982000D01*
X141478000Y-109982000D02*
X140970000Y-109474000D01*
X110998000Y-81534000D02*
X114554000Y-81534000D01*
X114554000Y-84074000D02*
X116586000Y-82042000D01*
X116586000Y-82042000D02*
X116586000Y-79286998D01*
X116586000Y-79286998D02*
X116586000Y-78232000D01*
X116586000Y-78232000D02*
X115316000Y-76962000D01*
X115316000Y-76962000D02*
X111506000Y-76962000D01*
X111506000Y-76962000D02*
X111506000Y-76962000D01*
X178228000Y-72026000D02*
X177878000Y-72026000D01*
X150669000Y-85043000D02*
X152400000Y-83312000D01*
X152400000Y-78486000D02*
X150368000Y-76454000D01*
X152400000Y-83312000D02*
X152400000Y-78486000D01*
X155546000Y-122554000D02*
X144906000Y-122554000D01*
X144906000Y-122554000D02*
X142494000Y-120142000D01*
X141986000Y-119634000D02*
X141986000Y-119634000D01*
X142494000Y-120142000D02*
X141986000Y-119634000D01*
X142131999Y-115424001D02*
X149751999Y-115424001D01*
X141732000Y-115824000D02*
X142131999Y-115424001D01*
X149751999Y-115424001D02*
X153670000Y-111506000D01*
X153670000Y-111506000D02*
X153670000Y-103886000D01*
X163348402Y-101505010D02*
X165862000Y-98991412D01*
X153670000Y-103886000D02*
X156050989Y-101505011D01*
X156050989Y-101505011D02*
X163348402Y-101505010D01*
X165862000Y-98991412D02*
X165862000Y-95758000D01*
X165862000Y-95758000D02*
X165862000Y-95758000D01*
X177528000Y-72026000D02*
X177878000Y-72026000D01*
X177546000Y-69850000D02*
X177878000Y-70182000D01*
X150876000Y-69850000D02*
X177546000Y-69850000D01*
X150368000Y-76454000D02*
X149098000Y-75184000D01*
X149098000Y-75184000D02*
X149098000Y-72898998D01*
X149154004Y-72898998D02*
X150368000Y-71685002D01*
X177878000Y-70182000D02*
X177878000Y-72026000D01*
X150368000Y-71685002D02*
X150368000Y-70358000D01*
X149098000Y-72898998D02*
X149154004Y-72898998D01*
X150368000Y-70358000D02*
X150876000Y-69850000D01*
X177878000Y-74026000D02*
X176628000Y-74026000D01*
X176628000Y-74026000D02*
X173184000Y-77470000D01*
X151468000Y-73914000D02*
X150368000Y-73914000D01*
X154604990Y-77050990D02*
X151468000Y-73914000D01*
X156631862Y-77050990D02*
X154604990Y-77050990D01*
X157050872Y-77470000D02*
X156631862Y-77050990D01*
X160782000Y-80772000D02*
X157480000Y-77470000D01*
X157480000Y-77470000D02*
X157050872Y-77470000D01*
X173184000Y-77470000D02*
X157480000Y-77470000D01*
X160782000Y-91751002D02*
X160782000Y-80772000D01*
X157734000Y-96012000D02*
X159891590Y-96012000D01*
X159891590Y-96012000D02*
X161384989Y-94518601D01*
X161384989Y-92353991D02*
X160782000Y-91751002D01*
X161384989Y-94518601D02*
X161384989Y-92353991D01*
X119380000Y-80518000D02*
X120650000Y-81788000D01*
X119380000Y-75438000D02*
X119380000Y-80518000D01*
X128524000Y-92202000D02*
X128524000Y-92202000D01*
X118110000Y-104394000D02*
X120904000Y-104394000D01*
X120904000Y-104394000D02*
X122428000Y-102870000D01*
X122428000Y-102870000D02*
X122428000Y-102870000D01*
X120650000Y-98044000D02*
X122682000Y-100076000D01*
X123144999Y-88183001D02*
X120650000Y-90678000D01*
X120650000Y-90678000D02*
X120650000Y-98044000D01*
X128052999Y-92673001D02*
X128524000Y-92202000D01*
X131648200Y-96748600D02*
X131064000Y-97332800D01*
X131064000Y-97332800D02*
X131064000Y-97974002D01*
X132867400Y-96748600D02*
X131648200Y-96748600D01*
X128052999Y-96868001D02*
X128052999Y-92673001D01*
X129699999Y-98515001D02*
X128052999Y-96868001D01*
X130523001Y-98515001D02*
X129699999Y-98515001D01*
X131064000Y-97974002D02*
X130523001Y-98515001D01*
X131862999Y-111854001D02*
X132239999Y-112231001D01*
X131862999Y-111796999D02*
X131862999Y-111854001D01*
X130556000Y-110490000D02*
X131862999Y-111796999D01*
X134677990Y-111956010D02*
X135693990Y-111956010D01*
X132239999Y-112231001D02*
X134402999Y-112231001D01*
X134402999Y-112231001D02*
X134677990Y-111956010D01*
X136652000Y-110998000D02*
X137668000Y-110998000D01*
X135693990Y-111956010D02*
X136652000Y-110998000D01*
X161576000Y-116554000D02*
X171450000Y-106680000D01*
X155546000Y-116554000D02*
X161576000Y-116554000D01*
X139466003Y-104611001D02*
X126455001Y-104611001D01*
X141840001Y-106984999D02*
X139466003Y-104611001D01*
X142240000Y-108458000D02*
X141840001Y-108058001D01*
X141840001Y-108058001D02*
X141840001Y-106984999D01*
X116332000Y-94488000D02*
X116332000Y-91440000D01*
X116332000Y-91440000D02*
X116332000Y-91440000D01*
X126455001Y-104611001D02*
X125656002Y-105410000D01*
X115969000Y-94851000D02*
X116332000Y-94488000D01*
X115969000Y-104888000D02*
X115969000Y-94851000D01*
X116491000Y-105410000D02*
X115969000Y-104888000D01*
X125656002Y-105410000D02*
X116491000Y-105410000D01*
X125875999Y-91548001D02*
X125476000Y-91948000D01*
X125875999Y-89516001D02*
X125875999Y-91548001D01*
X126238000Y-88900000D02*
X126238000Y-89154000D01*
X126238000Y-89154000D02*
X125875999Y-89516001D01*
X132588000Y-111506000D02*
X134874000Y-111506000D01*
X137414000Y-108966000D02*
X138684000Y-108966000D01*
X134874000Y-111506000D02*
X137414000Y-108966000D01*
X140462000Y-112268000D02*
X140462000Y-112268000D01*
X142494000Y-123698000D02*
X163830000Y-123698000D01*
X163830000Y-123698000D02*
X169164000Y-118364000D01*
X169164000Y-118364000D02*
X169164000Y-118110000D01*
X169164000Y-118110000D02*
X169164000Y-118110000D01*
X140284200Y-112395000D02*
X140538200Y-112141000D01*
X138734800Y-112395000D02*
X140284200Y-112395000D01*
X161544000Y-118364000D02*
X157084872Y-118364000D01*
X157084872Y-118364000D02*
X156299862Y-117578990D01*
X140081000Y-115697000D02*
X139954000Y-115570000D01*
X137922000Y-113538000D02*
X137668000Y-113284000D01*
X137922000Y-114808000D02*
X137922000Y-113538000D01*
X142080001Y-116549001D02*
X142748000Y-115881002D01*
X140081000Y-115697000D02*
X140933001Y-116549001D01*
X140933001Y-116549001D02*
X142080001Y-116549001D01*
X142748000Y-115881002D02*
X152457002Y-115881002D01*
X154154990Y-117578990D02*
X156299862Y-117578990D01*
X152457002Y-115881002D02*
X154154990Y-117578990D01*
X143256000Y-78486000D02*
X143256000Y-78486000D01*
X142842999Y-78072999D02*
X143256000Y-78486000D01*
X139643999Y-78072999D02*
X142842999Y-78072999D01*
X131064000Y-84328000D02*
X131572000Y-83820000D01*
X131572000Y-83820000D02*
X133896998Y-83820000D01*
X133896998Y-83820000D02*
X139643999Y-78072999D01*
X131064000Y-95886410D02*
X131064000Y-84328000D01*
X130574999Y-96375411D02*
X131064000Y-95886410D01*
X130574999Y-97390001D02*
X130574999Y-96375411D01*
X130175000Y-97790000D02*
X130574999Y-97390001D01*
X143764000Y-71628000D02*
X144018000Y-71882000D01*
X144018000Y-71882000D02*
X144018000Y-71882000D01*
X134112000Y-71120000D02*
X134620000Y-71628000D01*
X131318000Y-71120000D02*
X134112000Y-71120000D01*
X134620000Y-71628000D02*
X143764000Y-71628000D01*
X128778000Y-96520000D02*
X129794000Y-96520000D01*
X130556000Y-95758000D02*
X130556000Y-71882000D01*
X129794000Y-96520000D02*
X130556000Y-95758000D01*
X130556000Y-71882000D02*
X131318000Y-71120000D01*
X125889999Y-100801001D02*
X122682000Y-97593002D01*
X129434413Y-100801001D02*
X125889999Y-100801001D01*
X122682000Y-97593002D02*
X122682000Y-94996000D01*
X122682000Y-94996000D02*
X122682000Y-94996000D01*
X140498999Y-100801001D02*
X129434413Y-100801001D01*
X140752999Y-99473999D02*
X140752999Y-100547001D01*
X146361002Y-96266000D02*
X144892709Y-97734293D01*
X149352000Y-96266000D02*
X146361002Y-96266000D01*
X144892709Y-97734293D02*
X144327707Y-97734293D01*
X144327707Y-97734293D02*
X142965001Y-99096999D01*
X142965001Y-99096999D02*
X141129999Y-99096999D01*
X140752999Y-100547001D02*
X140498999Y-100801001D01*
X141129999Y-99096999D02*
X140752999Y-99473999D01*
X142748000Y-93726000D02*
X142748000Y-93726000D01*
X163322000Y-96266000D02*
X163322000Y-92456000D01*
X164592000Y-91186000D02*
X165608000Y-91186000D01*
X163322000Y-92456000D02*
X164592000Y-91186000D01*
X133426200Y-98577400D02*
X133096000Y-98247200D01*
X133426200Y-98634402D02*
X133426200Y-98577400D01*
X133814799Y-99023001D02*
X133426200Y-98634402D01*
X136885997Y-99023001D02*
X133814799Y-99023001D01*
X142748000Y-93726000D02*
X142182998Y-93726000D01*
X142182998Y-93726000D02*
X136885997Y-99023001D01*
X138196991Y-104160991D02*
X138176000Y-104140000D01*
X138196991Y-104160991D02*
X126766991Y-104160991D01*
X159258000Y-97282000D02*
X156972000Y-97282000D01*
X161834999Y-94705001D02*
X159258000Y-97282000D01*
X161834999Y-81693999D02*
X161834999Y-94705001D01*
X172974000Y-88588315D02*
X171507685Y-87122000D01*
X172974000Y-89154000D02*
X172974000Y-88588315D01*
X171507685Y-87122000D02*
X168713002Y-87122000D01*
X168713002Y-87122000D02*
X162908001Y-81316999D01*
X162908001Y-81316999D02*
X162211999Y-81316999D01*
X162211999Y-81316999D02*
X161834999Y-81693999D01*
X124910799Y-102584199D02*
X126487591Y-104160991D01*
X124510800Y-102158800D02*
X124910799Y-102558799D01*
X124910799Y-102558799D02*
X124910799Y-102584199D01*
X126487591Y-104160991D02*
X126766991Y-104160991D01*
X134112000Y-97681515D02*
X134112000Y-98247200D01*
X133952684Y-97522199D02*
X134112000Y-97681515D01*
X132551001Y-97522199D02*
X133952684Y-97522199D01*
X130397199Y-99676001D02*
X132551001Y-97522199D01*
X129939999Y-99676001D02*
X130397199Y-99676001D01*
X129540000Y-100076000D02*
X129939999Y-99676001D01*
X153162000Y-101854000D02*
X154178000Y-100838000D01*
X153162000Y-104648000D02*
X153162000Y-101854000D01*
X152654000Y-105156000D02*
X153162000Y-104648000D01*
X140647412Y-105156000D02*
X152654000Y-105156000D01*
X138196991Y-104160991D02*
X139652403Y-104160991D01*
X139652403Y-104160991D02*
X140647412Y-105156000D01*
X169004001Y-95032999D02*
X167603001Y-95032999D01*
X169672000Y-95504000D02*
X169475002Y-95504000D01*
X169475002Y-95504000D02*
X169004001Y-95032999D01*
X167603001Y-95032999D02*
X167566002Y-94996000D01*
X167566002Y-94996000D02*
X165354000Y-94996000D01*
X165354000Y-94996000D02*
X164592000Y-95758000D01*
X164592000Y-95758000D02*
X164592000Y-97028000D01*
X164846000Y-97224315D02*
X164846000Y-97790000D01*
X164649685Y-97028000D02*
X164846000Y-97224315D01*
X164592000Y-97028000D02*
X164649685Y-97028000D01*
X146874795Y-92461793D02*
X146874795Y-92393205D01*
X153798410Y-96266000D02*
X150700399Y-93167989D01*
X156521990Y-98484400D02*
X154303590Y-96266000D01*
X147580991Y-93167989D02*
X146874795Y-92461793D01*
X150700399Y-93167989D02*
X147580991Y-93167989D01*
X156521990Y-99551992D02*
X156521990Y-98484400D01*
X146874795Y-92393205D02*
X146900591Y-92419001D01*
X164846000Y-97790000D02*
X164846000Y-99371002D01*
X164846000Y-99371002D02*
X163162001Y-101055001D01*
X154303590Y-96266000D02*
X153798410Y-96266000D01*
X163162001Y-101055001D02*
X158024999Y-101055001D01*
X158024999Y-101055001D02*
X156521990Y-99551992D01*
X144969795Y-90488205D02*
X146874795Y-92393205D01*
X144969795Y-89089795D02*
X144969795Y-90488205D01*
X143510000Y-87630000D02*
X144969795Y-89089795D01*
X136848998Y-87630000D02*
X143510000Y-87630000D01*
X134402999Y-90075999D02*
X136848998Y-87630000D01*
X134562010Y-90931012D02*
X134402999Y-90772001D01*
X135273999Y-96678801D02*
X135273999Y-94119797D01*
X134874000Y-97078800D02*
X135273999Y-96678801D01*
X135273999Y-94119797D02*
X134575402Y-93421200D01*
X134402999Y-90772001D02*
X134402999Y-90075999D01*
X134575402Y-93421200D02*
X134575402Y-93301812D01*
X134575402Y-93301812D02*
X134562010Y-93288420D01*
X134562010Y-93288420D02*
X134562010Y-90931012D01*
X140701589Y-83140999D02*
X148389999Y-83140999D01*
X133096000Y-90746588D02*
X140701589Y-83140999D01*
X160020000Y-81534000D02*
X160020000Y-81534000D01*
X172269990Y-86671990D02*
X169729990Y-86671990D01*
X174498000Y-88900000D02*
X172269990Y-86671990D01*
X169729990Y-86671990D02*
X163924989Y-80866989D01*
X163924989Y-80866989D02*
X163670989Y-80866989D01*
X163670989Y-80866989D02*
X162560000Y-79756000D01*
X162560000Y-79756000D02*
X161036000Y-79756000D01*
X161036000Y-79756000D02*
X161036000Y-79756000D01*
X149337500Y-86599500D02*
X149337500Y-84088500D01*
X148389999Y-83140999D02*
X149337500Y-84088500D01*
X160020000Y-81534000D02*
X160020000Y-83612872D01*
X160020000Y-83612872D02*
X156581882Y-87050990D01*
X156581882Y-87050990D02*
X149788990Y-87050990D01*
X149788990Y-87050990D02*
X149337500Y-86599500D01*
X133096000Y-92767002D02*
X133096000Y-90746588D01*
X133146800Y-92817802D02*
X133096000Y-92767002D01*
X133146800Y-94310200D02*
X133146800Y-92817802D01*
X132080000Y-84836000D02*
X132080000Y-84836000D01*
X171450000Y-102616000D02*
X171450000Y-102616000D01*
X131572000Y-85344000D02*
X132080000Y-84836000D01*
X172974000Y-104140000D02*
X171450000Y-102616000D01*
X176022000Y-104140000D02*
X172974000Y-104140000D01*
X179203010Y-100958990D02*
X176022000Y-104140000D01*
X179070000Y-69596000D02*
X179070000Y-69872040D01*
X147066000Y-69342000D02*
X178816000Y-69342000D01*
X132645990Y-84270010D02*
X135947990Y-84270010D01*
X179070000Y-69872040D02*
X179203010Y-70005050D01*
X132080000Y-84836000D02*
X132645990Y-84270010D01*
X179203010Y-70005050D02*
X179203010Y-100958990D01*
X135947990Y-84270010D02*
X139794999Y-80423001D01*
X146304000Y-70104000D02*
X147066000Y-69342000D01*
X139794999Y-80423001D02*
X142392001Y-80423001D01*
X142392001Y-80423001D02*
X146304000Y-76511002D01*
X178816000Y-69342000D02*
X179070000Y-69596000D01*
X146304000Y-76511002D02*
X146304000Y-70104000D01*
X131572000Y-85344000D02*
X131572000Y-94843600D01*
X132207000Y-95478600D02*
X134416800Y-95478600D01*
X131572000Y-94843600D02*
X132207000Y-95478600D01*
X133858000Y-93776800D02*
X133858000Y-92456000D01*
X134391400Y-94310200D02*
X133858000Y-93776800D01*
X136144000Y-94234000D02*
X137160000Y-94234000D01*
X135128000Y-93218000D02*
X136144000Y-94234000D01*
X134128000Y-84820000D02*
X136668000Y-84820000D01*
X133350000Y-86868000D02*
X133350000Y-85598000D01*
X133350000Y-85598000D02*
X134128000Y-84820000D01*
X148036000Y-83866000D02*
X148382000Y-83866000D01*
X148382000Y-83866000D02*
X148844000Y-84328000D01*
X148844000Y-87376000D02*
X148844000Y-84328000D01*
X148082000Y-88138000D02*
X148844000Y-87376000D01*
X135128000Y-90678000D02*
X135128000Y-90170000D01*
X135128000Y-90678000D02*
X135128000Y-93218000D01*
X135128000Y-90424000D02*
X135128000Y-90678000D01*
X137668000Y-93218000D02*
X139192000Y-91694000D01*
X139192000Y-91694000D02*
X144018000Y-91694000D01*
X144018000Y-91694000D02*
X147828000Y-95504000D01*
X147828000Y-95504000D02*
X148336000Y-95504000D01*
X148336000Y-95504000D02*
X148336000Y-95504000D01*
X146957999Y-93617999D02*
X150513999Y-93617999D01*
X146558000Y-93218000D02*
X146957999Y-93617999D01*
X150513999Y-93617999D02*
X152908000Y-96012000D01*
X159911999Y-94596001D02*
X160331990Y-94176010D01*
X156464000Y-94996000D02*
X156863999Y-94596001D01*
X156863999Y-94596001D02*
X159911999Y-94596001D01*
X159256168Y-91497990D02*
X154939695Y-91497990D01*
X160331990Y-92573812D02*
X159256168Y-91497990D01*
X160331990Y-94176010D02*
X160331990Y-92573812D01*
X154686000Y-97790000D02*
X152908000Y-96012000D01*
X154939695Y-91497990D02*
X154939695Y-91497990D01*
X146812000Y-91694000D02*
X149098000Y-91694000D01*
X145542000Y-86360000D02*
X145542000Y-90424000D01*
X145542000Y-90424000D02*
X146812000Y-91694000D01*
X142399999Y-93000999D02*
X143546999Y-93000999D01*
X140970000Y-93218000D02*
X142182998Y-93218000D01*
X142182998Y-93218000D02*
X142399999Y-93000999D01*
X144780000Y-94234000D02*
X144780000Y-95250000D01*
X143546999Y-93000999D02*
X144780000Y-94234000D01*
X141986000Y-84074000D02*
X144329002Y-84074000D01*
X147222184Y-99412499D02*
X147377685Y-99568000D01*
X146656499Y-99412499D02*
X147222184Y-99412499D01*
X147377685Y-99568000D02*
X149860000Y-99568000D01*
X149860000Y-99568000D02*
X151638000Y-101346000D01*
X151638000Y-101346000D02*
X151638000Y-101346000D01*
X147479999Y-89698999D02*
X148176001Y-89698999D01*
X149226410Y-89916000D02*
X149988410Y-90678000D01*
X147102999Y-90075999D02*
X147479999Y-89698999D01*
X147102999Y-90387001D02*
X147102999Y-90075999D01*
X148393002Y-89916000D02*
X149226410Y-89916000D01*
X146812000Y-90678000D02*
X147102999Y-90387001D01*
X146558000Y-90678000D02*
X146812000Y-90678000D01*
X148176001Y-89698999D02*
X148393002Y-89916000D01*
X145992010Y-90112010D02*
X146558000Y-90678000D01*
X143546999Y-85634999D02*
X145890001Y-85634999D01*
X141986000Y-84074000D02*
X143546999Y-85634999D01*
X145890001Y-85634999D02*
X146267001Y-86011999D01*
X146267001Y-86011999D02*
X146267001Y-86708001D01*
X146267001Y-86708001D02*
X145992010Y-86982992D01*
X145992010Y-86982992D02*
X145992010Y-90112010D01*
X152617001Y-93181001D02*
X150114000Y-90678000D01*
X152871001Y-93181001D02*
X152617001Y-93181001D01*
X154432000Y-94742000D02*
X152871001Y-93181001D01*
X149988410Y-90678000D02*
X150114000Y-90678000D01*
X145793180Y-100330000D02*
X144015180Y-102108000D01*
X146812000Y-100330000D02*
X145793180Y-100330000D01*
X144015180Y-102108000D02*
X129032000Y-102108000D01*
X127450010Y-89078992D02*
X128778000Y-87751002D01*
X128524000Y-99822000D02*
X127450010Y-98748010D01*
X127450010Y-98748010D02*
X127450010Y-89078992D01*
X128778000Y-87751002D02*
X128778000Y-74168000D01*
X128778000Y-74168000D02*
X128778000Y-74168000D01*
X167836315Y-102108000D02*
X168402000Y-102108000D01*
X159242000Y-102108000D02*
X167836315Y-102108000D01*
X156796000Y-104554000D02*
X159242000Y-102108000D01*
X155546000Y-104554000D02*
X156796000Y-104554000D01*
X166370000Y-103378000D02*
X166370000Y-105410000D01*
X162560000Y-100076000D02*
X162814000Y-100330000D01*
X162560000Y-82042000D02*
X162560000Y-100076000D01*
X167132000Y-95758000D02*
X167132000Y-99314000D01*
X167132000Y-99314000D02*
X172212000Y-104394000D01*
X172212000Y-104394000D02*
X172212000Y-114300000D01*
X174466000Y-116554000D02*
X177546000Y-116554000D01*
X172212000Y-114300000D02*
X174466000Y-116554000D01*
X170324000Y-90026000D02*
X177878000Y-90026000D01*
X170036000Y-90026000D02*
X170324000Y-90026000D01*
X168910000Y-88900000D02*
X170036000Y-90026000D01*
X173881999Y-79102001D02*
X173881999Y-78340001D01*
X173482000Y-79502000D02*
X173881999Y-79102001D01*
X176196000Y-76026000D02*
X177878000Y-76026000D01*
X173881999Y-78340001D02*
X176196000Y-76026000D01*
X168585000Y-96787315D02*
X168656000Y-96716315D01*
X168585000Y-97353000D02*
X168585000Y-96787315D01*
X168656000Y-96716315D02*
X168656000Y-96012000D01*
X168656000Y-96012000D02*
X168656000Y-95758000D01*
X168656000Y-95758000D02*
X168656000Y-95758000D01*
X135693685Y-98298000D02*
X138938000Y-95053685D01*
X135128000Y-98298000D02*
X135693685Y-98298000D01*
X138938000Y-95053685D02*
X138938000Y-93218000D01*
X138938000Y-93218000D02*
X138938000Y-93218000D01*
X149098000Y-90424000D02*
X156972000Y-98298000D01*
X156972000Y-98298000D02*
X156972000Y-99314000D01*
X156972000Y-99314000D02*
X157988000Y-100330000D01*
X157988000Y-100330000D02*
X160020000Y-100330000D01*
X160020000Y-100330000D02*
X160528000Y-99822000D01*
X160528000Y-99822000D02*
X160528000Y-99822000D01*
X149098000Y-90424000D02*
X147828000Y-90424000D01*
X144634001Y-91040001D02*
X145034000Y-91440000D01*
X137813999Y-91040001D02*
X144634001Y-91040001D01*
X137178999Y-91675001D02*
X137813999Y-91040001D01*
X136779000Y-92608400D02*
X137178999Y-92208401D01*
X137178999Y-92208401D02*
X137178999Y-91675001D01*
D21*
G36*
X145792998Y-69540201D02*
G01*
X145764000Y-69563999D01*
X145740202Y-69592997D01*
X145740201Y-69592998D01*
X145669026Y-69679724D01*
X145598454Y-69811754D01*
X145574794Y-69889753D01*
X145554998Y-69955014D01*
X145545884Y-70047546D01*
X145540324Y-70104000D01*
X145544001Y-70141332D01*
X145544000Y-76196200D01*
X143986956Y-77753245D01*
X143915774Y-77682063D01*
X143746256Y-77568795D01*
X143557898Y-77490774D01*
X143357939Y-77451000D01*
X143283085Y-77451000D01*
X143267275Y-77438025D01*
X143135246Y-77367453D01*
X142991985Y-77323996D01*
X142880332Y-77312999D01*
X142880321Y-77312999D01*
X142842999Y-77309323D01*
X142805677Y-77312999D01*
X141568444Y-77312999D01*
X141586599Y-77279034D01*
X141671513Y-76999111D01*
X141700185Y-76708000D01*
X141671513Y-76416889D01*
X141586599Y-76136966D01*
X141448706Y-75878986D01*
X141263134Y-75652866D01*
X141233313Y-75628393D01*
X141302180Y-75607502D01*
X141412494Y-75548537D01*
X141509185Y-75469185D01*
X141588537Y-75372494D01*
X141647502Y-75262180D01*
X141683812Y-75142482D01*
X141696072Y-75018000D01*
X141696072Y-73318000D01*
X141683812Y-73193518D01*
X141647502Y-73073820D01*
X141588537Y-72963506D01*
X141509185Y-72866815D01*
X141412494Y-72787463D01*
X141302180Y-72728498D01*
X141182482Y-72692188D01*
X141058000Y-72679928D01*
X139358000Y-72679928D01*
X139233518Y-72692188D01*
X139113820Y-72728498D01*
X139003506Y-72787463D01*
X138906815Y-72866815D01*
X138827463Y-72963506D01*
X138768498Y-73073820D01*
X138732188Y-73193518D01*
X138719928Y-73318000D01*
X138719928Y-75018000D01*
X138732188Y-75142482D01*
X138768498Y-75262180D01*
X138827463Y-75372494D01*
X138906815Y-75469185D01*
X139003506Y-75548537D01*
X139113820Y-75607502D01*
X139182687Y-75628393D01*
X139152866Y-75652866D01*
X138967294Y-75878986D01*
X138829401Y-76136966D01*
X138744487Y-76416889D01*
X138715815Y-76708000D01*
X138744487Y-76999111D01*
X138829401Y-77279034D01*
X138967294Y-77537014D01*
X139029448Y-77612748D01*
X134689859Y-81952337D01*
X134670155Y-81915000D01*
X133477000Y-81915000D01*
X133477000Y-81935000D01*
X133223000Y-81935000D01*
X133223000Y-81915000D01*
X132029845Y-81915000D01*
X131908524Y-82144890D01*
X131953175Y-82292099D01*
X132078359Y-82554920D01*
X132252412Y-82788269D01*
X132468645Y-82983178D01*
X132597612Y-83060000D01*
X131609322Y-83060000D01*
X131571999Y-83056324D01*
X131534676Y-83060000D01*
X131534667Y-83060000D01*
X131423014Y-83070997D01*
X131316000Y-83103459D01*
X131316000Y-76708000D01*
X131857815Y-76708000D01*
X131886487Y-76999111D01*
X131971401Y-77279034D01*
X132109294Y-77537014D01*
X132294866Y-77763134D01*
X132520986Y-77948706D01*
X132575791Y-77978000D01*
X132520986Y-78007294D01*
X132294866Y-78192866D01*
X132109294Y-78418986D01*
X131971401Y-78676966D01*
X131886487Y-78956889D01*
X131857815Y-79248000D01*
X131886487Y-79539111D01*
X131971401Y-79819034D01*
X132109294Y-80077014D01*
X132294866Y-80303134D01*
X132520986Y-80488706D01*
X132585523Y-80523201D01*
X132468645Y-80592822D01*
X132252412Y-80787731D01*
X132078359Y-81021080D01*
X131953175Y-81283901D01*
X131908524Y-81431110D01*
X132029845Y-81661000D01*
X133223000Y-81661000D01*
X133223000Y-81641000D01*
X133477000Y-81641000D01*
X133477000Y-81661000D01*
X134670155Y-81661000D01*
X134791476Y-81431110D01*
X134746825Y-81283901D01*
X134621641Y-81021080D01*
X134447588Y-80787731D01*
X134231355Y-80592822D01*
X134114477Y-80523201D01*
X134179014Y-80488706D01*
X134405134Y-80303134D01*
X134590706Y-80077014D01*
X134728599Y-79819034D01*
X134813513Y-79539111D01*
X134842185Y-79248000D01*
X134813513Y-78956889D01*
X134728599Y-78676966D01*
X134590706Y-78418986D01*
X134405134Y-78192866D01*
X134179014Y-78007294D01*
X134124209Y-77978000D01*
X134179014Y-77948706D01*
X134405134Y-77763134D01*
X134590706Y-77537014D01*
X134728599Y-77279034D01*
X134813513Y-76999111D01*
X134842185Y-76708000D01*
X134813513Y-76416889D01*
X134728599Y-76136966D01*
X134590706Y-75878986D01*
X134405134Y-75652866D01*
X134375313Y-75628393D01*
X134444180Y-75607502D01*
X134554494Y-75548537D01*
X134651185Y-75469185D01*
X134730537Y-75372494D01*
X134789502Y-75262180D01*
X134825812Y-75142482D01*
X134838072Y-75018000D01*
X134838072Y-73318000D01*
X134825812Y-73193518D01*
X134789502Y-73073820D01*
X134730537Y-72963506D01*
X134651185Y-72866815D01*
X134554494Y-72787463D01*
X134444180Y-72728498D01*
X134324482Y-72692188D01*
X134200000Y-72679928D01*
X132500000Y-72679928D01*
X132375518Y-72692188D01*
X132255820Y-72728498D01*
X132145506Y-72787463D01*
X132048815Y-72866815D01*
X131969463Y-72963506D01*
X131910498Y-73073820D01*
X131874188Y-73193518D01*
X131861928Y-73318000D01*
X131861928Y-75018000D01*
X131874188Y-75142482D01*
X131910498Y-75262180D01*
X131969463Y-75372494D01*
X132048815Y-75469185D01*
X132145506Y-75548537D01*
X132255820Y-75607502D01*
X132324687Y-75628393D01*
X132294866Y-75652866D01*
X132109294Y-75878986D01*
X131971401Y-76136966D01*
X131886487Y-76416889D01*
X131857815Y-76708000D01*
X131316000Y-76708000D01*
X131316000Y-72196801D01*
X131632802Y-71880000D01*
X133797199Y-71880000D01*
X134056200Y-72139002D01*
X134079999Y-72168001D01*
X134195724Y-72262974D01*
X134327753Y-72333546D01*
X134471014Y-72377003D01*
X134582667Y-72388000D01*
X134582676Y-72388000D01*
X134619999Y-72391676D01*
X134657322Y-72388000D01*
X143111315Y-72388000D01*
X143214063Y-72541774D01*
X143358226Y-72685937D01*
X143527744Y-72799205D01*
X143716102Y-72877226D01*
X143916061Y-72917000D01*
X144119939Y-72917000D01*
X144319898Y-72877226D01*
X144508256Y-72799205D01*
X144677774Y-72685937D01*
X144821937Y-72541774D01*
X144935205Y-72372256D01*
X145013226Y-72183898D01*
X145053000Y-71983939D01*
X145053000Y-71780061D01*
X145013226Y-71580102D01*
X144935205Y-71391744D01*
X144821937Y-71222226D01*
X144677774Y-71078063D01*
X144508256Y-70964795D01*
X144319898Y-70886774D01*
X144119939Y-70847000D01*
X143916061Y-70847000D01*
X143807455Y-70868603D01*
X143801333Y-70868000D01*
X143801322Y-70868000D01*
X143764000Y-70864324D01*
X143726678Y-70868000D01*
X134934802Y-70868000D01*
X134675803Y-70609002D01*
X134652001Y-70579999D01*
X134536276Y-70485026D01*
X134404247Y-70414454D01*
X134260986Y-70370997D01*
X134149333Y-70360000D01*
X134149322Y-70360000D01*
X134112000Y-70356324D01*
X134074678Y-70360000D01*
X131355325Y-70360000D01*
X131318000Y-70356324D01*
X131280675Y-70360000D01*
X131280667Y-70360000D01*
X131169014Y-70370997D01*
X131025753Y-70414454D01*
X130893724Y-70485026D01*
X130777999Y-70579999D01*
X130754201Y-70608998D01*
X130044998Y-71318201D01*
X130016000Y-71341999D01*
X129992202Y-71370997D01*
X129992201Y-71370998D01*
X129921026Y-71457724D01*
X129850454Y-71589754D01*
X129838853Y-71627999D01*
X129806999Y-71733013D01*
X129806998Y-71733015D01*
X129792324Y-71882000D01*
X129796001Y-71919333D01*
X129796001Y-73980600D01*
X129773226Y-73866102D01*
X129695205Y-73677744D01*
X129581937Y-73508226D01*
X129437774Y-73364063D01*
X129268256Y-73250795D01*
X129079898Y-73172774D01*
X128879939Y-73133000D01*
X128676061Y-73133000D01*
X128476102Y-73172774D01*
X128287744Y-73250795D01*
X128118226Y-73364063D01*
X127974063Y-73508226D01*
X127860795Y-73677744D01*
X127782774Y-73866102D01*
X127743000Y-74066061D01*
X127743000Y-74269939D01*
X127782774Y-74469898D01*
X127860795Y-74658256D01*
X127974063Y-74827774D01*
X128018001Y-74871712D01*
X128018000Y-84055000D01*
X127914061Y-84055000D01*
X127714102Y-84094774D01*
X127616493Y-84135205D01*
X127540001Y-84041999D01*
X127511004Y-84018202D01*
X126384000Y-82891199D01*
X126384000Y-82829061D01*
X126344226Y-82629102D01*
X126266205Y-82440744D01*
X126152937Y-82271226D01*
X126008774Y-82127063D01*
X125839256Y-82013795D01*
X125650898Y-81935774D01*
X125450939Y-81896000D01*
X125247061Y-81896000D01*
X125047102Y-81935774D01*
X124966000Y-81969368D01*
X124966000Y-76803007D01*
X124969676Y-76765684D01*
X124966000Y-76728361D01*
X124966000Y-76728352D01*
X124955003Y-76616699D01*
X124911546Y-76473438D01*
X124840974Y-76341409D01*
X124746001Y-76225684D01*
X124717004Y-76201887D01*
X123900271Y-75385155D01*
X123954226Y-75254898D01*
X123994000Y-75054939D01*
X123994000Y-74851061D01*
X123954226Y-74651102D01*
X123876205Y-74462744D01*
X123762937Y-74293226D01*
X123618774Y-74149063D01*
X123449256Y-74035795D01*
X123260898Y-73957774D01*
X123060939Y-73918000D01*
X122857061Y-73918000D01*
X122657102Y-73957774D01*
X122468744Y-74035795D01*
X122299226Y-74149063D01*
X122155063Y-74293226D01*
X122041795Y-74462744D01*
X121963774Y-74651102D01*
X121924000Y-74851061D01*
X121924000Y-75054939D01*
X121963774Y-75254898D01*
X122041795Y-75443256D01*
X122155063Y-75612774D01*
X122210013Y-75667724D01*
X122253454Y-75810932D01*
X122278037Y-75856921D01*
X122324026Y-75942961D01*
X122379813Y-76010937D01*
X122419000Y-76058686D01*
X122447998Y-76082484D01*
X123446000Y-77080487D01*
X123446000Y-87187597D01*
X123246938Y-87148001D01*
X123043060Y-87148001D01*
X122843101Y-87187775D01*
X122654743Y-87265796D01*
X122485225Y-87379064D01*
X122341062Y-87523227D01*
X122227794Y-87692745D01*
X122149773Y-87881103D01*
X122109999Y-88081062D01*
X122109999Y-88143198D01*
X120139003Y-90114196D01*
X120109999Y-90137999D01*
X120068144Y-90189000D01*
X120015026Y-90253724D01*
X119969327Y-90339220D01*
X119944454Y-90385754D01*
X119900997Y-90529015D01*
X119890000Y-90640668D01*
X119890000Y-90640678D01*
X119886324Y-90678000D01*
X119890000Y-90715322D01*
X119890001Y-97733200D01*
X118108000Y-95951199D01*
X118108000Y-78394912D01*
X118111676Y-78357589D01*
X118108000Y-78320266D01*
X118108000Y-78320257D01*
X118097003Y-78208604D01*
X118053546Y-78065343D01*
X118036685Y-78033799D01*
X117982974Y-77933313D01*
X117911799Y-77846587D01*
X117888001Y-77817589D01*
X117859003Y-77793791D01*
X116693993Y-76628781D01*
X116983925Y-76571110D01*
X117390669Y-76402631D01*
X117756729Y-76158038D01*
X118068038Y-75846729D01*
X118312631Y-75480669D01*
X118345000Y-75402523D01*
X118345000Y-75539939D01*
X118384774Y-75739898D01*
X118462795Y-75928256D01*
X118576063Y-76097774D01*
X118620000Y-76141711D01*
X118620001Y-80480668D01*
X118616324Y-80518000D01*
X118620001Y-80555333D01*
X118630998Y-80666986D01*
X118635560Y-80682025D01*
X118674454Y-80810246D01*
X118745026Y-80942276D01*
X118805509Y-81015974D01*
X118840000Y-81058001D01*
X118868998Y-81081799D01*
X119209203Y-81422004D01*
X119186487Y-81496889D01*
X119157815Y-81788000D01*
X119186487Y-82079111D01*
X119271401Y-82359034D01*
X119409294Y-82617014D01*
X119594866Y-82843134D01*
X119820986Y-83028706D01*
X119875791Y-83058000D01*
X119820986Y-83087294D01*
X119594866Y-83272866D01*
X119409294Y-83498986D01*
X119271401Y-83756966D01*
X119186487Y-84036889D01*
X119157815Y-84328000D01*
X119186487Y-84619111D01*
X119271401Y-84899034D01*
X119409294Y-85157014D01*
X119594866Y-85383134D01*
X119624687Y-85407607D01*
X119555820Y-85428498D01*
X119445506Y-85487463D01*
X119348815Y-85566815D01*
X119269463Y-85663506D01*
X119210498Y-85773820D01*
X119174188Y-85893518D01*
X119161928Y-86018000D01*
X119161928Y-87718000D01*
X119174188Y-87842482D01*
X119210498Y-87962180D01*
X119269463Y-88072494D01*
X119348815Y-88169185D01*
X119445506Y-88248537D01*
X119555820Y-88307502D01*
X119675518Y-88343812D01*
X119800000Y-88356072D01*
X121500000Y-88356072D01*
X121624482Y-88343812D01*
X121744180Y-88307502D01*
X121854494Y-88248537D01*
X121951185Y-88169185D01*
X122030537Y-88072494D01*
X122089502Y-87962180D01*
X122125812Y-87842482D01*
X122138072Y-87718000D01*
X122138072Y-86018000D01*
X122125812Y-85893518D01*
X122089502Y-85773820D01*
X122030537Y-85663506D01*
X121951185Y-85566815D01*
X121854494Y-85487463D01*
X121744180Y-85428498D01*
X121675313Y-85407607D01*
X121705134Y-85383134D01*
X121890706Y-85157014D01*
X122028599Y-84899034D01*
X122113513Y-84619111D01*
X122142185Y-84328000D01*
X122113513Y-84036889D01*
X122028599Y-83756966D01*
X121890706Y-83498986D01*
X121705134Y-83272866D01*
X121479014Y-83087294D01*
X121424209Y-83058000D01*
X121479014Y-83028706D01*
X121705134Y-82843134D01*
X121890706Y-82617014D01*
X122028599Y-82359034D01*
X122113513Y-82079111D01*
X122142185Y-81788000D01*
X122113513Y-81496889D01*
X122028599Y-81216966D01*
X121890706Y-80958986D01*
X121705134Y-80732866D01*
X121479014Y-80547294D01*
X121414477Y-80512799D01*
X121531355Y-80443178D01*
X121747588Y-80248269D01*
X121921641Y-80014920D01*
X122046825Y-79752099D01*
X122091476Y-79604890D01*
X121970155Y-79375000D01*
X120777000Y-79375000D01*
X120777000Y-79395000D01*
X120523000Y-79395000D01*
X120523000Y-79375000D01*
X120503000Y-79375000D01*
X120503000Y-79121000D01*
X120523000Y-79121000D01*
X120523000Y-77927186D01*
X120777000Y-77927186D01*
X120777000Y-79121000D01*
X121970155Y-79121000D01*
X122091476Y-78891110D01*
X122046825Y-78743901D01*
X121921641Y-78481080D01*
X121747588Y-78247731D01*
X121531355Y-78052822D01*
X121281252Y-77903843D01*
X121006891Y-77806519D01*
X120777000Y-77927186D01*
X120523000Y-77927186D01*
X120293109Y-77806519D01*
X120140000Y-77860831D01*
X120140000Y-76141711D01*
X120183937Y-76097774D01*
X120297205Y-75928256D01*
X120375226Y-75739898D01*
X120415000Y-75539939D01*
X120415000Y-75336061D01*
X120375226Y-75136102D01*
X120297205Y-74947744D01*
X120183937Y-74778226D01*
X120039774Y-74634063D01*
X119870256Y-74520795D01*
X119681898Y-74442774D01*
X119481939Y-74403000D01*
X119278061Y-74403000D01*
X119078102Y-74442774D01*
X118889744Y-74520795D01*
X118720226Y-74634063D01*
X118576063Y-74778226D01*
X118524611Y-74855229D01*
X118567000Y-74642128D01*
X118567000Y-74201872D01*
X118481110Y-73770075D01*
X118312631Y-73363331D01*
X118068038Y-72997271D01*
X117756729Y-72685962D01*
X117390669Y-72441369D01*
X116983925Y-72272890D01*
X116552128Y-72187000D01*
X116111872Y-72187000D01*
X115680075Y-72272890D01*
X115273331Y-72441369D01*
X114907271Y-72685962D01*
X114595962Y-72997271D01*
X114351369Y-73363331D01*
X114182890Y-73770075D01*
X114097000Y-74201872D01*
X114097000Y-74642128D01*
X114137751Y-74846999D01*
X112962159Y-74846999D01*
X112908205Y-74716744D01*
X112794937Y-74547226D01*
X112650774Y-74403063D01*
X112481256Y-74289795D01*
X112292898Y-74211774D01*
X112092939Y-74172000D01*
X111889061Y-74172000D01*
X111689102Y-74211774D01*
X111500744Y-74289795D01*
X111331226Y-74403063D01*
X111187063Y-74547226D01*
X111073795Y-74716744D01*
X110995774Y-74905102D01*
X110956000Y-75105061D01*
X110956000Y-75308939D01*
X110995774Y-75508898D01*
X111073795Y-75697256D01*
X111187063Y-75866774D01*
X111273299Y-75953010D01*
X111204102Y-75966774D01*
X111015744Y-76044795D01*
X110846226Y-76158063D01*
X110702063Y-76302226D01*
X110588795Y-76471744D01*
X110510774Y-76660102D01*
X110471000Y-76860061D01*
X110471000Y-77063939D01*
X110510774Y-77263898D01*
X110588795Y-77452256D01*
X110702063Y-77621774D01*
X110846226Y-77765937D01*
X111015744Y-77879205D01*
X111204102Y-77957226D01*
X111404061Y-77997000D01*
X111607939Y-77997000D01*
X111807898Y-77957226D01*
X111996256Y-77879205D01*
X112165774Y-77765937D01*
X112209711Y-77722000D01*
X113801612Y-77722000D01*
X113672645Y-77798822D01*
X113456412Y-77993731D01*
X113282359Y-78227080D01*
X113157175Y-78489901D01*
X113112524Y-78637110D01*
X113233845Y-78867000D01*
X114427000Y-78867000D01*
X114427000Y-78847000D01*
X114681000Y-78847000D01*
X114681000Y-78867000D01*
X114701000Y-78867000D01*
X114701000Y-79121000D01*
X114681000Y-79121000D01*
X114681000Y-79141000D01*
X114427000Y-79141000D01*
X114427000Y-79121000D01*
X113233845Y-79121000D01*
X113112524Y-79350890D01*
X113157175Y-79498099D01*
X113282359Y-79760920D01*
X113456412Y-79994269D01*
X113672645Y-80189178D01*
X113789523Y-80258799D01*
X113724986Y-80293294D01*
X113498866Y-80478866D01*
X113313294Y-80704986D01*
X113276405Y-80774000D01*
X111701711Y-80774000D01*
X111657774Y-80730063D01*
X111488256Y-80616795D01*
X111299898Y-80538774D01*
X111099939Y-80499000D01*
X110896061Y-80499000D01*
X110696102Y-80538774D01*
X110507744Y-80616795D01*
X110338226Y-80730063D01*
X110194063Y-80874226D01*
X110080795Y-81043744D01*
X110002774Y-81232102D01*
X109963000Y-81432061D01*
X109963000Y-81635939D01*
X110002774Y-81835898D01*
X110080795Y-82024256D01*
X110194063Y-82193774D01*
X110338226Y-82337937D01*
X110507744Y-82451205D01*
X110696102Y-82529226D01*
X110896061Y-82569000D01*
X111099939Y-82569000D01*
X111299898Y-82529226D01*
X111488256Y-82451205D01*
X111657774Y-82337937D01*
X111701711Y-82294000D01*
X113276405Y-82294000D01*
X113313294Y-82363014D01*
X113498866Y-82589134D01*
X113724986Y-82774706D01*
X113779791Y-82804000D01*
X113724986Y-82833294D01*
X113498866Y-83018866D01*
X113313294Y-83244986D01*
X113175401Y-83502966D01*
X113090487Y-83782889D01*
X113061815Y-84074000D01*
X113090487Y-84365111D01*
X113175401Y-84645034D01*
X113193556Y-84678999D01*
X111934365Y-84678999D01*
X111915205Y-84632744D01*
X111801937Y-84463226D01*
X111657774Y-84319063D01*
X111488256Y-84205795D01*
X111299898Y-84127774D01*
X111099939Y-84088000D01*
X110896061Y-84088000D01*
X110696102Y-84127774D01*
X110507744Y-84205795D01*
X110338226Y-84319063D01*
X110194063Y-84463226D01*
X110080795Y-84632744D01*
X110002774Y-84821102D01*
X109963000Y-85021061D01*
X109963000Y-85224939D01*
X110002774Y-85424898D01*
X110080795Y-85613256D01*
X110194063Y-85782774D01*
X110338226Y-85926937D01*
X110507744Y-86040205D01*
X110554747Y-86059674D01*
X109228957Y-87385465D01*
X109172102Y-87396774D01*
X108983744Y-87474795D01*
X108814226Y-87588063D01*
X108670063Y-87732226D01*
X108556795Y-87901744D01*
X108533056Y-87959056D01*
X108475744Y-87982795D01*
X108306226Y-88096063D01*
X108162063Y-88240226D01*
X108048795Y-88409744D01*
X107970774Y-88598102D01*
X107931000Y-88798061D01*
X107931000Y-89001939D01*
X107970774Y-89201898D01*
X108048795Y-89390256D01*
X108162063Y-89559774D01*
X108306226Y-89703937D01*
X108475744Y-89817205D01*
X108664102Y-89895226D01*
X108772962Y-89916879D01*
X108760700Y-89957303D01*
X108739751Y-90170000D01*
X108760700Y-90382697D01*
X108822741Y-90587220D01*
X108923491Y-90775710D01*
X109059078Y-90940922D01*
X109224290Y-91076509D01*
X109412780Y-91177259D01*
X109520000Y-91209784D01*
X109520001Y-94248288D01*
X109476063Y-94292226D01*
X109362795Y-94461744D01*
X109284774Y-94650102D01*
X109245000Y-94850061D01*
X109245000Y-95053939D01*
X109284774Y-95253898D01*
X109362795Y-95442256D01*
X109476063Y-95611774D01*
X109620226Y-95755937D01*
X109663990Y-95785179D01*
X108543993Y-96905177D01*
X108514989Y-96928980D01*
X108473035Y-96980102D01*
X108420016Y-97044705D01*
X108358257Y-97160247D01*
X108349444Y-97176735D01*
X108305987Y-97319996D01*
X108294990Y-97431649D01*
X108294990Y-97431659D01*
X108291314Y-97468981D01*
X108294990Y-97506304D01*
X108294991Y-101200660D01*
X108291314Y-101237992D01*
X108294991Y-101275325D01*
X108305623Y-101383267D01*
X108305988Y-101386977D01*
X108349444Y-101530238D01*
X108420016Y-101662268D01*
X108479316Y-101734524D01*
X108514990Y-101777993D01*
X108543988Y-101801791D01*
X125617199Y-118875003D01*
X125640997Y-118904001D01*
X125756722Y-118998974D01*
X125888751Y-119069546D01*
X126032012Y-119113003D01*
X126143665Y-119124000D01*
X126143673Y-119124000D01*
X126180998Y-119127676D01*
X126218323Y-119124000D01*
X141081987Y-119124000D01*
X141068795Y-119143744D01*
X140990774Y-119332102D01*
X140951000Y-119532061D01*
X140951000Y-119735939D01*
X140990774Y-119935898D01*
X141068795Y-120124256D01*
X141182063Y-120293774D01*
X141326226Y-120437937D01*
X141495744Y-120551205D01*
X141684102Y-120629226D01*
X141884061Y-120669000D01*
X141946198Y-120669000D01*
X141982997Y-120705799D01*
X141983002Y-120705803D01*
X144215198Y-122938000D01*
X143197711Y-122938000D01*
X143153774Y-122894063D01*
X142984256Y-122780795D01*
X142795898Y-122702774D01*
X142595939Y-122663000D01*
X142392061Y-122663000D01*
X142192102Y-122702774D01*
X142003744Y-122780795D01*
X141834226Y-122894063D01*
X141690063Y-123038226D01*
X141576795Y-123207744D01*
X141498774Y-123396102D01*
X141459000Y-123596061D01*
X141459000Y-123799939D01*
X141498774Y-123999898D01*
X141576795Y-124188256D01*
X141690063Y-124357774D01*
X141834226Y-124501937D01*
X141961532Y-124587000D01*
X108002606Y-124587000D01*
X107315000Y-123899394D01*
X107315000Y-119921872D01*
X114097000Y-119921872D01*
X114097000Y-120362128D01*
X114182890Y-120793925D01*
X114351369Y-121200669D01*
X114595962Y-121566729D01*
X114907271Y-121878038D01*
X115273331Y-122122631D01*
X115680075Y-122291110D01*
X116111872Y-122377000D01*
X116552128Y-122377000D01*
X116983925Y-122291110D01*
X117390669Y-122122631D01*
X117756729Y-121878038D01*
X118068038Y-121566729D01*
X118312631Y-121200669D01*
X118481110Y-120793925D01*
X118567000Y-120362128D01*
X118567000Y-119921872D01*
X118481110Y-119490075D01*
X118312631Y-119083331D01*
X118068038Y-118717271D01*
X117756729Y-118405962D01*
X117390669Y-118161369D01*
X116983925Y-117992890D01*
X116552128Y-117907000D01*
X116111872Y-117907000D01*
X115680075Y-117992890D01*
X115273331Y-118161369D01*
X114907271Y-118405962D01*
X114595962Y-118717271D01*
X114351369Y-119083331D01*
X114182890Y-119490075D01*
X114097000Y-119921872D01*
X107315000Y-119921872D01*
X107315000Y-108112000D01*
X108597928Y-108112000D01*
X108597928Y-109312000D01*
X108614992Y-109485254D01*
X108665528Y-109651850D01*
X108747595Y-109805386D01*
X108858038Y-109939962D01*
X108992614Y-110050405D01*
X109146150Y-110132472D01*
X109312746Y-110183008D01*
X109486000Y-110200072D01*
X110986000Y-110200072D01*
X111159254Y-110183008D01*
X111325850Y-110132472D01*
X111479386Y-110050405D01*
X111613962Y-109939962D01*
X111724405Y-109805386D01*
X111806472Y-109651850D01*
X111857008Y-109485254D01*
X111874072Y-109312000D01*
X111874072Y-108112000D01*
X111857008Y-107938746D01*
X111806472Y-107772150D01*
X111724405Y-107618614D01*
X111613962Y-107484038D01*
X111479386Y-107373595D01*
X111377407Y-107319086D01*
X111377795Y-107318802D01*
X111574664Y-107104046D01*
X111725854Y-106855009D01*
X111825554Y-106581261D01*
X111827476Y-106568890D01*
X111706155Y-106339000D01*
X110363000Y-106339000D01*
X110363000Y-106359000D01*
X110109000Y-106359000D01*
X110109000Y-106339000D01*
X108765845Y-106339000D01*
X108644524Y-106568890D01*
X108646446Y-106581261D01*
X108746146Y-106855009D01*
X108897336Y-107104046D01*
X109094205Y-107318802D01*
X109094593Y-107319086D01*
X108992614Y-107373595D01*
X108858038Y-107484038D01*
X108747595Y-107618614D01*
X108665528Y-107772150D01*
X108614992Y-107938746D01*
X108597928Y-108112000D01*
X107315000Y-108112000D01*
X107315000Y-105855110D01*
X108644524Y-105855110D01*
X108765845Y-106085000D01*
X110109000Y-106085000D01*
X110109000Y-104884768D01*
X110363000Y-104884768D01*
X110363000Y-106085000D01*
X111706155Y-106085000D01*
X111827476Y-105855110D01*
X111825554Y-105842739D01*
X111725854Y-105568991D01*
X111574664Y-105319954D01*
X111377795Y-105105198D01*
X111142812Y-104932975D01*
X110878745Y-104809904D01*
X110595742Y-104740715D01*
X110363000Y-104884768D01*
X110109000Y-104884768D01*
X109876258Y-104740715D01*
X109593255Y-104809904D01*
X109329188Y-104932975D01*
X109094205Y-105105198D01*
X108897336Y-105319954D01*
X108746146Y-105568991D01*
X108646446Y-105842739D01*
X108644524Y-105855110D01*
X107315000Y-105855110D01*
X107315000Y-69648606D01*
X107748606Y-69215000D01*
X146118199Y-69215000D01*
X145792998Y-69540201D01*
X145792998Y-69540201D01*
G37*
X145792998Y-69540201D02*
X145764000Y-69563999D01*
X145740202Y-69592997D01*
X145740201Y-69592998D01*
X145669026Y-69679724D01*
X145598454Y-69811754D01*
X145574794Y-69889753D01*
X145554998Y-69955014D01*
X145545884Y-70047546D01*
X145540324Y-70104000D01*
X145544001Y-70141332D01*
X145544000Y-76196200D01*
X143986956Y-77753245D01*
X143915774Y-77682063D01*
X143746256Y-77568795D01*
X143557898Y-77490774D01*
X143357939Y-77451000D01*
X143283085Y-77451000D01*
X143267275Y-77438025D01*
X143135246Y-77367453D01*
X142991985Y-77323996D01*
X142880332Y-77312999D01*
X142880321Y-77312999D01*
X142842999Y-77309323D01*
X142805677Y-77312999D01*
X141568444Y-77312999D01*
X141586599Y-77279034D01*
X141671513Y-76999111D01*
X141700185Y-76708000D01*
X141671513Y-76416889D01*
X141586599Y-76136966D01*
X141448706Y-75878986D01*
X141263134Y-75652866D01*
X141233313Y-75628393D01*
X141302180Y-75607502D01*
X141412494Y-75548537D01*
X141509185Y-75469185D01*
X141588537Y-75372494D01*
X141647502Y-75262180D01*
X141683812Y-75142482D01*
X141696072Y-75018000D01*
X141696072Y-73318000D01*
X141683812Y-73193518D01*
X141647502Y-73073820D01*
X141588537Y-72963506D01*
X141509185Y-72866815D01*
X141412494Y-72787463D01*
X141302180Y-72728498D01*
X141182482Y-72692188D01*
X141058000Y-72679928D01*
X139358000Y-72679928D01*
X139233518Y-72692188D01*
X139113820Y-72728498D01*
X139003506Y-72787463D01*
X138906815Y-72866815D01*
X138827463Y-72963506D01*
X138768498Y-73073820D01*
X138732188Y-73193518D01*
X138719928Y-73318000D01*
X138719928Y-75018000D01*
X138732188Y-75142482D01*
X138768498Y-75262180D01*
X138827463Y-75372494D01*
X138906815Y-75469185D01*
X139003506Y-75548537D01*
X139113820Y-75607502D01*
X139182687Y-75628393D01*
X139152866Y-75652866D01*
X138967294Y-75878986D01*
X138829401Y-76136966D01*
X138744487Y-76416889D01*
X138715815Y-76708000D01*
X138744487Y-76999111D01*
X138829401Y-77279034D01*
X138967294Y-77537014D01*
X139029448Y-77612748D01*
X134689859Y-81952337D01*
X134670155Y-81915000D01*
X133477000Y-81915000D01*
X133477000Y-81935000D01*
X133223000Y-81935000D01*
X133223000Y-81915000D01*
X132029845Y-81915000D01*
X131908524Y-82144890D01*
X131953175Y-82292099D01*
X132078359Y-82554920D01*
X132252412Y-82788269D01*
X132468645Y-82983178D01*
X132597612Y-83060000D01*
X131609322Y-83060000D01*
X131571999Y-83056324D01*
X131534676Y-83060000D01*
X131534667Y-83060000D01*
X131423014Y-83070997D01*
X131316000Y-83103459D01*
X131316000Y-76708000D01*
X131857815Y-76708000D01*
X131886487Y-76999111D01*
X131971401Y-77279034D01*
X132109294Y-77537014D01*
X132294866Y-77763134D01*
X132520986Y-77948706D01*
X132575791Y-77978000D01*
X132520986Y-78007294D01*
X132294866Y-78192866D01*
X132109294Y-78418986D01*
X131971401Y-78676966D01*
X131886487Y-78956889D01*
X131857815Y-79248000D01*
X131886487Y-79539111D01*
X131971401Y-79819034D01*
X132109294Y-80077014D01*
X132294866Y-80303134D01*
X132520986Y-80488706D01*
X132585523Y-80523201D01*
X132468645Y-80592822D01*
X132252412Y-80787731D01*
X132078359Y-81021080D01*
X131953175Y-81283901D01*
X131908524Y-81431110D01*
X132029845Y-81661000D01*
X133223000Y-81661000D01*
X133223000Y-81641000D01*
X133477000Y-81641000D01*
X133477000Y-81661000D01*
X134670155Y-81661000D01*
X134791476Y-81431110D01*
X134746825Y-81283901D01*
X134621641Y-81021080D01*
X134447588Y-80787731D01*
X134231355Y-80592822D01*
X134114477Y-80523201D01*
X134179014Y-80488706D01*
X134405134Y-80303134D01*
X134590706Y-80077014D01*
X134728599Y-79819034D01*
X134813513Y-79539111D01*
X134842185Y-79248000D01*
X134813513Y-78956889D01*
X134728599Y-78676966D01*
X134590706Y-78418986D01*
X134405134Y-78192866D01*
X134179014Y-78007294D01*
X134124209Y-77978000D01*
X134179014Y-77948706D01*
X134405134Y-77763134D01*
X134590706Y-77537014D01*
X134728599Y-77279034D01*
X134813513Y-76999111D01*
X134842185Y-76708000D01*
X134813513Y-76416889D01*
X134728599Y-76136966D01*
X134590706Y-75878986D01*
X134405134Y-75652866D01*
X134375313Y-75628393D01*
X134444180Y-75607502D01*
X134554494Y-75548537D01*
X134651185Y-75469185D01*
X134730537Y-75372494D01*
X134789502Y-75262180D01*
X134825812Y-75142482D01*
X134838072Y-75018000D01*
X134838072Y-73318000D01*
X134825812Y-73193518D01*
X134789502Y-73073820D01*
X134730537Y-72963506D01*
X134651185Y-72866815D01*
X134554494Y-72787463D01*
X134444180Y-72728498D01*
X134324482Y-72692188D01*
X134200000Y-72679928D01*
X132500000Y-72679928D01*
X132375518Y-72692188D01*
X132255820Y-72728498D01*
X132145506Y-72787463D01*
X132048815Y-72866815D01*
X131969463Y-72963506D01*
X131910498Y-73073820D01*
X131874188Y-73193518D01*
X131861928Y-73318000D01*
X131861928Y-75018000D01*
X131874188Y-75142482D01*
X131910498Y-75262180D01*
X131969463Y-75372494D01*
X132048815Y-75469185D01*
X132145506Y-75548537D01*
X132255820Y-75607502D01*
X132324687Y-75628393D01*
X132294866Y-75652866D01*
X132109294Y-75878986D01*
X131971401Y-76136966D01*
X131886487Y-76416889D01*
X131857815Y-76708000D01*
X131316000Y-76708000D01*
X131316000Y-72196801D01*
X131632802Y-71880000D01*
X133797199Y-71880000D01*
X134056200Y-72139002D01*
X134079999Y-72168001D01*
X134195724Y-72262974D01*
X134327753Y-72333546D01*
X134471014Y-72377003D01*
X134582667Y-72388000D01*
X134582676Y-72388000D01*
X134619999Y-72391676D01*
X134657322Y-72388000D01*
X143111315Y-72388000D01*
X143214063Y-72541774D01*
X143358226Y-72685937D01*
X143527744Y-72799205D01*
X143716102Y-72877226D01*
X143916061Y-72917000D01*
X144119939Y-72917000D01*
X144319898Y-72877226D01*
X144508256Y-72799205D01*
X144677774Y-72685937D01*
X144821937Y-72541774D01*
X144935205Y-72372256D01*
X145013226Y-72183898D01*
X145053000Y-71983939D01*
X145053000Y-71780061D01*
X145013226Y-71580102D01*
X144935205Y-71391744D01*
X144821937Y-71222226D01*
X144677774Y-71078063D01*
X144508256Y-70964795D01*
X144319898Y-70886774D01*
X144119939Y-70847000D01*
X143916061Y-70847000D01*
X143807455Y-70868603D01*
X143801333Y-70868000D01*
X143801322Y-70868000D01*
X143764000Y-70864324D01*
X143726678Y-70868000D01*
X134934802Y-70868000D01*
X134675803Y-70609002D01*
X134652001Y-70579999D01*
X134536276Y-70485026D01*
X134404247Y-70414454D01*
X134260986Y-70370997D01*
X134149333Y-70360000D01*
X134149322Y-70360000D01*
X134112000Y-70356324D01*
X134074678Y-70360000D01*
X131355325Y-70360000D01*
X131318000Y-70356324D01*
X131280675Y-70360000D01*
X131280667Y-70360000D01*
X131169014Y-70370997D01*
X131025753Y-70414454D01*
X130893724Y-70485026D01*
X130777999Y-70579999D01*
X130754201Y-70608998D01*
X130044998Y-71318201D01*
X130016000Y-71341999D01*
X129992202Y-71370997D01*
X129992201Y-71370998D01*
X129921026Y-71457724D01*
X129850454Y-71589754D01*
X129838853Y-71627999D01*
X129806999Y-71733013D01*
X129806998Y-71733015D01*
X129792324Y-71882000D01*
X129796001Y-71919333D01*
X129796001Y-73980600D01*
X129773226Y-73866102D01*
X129695205Y-73677744D01*
X129581937Y-73508226D01*
X129437774Y-73364063D01*
X129268256Y-73250795D01*
X129079898Y-73172774D01*
X128879939Y-73133000D01*
X128676061Y-73133000D01*
X128476102Y-73172774D01*
X128287744Y-73250795D01*
X128118226Y-73364063D01*
X127974063Y-73508226D01*
X127860795Y-73677744D01*
X127782774Y-73866102D01*
X127743000Y-74066061D01*
X127743000Y-74269939D01*
X127782774Y-74469898D01*
X127860795Y-74658256D01*
X127974063Y-74827774D01*
X128018001Y-74871712D01*
X128018000Y-84055000D01*
X127914061Y-84055000D01*
X127714102Y-84094774D01*
X127616493Y-84135205D01*
X127540001Y-84041999D01*
X127511004Y-84018202D01*
X126384000Y-82891199D01*
X126384000Y-82829061D01*
X126344226Y-82629102D01*
X126266205Y-82440744D01*
X126152937Y-82271226D01*
X126008774Y-82127063D01*
X125839256Y-82013795D01*
X125650898Y-81935774D01*
X125450939Y-81896000D01*
X125247061Y-81896000D01*
X125047102Y-81935774D01*
X124966000Y-81969368D01*
X124966000Y-76803007D01*
X124969676Y-76765684D01*
X124966000Y-76728361D01*
X124966000Y-76728352D01*
X124955003Y-76616699D01*
X124911546Y-76473438D01*
X124840974Y-76341409D01*
X124746001Y-76225684D01*
X124717004Y-76201887D01*
X123900271Y-75385155D01*
X123954226Y-75254898D01*
X123994000Y-75054939D01*
X123994000Y-74851061D01*
X123954226Y-74651102D01*
X123876205Y-74462744D01*
X123762937Y-74293226D01*
X123618774Y-74149063D01*
X123449256Y-74035795D01*
X123260898Y-73957774D01*
X123060939Y-73918000D01*
X122857061Y-73918000D01*
X122657102Y-73957774D01*
X122468744Y-74035795D01*
X122299226Y-74149063D01*
X122155063Y-74293226D01*
X122041795Y-74462744D01*
X121963774Y-74651102D01*
X121924000Y-74851061D01*
X121924000Y-75054939D01*
X121963774Y-75254898D01*
X122041795Y-75443256D01*
X122155063Y-75612774D01*
X122210013Y-75667724D01*
X122253454Y-75810932D01*
X122278037Y-75856921D01*
X122324026Y-75942961D01*
X122379813Y-76010937D01*
X122419000Y-76058686D01*
X122447998Y-76082484D01*
X123446000Y-77080487D01*
X123446000Y-87187597D01*
X123246938Y-87148001D01*
X123043060Y-87148001D01*
X122843101Y-87187775D01*
X122654743Y-87265796D01*
X122485225Y-87379064D01*
X122341062Y-87523227D01*
X122227794Y-87692745D01*
X122149773Y-87881103D01*
X122109999Y-88081062D01*
X122109999Y-88143198D01*
X120139003Y-90114196D01*
X120109999Y-90137999D01*
X120068144Y-90189000D01*
X120015026Y-90253724D01*
X119969327Y-90339220D01*
X119944454Y-90385754D01*
X119900997Y-90529015D01*
X119890000Y-90640668D01*
X119890000Y-90640678D01*
X119886324Y-90678000D01*
X119890000Y-90715322D01*
X119890001Y-97733200D01*
X118108000Y-95951199D01*
X118108000Y-78394912D01*
X118111676Y-78357589D01*
X118108000Y-78320266D01*
X118108000Y-78320257D01*
X118097003Y-78208604D01*
X118053546Y-78065343D01*
X118036685Y-78033799D01*
X117982974Y-77933313D01*
X117911799Y-77846587D01*
X117888001Y-77817589D01*
X117859003Y-77793791D01*
X116693993Y-76628781D01*
X116983925Y-76571110D01*
X117390669Y-76402631D01*
X117756729Y-76158038D01*
X118068038Y-75846729D01*
X118312631Y-75480669D01*
X118345000Y-75402523D01*
X118345000Y-75539939D01*
X118384774Y-75739898D01*
X118462795Y-75928256D01*
X118576063Y-76097774D01*
X118620000Y-76141711D01*
X118620001Y-80480668D01*
X118616324Y-80518000D01*
X118620001Y-80555333D01*
X118630998Y-80666986D01*
X118635560Y-80682025D01*
X118674454Y-80810246D01*
X118745026Y-80942276D01*
X118805509Y-81015974D01*
X118840000Y-81058001D01*
X118868998Y-81081799D01*
X119209203Y-81422004D01*
X119186487Y-81496889D01*
X119157815Y-81788000D01*
X119186487Y-82079111D01*
X119271401Y-82359034D01*
X119409294Y-82617014D01*
X119594866Y-82843134D01*
X119820986Y-83028706D01*
X119875791Y-83058000D01*
X119820986Y-83087294D01*
X119594866Y-83272866D01*
X119409294Y-83498986D01*
X119271401Y-83756966D01*
X119186487Y-84036889D01*
X119157815Y-84328000D01*
X119186487Y-84619111D01*
X119271401Y-84899034D01*
X119409294Y-85157014D01*
X119594866Y-85383134D01*
X119624687Y-85407607D01*
X119555820Y-85428498D01*
X119445506Y-85487463D01*
X119348815Y-85566815D01*
X119269463Y-85663506D01*
X119210498Y-85773820D01*
X119174188Y-85893518D01*
X119161928Y-86018000D01*
X119161928Y-87718000D01*
X119174188Y-87842482D01*
X119210498Y-87962180D01*
X119269463Y-88072494D01*
X119348815Y-88169185D01*
X119445506Y-88248537D01*
X119555820Y-88307502D01*
X119675518Y-88343812D01*
X119800000Y-88356072D01*
X121500000Y-88356072D01*
X121624482Y-88343812D01*
X121744180Y-88307502D01*
X121854494Y-88248537D01*
X121951185Y-88169185D01*
X122030537Y-88072494D01*
X122089502Y-87962180D01*
X122125812Y-87842482D01*
X122138072Y-87718000D01*
X122138072Y-86018000D01*
X122125812Y-85893518D01*
X122089502Y-85773820D01*
X122030537Y-85663506D01*
X121951185Y-85566815D01*
X121854494Y-85487463D01*
X121744180Y-85428498D01*
X121675313Y-85407607D01*
X121705134Y-85383134D01*
X121890706Y-85157014D01*
X122028599Y-84899034D01*
X122113513Y-84619111D01*
X122142185Y-84328000D01*
X122113513Y-84036889D01*
X122028599Y-83756966D01*
X121890706Y-83498986D01*
X121705134Y-83272866D01*
X121479014Y-83087294D01*
X121424209Y-83058000D01*
X121479014Y-83028706D01*
X121705134Y-82843134D01*
X121890706Y-82617014D01*
X122028599Y-82359034D01*
X122113513Y-82079111D01*
X122142185Y-81788000D01*
X122113513Y-81496889D01*
X122028599Y-81216966D01*
X121890706Y-80958986D01*
X121705134Y-80732866D01*
X121479014Y-80547294D01*
X121414477Y-80512799D01*
X121531355Y-80443178D01*
X121747588Y-80248269D01*
X121921641Y-80014920D01*
X122046825Y-79752099D01*
X122091476Y-79604890D01*
X121970155Y-79375000D01*
X120777000Y-79375000D01*
X120777000Y-79395000D01*
X120523000Y-79395000D01*
X120523000Y-79375000D01*
X120503000Y-79375000D01*
X120503000Y-79121000D01*
X120523000Y-79121000D01*
X120523000Y-77927186D01*
X120777000Y-77927186D01*
X120777000Y-79121000D01*
X121970155Y-79121000D01*
X122091476Y-78891110D01*
X122046825Y-78743901D01*
X121921641Y-78481080D01*
X121747588Y-78247731D01*
X121531355Y-78052822D01*
X121281252Y-77903843D01*
X121006891Y-77806519D01*
X120777000Y-77927186D01*
X120523000Y-77927186D01*
X120293109Y-77806519D01*
X120140000Y-77860831D01*
X120140000Y-76141711D01*
X120183937Y-76097774D01*
X120297205Y-75928256D01*
X120375226Y-75739898D01*
X120415000Y-75539939D01*
X120415000Y-75336061D01*
X120375226Y-75136102D01*
X120297205Y-74947744D01*
X120183937Y-74778226D01*
X120039774Y-74634063D01*
X119870256Y-74520795D01*
X119681898Y-74442774D01*
X119481939Y-74403000D01*
X119278061Y-74403000D01*
X119078102Y-74442774D01*
X118889744Y-74520795D01*
X118720226Y-74634063D01*
X118576063Y-74778226D01*
X118524611Y-74855229D01*
X118567000Y-74642128D01*
X118567000Y-74201872D01*
X118481110Y-73770075D01*
X118312631Y-73363331D01*
X118068038Y-72997271D01*
X117756729Y-72685962D01*
X117390669Y-72441369D01*
X116983925Y-72272890D01*
X116552128Y-72187000D01*
X116111872Y-72187000D01*
X115680075Y-72272890D01*
X115273331Y-72441369D01*
X114907271Y-72685962D01*
X114595962Y-72997271D01*
X114351369Y-73363331D01*
X114182890Y-73770075D01*
X114097000Y-74201872D01*
X114097000Y-74642128D01*
X114137751Y-74846999D01*
X112962159Y-74846999D01*
X112908205Y-74716744D01*
X112794937Y-74547226D01*
X112650774Y-74403063D01*
X112481256Y-74289795D01*
X112292898Y-74211774D01*
X112092939Y-74172000D01*
X111889061Y-74172000D01*
X111689102Y-74211774D01*
X111500744Y-74289795D01*
X111331226Y-74403063D01*
X111187063Y-74547226D01*
X111073795Y-74716744D01*
X110995774Y-74905102D01*
X110956000Y-75105061D01*
X110956000Y-75308939D01*
X110995774Y-75508898D01*
X111073795Y-75697256D01*
X111187063Y-75866774D01*
X111273299Y-75953010D01*
X111204102Y-75966774D01*
X111015744Y-76044795D01*
X110846226Y-76158063D01*
X110702063Y-76302226D01*
X110588795Y-76471744D01*
X110510774Y-76660102D01*
X110471000Y-76860061D01*
X110471000Y-77063939D01*
X110510774Y-77263898D01*
X110588795Y-77452256D01*
X110702063Y-77621774D01*
X110846226Y-77765937D01*
X111015744Y-77879205D01*
X111204102Y-77957226D01*
X111404061Y-77997000D01*
X111607939Y-77997000D01*
X111807898Y-77957226D01*
X111996256Y-77879205D01*
X112165774Y-77765937D01*
X112209711Y-77722000D01*
X113801612Y-77722000D01*
X113672645Y-77798822D01*
X113456412Y-77993731D01*
X113282359Y-78227080D01*
X113157175Y-78489901D01*
X113112524Y-78637110D01*
X113233845Y-78867000D01*
X114427000Y-78867000D01*
X114427000Y-78847000D01*
X114681000Y-78847000D01*
X114681000Y-78867000D01*
X114701000Y-78867000D01*
X114701000Y-79121000D01*
X114681000Y-79121000D01*
X114681000Y-79141000D01*
X114427000Y-79141000D01*
X114427000Y-79121000D01*
X113233845Y-79121000D01*
X113112524Y-79350890D01*
X113157175Y-79498099D01*
X113282359Y-79760920D01*
X113456412Y-79994269D01*
X113672645Y-80189178D01*
X113789523Y-80258799D01*
X113724986Y-80293294D01*
X113498866Y-80478866D01*
X113313294Y-80704986D01*
X113276405Y-80774000D01*
X111701711Y-80774000D01*
X111657774Y-80730063D01*
X111488256Y-80616795D01*
X111299898Y-80538774D01*
X111099939Y-80499000D01*
X110896061Y-80499000D01*
X110696102Y-80538774D01*
X110507744Y-80616795D01*
X110338226Y-80730063D01*
X110194063Y-80874226D01*
X110080795Y-81043744D01*
X110002774Y-81232102D01*
X109963000Y-81432061D01*
X109963000Y-81635939D01*
X110002774Y-81835898D01*
X110080795Y-82024256D01*
X110194063Y-82193774D01*
X110338226Y-82337937D01*
X110507744Y-82451205D01*
X110696102Y-82529226D01*
X110896061Y-82569000D01*
X111099939Y-82569000D01*
X111299898Y-82529226D01*
X111488256Y-82451205D01*
X111657774Y-82337937D01*
X111701711Y-82294000D01*
X113276405Y-82294000D01*
X113313294Y-82363014D01*
X113498866Y-82589134D01*
X113724986Y-82774706D01*
X113779791Y-82804000D01*
X113724986Y-82833294D01*
X113498866Y-83018866D01*
X113313294Y-83244986D01*
X113175401Y-83502966D01*
X113090487Y-83782889D01*
X113061815Y-84074000D01*
X113090487Y-84365111D01*
X113175401Y-84645034D01*
X113193556Y-84678999D01*
X111934365Y-84678999D01*
X111915205Y-84632744D01*
X111801937Y-84463226D01*
X111657774Y-84319063D01*
X111488256Y-84205795D01*
X111299898Y-84127774D01*
X111099939Y-84088000D01*
X110896061Y-84088000D01*
X110696102Y-84127774D01*
X110507744Y-84205795D01*
X110338226Y-84319063D01*
X110194063Y-84463226D01*
X110080795Y-84632744D01*
X110002774Y-84821102D01*
X109963000Y-85021061D01*
X109963000Y-85224939D01*
X110002774Y-85424898D01*
X110080795Y-85613256D01*
X110194063Y-85782774D01*
X110338226Y-85926937D01*
X110507744Y-86040205D01*
X110554747Y-86059674D01*
X109228957Y-87385465D01*
X109172102Y-87396774D01*
X108983744Y-87474795D01*
X108814226Y-87588063D01*
X108670063Y-87732226D01*
X108556795Y-87901744D01*
X108533056Y-87959056D01*
X108475744Y-87982795D01*
X108306226Y-88096063D01*
X108162063Y-88240226D01*
X108048795Y-88409744D01*
X107970774Y-88598102D01*
X107931000Y-88798061D01*
X107931000Y-89001939D01*
X107970774Y-89201898D01*
X108048795Y-89390256D01*
X108162063Y-89559774D01*
X108306226Y-89703937D01*
X108475744Y-89817205D01*
X108664102Y-89895226D01*
X108772962Y-89916879D01*
X108760700Y-89957303D01*
X108739751Y-90170000D01*
X108760700Y-90382697D01*
X108822741Y-90587220D01*
X108923491Y-90775710D01*
X109059078Y-90940922D01*
X109224290Y-91076509D01*
X109412780Y-91177259D01*
X109520000Y-91209784D01*
X109520001Y-94248288D01*
X109476063Y-94292226D01*
X109362795Y-94461744D01*
X109284774Y-94650102D01*
X109245000Y-94850061D01*
X109245000Y-95053939D01*
X109284774Y-95253898D01*
X109362795Y-95442256D01*
X109476063Y-95611774D01*
X109620226Y-95755937D01*
X109663990Y-95785179D01*
X108543993Y-96905177D01*
X108514989Y-96928980D01*
X108473035Y-96980102D01*
X108420016Y-97044705D01*
X108358257Y-97160247D01*
X108349444Y-97176735D01*
X108305987Y-97319996D01*
X108294990Y-97431649D01*
X108294990Y-97431659D01*
X108291314Y-97468981D01*
X108294990Y-97506304D01*
X108294991Y-101200660D01*
X108291314Y-101237992D01*
X108294991Y-101275325D01*
X108305623Y-101383267D01*
X108305988Y-101386977D01*
X108349444Y-101530238D01*
X108420016Y-101662268D01*
X108479316Y-101734524D01*
X108514990Y-101777993D01*
X108543988Y-101801791D01*
X125617199Y-118875003D01*
X125640997Y-118904001D01*
X125756722Y-118998974D01*
X125888751Y-119069546D01*
X126032012Y-119113003D01*
X126143665Y-119124000D01*
X126143673Y-119124000D01*
X126180998Y-119127676D01*
X126218323Y-119124000D01*
X141081987Y-119124000D01*
X141068795Y-119143744D01*
X140990774Y-119332102D01*
X140951000Y-119532061D01*
X140951000Y-119735939D01*
X140990774Y-119935898D01*
X141068795Y-120124256D01*
X141182063Y-120293774D01*
X141326226Y-120437937D01*
X141495744Y-120551205D01*
X141684102Y-120629226D01*
X141884061Y-120669000D01*
X141946198Y-120669000D01*
X141982997Y-120705799D01*
X141983002Y-120705803D01*
X144215198Y-122938000D01*
X143197711Y-122938000D01*
X143153774Y-122894063D01*
X142984256Y-122780795D01*
X142795898Y-122702774D01*
X142595939Y-122663000D01*
X142392061Y-122663000D01*
X142192102Y-122702774D01*
X142003744Y-122780795D01*
X141834226Y-122894063D01*
X141690063Y-123038226D01*
X141576795Y-123207744D01*
X141498774Y-123396102D01*
X141459000Y-123596061D01*
X141459000Y-123799939D01*
X141498774Y-123999898D01*
X141576795Y-124188256D01*
X141690063Y-124357774D01*
X141834226Y-124501937D01*
X141961532Y-124587000D01*
X108002606Y-124587000D01*
X107315000Y-123899394D01*
X107315000Y-119921872D01*
X114097000Y-119921872D01*
X114097000Y-120362128D01*
X114182890Y-120793925D01*
X114351369Y-121200669D01*
X114595962Y-121566729D01*
X114907271Y-121878038D01*
X115273331Y-122122631D01*
X115680075Y-122291110D01*
X116111872Y-122377000D01*
X116552128Y-122377000D01*
X116983925Y-122291110D01*
X117390669Y-122122631D01*
X117756729Y-121878038D01*
X118068038Y-121566729D01*
X118312631Y-121200669D01*
X118481110Y-120793925D01*
X118567000Y-120362128D01*
X118567000Y-119921872D01*
X118481110Y-119490075D01*
X118312631Y-119083331D01*
X118068038Y-118717271D01*
X117756729Y-118405962D01*
X117390669Y-118161369D01*
X116983925Y-117992890D01*
X116552128Y-117907000D01*
X116111872Y-117907000D01*
X115680075Y-117992890D01*
X115273331Y-118161369D01*
X114907271Y-118405962D01*
X114595962Y-118717271D01*
X114351369Y-119083331D01*
X114182890Y-119490075D01*
X114097000Y-119921872D01*
X107315000Y-119921872D01*
X107315000Y-108112000D01*
X108597928Y-108112000D01*
X108597928Y-109312000D01*
X108614992Y-109485254D01*
X108665528Y-109651850D01*
X108747595Y-109805386D01*
X108858038Y-109939962D01*
X108992614Y-110050405D01*
X109146150Y-110132472D01*
X109312746Y-110183008D01*
X109486000Y-110200072D01*
X110986000Y-110200072D01*
X111159254Y-110183008D01*
X111325850Y-110132472D01*
X111479386Y-110050405D01*
X111613962Y-109939962D01*
X111724405Y-109805386D01*
X111806472Y-109651850D01*
X111857008Y-109485254D01*
X111874072Y-109312000D01*
X111874072Y-108112000D01*
X111857008Y-107938746D01*
X111806472Y-107772150D01*
X111724405Y-107618614D01*
X111613962Y-107484038D01*
X111479386Y-107373595D01*
X111377407Y-107319086D01*
X111377795Y-107318802D01*
X111574664Y-107104046D01*
X111725854Y-106855009D01*
X111825554Y-106581261D01*
X111827476Y-106568890D01*
X111706155Y-106339000D01*
X110363000Y-106339000D01*
X110363000Y-106359000D01*
X110109000Y-106359000D01*
X110109000Y-106339000D01*
X108765845Y-106339000D01*
X108644524Y-106568890D01*
X108646446Y-106581261D01*
X108746146Y-106855009D01*
X108897336Y-107104046D01*
X109094205Y-107318802D01*
X109094593Y-107319086D01*
X108992614Y-107373595D01*
X108858038Y-107484038D01*
X108747595Y-107618614D01*
X108665528Y-107772150D01*
X108614992Y-107938746D01*
X108597928Y-108112000D01*
X107315000Y-108112000D01*
X107315000Y-105855110D01*
X108644524Y-105855110D01*
X108765845Y-106085000D01*
X110109000Y-106085000D01*
X110109000Y-104884768D01*
X110363000Y-104884768D01*
X110363000Y-106085000D01*
X111706155Y-106085000D01*
X111827476Y-105855110D01*
X111825554Y-105842739D01*
X111725854Y-105568991D01*
X111574664Y-105319954D01*
X111377795Y-105105198D01*
X111142812Y-104932975D01*
X110878745Y-104809904D01*
X110595742Y-104740715D01*
X110363000Y-104884768D01*
X110109000Y-104884768D01*
X109876258Y-104740715D01*
X109593255Y-104809904D01*
X109329188Y-104932975D01*
X109094205Y-105105198D01*
X108897336Y-105319954D01*
X108746146Y-105568991D01*
X108646446Y-105842739D01*
X108644524Y-105855110D01*
X107315000Y-105855110D01*
X107315000Y-69648606D01*
X107748606Y-69215000D01*
X146118199Y-69215000D01*
X145792998Y-69540201D01*
G36*
X180213000Y-69841300D02*
G01*
X180213000Y-123899394D01*
X179525394Y-124587000D01*
X143026468Y-124587000D01*
X143153774Y-124501937D01*
X143197711Y-124458000D01*
X163792678Y-124458000D01*
X163830000Y-124461676D01*
X163867322Y-124458000D01*
X163867333Y-124458000D01*
X163978986Y-124447003D01*
X164122247Y-124403546D01*
X164254276Y-124332974D01*
X164370001Y-124238001D01*
X164393804Y-124208997D01*
X169519976Y-119082826D01*
X169654256Y-119027205D01*
X169823774Y-118913937D01*
X169967937Y-118769774D01*
X170081205Y-118600256D01*
X170159226Y-118411898D01*
X170199000Y-118211939D01*
X170199000Y-118008061D01*
X170159226Y-117808102D01*
X170081205Y-117619744D01*
X169967937Y-117450226D01*
X169823774Y-117306063D01*
X169654256Y-117192795D01*
X169465898Y-117114774D01*
X169265939Y-117075000D01*
X169062061Y-117075000D01*
X168862102Y-117114774D01*
X168673744Y-117192795D01*
X168504226Y-117306063D01*
X168360063Y-117450226D01*
X168246795Y-117619744D01*
X168168774Y-117808102D01*
X168129000Y-118008061D01*
X168129000Y-118211939D01*
X168147625Y-118305573D01*
X163515199Y-122938000D01*
X157122336Y-122938000D01*
X157162407Y-122805904D01*
X157187217Y-122554000D01*
X157162407Y-122302096D01*
X157088929Y-122059873D01*
X156969608Y-121836638D01*
X156809028Y-121640972D01*
X156703053Y-121554000D01*
X156809028Y-121467028D01*
X156969608Y-121271362D01*
X157088929Y-121048127D01*
X157162407Y-120805904D01*
X157187217Y-120554000D01*
X157162407Y-120302096D01*
X157088929Y-120059873D01*
X156969608Y-119836638D01*
X156809028Y-119640972D01*
X156703053Y-119554000D01*
X156809028Y-119467028D01*
X156969608Y-119271362D01*
X157048333Y-119124077D01*
X157084872Y-119127676D01*
X157122197Y-119124000D01*
X160840289Y-119124000D01*
X160884226Y-119167937D01*
X161053744Y-119281205D01*
X161242102Y-119359226D01*
X161442061Y-119399000D01*
X161645939Y-119399000D01*
X161845898Y-119359226D01*
X162034256Y-119281205D01*
X162203774Y-119167937D01*
X162347937Y-119023774D01*
X162461205Y-118854256D01*
X162539226Y-118665898D01*
X162579000Y-118465939D01*
X162579000Y-118262061D01*
X162539226Y-118062102D01*
X162461205Y-117873744D01*
X162347937Y-117704226D01*
X162203774Y-117560063D01*
X162034256Y-117446795D01*
X161845898Y-117368774D01*
X161645939Y-117329000D01*
X161442061Y-117329000D01*
X161242102Y-117368774D01*
X161053744Y-117446795D01*
X160884226Y-117560063D01*
X160840289Y-117604000D01*
X157399674Y-117604000D01*
X157109673Y-117314000D01*
X161538678Y-117314000D01*
X161576000Y-117317676D01*
X161613322Y-117314000D01*
X161613333Y-117314000D01*
X161724986Y-117303003D01*
X161868247Y-117259546D01*
X162000276Y-117188974D01*
X162116001Y-117094001D01*
X162139804Y-117064997D01*
X166675000Y-112529801D01*
X166675000Y-112742128D01*
X166760890Y-113173925D01*
X166929369Y-113580669D01*
X167173962Y-113946729D01*
X167485271Y-114258038D01*
X167851331Y-114502631D01*
X168258075Y-114671110D01*
X168689872Y-114757000D01*
X169130128Y-114757000D01*
X169561925Y-114671110D01*
X169968669Y-114502631D01*
X170334729Y-114258038D01*
X170646038Y-113946729D01*
X170890631Y-113580669D01*
X171059110Y-113173925D01*
X171145000Y-112742128D01*
X171145000Y-112301872D01*
X171059110Y-111870075D01*
X170890631Y-111463331D01*
X170646038Y-111097271D01*
X170334729Y-110785962D01*
X169968669Y-110541369D01*
X169561925Y-110372890D01*
X169130128Y-110287000D01*
X168917802Y-110287000D01*
X171452000Y-107752802D01*
X171452001Y-114262668D01*
X171448324Y-114300000D01*
X171452001Y-114337333D01*
X171462998Y-114448986D01*
X171470431Y-114473490D01*
X171506454Y-114592246D01*
X171577026Y-114724276D01*
X171634296Y-114794059D01*
X171672000Y-114840001D01*
X171700998Y-114863799D01*
X173902201Y-117065003D01*
X173925999Y-117094001D01*
X174041724Y-117188974D01*
X174173753Y-117259546D01*
X174317014Y-117303003D01*
X174428667Y-117314000D01*
X174428676Y-117314000D01*
X174465999Y-117317676D01*
X174503322Y-117314000D01*
X176157384Y-117314000D01*
X176282972Y-117467028D01*
X176388947Y-117554000D01*
X176282972Y-117640972D01*
X176122392Y-117836638D01*
X176003071Y-118059873D01*
X175929593Y-118302096D01*
X175904783Y-118554000D01*
X175929593Y-118805904D01*
X176003071Y-119048127D01*
X176122392Y-119271362D01*
X176282972Y-119467028D01*
X176388947Y-119554000D01*
X176282972Y-119640972D01*
X176122392Y-119836638D01*
X176003071Y-120059873D01*
X175929593Y-120302096D01*
X175904783Y-120554000D01*
X175929593Y-120805904D01*
X176003071Y-121048127D01*
X176122392Y-121271362D01*
X176282972Y-121467028D01*
X176388947Y-121554000D01*
X176282972Y-121640972D01*
X176122392Y-121836638D01*
X176003071Y-122059873D01*
X175929593Y-122302096D01*
X175904783Y-122554000D01*
X175929593Y-122805904D01*
X176003071Y-123048127D01*
X176122392Y-123271362D01*
X176282972Y-123467028D01*
X176478638Y-123627608D01*
X176701873Y-123746929D01*
X176944096Y-123820407D01*
X177132877Y-123839000D01*
X177959123Y-123839000D01*
X178147904Y-123820407D01*
X178390127Y-123746929D01*
X178613362Y-123627608D01*
X178809028Y-123467028D01*
X178969608Y-123271362D01*
X179088929Y-123048127D01*
X179162407Y-122805904D01*
X179187217Y-122554000D01*
X179162407Y-122302096D01*
X179088929Y-122059873D01*
X178969608Y-121836638D01*
X178809028Y-121640972D01*
X178703053Y-121554000D01*
X178809028Y-121467028D01*
X178969608Y-121271362D01*
X179088929Y-121048127D01*
X179162407Y-120805904D01*
X179187217Y-120554000D01*
X179162407Y-120302096D01*
X179088929Y-120059873D01*
X178969608Y-119836638D01*
X178809028Y-119640972D01*
X178703053Y-119554000D01*
X178809028Y-119467028D01*
X178969608Y-119271362D01*
X179088929Y-119048127D01*
X179162407Y-118805904D01*
X179187217Y-118554000D01*
X179162407Y-118302096D01*
X179088929Y-118059873D01*
X178969608Y-117836638D01*
X178809028Y-117640972D01*
X178703053Y-117554000D01*
X178809028Y-117467028D01*
X178969608Y-117271362D01*
X179088929Y-117048127D01*
X179162407Y-116805904D01*
X179187217Y-116554000D01*
X179162407Y-116302096D01*
X179088929Y-116059873D01*
X178969608Y-115836638D01*
X178809028Y-115640972D01*
X178703053Y-115554000D01*
X178809028Y-115467028D01*
X178969608Y-115271362D01*
X179088929Y-115048127D01*
X179162407Y-114805904D01*
X179187217Y-114554000D01*
X179162407Y-114302096D01*
X179088929Y-114059873D01*
X178969608Y-113836638D01*
X178809028Y-113640972D01*
X178703053Y-113554000D01*
X178809028Y-113467028D01*
X178969608Y-113271362D01*
X179088929Y-113048127D01*
X179162407Y-112805904D01*
X179187217Y-112554000D01*
X179162407Y-112302096D01*
X179088929Y-112059873D01*
X178969608Y-111836638D01*
X178809028Y-111640972D01*
X178703053Y-111554000D01*
X178809028Y-111467028D01*
X178969608Y-111271362D01*
X179088929Y-111048127D01*
X179162407Y-110805904D01*
X179187217Y-110554000D01*
X179162407Y-110302096D01*
X179088929Y-110059873D01*
X178969608Y-109836638D01*
X178809028Y-109640972D01*
X178703053Y-109554000D01*
X178809028Y-109467028D01*
X178969608Y-109271362D01*
X179088929Y-109048127D01*
X179162407Y-108805904D01*
X179187217Y-108554000D01*
X179162407Y-108302096D01*
X179088929Y-108059873D01*
X178969608Y-107836638D01*
X178809028Y-107640972D01*
X178703053Y-107554000D01*
X178809028Y-107467028D01*
X178969608Y-107271362D01*
X179088929Y-107048127D01*
X179162407Y-106805904D01*
X179187217Y-106554000D01*
X179162407Y-106302096D01*
X179088929Y-106059873D01*
X178969608Y-105836638D01*
X178809028Y-105640972D01*
X178707221Y-105557421D01*
X178715505Y-105551882D01*
X178894436Y-105372830D01*
X179034997Y-105162311D01*
X179131787Y-104928415D01*
X179139099Y-104879471D01*
X179015067Y-104681000D01*
X177673000Y-104681000D01*
X177673000Y-104701000D01*
X177419000Y-104701000D01*
X177419000Y-104681000D01*
X177399000Y-104681000D01*
X177399000Y-104427000D01*
X177419000Y-104427000D01*
X177419000Y-104407000D01*
X177673000Y-104407000D01*
X177673000Y-104427000D01*
X179015067Y-104427000D01*
X179139099Y-104228529D01*
X179131787Y-104179585D01*
X179034997Y-103945689D01*
X178894436Y-103735170D01*
X178715505Y-103556118D01*
X178505081Y-103415415D01*
X178271251Y-103318467D01*
X178023000Y-103269000D01*
X177967802Y-103269000D01*
X179714018Y-101522785D01*
X179743011Y-101498991D01*
X179766805Y-101469998D01*
X179766809Y-101469994D01*
X179828252Y-101395124D01*
X179837984Y-101383266D01*
X179908556Y-101251237D01*
X179952013Y-101107976D01*
X179963010Y-100996323D01*
X179963010Y-100996314D01*
X179966686Y-100958991D01*
X179963010Y-100921668D01*
X179963010Y-70042383D01*
X179966687Y-70005050D01*
X179959662Y-69933724D01*
X179952013Y-69856064D01*
X179908556Y-69712803D01*
X179844164Y-69592336D01*
X180213000Y-69841300D01*
X180213000Y-69841300D01*
G37*
X180213000Y-69841300D02*
X180213000Y-123899394D01*
X179525394Y-124587000D01*
X143026468Y-124587000D01*
X143153774Y-124501937D01*
X143197711Y-124458000D01*
X163792678Y-124458000D01*
X163830000Y-124461676D01*
X163867322Y-124458000D01*
X163867333Y-124458000D01*
X163978986Y-124447003D01*
X164122247Y-124403546D01*
X164254276Y-124332974D01*
X164370001Y-124238001D01*
X164393804Y-124208997D01*
X169519976Y-119082826D01*
X169654256Y-119027205D01*
X169823774Y-118913937D01*
X169967937Y-118769774D01*
X170081205Y-118600256D01*
X170159226Y-118411898D01*
X170199000Y-118211939D01*
X170199000Y-118008061D01*
X170159226Y-117808102D01*
X170081205Y-117619744D01*
X169967937Y-117450226D01*
X169823774Y-117306063D01*
X169654256Y-117192795D01*
X169465898Y-117114774D01*
X169265939Y-117075000D01*
X169062061Y-117075000D01*
X168862102Y-117114774D01*
X168673744Y-117192795D01*
X168504226Y-117306063D01*
X168360063Y-117450226D01*
X168246795Y-117619744D01*
X168168774Y-117808102D01*
X168129000Y-118008061D01*
X168129000Y-118211939D01*
X168147625Y-118305573D01*
X163515199Y-122938000D01*
X157122336Y-122938000D01*
X157162407Y-122805904D01*
X157187217Y-122554000D01*
X157162407Y-122302096D01*
X157088929Y-122059873D01*
X156969608Y-121836638D01*
X156809028Y-121640972D01*
X156703053Y-121554000D01*
X156809028Y-121467028D01*
X156969608Y-121271362D01*
X157088929Y-121048127D01*
X157162407Y-120805904D01*
X157187217Y-120554000D01*
X157162407Y-120302096D01*
X157088929Y-120059873D01*
X156969608Y-119836638D01*
X156809028Y-119640972D01*
X156703053Y-119554000D01*
X156809028Y-119467028D01*
X156969608Y-119271362D01*
X157048333Y-119124077D01*
X157084872Y-119127676D01*
X157122197Y-119124000D01*
X160840289Y-119124000D01*
X160884226Y-119167937D01*
X161053744Y-119281205D01*
X161242102Y-119359226D01*
X161442061Y-119399000D01*
X161645939Y-119399000D01*
X161845898Y-119359226D01*
X162034256Y-119281205D01*
X162203774Y-119167937D01*
X162347937Y-119023774D01*
X162461205Y-118854256D01*
X162539226Y-118665898D01*
X162579000Y-118465939D01*
X162579000Y-118262061D01*
X162539226Y-118062102D01*
X162461205Y-117873744D01*
X162347937Y-117704226D01*
X162203774Y-117560063D01*
X162034256Y-117446795D01*
X161845898Y-117368774D01*
X161645939Y-117329000D01*
X161442061Y-117329000D01*
X161242102Y-117368774D01*
X161053744Y-117446795D01*
X160884226Y-117560063D01*
X160840289Y-117604000D01*
X157399674Y-117604000D01*
X157109673Y-117314000D01*
X161538678Y-117314000D01*
X161576000Y-117317676D01*
X161613322Y-117314000D01*
X161613333Y-117314000D01*
X161724986Y-117303003D01*
X161868247Y-117259546D01*
X162000276Y-117188974D01*
X162116001Y-117094001D01*
X162139804Y-117064997D01*
X166675000Y-112529801D01*
X166675000Y-112742128D01*
X166760890Y-113173925D01*
X166929369Y-113580669D01*
X167173962Y-113946729D01*
X167485271Y-114258038D01*
X167851331Y-114502631D01*
X168258075Y-114671110D01*
X168689872Y-114757000D01*
X169130128Y-114757000D01*
X169561925Y-114671110D01*
X169968669Y-114502631D01*
X170334729Y-114258038D01*
X170646038Y-113946729D01*
X170890631Y-113580669D01*
X171059110Y-113173925D01*
X171145000Y-112742128D01*
X171145000Y-112301872D01*
X171059110Y-111870075D01*
X170890631Y-111463331D01*
X170646038Y-111097271D01*
X170334729Y-110785962D01*
X169968669Y-110541369D01*
X169561925Y-110372890D01*
X169130128Y-110287000D01*
X168917802Y-110287000D01*
X171452000Y-107752802D01*
X171452001Y-114262668D01*
X171448324Y-114300000D01*
X171452001Y-114337333D01*
X171462998Y-114448986D01*
X171470431Y-114473490D01*
X171506454Y-114592246D01*
X171577026Y-114724276D01*
X171634296Y-114794059D01*
X171672000Y-114840001D01*
X171700998Y-114863799D01*
X173902201Y-117065003D01*
X173925999Y-117094001D01*
X174041724Y-117188974D01*
X174173753Y-117259546D01*
X174317014Y-117303003D01*
X174428667Y-117314000D01*
X174428676Y-117314000D01*
X174465999Y-117317676D01*
X174503322Y-117314000D01*
X176157384Y-117314000D01*
X176282972Y-117467028D01*
X176388947Y-117554000D01*
X176282972Y-117640972D01*
X176122392Y-117836638D01*
X176003071Y-118059873D01*
X175929593Y-118302096D01*
X175904783Y-118554000D01*
X175929593Y-118805904D01*
X176003071Y-119048127D01*
X176122392Y-119271362D01*
X176282972Y-119467028D01*
X176388947Y-119554000D01*
X176282972Y-119640972D01*
X176122392Y-119836638D01*
X176003071Y-120059873D01*
X175929593Y-120302096D01*
X175904783Y-120554000D01*
X175929593Y-120805904D01*
X176003071Y-121048127D01*
X176122392Y-121271362D01*
X176282972Y-121467028D01*
X176388947Y-121554000D01*
X176282972Y-121640972D01*
X176122392Y-121836638D01*
X176003071Y-122059873D01*
X175929593Y-122302096D01*
X175904783Y-122554000D01*
X175929593Y-122805904D01*
X176003071Y-123048127D01*
X176122392Y-123271362D01*
X176282972Y-123467028D01*
X176478638Y-123627608D01*
X176701873Y-123746929D01*
X176944096Y-123820407D01*
X177132877Y-123839000D01*
X177959123Y-123839000D01*
X178147904Y-123820407D01*
X178390127Y-123746929D01*
X178613362Y-123627608D01*
X178809028Y-123467028D01*
X178969608Y-123271362D01*
X179088929Y-123048127D01*
X179162407Y-122805904D01*
X179187217Y-122554000D01*
X179162407Y-122302096D01*
X179088929Y-122059873D01*
X178969608Y-121836638D01*
X178809028Y-121640972D01*
X178703053Y-121554000D01*
X178809028Y-121467028D01*
X178969608Y-121271362D01*
X179088929Y-121048127D01*
X179162407Y-120805904D01*
X179187217Y-120554000D01*
X179162407Y-120302096D01*
X179088929Y-120059873D01*
X178969608Y-119836638D01*
X178809028Y-119640972D01*
X178703053Y-119554000D01*
X178809028Y-119467028D01*
X178969608Y-119271362D01*
X179088929Y-119048127D01*
X179162407Y-118805904D01*
X179187217Y-118554000D01*
X179162407Y-118302096D01*
X179088929Y-118059873D01*
X178969608Y-117836638D01*
X178809028Y-117640972D01*
X178703053Y-117554000D01*
X178809028Y-117467028D01*
X178969608Y-117271362D01*
X179088929Y-117048127D01*
X179162407Y-116805904D01*
X179187217Y-116554000D01*
X179162407Y-116302096D01*
X179088929Y-116059873D01*
X178969608Y-115836638D01*
X178809028Y-115640972D01*
X178703053Y-115554000D01*
X178809028Y-115467028D01*
X178969608Y-115271362D01*
X179088929Y-115048127D01*
X179162407Y-114805904D01*
X179187217Y-114554000D01*
X179162407Y-114302096D01*
X179088929Y-114059873D01*
X178969608Y-113836638D01*
X178809028Y-113640972D01*
X178703053Y-113554000D01*
X178809028Y-113467028D01*
X178969608Y-113271362D01*
X179088929Y-113048127D01*
X179162407Y-112805904D01*
X179187217Y-112554000D01*
X179162407Y-112302096D01*
X179088929Y-112059873D01*
X178969608Y-111836638D01*
X178809028Y-111640972D01*
X178703053Y-111554000D01*
X178809028Y-111467028D01*
X178969608Y-111271362D01*
X179088929Y-111048127D01*
X179162407Y-110805904D01*
X179187217Y-110554000D01*
X179162407Y-110302096D01*
X179088929Y-110059873D01*
X178969608Y-109836638D01*
X178809028Y-109640972D01*
X178703053Y-109554000D01*
X178809028Y-109467028D01*
X178969608Y-109271362D01*
X179088929Y-109048127D01*
X179162407Y-108805904D01*
X179187217Y-108554000D01*
X179162407Y-108302096D01*
X179088929Y-108059873D01*
X178969608Y-107836638D01*
X178809028Y-107640972D01*
X178703053Y-107554000D01*
X178809028Y-107467028D01*
X178969608Y-107271362D01*
X179088929Y-107048127D01*
X179162407Y-106805904D01*
X179187217Y-106554000D01*
X179162407Y-106302096D01*
X179088929Y-106059873D01*
X178969608Y-105836638D01*
X178809028Y-105640972D01*
X178707221Y-105557421D01*
X178715505Y-105551882D01*
X178894436Y-105372830D01*
X179034997Y-105162311D01*
X179131787Y-104928415D01*
X179139099Y-104879471D01*
X179015067Y-104681000D01*
X177673000Y-104681000D01*
X177673000Y-104701000D01*
X177419000Y-104701000D01*
X177419000Y-104681000D01*
X177399000Y-104681000D01*
X177399000Y-104427000D01*
X177419000Y-104427000D01*
X177419000Y-104407000D01*
X177673000Y-104407000D01*
X177673000Y-104427000D01*
X179015067Y-104427000D01*
X179139099Y-104228529D01*
X179131787Y-104179585D01*
X179034997Y-103945689D01*
X178894436Y-103735170D01*
X178715505Y-103556118D01*
X178505081Y-103415415D01*
X178271251Y-103318467D01*
X178023000Y-103269000D01*
X177967802Y-103269000D01*
X179714018Y-101522785D01*
X179743011Y-101498991D01*
X179766805Y-101469998D01*
X179766809Y-101469994D01*
X179828252Y-101395124D01*
X179837984Y-101383266D01*
X179908556Y-101251237D01*
X179952013Y-101107976D01*
X179963010Y-100996323D01*
X179963010Y-100996314D01*
X179966686Y-100958991D01*
X179963010Y-100921668D01*
X179963010Y-70042383D01*
X179966687Y-70005050D01*
X179959662Y-69933724D01*
X179952013Y-69856064D01*
X179908556Y-69712803D01*
X179844164Y-69592336D01*
X180213000Y-69841300D01*
G36*
X125066795Y-109491744D02*
G01*
X124988774Y-109680102D01*
X124949000Y-109880061D01*
X124949000Y-110083939D01*
X124988774Y-110283898D01*
X125066795Y-110472256D01*
X125180063Y-110641774D01*
X125224000Y-110685711D01*
X125224001Y-113246668D01*
X125220324Y-113284000D01*
X125224001Y-113321333D01*
X125230787Y-113390226D01*
X125234998Y-113432985D01*
X125278454Y-113576246D01*
X125349026Y-113708276D01*
X125403175Y-113774256D01*
X125444000Y-113824001D01*
X125472998Y-113847799D01*
X128431206Y-116806009D01*
X128455000Y-116835002D01*
X128483993Y-116858796D01*
X128483997Y-116858800D01*
X128554686Y-116916812D01*
X128570725Y-116929975D01*
X128702754Y-117000547D01*
X128846015Y-117044004D01*
X128957668Y-117055001D01*
X128957677Y-117055001D01*
X128995000Y-117058677D01*
X129032323Y-117055001D01*
X138175677Y-117055001D01*
X138212999Y-117058677D01*
X138250321Y-117055001D01*
X138250332Y-117055001D01*
X138361985Y-117044004D01*
X138505246Y-117000547D01*
X138637275Y-116929975D01*
X138753000Y-116835002D01*
X138776803Y-116805998D01*
X139256621Y-116326180D01*
X139277063Y-116356774D01*
X139421226Y-116500937D01*
X139590744Y-116614205D01*
X139779102Y-116692226D01*
X139979061Y-116732000D01*
X140041198Y-116732000D01*
X140369202Y-117060004D01*
X140393000Y-117089002D01*
X140508725Y-117183975D01*
X140640754Y-117254547D01*
X140784015Y-117298004D01*
X140895668Y-117309001D01*
X140895677Y-117309001D01*
X140933000Y-117312677D01*
X140970323Y-117309001D01*
X142042679Y-117309001D01*
X142080001Y-117312677D01*
X142117323Y-117309001D01*
X142117334Y-117309001D01*
X142228987Y-117298004D01*
X142372248Y-117254547D01*
X142504277Y-117183975D01*
X142620002Y-117089002D01*
X142643804Y-117059999D01*
X143062802Y-116641002D01*
X152142201Y-116641002D01*
X153591190Y-118089992D01*
X153614989Y-118118991D01*
X153730714Y-118213964D01*
X153862743Y-118284536D01*
X153929333Y-118304736D01*
X153904783Y-118554000D01*
X153929593Y-118805904D01*
X154003071Y-119048127D01*
X154122392Y-119271362D01*
X154282972Y-119467028D01*
X154388947Y-119554000D01*
X154282972Y-119640972D01*
X154122392Y-119836638D01*
X154003071Y-120059873D01*
X153929593Y-120302096D01*
X153904783Y-120554000D01*
X153929593Y-120805904D01*
X154003071Y-121048127D01*
X154122392Y-121271362D01*
X154282972Y-121467028D01*
X154388947Y-121554000D01*
X154282972Y-121640972D01*
X154157384Y-121794000D01*
X145220802Y-121794000D01*
X143057803Y-119631002D01*
X143057799Y-119630997D01*
X143021000Y-119594198D01*
X143021000Y-119532061D01*
X142981226Y-119332102D01*
X142937335Y-119226141D01*
X143019744Y-119281205D01*
X143208102Y-119359226D01*
X143408061Y-119399000D01*
X143611939Y-119399000D01*
X143811898Y-119359226D01*
X144000256Y-119281205D01*
X144169774Y-119167937D01*
X144313937Y-119023774D01*
X144427205Y-118854256D01*
X144505226Y-118665898D01*
X144545000Y-118465939D01*
X144545000Y-118262061D01*
X144505226Y-118062102D01*
X144427205Y-117873744D01*
X144313937Y-117704226D01*
X144169774Y-117560063D01*
X144000256Y-117446795D01*
X143811898Y-117368774D01*
X143611939Y-117329000D01*
X143408061Y-117329000D01*
X143208102Y-117368774D01*
X143019744Y-117446795D01*
X142850226Y-117560063D01*
X142806289Y-117604000D01*
X126495800Y-117604000D01*
X118398577Y-109506778D01*
X118518256Y-109457205D01*
X118566454Y-109425000D01*
X125111392Y-109425000D01*
X125066795Y-109491744D01*
X125066795Y-109491744D01*
G37*
X125066795Y-109491744D02*
X124988774Y-109680102D01*
X124949000Y-109880061D01*
X124949000Y-110083939D01*
X124988774Y-110283898D01*
X125066795Y-110472256D01*
X125180063Y-110641774D01*
X125224000Y-110685711D01*
X125224001Y-113246668D01*
X125220324Y-113284000D01*
X125224001Y-113321333D01*
X125230787Y-113390226D01*
X125234998Y-113432985D01*
X125278454Y-113576246D01*
X125349026Y-113708276D01*
X125403175Y-113774256D01*
X125444000Y-113824001D01*
X125472998Y-113847799D01*
X128431206Y-116806009D01*
X128455000Y-116835002D01*
X128483993Y-116858796D01*
X128483997Y-116858800D01*
X128554686Y-116916812D01*
X128570725Y-116929975D01*
X128702754Y-117000547D01*
X128846015Y-117044004D01*
X128957668Y-117055001D01*
X128957677Y-117055001D01*
X128995000Y-117058677D01*
X129032323Y-117055001D01*
X138175677Y-117055001D01*
X138212999Y-117058677D01*
X138250321Y-117055001D01*
X138250332Y-117055001D01*
X138361985Y-117044004D01*
X138505246Y-117000547D01*
X138637275Y-116929975D01*
X138753000Y-116835002D01*
X138776803Y-116805998D01*
X139256621Y-116326180D01*
X139277063Y-116356774D01*
X139421226Y-116500937D01*
X139590744Y-116614205D01*
X139779102Y-116692226D01*
X139979061Y-116732000D01*
X140041198Y-116732000D01*
X140369202Y-117060004D01*
X140393000Y-117089002D01*
X140508725Y-117183975D01*
X140640754Y-117254547D01*
X140784015Y-117298004D01*
X140895668Y-117309001D01*
X140895677Y-117309001D01*
X140933000Y-117312677D01*
X140970323Y-117309001D01*
X142042679Y-117309001D01*
X142080001Y-117312677D01*
X142117323Y-117309001D01*
X142117334Y-117309001D01*
X142228987Y-117298004D01*
X142372248Y-117254547D01*
X142504277Y-117183975D01*
X142620002Y-117089002D01*
X142643804Y-117059999D01*
X143062802Y-116641002D01*
X152142201Y-116641002D01*
X153591190Y-118089992D01*
X153614989Y-118118991D01*
X153730714Y-118213964D01*
X153862743Y-118284536D01*
X153929333Y-118304736D01*
X153904783Y-118554000D01*
X153929593Y-118805904D01*
X154003071Y-119048127D01*
X154122392Y-119271362D01*
X154282972Y-119467028D01*
X154388947Y-119554000D01*
X154282972Y-119640972D01*
X154122392Y-119836638D01*
X154003071Y-120059873D01*
X153929593Y-120302096D01*
X153904783Y-120554000D01*
X153929593Y-120805904D01*
X154003071Y-121048127D01*
X154122392Y-121271362D01*
X154282972Y-121467028D01*
X154388947Y-121554000D01*
X154282972Y-121640972D01*
X154157384Y-121794000D01*
X145220802Y-121794000D01*
X143057803Y-119631002D01*
X143057799Y-119630997D01*
X143021000Y-119594198D01*
X143021000Y-119532061D01*
X142981226Y-119332102D01*
X142937335Y-119226141D01*
X143019744Y-119281205D01*
X143208102Y-119359226D01*
X143408061Y-119399000D01*
X143611939Y-119399000D01*
X143811898Y-119359226D01*
X144000256Y-119281205D01*
X144169774Y-119167937D01*
X144313937Y-119023774D01*
X144427205Y-118854256D01*
X144505226Y-118665898D01*
X144545000Y-118465939D01*
X144545000Y-118262061D01*
X144505226Y-118062102D01*
X144427205Y-117873744D01*
X144313937Y-117704226D01*
X144169774Y-117560063D01*
X144000256Y-117446795D01*
X143811898Y-117368774D01*
X143611939Y-117329000D01*
X143408061Y-117329000D01*
X143208102Y-117368774D01*
X143019744Y-117446795D01*
X142850226Y-117560063D01*
X142806289Y-117604000D01*
X126495800Y-117604000D01*
X118398577Y-109506778D01*
X118518256Y-109457205D01*
X118566454Y-109425000D01*
X125111392Y-109425000D01*
X125066795Y-109491744D01*
G36*
X131228025Y-112278277D02*
G01*
X131322998Y-112394002D01*
X131352001Y-112417804D01*
X131676195Y-112741998D01*
X131699998Y-112771002D01*
X131815723Y-112865975D01*
X131885040Y-112903026D01*
X131947752Y-112936547D01*
X132091013Y-112980004D01*
X132239999Y-112994678D01*
X132277332Y-112991001D01*
X134365677Y-112991001D01*
X134402999Y-112994677D01*
X134440321Y-112991001D01*
X134440332Y-112991001D01*
X134551985Y-112980004D01*
X134695246Y-112936547D01*
X134827275Y-112865975D01*
X134943000Y-112771002D01*
X134966803Y-112741998D01*
X134992791Y-112716010D01*
X135647738Y-112716010D01*
X135639389Y-112800774D01*
X135634324Y-112852200D01*
X135638001Y-112889532D01*
X135638000Y-114866289D01*
X135594063Y-114910226D01*
X135480795Y-115079744D01*
X135402774Y-115268102D01*
X135363000Y-115468061D01*
X135363000Y-115535001D01*
X133084667Y-115535001D01*
X133155589Y-115402313D01*
X133206195Y-115235490D01*
X133223282Y-115062000D01*
X133206195Y-114888510D01*
X133155589Y-114721687D01*
X133073411Y-114567941D01*
X132962817Y-114433183D01*
X132828059Y-114322589D01*
X132777019Y-114295308D01*
X132739774Y-114258063D01*
X132570256Y-114144795D01*
X132381898Y-114066774D01*
X132181939Y-114027000D01*
X131978061Y-114027000D01*
X131778102Y-114066774D01*
X131589744Y-114144795D01*
X131541546Y-114177000D01*
X131187000Y-114177000D01*
X131187000Y-112201526D01*
X131228025Y-112278277D01*
X131228025Y-112278277D01*
G37*
X131228025Y-112278277D02*
X131322998Y-112394002D01*
X131352001Y-112417804D01*
X131676195Y-112741998D01*
X131699998Y-112771002D01*
X131815723Y-112865975D01*
X131885040Y-112903026D01*
X131947752Y-112936547D01*
X132091013Y-112980004D01*
X132239999Y-112994678D01*
X132277332Y-112991001D01*
X134365677Y-112991001D01*
X134402999Y-112994677D01*
X134440321Y-112991001D01*
X134440332Y-112991001D01*
X134551985Y-112980004D01*
X134695246Y-112936547D01*
X134827275Y-112865975D01*
X134943000Y-112771002D01*
X134966803Y-112741998D01*
X134992791Y-112716010D01*
X135647738Y-112716010D01*
X135639389Y-112800774D01*
X135634324Y-112852200D01*
X135638001Y-112889532D01*
X135638000Y-114866289D01*
X135594063Y-114910226D01*
X135480795Y-115079744D01*
X135402774Y-115268102D01*
X135363000Y-115468061D01*
X135363000Y-115535001D01*
X133084667Y-115535001D01*
X133155589Y-115402313D01*
X133206195Y-115235490D01*
X133223282Y-115062000D01*
X133206195Y-114888510D01*
X133155589Y-114721687D01*
X133073411Y-114567941D01*
X132962817Y-114433183D01*
X132828059Y-114322589D01*
X132777019Y-114295308D01*
X132739774Y-114258063D01*
X132570256Y-114144795D01*
X132381898Y-114066774D01*
X132181939Y-114027000D01*
X131978061Y-114027000D01*
X131778102Y-114066774D01*
X131589744Y-114144795D01*
X131541546Y-114177000D01*
X131187000Y-114177000D01*
X131187000Y-112201526D01*
X131228025Y-112278277D01*
G36*
X152910000Y-111191198D02*
G01*
X149437198Y-114664001D01*
X142169321Y-114664001D01*
X142131998Y-114660325D01*
X142094676Y-114664001D01*
X142094666Y-114664001D01*
X141983013Y-114674998D01*
X141839752Y-114718455D01*
X141707774Y-114789000D01*
X141630061Y-114789000D01*
X141430102Y-114828774D01*
X141241744Y-114906795D01*
X141072226Y-115020063D01*
X140953080Y-115139209D01*
X140884937Y-115037226D01*
X140740774Y-114893063D01*
X140710180Y-114872621D01*
X141989004Y-113593798D01*
X142018001Y-113570001D01*
X142112974Y-113454276D01*
X142183546Y-113322247D01*
X142227003Y-113178986D01*
X142238000Y-113067333D01*
X142238000Y-113067325D01*
X142241676Y-113030000D01*
X142238000Y-112992675D01*
X142238000Y-110019322D01*
X142241676Y-109981999D01*
X142238000Y-109944676D01*
X142238000Y-109944667D01*
X142227003Y-109833014D01*
X142183546Y-109689753D01*
X142112974Y-109557724D01*
X142044600Y-109474410D01*
X142138061Y-109493000D01*
X142341939Y-109493000D01*
X142541898Y-109453226D01*
X142730256Y-109375205D01*
X142899774Y-109261937D01*
X143043937Y-109117774D01*
X143157205Y-108948256D01*
X143235226Y-108759898D01*
X143275000Y-108559939D01*
X143275000Y-108356061D01*
X143235226Y-108156102D01*
X143157205Y-107967744D01*
X143043937Y-107798226D01*
X142899774Y-107654063D01*
X142730256Y-107540795D01*
X142600001Y-107486841D01*
X142600001Y-107022321D01*
X142603677Y-106984998D01*
X142600001Y-106947675D01*
X142600001Y-106947666D01*
X142589004Y-106836013D01*
X142545547Y-106692752D01*
X142474975Y-106560723D01*
X142380002Y-106444998D01*
X142351004Y-106421200D01*
X141845804Y-105916000D01*
X152616678Y-105916000D01*
X152654000Y-105919676D01*
X152691322Y-105916000D01*
X152691333Y-105916000D01*
X152802986Y-105905003D01*
X152910001Y-105872541D01*
X152910000Y-111191198D01*
X152910000Y-111191198D01*
G37*
X152910000Y-111191198D02*
X149437198Y-114664001D01*
X142169321Y-114664001D01*
X142131998Y-114660325D01*
X142094676Y-114664001D01*
X142094666Y-114664001D01*
X141983013Y-114674998D01*
X141839752Y-114718455D01*
X141707774Y-114789000D01*
X141630061Y-114789000D01*
X141430102Y-114828774D01*
X141241744Y-114906795D01*
X141072226Y-115020063D01*
X140953080Y-115139209D01*
X140884937Y-115037226D01*
X140740774Y-114893063D01*
X140710180Y-114872621D01*
X141989004Y-113593798D01*
X142018001Y-113570001D01*
X142112974Y-113454276D01*
X142183546Y-113322247D01*
X142227003Y-113178986D01*
X142238000Y-113067333D01*
X142238000Y-113067325D01*
X142241676Y-113030000D01*
X142238000Y-112992675D01*
X142238000Y-110019322D01*
X142241676Y-109981999D01*
X142238000Y-109944676D01*
X142238000Y-109944667D01*
X142227003Y-109833014D01*
X142183546Y-109689753D01*
X142112974Y-109557724D01*
X142044600Y-109474410D01*
X142138061Y-109493000D01*
X142341939Y-109493000D01*
X142541898Y-109453226D01*
X142730256Y-109375205D01*
X142899774Y-109261937D01*
X143043937Y-109117774D01*
X143157205Y-108948256D01*
X143235226Y-108759898D01*
X143275000Y-108559939D01*
X143275000Y-108356061D01*
X143235226Y-108156102D01*
X143157205Y-107967744D01*
X143043937Y-107798226D01*
X142899774Y-107654063D01*
X142730256Y-107540795D01*
X142600001Y-107486841D01*
X142600001Y-107022321D01*
X142603677Y-106984998D01*
X142600001Y-106947675D01*
X142600001Y-106947666D01*
X142589004Y-106836013D01*
X142545547Y-106692752D01*
X142474975Y-106560723D01*
X142380002Y-106444998D01*
X142351004Y-106421200D01*
X141845804Y-105916000D01*
X152616678Y-105916000D01*
X152654000Y-105919676D01*
X152691322Y-105916000D01*
X152691333Y-105916000D01*
X152802986Y-105905003D01*
X152910001Y-105872541D01*
X152910000Y-111191198D01*
G36*
X112822498Y-98667502D02*
G01*
X113010551Y-98821833D01*
X113225099Y-98936511D01*
X113457898Y-99007130D01*
X113639335Y-99025000D01*
X114960665Y-99025000D01*
X115142102Y-99007130D01*
X115209001Y-98986836D01*
X115209000Y-104850678D01*
X115205324Y-104888000D01*
X115209000Y-104925322D01*
X115209000Y-104925332D01*
X115219997Y-105036985D01*
X115252157Y-105143003D01*
X115263454Y-105180246D01*
X115334026Y-105312276D01*
X115360009Y-105343936D01*
X115428999Y-105428001D01*
X115458002Y-105451803D01*
X115927205Y-105921007D01*
X115950999Y-105950001D01*
X115979992Y-105973795D01*
X115979996Y-105973799D01*
X116010107Y-105998510D01*
X116066724Y-106044974D01*
X116198753Y-106115546D01*
X116342014Y-106159003D01*
X116453667Y-106170000D01*
X116453676Y-106170000D01*
X116490999Y-106173676D01*
X116528322Y-106170000D01*
X125618680Y-106170000D01*
X125656002Y-106173676D01*
X125693324Y-106170000D01*
X125693335Y-106170000D01*
X125804988Y-106159003D01*
X125948249Y-106115546D01*
X126080278Y-106044974D01*
X126196003Y-105950001D01*
X126219805Y-105920998D01*
X126769803Y-105371001D01*
X132978709Y-105371001D01*
X132940795Y-105427744D01*
X132862774Y-105616102D01*
X132823000Y-105816061D01*
X132823000Y-106019939D01*
X132862774Y-106219898D01*
X132940795Y-106408256D01*
X133054063Y-106577774D01*
X133198226Y-106721937D01*
X133367744Y-106835205D01*
X133425056Y-106858944D01*
X133448795Y-106916256D01*
X133562063Y-107085774D01*
X133706226Y-107229937D01*
X133875744Y-107343205D01*
X134064102Y-107421226D01*
X134120956Y-107432535D01*
X134217470Y-107529049D01*
X134245183Y-107562817D01*
X134278951Y-107590530D01*
X134278953Y-107590532D01*
X134307666Y-107614096D01*
X134379941Y-107673411D01*
X134533687Y-107755589D01*
X134649903Y-107790843D01*
X134700509Y-107806195D01*
X134715306Y-107807652D01*
X134830523Y-107819000D01*
X134830531Y-107819000D01*
X134874000Y-107823281D01*
X134917469Y-107819000D01*
X137890529Y-107819000D01*
X137933998Y-107823281D01*
X137977467Y-107819000D01*
X137977475Y-107819000D01*
X138107488Y-107806195D01*
X138274311Y-107755589D01*
X138428057Y-107673411D01*
X138562815Y-107562817D01*
X138590532Y-107529044D01*
X139011174Y-107108402D01*
X139036795Y-107170256D01*
X139150063Y-107339774D01*
X139294226Y-107483937D01*
X139463744Y-107597205D01*
X139652102Y-107675226D01*
X139852061Y-107715000D01*
X140055939Y-107715000D01*
X140255898Y-107675226D01*
X140444256Y-107597205D01*
X140613774Y-107483937D01*
X140757937Y-107339774D01*
X140871205Y-107170256D01*
X140894417Y-107114217D01*
X141080002Y-107299802D01*
X141080001Y-108020678D01*
X141076325Y-108058001D01*
X141080001Y-108095323D01*
X141080001Y-108095333D01*
X141090998Y-108206986D01*
X141128625Y-108331027D01*
X141134455Y-108350247D01*
X141205000Y-108482226D01*
X141205000Y-108559939D01*
X141244774Y-108759898D01*
X141246316Y-108763622D01*
X141118986Y-108724997D01*
X141007333Y-108714000D01*
X141007322Y-108714000D01*
X140970000Y-108710324D01*
X140932678Y-108714000D01*
X140657711Y-108714000D01*
X140613774Y-108670063D01*
X140444256Y-108556795D01*
X140255898Y-108478774D01*
X140055939Y-108439000D01*
X139852061Y-108439000D01*
X139652102Y-108478774D01*
X139609730Y-108496325D01*
X139601205Y-108475744D01*
X139487937Y-108306226D01*
X139343774Y-108162063D01*
X139174256Y-108048795D01*
X138985898Y-107970774D01*
X138785939Y-107931000D01*
X138582061Y-107931000D01*
X138382102Y-107970774D01*
X138193744Y-108048795D01*
X138024226Y-108162063D01*
X137980289Y-108206000D01*
X137451322Y-108206000D01*
X137413999Y-108202324D01*
X137376676Y-108206000D01*
X137376667Y-108206000D01*
X137265014Y-108216997D01*
X137121753Y-108260454D01*
X136989724Y-108331026D01*
X136989722Y-108331027D01*
X136989723Y-108331027D01*
X136902996Y-108402201D01*
X136902992Y-108402205D01*
X136873999Y-108425999D01*
X136850205Y-108454992D01*
X134559199Y-110746000D01*
X133291711Y-110746000D01*
X133247774Y-110702063D01*
X133078256Y-110588795D01*
X132889898Y-110510774D01*
X132689939Y-110471000D01*
X132486061Y-110471000D01*
X132286102Y-110510774D01*
X132097744Y-110588795D01*
X131928226Y-110702063D01*
X131885545Y-110744744D01*
X131591000Y-110450199D01*
X131591000Y-110388061D01*
X131551226Y-110188102D01*
X131473205Y-109999744D01*
X131359937Y-109830226D01*
X131215774Y-109686063D01*
X131046256Y-109572795D01*
X130857898Y-109494774D01*
X130657939Y-109455000D01*
X130454061Y-109455000D01*
X130254102Y-109494774D01*
X130065744Y-109572795D01*
X129896226Y-109686063D01*
X129752063Y-109830226D01*
X129700690Y-109907111D01*
X127738534Y-107944956D01*
X127710817Y-107911183D01*
X127576059Y-107800589D01*
X127422313Y-107718411D01*
X127255490Y-107667805D01*
X127125477Y-107655000D01*
X127125469Y-107655000D01*
X127082000Y-107650719D01*
X127038531Y-107655000D01*
X118566454Y-107655000D01*
X118518256Y-107622795D01*
X118329898Y-107544774D01*
X118129939Y-107505000D01*
X117926061Y-107505000D01*
X117729000Y-107544198D01*
X117531939Y-107505000D01*
X117328061Y-107505000D01*
X117128102Y-107544774D01*
X116939744Y-107622795D01*
X116770226Y-107736063D01*
X116699044Y-107807245D01*
X109814990Y-100923191D01*
X109814990Y-98875000D01*
X110783294Y-98875000D01*
X110942697Y-98859300D01*
X111147220Y-98797259D01*
X111335710Y-98696509D01*
X111500922Y-98560922D01*
X111509886Y-98550000D01*
X112726067Y-98550000D01*
X112822498Y-98667502D01*
X112822498Y-98667502D01*
G37*
X112822498Y-98667502D02*
X113010551Y-98821833D01*
X113225099Y-98936511D01*
X113457898Y-99007130D01*
X113639335Y-99025000D01*
X114960665Y-99025000D01*
X115142102Y-99007130D01*
X115209001Y-98986836D01*
X115209000Y-104850678D01*
X115205324Y-104888000D01*
X115209000Y-104925322D01*
X115209000Y-104925332D01*
X115219997Y-105036985D01*
X115252157Y-105143003D01*
X115263454Y-105180246D01*
X115334026Y-105312276D01*
X115360009Y-105343936D01*
X115428999Y-105428001D01*
X115458002Y-105451803D01*
X115927205Y-105921007D01*
X115950999Y-105950001D01*
X115979992Y-105973795D01*
X115979996Y-105973799D01*
X116010107Y-105998510D01*
X116066724Y-106044974D01*
X116198753Y-106115546D01*
X116342014Y-106159003D01*
X116453667Y-106170000D01*
X116453676Y-106170000D01*
X116490999Y-106173676D01*
X116528322Y-106170000D01*
X125618680Y-106170000D01*
X125656002Y-106173676D01*
X125693324Y-106170000D01*
X125693335Y-106170000D01*
X125804988Y-106159003D01*
X125948249Y-106115546D01*
X126080278Y-106044974D01*
X126196003Y-105950001D01*
X126219805Y-105920998D01*
X126769803Y-105371001D01*
X132978709Y-105371001D01*
X132940795Y-105427744D01*
X132862774Y-105616102D01*
X132823000Y-105816061D01*
X132823000Y-106019939D01*
X132862774Y-106219898D01*
X132940795Y-106408256D01*
X133054063Y-106577774D01*
X133198226Y-106721937D01*
X133367744Y-106835205D01*
X133425056Y-106858944D01*
X133448795Y-106916256D01*
X133562063Y-107085774D01*
X133706226Y-107229937D01*
X133875744Y-107343205D01*
X134064102Y-107421226D01*
X134120956Y-107432535D01*
X134217470Y-107529049D01*
X134245183Y-107562817D01*
X134278951Y-107590530D01*
X134278953Y-107590532D01*
X134307666Y-107614096D01*
X134379941Y-107673411D01*
X134533687Y-107755589D01*
X134649903Y-107790843D01*
X134700509Y-107806195D01*
X134715306Y-107807652D01*
X134830523Y-107819000D01*
X134830531Y-107819000D01*
X134874000Y-107823281D01*
X134917469Y-107819000D01*
X137890529Y-107819000D01*
X137933998Y-107823281D01*
X137977467Y-107819000D01*
X137977475Y-107819000D01*
X138107488Y-107806195D01*
X138274311Y-107755589D01*
X138428057Y-107673411D01*
X138562815Y-107562817D01*
X138590532Y-107529044D01*
X139011174Y-107108402D01*
X139036795Y-107170256D01*
X139150063Y-107339774D01*
X139294226Y-107483937D01*
X139463744Y-107597205D01*
X139652102Y-107675226D01*
X139852061Y-107715000D01*
X140055939Y-107715000D01*
X140255898Y-107675226D01*
X140444256Y-107597205D01*
X140613774Y-107483937D01*
X140757937Y-107339774D01*
X140871205Y-107170256D01*
X140894417Y-107114217D01*
X141080002Y-107299802D01*
X141080001Y-108020678D01*
X141076325Y-108058001D01*
X141080001Y-108095323D01*
X141080001Y-108095333D01*
X141090998Y-108206986D01*
X141128625Y-108331027D01*
X141134455Y-108350247D01*
X141205000Y-108482226D01*
X141205000Y-108559939D01*
X141244774Y-108759898D01*
X141246316Y-108763622D01*
X141118986Y-108724997D01*
X141007333Y-108714000D01*
X141007322Y-108714000D01*
X140970000Y-108710324D01*
X140932678Y-108714000D01*
X140657711Y-108714000D01*
X140613774Y-108670063D01*
X140444256Y-108556795D01*
X140255898Y-108478774D01*
X140055939Y-108439000D01*
X139852061Y-108439000D01*
X139652102Y-108478774D01*
X139609730Y-108496325D01*
X139601205Y-108475744D01*
X139487937Y-108306226D01*
X139343774Y-108162063D01*
X139174256Y-108048795D01*
X138985898Y-107970774D01*
X138785939Y-107931000D01*
X138582061Y-107931000D01*
X138382102Y-107970774D01*
X138193744Y-108048795D01*
X138024226Y-108162063D01*
X137980289Y-108206000D01*
X137451322Y-108206000D01*
X137413999Y-108202324D01*
X137376676Y-108206000D01*
X137376667Y-108206000D01*
X137265014Y-108216997D01*
X137121753Y-108260454D01*
X136989724Y-108331026D01*
X136989722Y-108331027D01*
X136989723Y-108331027D01*
X136902996Y-108402201D01*
X136902992Y-108402205D01*
X136873999Y-108425999D01*
X136850205Y-108454992D01*
X134559199Y-110746000D01*
X133291711Y-110746000D01*
X133247774Y-110702063D01*
X133078256Y-110588795D01*
X132889898Y-110510774D01*
X132689939Y-110471000D01*
X132486061Y-110471000D01*
X132286102Y-110510774D01*
X132097744Y-110588795D01*
X131928226Y-110702063D01*
X131885545Y-110744744D01*
X131591000Y-110450199D01*
X131591000Y-110388061D01*
X131551226Y-110188102D01*
X131473205Y-109999744D01*
X131359937Y-109830226D01*
X131215774Y-109686063D01*
X131046256Y-109572795D01*
X130857898Y-109494774D01*
X130657939Y-109455000D01*
X130454061Y-109455000D01*
X130254102Y-109494774D01*
X130065744Y-109572795D01*
X129896226Y-109686063D01*
X129752063Y-109830226D01*
X129700690Y-109907111D01*
X127738534Y-107944956D01*
X127710817Y-107911183D01*
X127576059Y-107800589D01*
X127422313Y-107718411D01*
X127255490Y-107667805D01*
X127125477Y-107655000D01*
X127125469Y-107655000D01*
X127082000Y-107650719D01*
X127038531Y-107655000D01*
X118566454Y-107655000D01*
X118518256Y-107622795D01*
X118329898Y-107544774D01*
X118129939Y-107505000D01*
X117926061Y-107505000D01*
X117729000Y-107544198D01*
X117531939Y-107505000D01*
X117328061Y-107505000D01*
X117128102Y-107544774D01*
X116939744Y-107622795D01*
X116770226Y-107736063D01*
X116699044Y-107807245D01*
X109814990Y-100923191D01*
X109814990Y-98875000D01*
X110783294Y-98875000D01*
X110942697Y-98859300D01*
X111147220Y-98797259D01*
X111335710Y-98696509D01*
X111500922Y-98560922D01*
X111509886Y-98550000D01*
X112726067Y-98550000D01*
X112822498Y-98667502D01*
G36*
X150603000Y-101385802D02*
G01*
X150603000Y-101447939D01*
X150642774Y-101647898D01*
X150720795Y-101836256D01*
X150834063Y-102005774D01*
X150978226Y-102149937D01*
X151147744Y-102263205D01*
X151336102Y-102341226D01*
X151536061Y-102381000D01*
X151739939Y-102381000D01*
X151939898Y-102341226D01*
X152128256Y-102263205D01*
X152297774Y-102149937D01*
X152402001Y-102045710D01*
X152402000Y-104333198D01*
X152339199Y-104396000D01*
X140962214Y-104396000D01*
X140487212Y-103920999D01*
X141962198Y-103920999D01*
X142184196Y-104142997D01*
X142207999Y-104172001D01*
X142271025Y-104223725D01*
X142323723Y-104266974D01*
X142455753Y-104337546D01*
X142599014Y-104381003D01*
X142710667Y-104392000D01*
X142710677Y-104392000D01*
X142747999Y-104395676D01*
X142785322Y-104392000D01*
X143726678Y-104392000D01*
X143764000Y-104395676D01*
X143801322Y-104392000D01*
X143801333Y-104392000D01*
X143912986Y-104381003D01*
X144056247Y-104337546D01*
X144188276Y-104266974D01*
X144304001Y-104172001D01*
X144327804Y-104142998D01*
X145094802Y-103376000D01*
X145854289Y-103376000D01*
X145898226Y-103419937D01*
X146067744Y-103533205D01*
X146256102Y-103611226D01*
X146456061Y-103651000D01*
X146659939Y-103651000D01*
X146859898Y-103611226D01*
X147048256Y-103533205D01*
X147193000Y-103436490D01*
X147337744Y-103533205D01*
X147526102Y-103611226D01*
X147726061Y-103651000D01*
X147929939Y-103651000D01*
X148129898Y-103611226D01*
X148318256Y-103533205D01*
X148487774Y-103419937D01*
X148631937Y-103275774D01*
X148745205Y-103106256D01*
X148823226Y-102917898D01*
X148863000Y-102717939D01*
X148863000Y-102514061D01*
X148823226Y-102314102D01*
X148745205Y-102125744D01*
X148631937Y-101956226D01*
X148487774Y-101812063D01*
X148318256Y-101698795D01*
X148129898Y-101620774D01*
X147929939Y-101581000D01*
X147867801Y-101581000D01*
X147666803Y-101380002D01*
X147643000Y-101350998D01*
X147527275Y-101256025D01*
X147494308Y-101238403D01*
X147615937Y-101116774D01*
X147729205Y-100947256D01*
X147807226Y-100758898D01*
X147847000Y-100558939D01*
X147847000Y-100355061D01*
X147841617Y-100328000D01*
X149545199Y-100328000D01*
X150603000Y-101385802D01*
X150603000Y-101385802D01*
G37*
X150603000Y-101385802D02*
X150603000Y-101447939D01*
X150642774Y-101647898D01*
X150720795Y-101836256D01*
X150834063Y-102005774D01*
X150978226Y-102149937D01*
X151147744Y-102263205D01*
X151336102Y-102341226D01*
X151536061Y-102381000D01*
X151739939Y-102381000D01*
X151939898Y-102341226D01*
X152128256Y-102263205D01*
X152297774Y-102149937D01*
X152402001Y-102045710D01*
X152402000Y-104333198D01*
X152339199Y-104396000D01*
X140962214Y-104396000D01*
X140487212Y-103920999D01*
X141962198Y-103920999D01*
X142184196Y-104142997D01*
X142207999Y-104172001D01*
X142271025Y-104223725D01*
X142323723Y-104266974D01*
X142455753Y-104337546D01*
X142599014Y-104381003D01*
X142710667Y-104392000D01*
X142710677Y-104392000D01*
X142747999Y-104395676D01*
X142785322Y-104392000D01*
X143726678Y-104392000D01*
X143764000Y-104395676D01*
X143801322Y-104392000D01*
X143801333Y-104392000D01*
X143912986Y-104381003D01*
X144056247Y-104337546D01*
X144188276Y-104266974D01*
X144304001Y-104172001D01*
X144327804Y-104142998D01*
X145094802Y-103376000D01*
X145854289Y-103376000D01*
X145898226Y-103419937D01*
X146067744Y-103533205D01*
X146256102Y-103611226D01*
X146456061Y-103651000D01*
X146659939Y-103651000D01*
X146859898Y-103611226D01*
X147048256Y-103533205D01*
X147193000Y-103436490D01*
X147337744Y-103533205D01*
X147526102Y-103611226D01*
X147726061Y-103651000D01*
X147929939Y-103651000D01*
X148129898Y-103611226D01*
X148318256Y-103533205D01*
X148487774Y-103419937D01*
X148631937Y-103275774D01*
X148745205Y-103106256D01*
X148823226Y-102917898D01*
X148863000Y-102717939D01*
X148863000Y-102514061D01*
X148823226Y-102314102D01*
X148745205Y-102125744D01*
X148631937Y-101956226D01*
X148487774Y-101812063D01*
X148318256Y-101698795D01*
X148129898Y-101620774D01*
X147929939Y-101581000D01*
X147867801Y-101581000D01*
X147666803Y-101380002D01*
X147643000Y-101350998D01*
X147527275Y-101256025D01*
X147494308Y-101238403D01*
X147615937Y-101116774D01*
X147729205Y-100947256D01*
X147807226Y-100758898D01*
X147847000Y-100558939D01*
X147847000Y-100355061D01*
X147841617Y-100328000D01*
X149545199Y-100328000D01*
X150603000Y-101385802D01*
G36*
X168696478Y-91196059D02*
G01*
X168724191Y-91229827D01*
X168757959Y-91257540D01*
X168757961Y-91257542D01*
X168791169Y-91284795D01*
X168858949Y-91340421D01*
X169012695Y-91422599D01*
X169179518Y-91473205D01*
X169309531Y-91486010D01*
X169309541Y-91486010D01*
X169353007Y-91490291D01*
X169396473Y-91486010D01*
X171488395Y-91486010D01*
X173955001Y-93952617D01*
X173955002Y-95873296D01*
X173918807Y-95829193D01*
X173784049Y-95718599D01*
X173630303Y-95636421D01*
X173463480Y-95585815D01*
X173333467Y-95573010D01*
X173333459Y-95573010D01*
X173289990Y-95568729D01*
X173246521Y-95573010D01*
X173122533Y-95573010D01*
X172992520Y-95585815D01*
X172825697Y-95636421D01*
X172789643Y-95655692D01*
X172610744Y-95729795D01*
X172441226Y-95843063D01*
X172297063Y-95987226D01*
X172183795Y-96156744D01*
X172160056Y-96214056D01*
X172102744Y-96237795D01*
X171933226Y-96351063D01*
X171789063Y-96495226D01*
X171675795Y-96664744D01*
X171597774Y-96853102D01*
X171558000Y-97053061D01*
X171558000Y-97256939D01*
X171597774Y-97456898D01*
X171675795Y-97645256D01*
X171708000Y-97693455D01*
X171708000Y-98115532D01*
X171703719Y-98159002D01*
X171708000Y-98202471D01*
X171708000Y-98202478D01*
X171716143Y-98285153D01*
X171720805Y-98332492D01*
X171730975Y-98366016D01*
X171771411Y-98499314D01*
X171853589Y-98653060D01*
X171964183Y-98787819D01*
X171997956Y-98815536D01*
X172417465Y-99235045D01*
X172445182Y-99268818D01*
X172579940Y-99379412D01*
X172733686Y-99461590D01*
X172900509Y-99512196D01*
X173030522Y-99525001D01*
X173030532Y-99525001D01*
X173073998Y-99529282D01*
X173117464Y-99525001D01*
X173846532Y-99525001D01*
X173890001Y-99529282D01*
X173933470Y-99525001D01*
X173933478Y-99525001D01*
X174063491Y-99512196D01*
X174230314Y-99461590D01*
X174384060Y-99379412D01*
X174518818Y-99268818D01*
X174546535Y-99235045D01*
X175435050Y-98346531D01*
X175468818Y-98318818D01*
X175496956Y-98284533D01*
X175579412Y-98184060D01*
X175592806Y-98159002D01*
X175661590Y-98030314D01*
X175712196Y-97863491D01*
X175725001Y-97733478D01*
X175725001Y-97733470D01*
X175729282Y-97690001D01*
X175725001Y-97646532D01*
X175725001Y-93629504D01*
X175729282Y-93586037D01*
X175725001Y-93542571D01*
X175725001Y-93542561D01*
X175712196Y-93412548D01*
X175661590Y-93245725D01*
X175579412Y-93091979D01*
X175530201Y-93032016D01*
X175496533Y-92990991D01*
X175496531Y-92990989D01*
X175468818Y-92957221D01*
X175435051Y-92929509D01*
X173291541Y-90786000D01*
X176489384Y-90786000D01*
X176614972Y-90939028D01*
X176810638Y-91099608D01*
X177033873Y-91218929D01*
X177276096Y-91292407D01*
X177464877Y-91311000D01*
X178291123Y-91311000D01*
X178443011Y-91296041D01*
X178443011Y-100644186D01*
X175707199Y-103380000D01*
X173288803Y-103380000D01*
X172485000Y-102576198D01*
X172485000Y-102514061D01*
X172445226Y-102314102D01*
X172367205Y-102125744D01*
X172253937Y-101956226D01*
X172109774Y-101812063D01*
X171940256Y-101698795D01*
X171751898Y-101620774D01*
X171551939Y-101581000D01*
X171348061Y-101581000D01*
X171148102Y-101620774D01*
X170959744Y-101698795D01*
X170790226Y-101812063D01*
X170747545Y-101854744D01*
X167892000Y-98999199D01*
X167892000Y-98123711D01*
X167925226Y-98156937D01*
X168094744Y-98270205D01*
X168283102Y-98348226D01*
X168483061Y-98388000D01*
X168686939Y-98388000D01*
X168886898Y-98348226D01*
X169075256Y-98270205D01*
X169244774Y-98156937D01*
X169388937Y-98012774D01*
X169502205Y-97843256D01*
X169580226Y-97654898D01*
X169620000Y-97454939D01*
X169620000Y-97251061D01*
X169580226Y-97051102D01*
X169502205Y-96862744D01*
X169417709Y-96736287D01*
X169419676Y-96716316D01*
X169416000Y-96678993D01*
X169416000Y-96508356D01*
X169570061Y-96539000D01*
X169773939Y-96539000D01*
X169973898Y-96499226D01*
X170162256Y-96421205D01*
X170331774Y-96307937D01*
X170475937Y-96163774D01*
X170589205Y-95994256D01*
X170667226Y-95805898D01*
X170707000Y-95605939D01*
X170707000Y-95402061D01*
X170667226Y-95202102D01*
X170589205Y-95013744D01*
X170475937Y-94844226D01*
X170331774Y-94700063D01*
X170162256Y-94586795D01*
X169973898Y-94508774D01*
X169773939Y-94469000D01*
X169570061Y-94469000D01*
X169525549Y-94477854D01*
X169428277Y-94398025D01*
X169296248Y-94327453D01*
X169152987Y-94283996D01*
X169041334Y-94272999D01*
X169041323Y-94272999D01*
X169004001Y-94269323D01*
X168966679Y-94272999D01*
X167800707Y-94272999D01*
X167714988Y-94246997D01*
X167603335Y-94236000D01*
X167603324Y-94236000D01*
X167566002Y-94232324D01*
X167528680Y-94236000D01*
X165391325Y-94236000D01*
X165354000Y-94232324D01*
X165316675Y-94236000D01*
X165316667Y-94236000D01*
X165205014Y-94246997D01*
X165061753Y-94290454D01*
X164929724Y-94361026D01*
X164813999Y-94455999D01*
X164790201Y-94484998D01*
X164082000Y-95193199D01*
X164082000Y-92770801D01*
X164905545Y-91947256D01*
X164948226Y-91989937D01*
X165117744Y-92103205D01*
X165306102Y-92181226D01*
X165506061Y-92221000D01*
X165709939Y-92221000D01*
X165909898Y-92181226D01*
X166098256Y-92103205D01*
X166267774Y-91989937D01*
X166411937Y-91845774D01*
X166525205Y-91676256D01*
X166603226Y-91487898D01*
X166643000Y-91287939D01*
X166643000Y-91084061D01*
X166603226Y-90884102D01*
X166525205Y-90695744D01*
X166411937Y-90526226D01*
X166267774Y-90382063D01*
X166098256Y-90268795D01*
X165909898Y-90190774D01*
X165709939Y-90151000D01*
X165506061Y-90151000D01*
X165306102Y-90190774D01*
X165117744Y-90268795D01*
X164948226Y-90382063D01*
X164904289Y-90426000D01*
X164629322Y-90426000D01*
X164591999Y-90422324D01*
X164554676Y-90426000D01*
X164554667Y-90426000D01*
X164443014Y-90436997D01*
X164299753Y-90480454D01*
X164167724Y-90551026D01*
X164051999Y-90645999D01*
X164028202Y-90674996D01*
X163320000Y-91383199D01*
X163320000Y-85819580D01*
X168696478Y-91196059D01*
X168696478Y-91196059D01*
G37*
X168696478Y-91196059D02*
X168724191Y-91229827D01*
X168757959Y-91257540D01*
X168757961Y-91257542D01*
X168791169Y-91284795D01*
X168858949Y-91340421D01*
X169012695Y-91422599D01*
X169179518Y-91473205D01*
X169309531Y-91486010D01*
X169309541Y-91486010D01*
X169353007Y-91490291D01*
X169396473Y-91486010D01*
X171488395Y-91486010D01*
X173955001Y-93952617D01*
X173955002Y-95873296D01*
X173918807Y-95829193D01*
X173784049Y-95718599D01*
X173630303Y-95636421D01*
X173463480Y-95585815D01*
X173333467Y-95573010D01*
X173333459Y-95573010D01*
X173289990Y-95568729D01*
X173246521Y-95573010D01*
X173122533Y-95573010D01*
X172992520Y-95585815D01*
X172825697Y-95636421D01*
X172789643Y-95655692D01*
X172610744Y-95729795D01*
X172441226Y-95843063D01*
X172297063Y-95987226D01*
X172183795Y-96156744D01*
X172160056Y-96214056D01*
X172102744Y-96237795D01*
X171933226Y-96351063D01*
X171789063Y-96495226D01*
X171675795Y-96664744D01*
X171597774Y-96853102D01*
X171558000Y-97053061D01*
X171558000Y-97256939D01*
X171597774Y-97456898D01*
X171675795Y-97645256D01*
X171708000Y-97693455D01*
X171708000Y-98115532D01*
X171703719Y-98159002D01*
X171708000Y-98202471D01*
X171708000Y-98202478D01*
X171716143Y-98285153D01*
X171720805Y-98332492D01*
X171730975Y-98366016D01*
X171771411Y-98499314D01*
X171853589Y-98653060D01*
X171964183Y-98787819D01*
X171997956Y-98815536D01*
X172417465Y-99235045D01*
X172445182Y-99268818D01*
X172579940Y-99379412D01*
X172733686Y-99461590D01*
X172900509Y-99512196D01*
X173030522Y-99525001D01*
X173030532Y-99525001D01*
X173073998Y-99529282D01*
X173117464Y-99525001D01*
X173846532Y-99525001D01*
X173890001Y-99529282D01*
X173933470Y-99525001D01*
X173933478Y-99525001D01*
X174063491Y-99512196D01*
X174230314Y-99461590D01*
X174384060Y-99379412D01*
X174518818Y-99268818D01*
X174546535Y-99235045D01*
X175435050Y-98346531D01*
X175468818Y-98318818D01*
X175496956Y-98284533D01*
X175579412Y-98184060D01*
X175592806Y-98159002D01*
X175661590Y-98030314D01*
X175712196Y-97863491D01*
X175725001Y-97733478D01*
X175725001Y-97733470D01*
X175729282Y-97690001D01*
X175725001Y-97646532D01*
X175725001Y-93629504D01*
X175729282Y-93586037D01*
X175725001Y-93542571D01*
X175725001Y-93542561D01*
X175712196Y-93412548D01*
X175661590Y-93245725D01*
X175579412Y-93091979D01*
X175530201Y-93032016D01*
X175496533Y-92990991D01*
X175496531Y-92990989D01*
X175468818Y-92957221D01*
X175435051Y-92929509D01*
X173291541Y-90786000D01*
X176489384Y-90786000D01*
X176614972Y-90939028D01*
X176810638Y-91099608D01*
X177033873Y-91218929D01*
X177276096Y-91292407D01*
X177464877Y-91311000D01*
X178291123Y-91311000D01*
X178443011Y-91296041D01*
X178443011Y-100644186D01*
X175707199Y-103380000D01*
X173288803Y-103380000D01*
X172485000Y-102576198D01*
X172485000Y-102514061D01*
X172445226Y-102314102D01*
X172367205Y-102125744D01*
X172253937Y-101956226D01*
X172109774Y-101812063D01*
X171940256Y-101698795D01*
X171751898Y-101620774D01*
X171551939Y-101581000D01*
X171348061Y-101581000D01*
X171148102Y-101620774D01*
X170959744Y-101698795D01*
X170790226Y-101812063D01*
X170747545Y-101854744D01*
X167892000Y-98999199D01*
X167892000Y-98123711D01*
X167925226Y-98156937D01*
X168094744Y-98270205D01*
X168283102Y-98348226D01*
X168483061Y-98388000D01*
X168686939Y-98388000D01*
X168886898Y-98348226D01*
X169075256Y-98270205D01*
X169244774Y-98156937D01*
X169388937Y-98012774D01*
X169502205Y-97843256D01*
X169580226Y-97654898D01*
X169620000Y-97454939D01*
X169620000Y-97251061D01*
X169580226Y-97051102D01*
X169502205Y-96862744D01*
X169417709Y-96736287D01*
X169419676Y-96716316D01*
X169416000Y-96678993D01*
X169416000Y-96508356D01*
X169570061Y-96539000D01*
X169773939Y-96539000D01*
X169973898Y-96499226D01*
X170162256Y-96421205D01*
X170331774Y-96307937D01*
X170475937Y-96163774D01*
X170589205Y-95994256D01*
X170667226Y-95805898D01*
X170707000Y-95605939D01*
X170707000Y-95402061D01*
X170667226Y-95202102D01*
X170589205Y-95013744D01*
X170475937Y-94844226D01*
X170331774Y-94700063D01*
X170162256Y-94586795D01*
X169973898Y-94508774D01*
X169773939Y-94469000D01*
X169570061Y-94469000D01*
X169525549Y-94477854D01*
X169428277Y-94398025D01*
X169296248Y-94327453D01*
X169152987Y-94283996D01*
X169041334Y-94272999D01*
X169041323Y-94272999D01*
X169004001Y-94269323D01*
X168966679Y-94272999D01*
X167800707Y-94272999D01*
X167714988Y-94246997D01*
X167603335Y-94236000D01*
X167603324Y-94236000D01*
X167566002Y-94232324D01*
X167528680Y-94236000D01*
X165391325Y-94236000D01*
X165354000Y-94232324D01*
X165316675Y-94236000D01*
X165316667Y-94236000D01*
X165205014Y-94246997D01*
X165061753Y-94290454D01*
X164929724Y-94361026D01*
X164813999Y-94455999D01*
X164790201Y-94484998D01*
X164082000Y-95193199D01*
X164082000Y-92770801D01*
X164905545Y-91947256D01*
X164948226Y-91989937D01*
X165117744Y-92103205D01*
X165306102Y-92181226D01*
X165506061Y-92221000D01*
X165709939Y-92221000D01*
X165909898Y-92181226D01*
X166098256Y-92103205D01*
X166267774Y-91989937D01*
X166411937Y-91845774D01*
X166525205Y-91676256D01*
X166603226Y-91487898D01*
X166643000Y-91287939D01*
X166643000Y-91084061D01*
X166603226Y-90884102D01*
X166525205Y-90695744D01*
X166411937Y-90526226D01*
X166267774Y-90382063D01*
X166098256Y-90268795D01*
X165909898Y-90190774D01*
X165709939Y-90151000D01*
X165506061Y-90151000D01*
X165306102Y-90190774D01*
X165117744Y-90268795D01*
X164948226Y-90382063D01*
X164904289Y-90426000D01*
X164629322Y-90426000D01*
X164591999Y-90422324D01*
X164554676Y-90426000D01*
X164554667Y-90426000D01*
X164443014Y-90436997D01*
X164299753Y-90480454D01*
X164167724Y-90551026D01*
X164051999Y-90645999D01*
X164028202Y-90674996D01*
X163320000Y-91383199D01*
X163320000Y-85819580D01*
X168696478Y-91196059D01*
G36*
X144018744Y-94547545D02*
G01*
X143976063Y-94590226D01*
X143862795Y-94759744D01*
X143784774Y-94948102D01*
X143779026Y-94977000D01*
X143662061Y-94977000D01*
X143462102Y-95016774D01*
X143273744Y-95094795D01*
X143104226Y-95208063D01*
X142960063Y-95352226D01*
X142846795Y-95521744D01*
X142768774Y-95710102D01*
X142729000Y-95910061D01*
X142729000Y-96113939D01*
X142768774Y-96313898D01*
X142846795Y-96502256D01*
X142960063Y-96671774D01*
X143104226Y-96815937D01*
X143273744Y-96929205D01*
X143462102Y-97007226D01*
X143662061Y-97047000D01*
X143865939Y-97047000D01*
X144065898Y-97007226D01*
X144254256Y-96929205D01*
X144414716Y-96821989D01*
X144484063Y-96925774D01*
X144532582Y-96974293D01*
X144365029Y-96974293D01*
X144327706Y-96970617D01*
X144290383Y-96974293D01*
X144290374Y-96974293D01*
X144178721Y-96985290D01*
X144035460Y-97028747D01*
X143903431Y-97099319D01*
X143787706Y-97194292D01*
X143763908Y-97223290D01*
X142650200Y-98336999D01*
X141167332Y-98336999D01*
X141129999Y-98333322D01*
X141092666Y-98336999D01*
X140981013Y-98347996D01*
X140837752Y-98391453D01*
X140705723Y-98462025D01*
X140589998Y-98556998D01*
X140566195Y-98586002D01*
X140242002Y-98910195D01*
X140212998Y-98933998D01*
X140168522Y-98988193D01*
X140118025Y-99049723D01*
X140056726Y-99164405D01*
X140047453Y-99181753D01*
X140003996Y-99325014D01*
X139992999Y-99436667D01*
X139992999Y-99436677D01*
X139989323Y-99473999D01*
X139992999Y-99511322D01*
X139993000Y-100041001D01*
X131107000Y-100041001D01*
X132271621Y-98876380D01*
X132292063Y-98906974D01*
X132436226Y-99051137D01*
X132605744Y-99164405D01*
X132794102Y-99242426D01*
X132994061Y-99282200D01*
X132999197Y-99282200D01*
X133250995Y-99533998D01*
X133274798Y-99563002D01*
X133390523Y-99657975D01*
X133522552Y-99728547D01*
X133665813Y-99772004D01*
X133777466Y-99783001D01*
X133777476Y-99783001D01*
X133814799Y-99786677D01*
X133852122Y-99783001D01*
X136848675Y-99783001D01*
X136885997Y-99786677D01*
X136923319Y-99783001D01*
X136923330Y-99783001D01*
X137034983Y-99772004D01*
X137178244Y-99728547D01*
X137310273Y-99657975D01*
X137425998Y-99563002D01*
X137449801Y-99533998D01*
X142316328Y-94667472D01*
X142446102Y-94721226D01*
X142646061Y-94761000D01*
X142849939Y-94761000D01*
X143049898Y-94721226D01*
X143238256Y-94643205D01*
X143407774Y-94529937D01*
X143551937Y-94385774D01*
X143665205Y-94216256D01*
X143671722Y-94200523D01*
X144018744Y-94547545D01*
X144018744Y-94547545D01*
G37*
X144018744Y-94547545D02*
X143976063Y-94590226D01*
X143862795Y-94759744D01*
X143784774Y-94948102D01*
X143779026Y-94977000D01*
X143662061Y-94977000D01*
X143462102Y-95016774D01*
X143273744Y-95094795D01*
X143104226Y-95208063D01*
X142960063Y-95352226D01*
X142846795Y-95521744D01*
X142768774Y-95710102D01*
X142729000Y-95910061D01*
X142729000Y-96113939D01*
X142768774Y-96313898D01*
X142846795Y-96502256D01*
X142960063Y-96671774D01*
X143104226Y-96815937D01*
X143273744Y-96929205D01*
X143462102Y-97007226D01*
X143662061Y-97047000D01*
X143865939Y-97047000D01*
X144065898Y-97007226D01*
X144254256Y-96929205D01*
X144414716Y-96821989D01*
X144484063Y-96925774D01*
X144532582Y-96974293D01*
X144365029Y-96974293D01*
X144327706Y-96970617D01*
X144290383Y-96974293D01*
X144290374Y-96974293D01*
X144178721Y-96985290D01*
X144035460Y-97028747D01*
X143903431Y-97099319D01*
X143787706Y-97194292D01*
X143763908Y-97223290D01*
X142650200Y-98336999D01*
X141167332Y-98336999D01*
X141129999Y-98333322D01*
X141092666Y-98336999D01*
X140981013Y-98347996D01*
X140837752Y-98391453D01*
X140705723Y-98462025D01*
X140589998Y-98556998D01*
X140566195Y-98586002D01*
X140242002Y-98910195D01*
X140212998Y-98933998D01*
X140168522Y-98988193D01*
X140118025Y-99049723D01*
X140056726Y-99164405D01*
X140047453Y-99181753D01*
X140003996Y-99325014D01*
X139992999Y-99436667D01*
X139992999Y-99436677D01*
X139989323Y-99473999D01*
X139992999Y-99511322D01*
X139993000Y-100041001D01*
X131107000Y-100041001D01*
X132271621Y-98876380D01*
X132292063Y-98906974D01*
X132436226Y-99051137D01*
X132605744Y-99164405D01*
X132794102Y-99242426D01*
X132994061Y-99282200D01*
X132999197Y-99282200D01*
X133250995Y-99533998D01*
X133274798Y-99563002D01*
X133390523Y-99657975D01*
X133522552Y-99728547D01*
X133665813Y-99772004D01*
X133777466Y-99783001D01*
X133777476Y-99783001D01*
X133814799Y-99786677D01*
X133852122Y-99783001D01*
X136848675Y-99783001D01*
X136885997Y-99786677D01*
X136923319Y-99783001D01*
X136923330Y-99783001D01*
X137034983Y-99772004D01*
X137178244Y-99728547D01*
X137310273Y-99657975D01*
X137425998Y-99563002D01*
X137449801Y-99533998D01*
X142316328Y-94667472D01*
X142446102Y-94721226D01*
X142646061Y-94761000D01*
X142849939Y-94761000D01*
X143049898Y-94721226D01*
X143238256Y-94643205D01*
X143407774Y-94529937D01*
X143551937Y-94385774D01*
X143665205Y-94216256D01*
X143671722Y-94200523D01*
X144018744Y-94547545D01*
G36*
X126240001Y-98817645D02*
G01*
X126085939Y-98787000D01*
X126023802Y-98787000D01*
X124966000Y-97729199D01*
X124966000Y-92852013D01*
X124985744Y-92865205D01*
X125174102Y-92943226D01*
X125374061Y-92983000D01*
X125577939Y-92983000D01*
X125777898Y-92943226D01*
X125966256Y-92865205D01*
X126135774Y-92751937D01*
X126240001Y-92647710D01*
X126240001Y-98817645D01*
X126240001Y-98817645D01*
G37*
X126240001Y-98817645D02*
X126085939Y-98787000D01*
X126023802Y-98787000D01*
X124966000Y-97729199D01*
X124966000Y-92852013D01*
X124985744Y-92865205D01*
X125174102Y-92943226D01*
X125374061Y-92983000D01*
X125577939Y-92983000D01*
X125777898Y-92943226D01*
X125966256Y-92865205D01*
X126135774Y-92751937D01*
X126240001Y-92647710D01*
X126240001Y-98817645D01*
G36*
X173955002Y-97323421D02*
G01*
X173523423Y-97755001D01*
X173478000Y-97755001D01*
X173478000Y-97693454D01*
X173510205Y-97645256D01*
X173533944Y-97587944D01*
X173591256Y-97564205D01*
X173760774Y-97450937D01*
X173904937Y-97306774D01*
X173955002Y-97231846D01*
X173955002Y-97323421D01*
X173955002Y-97323421D01*
G37*
X173955002Y-97323421D02*
X173523423Y-97755001D01*
X173478000Y-97755001D01*
X173478000Y-97693454D01*
X173510205Y-97645256D01*
X173533944Y-97587944D01*
X173591256Y-97564205D01*
X173760774Y-97450937D01*
X173904937Y-97306774D01*
X173955002Y-97231846D01*
X173955002Y-97323421D01*
G36*
X136008226Y-85623937D02*
G01*
X136177744Y-85737205D01*
X136366102Y-85815226D01*
X136566061Y-85855000D01*
X136769939Y-85855000D01*
X136948255Y-85819531D01*
X132584998Y-90182789D01*
X132556000Y-90206587D01*
X132532202Y-90235585D01*
X132532201Y-90235586D01*
X132461026Y-90322312D01*
X132390454Y-90454342D01*
X132367803Y-90529015D01*
X132346998Y-90597602D01*
X132338914Y-90679676D01*
X132332324Y-90746588D01*
X132336001Y-90783920D01*
X132336000Y-92729679D01*
X132332324Y-92767002D01*
X132336000Y-92804324D01*
X132336000Y-92804334D01*
X132346997Y-92915987D01*
X132386801Y-93047205D01*
X132386800Y-93606489D01*
X132342863Y-93650426D01*
X132332000Y-93666684D01*
X132332000Y-87055404D01*
X132354774Y-87169898D01*
X132432795Y-87358256D01*
X132546063Y-87527774D01*
X132690226Y-87671937D01*
X132859744Y-87785205D01*
X133048102Y-87863226D01*
X133248061Y-87903000D01*
X133451939Y-87903000D01*
X133651898Y-87863226D01*
X133840256Y-87785205D01*
X134009774Y-87671937D01*
X134153937Y-87527774D01*
X134267205Y-87358256D01*
X134345226Y-87169898D01*
X134385000Y-86969939D01*
X134385000Y-86766061D01*
X134345226Y-86566102D01*
X134267205Y-86377744D01*
X134153937Y-86208226D01*
X134110000Y-86164289D01*
X134110000Y-85912801D01*
X134442802Y-85580000D01*
X135964289Y-85580000D01*
X136008226Y-85623937D01*
X136008226Y-85623937D01*
G37*
X136008226Y-85623937D02*
X136177744Y-85737205D01*
X136366102Y-85815226D01*
X136566061Y-85855000D01*
X136769939Y-85855000D01*
X136948255Y-85819531D01*
X132584998Y-90182789D01*
X132556000Y-90206587D01*
X132532202Y-90235585D01*
X132532201Y-90235586D01*
X132461026Y-90322312D01*
X132390454Y-90454342D01*
X132367803Y-90529015D01*
X132346998Y-90597602D01*
X132338914Y-90679676D01*
X132332324Y-90746588D01*
X132336001Y-90783920D01*
X132336000Y-92729679D01*
X132332324Y-92767002D01*
X132336000Y-92804324D01*
X132336000Y-92804334D01*
X132346997Y-92915987D01*
X132386801Y-93047205D01*
X132386800Y-93606489D01*
X132342863Y-93650426D01*
X132332000Y-93666684D01*
X132332000Y-87055404D01*
X132354774Y-87169898D01*
X132432795Y-87358256D01*
X132546063Y-87527774D01*
X132690226Y-87671937D01*
X132859744Y-87785205D01*
X133048102Y-87863226D01*
X133248061Y-87903000D01*
X133451939Y-87903000D01*
X133651898Y-87863226D01*
X133840256Y-87785205D01*
X134009774Y-87671937D01*
X134153937Y-87527774D01*
X134267205Y-87358256D01*
X134345226Y-87169898D01*
X134385000Y-86969939D01*
X134385000Y-86766061D01*
X134345226Y-86566102D01*
X134267205Y-86377744D01*
X134153937Y-86208226D01*
X134110000Y-86164289D01*
X134110000Y-85912801D01*
X134442802Y-85580000D01*
X135964289Y-85580000D01*
X136008226Y-85623937D01*
G36*
X157461000Y-87274061D02*
G01*
X157461000Y-87477939D01*
X157500774Y-87677898D01*
X157578795Y-87866256D01*
X157692063Y-88035774D01*
X157836226Y-88179937D01*
X158005744Y-88293205D01*
X158194102Y-88371226D01*
X158394061Y-88411000D01*
X158471774Y-88411000D01*
X158603752Y-88481545D01*
X158747013Y-88525002D01*
X158858666Y-88535999D01*
X158858676Y-88535999D01*
X158895998Y-88539675D01*
X158933321Y-88535999D01*
X159571990Y-88535999D01*
X159571991Y-90805046D01*
X159548415Y-90792444D01*
X159405154Y-90748987D01*
X159293501Y-90737990D01*
X159293490Y-90737990D01*
X159256168Y-90734314D01*
X159218846Y-90737990D01*
X157297772Y-90737990D01*
X157366997Y-90634311D01*
X157463787Y-90400415D01*
X157471099Y-90351471D01*
X157347067Y-90153000D01*
X156005000Y-90153000D01*
X156005000Y-90173000D01*
X155751000Y-90173000D01*
X155751000Y-90153000D01*
X154408933Y-90153000D01*
X154336195Y-90269392D01*
X153689000Y-89622198D01*
X153689000Y-89560061D01*
X153649226Y-89360102D01*
X153571205Y-89171744D01*
X153457937Y-89002226D01*
X153313774Y-88858063D01*
X153144256Y-88744795D01*
X152955898Y-88666774D01*
X152755939Y-88627000D01*
X152552061Y-88627000D01*
X152352102Y-88666774D01*
X152163744Y-88744795D01*
X151994226Y-88858063D01*
X151850063Y-89002226D01*
X151736795Y-89171744D01*
X151658774Y-89360102D01*
X151619000Y-89560061D01*
X151619000Y-89763939D01*
X151658774Y-89963898D01*
X151736795Y-90152256D01*
X151850063Y-90321774D01*
X151994226Y-90465937D01*
X152163744Y-90579205D01*
X152352102Y-90657226D01*
X152552061Y-90697000D01*
X152614198Y-90697000D01*
X153418000Y-91500803D01*
X153418000Y-91771975D01*
X153414324Y-91809297D01*
X153418000Y-91846619D01*
X153418000Y-91846629D01*
X153428997Y-91958282D01*
X153470519Y-92095165D01*
X153472454Y-92101543D01*
X153543026Y-92233573D01*
X153556473Y-92249958D01*
X153433744Y-92300795D01*
X153264226Y-92414063D01*
X153189045Y-92489244D01*
X153163248Y-92475455D01*
X153019987Y-92431998D01*
X152934367Y-92423565D01*
X150677804Y-90167003D01*
X150654001Y-90137999D01*
X150538276Y-90043026D01*
X150406247Y-89972454D01*
X150336512Y-89951301D01*
X149790213Y-89405002D01*
X149766411Y-89375999D01*
X149650686Y-89281026D01*
X149518657Y-89210454D01*
X149375396Y-89166997D01*
X149263743Y-89156000D01*
X149263732Y-89156000D01*
X149226410Y-89152324D01*
X149189088Y-89156000D01*
X148712349Y-89156000D01*
X148600277Y-89064025D01*
X148577376Y-89051784D01*
X148741774Y-88941937D01*
X148885937Y-88797774D01*
X148999205Y-88628256D01*
X149077226Y-88439898D01*
X149117000Y-88239939D01*
X149117000Y-88177802D01*
X149355004Y-87939798D01*
X149384001Y-87916001D01*
X149478974Y-87800276D01*
X149501571Y-87758001D01*
X149640004Y-87799993D01*
X149751657Y-87810990D01*
X149751666Y-87810990D01*
X149788989Y-87814666D01*
X149826312Y-87810990D01*
X154257959Y-87810990D01*
X154236783Y-88026000D01*
X154261593Y-88277904D01*
X154335071Y-88520127D01*
X154454392Y-88743362D01*
X154614972Y-88939028D01*
X154716779Y-89022579D01*
X154708495Y-89028118D01*
X154529564Y-89207170D01*
X154389003Y-89417689D01*
X154292213Y-89651585D01*
X154284901Y-89700529D01*
X154408933Y-89899000D01*
X155751000Y-89899000D01*
X155751000Y-89879000D01*
X156005000Y-89879000D01*
X156005000Y-89899000D01*
X157347067Y-89899000D01*
X157471099Y-89700529D01*
X157463787Y-89651585D01*
X157366997Y-89417689D01*
X157226436Y-89207170D01*
X157047505Y-89028118D01*
X157039221Y-89022579D01*
X157141028Y-88939028D01*
X157301608Y-88743362D01*
X157420929Y-88520127D01*
X157494407Y-88277904D01*
X157519217Y-88026000D01*
X157494407Y-87774096D01*
X157420929Y-87531873D01*
X157335544Y-87372129D01*
X157467800Y-87239873D01*
X157461000Y-87274061D01*
X157461000Y-87274061D01*
G37*
X157461000Y-87274061D02*
X157461000Y-87477939D01*
X157500774Y-87677898D01*
X157578795Y-87866256D01*
X157692063Y-88035774D01*
X157836226Y-88179937D01*
X158005744Y-88293205D01*
X158194102Y-88371226D01*
X158394061Y-88411000D01*
X158471774Y-88411000D01*
X158603752Y-88481545D01*
X158747013Y-88525002D01*
X158858666Y-88535999D01*
X158858676Y-88535999D01*
X158895998Y-88539675D01*
X158933321Y-88535999D01*
X159571990Y-88535999D01*
X159571991Y-90805046D01*
X159548415Y-90792444D01*
X159405154Y-90748987D01*
X159293501Y-90737990D01*
X159293490Y-90737990D01*
X159256168Y-90734314D01*
X159218846Y-90737990D01*
X157297772Y-90737990D01*
X157366997Y-90634311D01*
X157463787Y-90400415D01*
X157471099Y-90351471D01*
X157347067Y-90153000D01*
X156005000Y-90153000D01*
X156005000Y-90173000D01*
X155751000Y-90173000D01*
X155751000Y-90153000D01*
X154408933Y-90153000D01*
X154336195Y-90269392D01*
X153689000Y-89622198D01*
X153689000Y-89560061D01*
X153649226Y-89360102D01*
X153571205Y-89171744D01*
X153457937Y-89002226D01*
X153313774Y-88858063D01*
X153144256Y-88744795D01*
X152955898Y-88666774D01*
X152755939Y-88627000D01*
X152552061Y-88627000D01*
X152352102Y-88666774D01*
X152163744Y-88744795D01*
X151994226Y-88858063D01*
X151850063Y-89002226D01*
X151736795Y-89171744D01*
X151658774Y-89360102D01*
X151619000Y-89560061D01*
X151619000Y-89763939D01*
X151658774Y-89963898D01*
X151736795Y-90152256D01*
X151850063Y-90321774D01*
X151994226Y-90465937D01*
X152163744Y-90579205D01*
X152352102Y-90657226D01*
X152552061Y-90697000D01*
X152614198Y-90697000D01*
X153418000Y-91500803D01*
X153418000Y-91771975D01*
X153414324Y-91809297D01*
X153418000Y-91846619D01*
X153418000Y-91846629D01*
X153428997Y-91958282D01*
X153470519Y-92095165D01*
X153472454Y-92101543D01*
X153543026Y-92233573D01*
X153556473Y-92249958D01*
X153433744Y-92300795D01*
X153264226Y-92414063D01*
X153189045Y-92489244D01*
X153163248Y-92475455D01*
X153019987Y-92431998D01*
X152934367Y-92423565D01*
X150677804Y-90167003D01*
X150654001Y-90137999D01*
X150538276Y-90043026D01*
X150406247Y-89972454D01*
X150336512Y-89951301D01*
X149790213Y-89405002D01*
X149766411Y-89375999D01*
X149650686Y-89281026D01*
X149518657Y-89210454D01*
X149375396Y-89166997D01*
X149263743Y-89156000D01*
X149263732Y-89156000D01*
X149226410Y-89152324D01*
X149189088Y-89156000D01*
X148712349Y-89156000D01*
X148600277Y-89064025D01*
X148577376Y-89051784D01*
X148741774Y-88941937D01*
X148885937Y-88797774D01*
X148999205Y-88628256D01*
X149077226Y-88439898D01*
X149117000Y-88239939D01*
X149117000Y-88177802D01*
X149355004Y-87939798D01*
X149384001Y-87916001D01*
X149478974Y-87800276D01*
X149501571Y-87758001D01*
X149640004Y-87799993D01*
X149751657Y-87810990D01*
X149751666Y-87810990D01*
X149788989Y-87814666D01*
X149826312Y-87810990D01*
X154257959Y-87810990D01*
X154236783Y-88026000D01*
X154261593Y-88277904D01*
X154335071Y-88520127D01*
X154454392Y-88743362D01*
X154614972Y-88939028D01*
X154716779Y-89022579D01*
X154708495Y-89028118D01*
X154529564Y-89207170D01*
X154389003Y-89417689D01*
X154292213Y-89651585D01*
X154284901Y-89700529D01*
X154408933Y-89899000D01*
X155751000Y-89899000D01*
X155751000Y-89879000D01*
X156005000Y-89879000D01*
X156005000Y-89899000D01*
X157347067Y-89899000D01*
X157471099Y-89700529D01*
X157463787Y-89651585D01*
X157366997Y-89417689D01*
X157226436Y-89207170D01*
X157047505Y-89028118D01*
X157039221Y-89022579D01*
X157141028Y-88939028D01*
X157301608Y-88743362D01*
X157420929Y-88520127D01*
X157494407Y-88277904D01*
X157519217Y-88026000D01*
X157494407Y-87774096D01*
X157420929Y-87531873D01*
X157335544Y-87372129D01*
X157467800Y-87239873D01*
X157461000Y-87274061D01*
G36*
X125047102Y-83926226D02*
G01*
X125247061Y-83966000D01*
X125309199Y-83966000D01*
X126240000Y-84896802D01*
X126240000Y-87865000D01*
X126136061Y-87865000D01*
X125936102Y-87904774D01*
X125747744Y-87982795D01*
X125578226Y-88096063D01*
X125434063Y-88240226D01*
X125320795Y-88409744D01*
X125242774Y-88598102D01*
X125203000Y-88798061D01*
X125203000Y-89001939D01*
X125226328Y-89119220D01*
X125187784Y-89191332D01*
X125170453Y-89223755D01*
X125126996Y-89367016D01*
X125115999Y-89478669D01*
X125115999Y-89478679D01*
X125112323Y-89516001D01*
X125115999Y-89553324D01*
X125116000Y-90976841D01*
X124985744Y-91030795D01*
X124966000Y-91043987D01*
X124966000Y-83892632D01*
X125047102Y-83926226D01*
X125047102Y-83926226D01*
G37*
X125047102Y-83926226D02*
X125247061Y-83966000D01*
X125309199Y-83966000D01*
X126240000Y-84896802D01*
X126240000Y-87865000D01*
X126136061Y-87865000D01*
X125936102Y-87904774D01*
X125747744Y-87982795D01*
X125578226Y-88096063D01*
X125434063Y-88240226D01*
X125320795Y-88409744D01*
X125242774Y-88598102D01*
X125203000Y-88798061D01*
X125203000Y-89001939D01*
X125226328Y-89119220D01*
X125187784Y-89191332D01*
X125170453Y-89223755D01*
X125126996Y-89367016D01*
X125115999Y-89478669D01*
X125115999Y-89478679D01*
X125112323Y-89516001D01*
X125115999Y-89553324D01*
X125116000Y-90976841D01*
X124985744Y-91030795D01*
X124966000Y-91043987D01*
X124966000Y-83892632D01*
X125047102Y-83926226D01*
G36*
X147001000Y-83967939D02*
G01*
X147040774Y-84167898D01*
X147118795Y-84356256D01*
X147232063Y-84525774D01*
X147376226Y-84669937D01*
X147545744Y-84783205D01*
X147734102Y-84861226D01*
X147934061Y-84901000D01*
X148084001Y-84901000D01*
X148084000Y-87061198D01*
X148042198Y-87103000D01*
X147980061Y-87103000D01*
X147780102Y-87142774D01*
X147591744Y-87220795D01*
X147422226Y-87334063D01*
X147278063Y-87478226D01*
X147164795Y-87647744D01*
X147086774Y-87836102D01*
X147047000Y-88036061D01*
X147047000Y-88239939D01*
X147086774Y-88439898D01*
X147164795Y-88628256D01*
X147278063Y-88797774D01*
X147421384Y-88941095D01*
X147331013Y-88949996D01*
X147187752Y-88993453D01*
X147055723Y-89064025D01*
X146939998Y-89158998D01*
X146916195Y-89188002D01*
X146752010Y-89352187D01*
X146752010Y-87297793D01*
X146777998Y-87271805D01*
X146807002Y-87248002D01*
X146901975Y-87132277D01*
X146972547Y-87000248D01*
X147016004Y-86856987D01*
X147027001Y-86745334D01*
X147027001Y-86745324D01*
X147030677Y-86708002D01*
X147027001Y-86670679D01*
X147027001Y-86049332D01*
X147030678Y-86011999D01*
X147016004Y-85863013D01*
X146972547Y-85719752D01*
X146942482Y-85663506D01*
X146901975Y-85587723D01*
X146807002Y-85471998D01*
X146777999Y-85448196D01*
X146453805Y-85124002D01*
X146430002Y-85094998D01*
X146314277Y-85000025D01*
X146182248Y-84929453D01*
X146038987Y-84885996D01*
X145927334Y-84874999D01*
X145927323Y-84874999D01*
X145890001Y-84871323D01*
X145852679Y-84874999D01*
X143861801Y-84874999D01*
X143820802Y-84834000D01*
X144366335Y-84834000D01*
X144477988Y-84823003D01*
X144621249Y-84779546D01*
X144753278Y-84708974D01*
X144869003Y-84614001D01*
X144963976Y-84498276D01*
X145034548Y-84366247D01*
X145078005Y-84222986D01*
X145092679Y-84074000D01*
X145078005Y-83925014D01*
X145070720Y-83900999D01*
X147001000Y-83900999D01*
X147001000Y-83967939D01*
X147001000Y-83967939D01*
G37*
X147001000Y-83967939D02*
X147040774Y-84167898D01*
X147118795Y-84356256D01*
X147232063Y-84525774D01*
X147376226Y-84669937D01*
X147545744Y-84783205D01*
X147734102Y-84861226D01*
X147934061Y-84901000D01*
X148084001Y-84901000D01*
X148084000Y-87061198D01*
X148042198Y-87103000D01*
X147980061Y-87103000D01*
X147780102Y-87142774D01*
X147591744Y-87220795D01*
X147422226Y-87334063D01*
X147278063Y-87478226D01*
X147164795Y-87647744D01*
X147086774Y-87836102D01*
X147047000Y-88036061D01*
X147047000Y-88239939D01*
X147086774Y-88439898D01*
X147164795Y-88628256D01*
X147278063Y-88797774D01*
X147421384Y-88941095D01*
X147331013Y-88949996D01*
X147187752Y-88993453D01*
X147055723Y-89064025D01*
X146939998Y-89158998D01*
X146916195Y-89188002D01*
X146752010Y-89352187D01*
X146752010Y-87297793D01*
X146777998Y-87271805D01*
X146807002Y-87248002D01*
X146901975Y-87132277D01*
X146972547Y-87000248D01*
X147016004Y-86856987D01*
X147027001Y-86745334D01*
X147027001Y-86745324D01*
X147030677Y-86708002D01*
X147027001Y-86670679D01*
X147027001Y-86049332D01*
X147030678Y-86011999D01*
X147016004Y-85863013D01*
X146972547Y-85719752D01*
X146942482Y-85663506D01*
X146901975Y-85587723D01*
X146807002Y-85471998D01*
X146777999Y-85448196D01*
X146453805Y-85124002D01*
X146430002Y-85094998D01*
X146314277Y-85000025D01*
X146182248Y-84929453D01*
X146038987Y-84885996D01*
X145927334Y-84874999D01*
X145927323Y-84874999D01*
X145890001Y-84871323D01*
X145852679Y-84874999D01*
X143861801Y-84874999D01*
X143820802Y-84834000D01*
X144366335Y-84834000D01*
X144477988Y-84823003D01*
X144621249Y-84779546D01*
X144753278Y-84708974D01*
X144869003Y-84614001D01*
X144963976Y-84498276D01*
X145034548Y-84366247D01*
X145078005Y-84222986D01*
X145092679Y-84074000D01*
X145078005Y-83925014D01*
X145070720Y-83900999D01*
X147001000Y-83900999D01*
X147001000Y-83967939D01*
G36*
X176614972Y-76939028D02*
G01*
X176720947Y-77026000D01*
X176614972Y-77112972D01*
X176454392Y-77308638D01*
X176335071Y-77531873D01*
X176261593Y-77774096D01*
X176236783Y-78026000D01*
X176261593Y-78277904D01*
X176335071Y-78520127D01*
X176454392Y-78743362D01*
X176614972Y-78939028D01*
X176720947Y-79026000D01*
X176614972Y-79112972D01*
X176454392Y-79308638D01*
X176335071Y-79531873D01*
X176261593Y-79774096D01*
X176236783Y-80026000D01*
X176261593Y-80277904D01*
X176335071Y-80520127D01*
X176454392Y-80743362D01*
X176614972Y-80939028D01*
X176720947Y-81026000D01*
X176614972Y-81112972D01*
X176454392Y-81308638D01*
X176335071Y-81531873D01*
X176261593Y-81774096D01*
X176236783Y-82026000D01*
X176261593Y-82277904D01*
X176335071Y-82520127D01*
X176454392Y-82743362D01*
X176614972Y-82939028D01*
X176720947Y-83026000D01*
X176614972Y-83112972D01*
X176454392Y-83308638D01*
X176335071Y-83531873D01*
X176261593Y-83774096D01*
X176236783Y-84026000D01*
X176261593Y-84277904D01*
X176335071Y-84520127D01*
X176454392Y-84743362D01*
X176614972Y-84939028D01*
X176720947Y-85026000D01*
X176614972Y-85112972D01*
X176454392Y-85308638D01*
X176335071Y-85531873D01*
X176261593Y-85774096D01*
X176236783Y-86026000D01*
X176261593Y-86277904D01*
X176335071Y-86520127D01*
X176454392Y-86743362D01*
X176614972Y-86939028D01*
X176720947Y-87026000D01*
X176614972Y-87112972D01*
X176454392Y-87308638D01*
X176335071Y-87531873D01*
X176261593Y-87774096D01*
X176236783Y-88026000D01*
X176261593Y-88277904D01*
X176335071Y-88520127D01*
X176454392Y-88743362D01*
X176614972Y-88939028D01*
X176720947Y-89026000D01*
X176614972Y-89112972D01*
X176489384Y-89266000D01*
X175466674Y-89266000D01*
X175493226Y-89201898D01*
X175533000Y-89001939D01*
X175533000Y-88798061D01*
X175493226Y-88598102D01*
X175415205Y-88409744D01*
X175301937Y-88240226D01*
X175157774Y-88096063D01*
X174988256Y-87982795D01*
X174799898Y-87904774D01*
X174599939Y-87865000D01*
X174537802Y-87865000D01*
X172833794Y-86160993D01*
X172809991Y-86131989D01*
X172694266Y-86037016D01*
X172562237Y-85966444D01*
X172418976Y-85922987D01*
X172307323Y-85911990D01*
X172307312Y-85911990D01*
X172269990Y-85908314D01*
X172232668Y-85911990D01*
X170044792Y-85911990D01*
X165192674Y-81059872D01*
X166675000Y-81059872D01*
X166675000Y-81500128D01*
X166760890Y-81931925D01*
X166929369Y-82338669D01*
X167173962Y-82704729D01*
X167485271Y-83016038D01*
X167851331Y-83260631D01*
X168258075Y-83429110D01*
X168689872Y-83515000D01*
X169130128Y-83515000D01*
X169561925Y-83429110D01*
X169968669Y-83260631D01*
X170334729Y-83016038D01*
X170646038Y-82704729D01*
X170890631Y-82338669D01*
X171059110Y-81931925D01*
X171145000Y-81500128D01*
X171145000Y-81059872D01*
X171059110Y-80628075D01*
X170890631Y-80221331D01*
X170646038Y-79855271D01*
X170334729Y-79543962D01*
X169968669Y-79299369D01*
X169561925Y-79130890D01*
X169130128Y-79045000D01*
X168689872Y-79045000D01*
X168258075Y-79130890D01*
X167851331Y-79299369D01*
X167485271Y-79543962D01*
X167173962Y-79855271D01*
X166929369Y-80221331D01*
X166760890Y-80628075D01*
X166675000Y-81059872D01*
X165192674Y-81059872D01*
X164488793Y-80355992D01*
X164464990Y-80326988D01*
X164349265Y-80232015D01*
X164217236Y-80161443D01*
X164073975Y-80117986D01*
X163988355Y-80109553D01*
X163123804Y-79245002D01*
X163100001Y-79215999D01*
X162984276Y-79121026D01*
X162852247Y-79050454D01*
X162708986Y-79006997D01*
X162597333Y-78996000D01*
X162597322Y-78996000D01*
X162560000Y-78992324D01*
X162522678Y-78996000D01*
X161739711Y-78996000D01*
X161695774Y-78952063D01*
X161526256Y-78838795D01*
X161337898Y-78760774D01*
X161137939Y-78721000D01*
X160934061Y-78721000D01*
X160734102Y-78760774D01*
X160545744Y-78838795D01*
X160376226Y-78952063D01*
X160232063Y-79096226D01*
X160211621Y-79126819D01*
X159314801Y-78230000D01*
X170545987Y-78230000D01*
X170532795Y-78249744D01*
X170454774Y-78438102D01*
X170415000Y-78638061D01*
X170415000Y-78841939D01*
X170454774Y-79041898D01*
X170532795Y-79230256D01*
X170646063Y-79399774D01*
X170790226Y-79543937D01*
X170959744Y-79657205D01*
X171148102Y-79735226D01*
X171348061Y-79775000D01*
X171551939Y-79775000D01*
X171751898Y-79735226D01*
X171940256Y-79657205D01*
X172109774Y-79543937D01*
X172253937Y-79399774D01*
X172367205Y-79230256D01*
X172445226Y-79041898D01*
X172485000Y-78841939D01*
X172485000Y-78638061D01*
X172445226Y-78438102D01*
X172367205Y-78249744D01*
X172354013Y-78230000D01*
X173129156Y-78230000D01*
X173121999Y-78302668D01*
X173121999Y-78302679D01*
X173118323Y-78340001D01*
X173121999Y-78377323D01*
X173121999Y-78530841D01*
X172991744Y-78584795D01*
X172822226Y-78698063D01*
X172678063Y-78842226D01*
X172564795Y-79011744D01*
X172486774Y-79200102D01*
X172447000Y-79400061D01*
X172447000Y-79603939D01*
X172486774Y-79803898D01*
X172564795Y-79992256D01*
X172678063Y-80161774D01*
X172822226Y-80305937D01*
X172991744Y-80419205D01*
X173180102Y-80497226D01*
X173380061Y-80537000D01*
X173583939Y-80537000D01*
X173783898Y-80497226D01*
X173972256Y-80419205D01*
X174141774Y-80305937D01*
X174285937Y-80161774D01*
X174399205Y-79992256D01*
X174477226Y-79803898D01*
X174517000Y-79603939D01*
X174517000Y-79526226D01*
X174587545Y-79394248D01*
X174631002Y-79250987D01*
X174641999Y-79139334D01*
X174641999Y-79139324D01*
X174645675Y-79102002D01*
X174641999Y-79064679D01*
X174641999Y-78654802D01*
X176499038Y-76797763D01*
X176614972Y-76939028D01*
X176614972Y-76939028D01*
G37*
X176614972Y-76939028D02*
X176720947Y-77026000D01*
X176614972Y-77112972D01*
X176454392Y-77308638D01*
X176335071Y-77531873D01*
X176261593Y-77774096D01*
X176236783Y-78026000D01*
X176261593Y-78277904D01*
X176335071Y-78520127D01*
X176454392Y-78743362D01*
X176614972Y-78939028D01*
X176720947Y-79026000D01*
X176614972Y-79112972D01*
X176454392Y-79308638D01*
X176335071Y-79531873D01*
X176261593Y-79774096D01*
X176236783Y-80026000D01*
X176261593Y-80277904D01*
X176335071Y-80520127D01*
X176454392Y-80743362D01*
X176614972Y-80939028D01*
X176720947Y-81026000D01*
X176614972Y-81112972D01*
X176454392Y-81308638D01*
X176335071Y-81531873D01*
X176261593Y-81774096D01*
X176236783Y-82026000D01*
X176261593Y-82277904D01*
X176335071Y-82520127D01*
X176454392Y-82743362D01*
X176614972Y-82939028D01*
X176720947Y-83026000D01*
X176614972Y-83112972D01*
X176454392Y-83308638D01*
X176335071Y-83531873D01*
X176261593Y-83774096D01*
X176236783Y-84026000D01*
X176261593Y-84277904D01*
X176335071Y-84520127D01*
X176454392Y-84743362D01*
X176614972Y-84939028D01*
X176720947Y-85026000D01*
X176614972Y-85112972D01*
X176454392Y-85308638D01*
X176335071Y-85531873D01*
X176261593Y-85774096D01*
X176236783Y-86026000D01*
X176261593Y-86277904D01*
X176335071Y-86520127D01*
X176454392Y-86743362D01*
X176614972Y-86939028D01*
X176720947Y-87026000D01*
X176614972Y-87112972D01*
X176454392Y-87308638D01*
X176335071Y-87531873D01*
X176261593Y-87774096D01*
X176236783Y-88026000D01*
X176261593Y-88277904D01*
X176335071Y-88520127D01*
X176454392Y-88743362D01*
X176614972Y-88939028D01*
X176720947Y-89026000D01*
X176614972Y-89112972D01*
X176489384Y-89266000D01*
X175466674Y-89266000D01*
X175493226Y-89201898D01*
X175533000Y-89001939D01*
X175533000Y-88798061D01*
X175493226Y-88598102D01*
X175415205Y-88409744D01*
X175301937Y-88240226D01*
X175157774Y-88096063D01*
X174988256Y-87982795D01*
X174799898Y-87904774D01*
X174599939Y-87865000D01*
X174537802Y-87865000D01*
X172833794Y-86160993D01*
X172809991Y-86131989D01*
X172694266Y-86037016D01*
X172562237Y-85966444D01*
X172418976Y-85922987D01*
X172307323Y-85911990D01*
X172307312Y-85911990D01*
X172269990Y-85908314D01*
X172232668Y-85911990D01*
X170044792Y-85911990D01*
X165192674Y-81059872D01*
X166675000Y-81059872D01*
X166675000Y-81500128D01*
X166760890Y-81931925D01*
X166929369Y-82338669D01*
X167173962Y-82704729D01*
X167485271Y-83016038D01*
X167851331Y-83260631D01*
X168258075Y-83429110D01*
X168689872Y-83515000D01*
X169130128Y-83515000D01*
X169561925Y-83429110D01*
X169968669Y-83260631D01*
X170334729Y-83016038D01*
X170646038Y-82704729D01*
X170890631Y-82338669D01*
X171059110Y-81931925D01*
X171145000Y-81500128D01*
X171145000Y-81059872D01*
X171059110Y-80628075D01*
X170890631Y-80221331D01*
X170646038Y-79855271D01*
X170334729Y-79543962D01*
X169968669Y-79299369D01*
X169561925Y-79130890D01*
X169130128Y-79045000D01*
X168689872Y-79045000D01*
X168258075Y-79130890D01*
X167851331Y-79299369D01*
X167485271Y-79543962D01*
X167173962Y-79855271D01*
X166929369Y-80221331D01*
X166760890Y-80628075D01*
X166675000Y-81059872D01*
X165192674Y-81059872D01*
X164488793Y-80355992D01*
X164464990Y-80326988D01*
X164349265Y-80232015D01*
X164217236Y-80161443D01*
X164073975Y-80117986D01*
X163988355Y-80109553D01*
X163123804Y-79245002D01*
X163100001Y-79215999D01*
X162984276Y-79121026D01*
X162852247Y-79050454D01*
X162708986Y-79006997D01*
X162597333Y-78996000D01*
X162597322Y-78996000D01*
X162560000Y-78992324D01*
X162522678Y-78996000D01*
X161739711Y-78996000D01*
X161695774Y-78952063D01*
X161526256Y-78838795D01*
X161337898Y-78760774D01*
X161137939Y-78721000D01*
X160934061Y-78721000D01*
X160734102Y-78760774D01*
X160545744Y-78838795D01*
X160376226Y-78952063D01*
X160232063Y-79096226D01*
X160211621Y-79126819D01*
X159314801Y-78230000D01*
X170545987Y-78230000D01*
X170532795Y-78249744D01*
X170454774Y-78438102D01*
X170415000Y-78638061D01*
X170415000Y-78841939D01*
X170454774Y-79041898D01*
X170532795Y-79230256D01*
X170646063Y-79399774D01*
X170790226Y-79543937D01*
X170959744Y-79657205D01*
X171148102Y-79735226D01*
X171348061Y-79775000D01*
X171551939Y-79775000D01*
X171751898Y-79735226D01*
X171940256Y-79657205D01*
X172109774Y-79543937D01*
X172253937Y-79399774D01*
X172367205Y-79230256D01*
X172445226Y-79041898D01*
X172485000Y-78841939D01*
X172485000Y-78638061D01*
X172445226Y-78438102D01*
X172367205Y-78249744D01*
X172354013Y-78230000D01*
X173129156Y-78230000D01*
X173121999Y-78302668D01*
X173121999Y-78302679D01*
X173118323Y-78340001D01*
X173121999Y-78377323D01*
X173121999Y-78530841D01*
X172991744Y-78584795D01*
X172822226Y-78698063D01*
X172678063Y-78842226D01*
X172564795Y-79011744D01*
X172486774Y-79200102D01*
X172447000Y-79400061D01*
X172447000Y-79603939D01*
X172486774Y-79803898D01*
X172564795Y-79992256D01*
X172678063Y-80161774D01*
X172822226Y-80305937D01*
X172991744Y-80419205D01*
X173180102Y-80497226D01*
X173380061Y-80537000D01*
X173583939Y-80537000D01*
X173783898Y-80497226D01*
X173972256Y-80419205D01*
X174141774Y-80305937D01*
X174285937Y-80161774D01*
X174399205Y-79992256D01*
X174477226Y-79803898D01*
X174517000Y-79603939D01*
X174517000Y-79526226D01*
X174587545Y-79394248D01*
X174631002Y-79250987D01*
X174641999Y-79139334D01*
X174641999Y-79139324D01*
X174645675Y-79102002D01*
X174641999Y-79064679D01*
X174641999Y-78654802D01*
X176499038Y-76797763D01*
X176614972Y-76939028D01*
G36*
X138936359Y-82554920D02*
G01*
X139110412Y-82788269D01*
X139326645Y-82983178D01*
X139576748Y-83132157D01*
X139620211Y-83147575D01*
X137667531Y-85100255D01*
X137703000Y-84921939D01*
X137703000Y-84718061D01*
X137663226Y-84518102D01*
X137585205Y-84329744D01*
X137471937Y-84160226D01*
X137327774Y-84016063D01*
X137297180Y-83995621D01*
X138872323Y-82420478D01*
X138936359Y-82554920D01*
X138936359Y-82554920D01*
G37*
X138936359Y-82554920D02*
X139110412Y-82788269D01*
X139326645Y-82983178D01*
X139576748Y-83132157D01*
X139620211Y-83147575D01*
X137667531Y-85100255D01*
X137703000Y-84921939D01*
X137703000Y-84718061D01*
X137663226Y-84518102D01*
X137585205Y-84329744D01*
X137471937Y-84160226D01*
X137327774Y-84016063D01*
X137297180Y-83995621D01*
X138872323Y-82420478D01*
X138936359Y-82554920D01*
G36*
X149639251Y-70142247D02*
G01*
X149627193Y-70182000D01*
X149618998Y-70209015D01*
X149604324Y-70358000D01*
X149608001Y-70395332D01*
X149608000Y-71370200D01*
X148760630Y-72217571D01*
X148673724Y-72264024D01*
X148557999Y-72358997D01*
X148463026Y-72474722D01*
X148392454Y-72606751D01*
X148348997Y-72750012D01*
X148334323Y-72898998D01*
X148338001Y-72936341D01*
X148338000Y-75146677D01*
X148334324Y-75184000D01*
X148338000Y-75221322D01*
X148338000Y-75221332D01*
X148348997Y-75332985D01*
X148390312Y-75469185D01*
X148392454Y-75476246D01*
X148463026Y-75608276D01*
X148502252Y-75656072D01*
X148557999Y-75724001D01*
X148587003Y-75747804D01*
X148927203Y-76088004D01*
X148904487Y-76162889D01*
X148875815Y-76454000D01*
X148904487Y-76745111D01*
X148989401Y-77025034D01*
X149127294Y-77283014D01*
X149312866Y-77509134D01*
X149538986Y-77694706D01*
X149593791Y-77724000D01*
X149538986Y-77753294D01*
X149312866Y-77938866D01*
X149127294Y-78164986D01*
X148989401Y-78422966D01*
X148904487Y-78702889D01*
X148875815Y-78994000D01*
X148904487Y-79285111D01*
X148989401Y-79565034D01*
X149127294Y-79823014D01*
X149312866Y-80049134D01*
X149538986Y-80234706D01*
X149603523Y-80269201D01*
X149486645Y-80338822D01*
X149270412Y-80533731D01*
X149096359Y-80767080D01*
X148971175Y-81029901D01*
X148926524Y-81177110D01*
X149047845Y-81407000D01*
X150241000Y-81407000D01*
X150241000Y-81387000D01*
X150495000Y-81387000D01*
X150495000Y-81407000D01*
X150515000Y-81407000D01*
X150515000Y-81661000D01*
X150495000Y-81661000D01*
X150495000Y-82854814D01*
X150724891Y-82975481D01*
X150999252Y-82878157D01*
X151249355Y-82729178D01*
X151465588Y-82534269D01*
X151639641Y-82300920D01*
X151640000Y-82300166D01*
X151640000Y-82997198D01*
X150629199Y-84008000D01*
X150567061Y-84008000D01*
X150367102Y-84047774D01*
X150178744Y-84125795D01*
X150097500Y-84180080D01*
X150097500Y-84125825D01*
X150101176Y-84088500D01*
X150097500Y-84051175D01*
X150097500Y-84051167D01*
X150086503Y-83939514D01*
X150043046Y-83796253D01*
X149972474Y-83664224D01*
X149877501Y-83548499D01*
X149848503Y-83524701D01*
X148953803Y-82630001D01*
X148930000Y-82600998D01*
X148814275Y-82506025D01*
X148682246Y-82435453D01*
X148538985Y-82391996D01*
X148427332Y-82380999D01*
X148427321Y-82380999D01*
X148389999Y-82377323D01*
X148352677Y-82380999D01*
X141562481Y-82380999D01*
X141604825Y-82292099D01*
X141649476Y-82144890D01*
X141528155Y-81915000D01*
X140335000Y-81915000D01*
X140335000Y-81935000D01*
X140081000Y-81935000D01*
X140081000Y-81915000D01*
X140061000Y-81915000D01*
X140061000Y-81890890D01*
X148926524Y-81890890D01*
X148971175Y-82038099D01*
X149096359Y-82300920D01*
X149270412Y-82534269D01*
X149486645Y-82729178D01*
X149736748Y-82878157D01*
X150011109Y-82975481D01*
X150241000Y-82854814D01*
X150241000Y-81661000D01*
X149047845Y-81661000D01*
X148926524Y-81890890D01*
X140061000Y-81890890D01*
X140061000Y-81661000D01*
X140081000Y-81661000D01*
X140081000Y-81641000D01*
X140335000Y-81641000D01*
X140335000Y-81661000D01*
X141528155Y-81661000D01*
X141649476Y-81431110D01*
X141604825Y-81283901D01*
X141556765Y-81183001D01*
X142354679Y-81183001D01*
X142392001Y-81186677D01*
X142429323Y-81183001D01*
X142429334Y-81183001D01*
X142540987Y-81172004D01*
X142684248Y-81128547D01*
X142816277Y-81057975D01*
X142932002Y-80963002D01*
X142955805Y-80933998D01*
X146815004Y-77074800D01*
X146844001Y-77051003D01*
X146886588Y-76999111D01*
X146938974Y-76935279D01*
X147009546Y-76803249D01*
X147021314Y-76764454D01*
X147053003Y-76659988D01*
X147064000Y-76548335D01*
X147064000Y-76548326D01*
X147067676Y-76511003D01*
X147064000Y-76473680D01*
X147064000Y-70418801D01*
X147380802Y-70102000D01*
X149651459Y-70102000D01*
X149639251Y-70142247D01*
X149639251Y-70142247D01*
G37*
X149639251Y-70142247D02*
X149627193Y-70182000D01*
X149618998Y-70209015D01*
X149604324Y-70358000D01*
X149608001Y-70395332D01*
X149608000Y-71370200D01*
X148760630Y-72217571D01*
X148673724Y-72264024D01*
X148557999Y-72358997D01*
X148463026Y-72474722D01*
X148392454Y-72606751D01*
X148348997Y-72750012D01*
X148334323Y-72898998D01*
X148338001Y-72936341D01*
X148338000Y-75146677D01*
X148334324Y-75184000D01*
X148338000Y-75221322D01*
X148338000Y-75221332D01*
X148348997Y-75332985D01*
X148390312Y-75469185D01*
X148392454Y-75476246D01*
X148463026Y-75608276D01*
X148502252Y-75656072D01*
X148557999Y-75724001D01*
X148587003Y-75747804D01*
X148927203Y-76088004D01*
X148904487Y-76162889D01*
X148875815Y-76454000D01*
X148904487Y-76745111D01*
X148989401Y-77025034D01*
X149127294Y-77283014D01*
X149312866Y-77509134D01*
X149538986Y-77694706D01*
X149593791Y-77724000D01*
X149538986Y-77753294D01*
X149312866Y-77938866D01*
X149127294Y-78164986D01*
X148989401Y-78422966D01*
X148904487Y-78702889D01*
X148875815Y-78994000D01*
X148904487Y-79285111D01*
X148989401Y-79565034D01*
X149127294Y-79823014D01*
X149312866Y-80049134D01*
X149538986Y-80234706D01*
X149603523Y-80269201D01*
X149486645Y-80338822D01*
X149270412Y-80533731D01*
X149096359Y-80767080D01*
X148971175Y-81029901D01*
X148926524Y-81177110D01*
X149047845Y-81407000D01*
X150241000Y-81407000D01*
X150241000Y-81387000D01*
X150495000Y-81387000D01*
X150495000Y-81407000D01*
X150515000Y-81407000D01*
X150515000Y-81661000D01*
X150495000Y-81661000D01*
X150495000Y-82854814D01*
X150724891Y-82975481D01*
X150999252Y-82878157D01*
X151249355Y-82729178D01*
X151465588Y-82534269D01*
X151639641Y-82300920D01*
X151640000Y-82300166D01*
X151640000Y-82997198D01*
X150629199Y-84008000D01*
X150567061Y-84008000D01*
X150367102Y-84047774D01*
X150178744Y-84125795D01*
X150097500Y-84180080D01*
X150097500Y-84125825D01*
X150101176Y-84088500D01*
X150097500Y-84051175D01*
X150097500Y-84051167D01*
X150086503Y-83939514D01*
X150043046Y-83796253D01*
X149972474Y-83664224D01*
X149877501Y-83548499D01*
X149848503Y-83524701D01*
X148953803Y-82630001D01*
X148930000Y-82600998D01*
X148814275Y-82506025D01*
X148682246Y-82435453D01*
X148538985Y-82391996D01*
X148427332Y-82380999D01*
X148427321Y-82380999D01*
X148389999Y-82377323D01*
X148352677Y-82380999D01*
X141562481Y-82380999D01*
X141604825Y-82292099D01*
X141649476Y-82144890D01*
X141528155Y-81915000D01*
X140335000Y-81915000D01*
X140335000Y-81935000D01*
X140081000Y-81935000D01*
X140081000Y-81915000D01*
X140061000Y-81915000D01*
X140061000Y-81890890D01*
X148926524Y-81890890D01*
X148971175Y-82038099D01*
X149096359Y-82300920D01*
X149270412Y-82534269D01*
X149486645Y-82729178D01*
X149736748Y-82878157D01*
X150011109Y-82975481D01*
X150241000Y-82854814D01*
X150241000Y-81661000D01*
X149047845Y-81661000D01*
X148926524Y-81890890D01*
X140061000Y-81890890D01*
X140061000Y-81661000D01*
X140081000Y-81661000D01*
X140081000Y-81641000D01*
X140335000Y-81641000D01*
X140335000Y-81661000D01*
X141528155Y-81661000D01*
X141649476Y-81431110D01*
X141604825Y-81283901D01*
X141556765Y-81183001D01*
X142354679Y-81183001D01*
X142392001Y-81186677D01*
X142429323Y-81183001D01*
X142429334Y-81183001D01*
X142540987Y-81172004D01*
X142684248Y-81128547D01*
X142816277Y-81057975D01*
X142932002Y-80963002D01*
X142955805Y-80933998D01*
X146815004Y-77074800D01*
X146844001Y-77051003D01*
X146886588Y-76999111D01*
X146938974Y-76935279D01*
X147009546Y-76803249D01*
X147021314Y-76764454D01*
X147053003Y-76659988D01*
X147064000Y-76548335D01*
X147064000Y-76548326D01*
X147067676Y-76511003D01*
X147064000Y-76473680D01*
X147064000Y-70418801D01*
X147380802Y-70102000D01*
X149651459Y-70102000D01*
X149639251Y-70142247D01*
G36*
X177118000Y-70807551D02*
G01*
X177033873Y-70833071D01*
X176810638Y-70952392D01*
X176614972Y-71112972D01*
X176454392Y-71308638D01*
X176335071Y-71531873D01*
X176261593Y-71774096D01*
X176236783Y-72026000D01*
X176261593Y-72277904D01*
X176335071Y-72520127D01*
X176454392Y-72743362D01*
X176614972Y-72939028D01*
X176720947Y-73026000D01*
X176614972Y-73112972D01*
X176480478Y-73276853D01*
X176479014Y-73276997D01*
X176335753Y-73320454D01*
X176203724Y-73391026D01*
X176087999Y-73485999D01*
X176064201Y-73514997D01*
X173526755Y-76052444D01*
X173523937Y-76048226D01*
X173379774Y-75904063D01*
X173210256Y-75790795D01*
X173021898Y-75712774D01*
X172821939Y-75673000D01*
X172618061Y-75673000D01*
X172418102Y-75712774D01*
X172274030Y-75772451D01*
X171598534Y-75096956D01*
X171570817Y-75063183D01*
X171436059Y-74952589D01*
X171282313Y-74870411D01*
X171115490Y-74819805D01*
X170985477Y-74807000D01*
X170985469Y-74807000D01*
X170942000Y-74802719D01*
X170898531Y-74807000D01*
X170204579Y-74807000D01*
X169999535Y-74601957D01*
X169988226Y-74545102D01*
X169910205Y-74356744D01*
X169796937Y-74187226D01*
X169652774Y-74043063D01*
X169483256Y-73929795D01*
X169294898Y-73851774D01*
X169094939Y-73812000D01*
X168891061Y-73812000D01*
X168691102Y-73851774D01*
X168502744Y-73929795D01*
X168333226Y-74043063D01*
X168189063Y-74187226D01*
X168075795Y-74356744D01*
X167997774Y-74545102D01*
X167958000Y-74745061D01*
X167958000Y-74948939D01*
X167997774Y-75148898D01*
X168075795Y-75337256D01*
X168189063Y-75506774D01*
X168333226Y-75650937D01*
X168502744Y-75764205D01*
X168691102Y-75842226D01*
X168747957Y-75853535D01*
X169181470Y-76287049D01*
X169209183Y-76320817D01*
X169242951Y-76348530D01*
X169242953Y-76348532D01*
X169303475Y-76398201D01*
X169343941Y-76431411D01*
X169497687Y-76513589D01*
X169664510Y-76564195D01*
X169794523Y-76577000D01*
X169794533Y-76577000D01*
X169837999Y-76581281D01*
X169881465Y-76577000D01*
X170575422Y-76577000D01*
X170708422Y-76710000D01*
X157517322Y-76710000D01*
X157480000Y-76706324D01*
X157442678Y-76710000D01*
X157365673Y-76710000D01*
X157335544Y-76679871D01*
X157420929Y-76520127D01*
X157494407Y-76277904D01*
X157519217Y-76026000D01*
X157494407Y-75774096D01*
X157420929Y-75531873D01*
X157301608Y-75308638D01*
X157141028Y-75112972D01*
X157035053Y-75026000D01*
X157141028Y-74939028D01*
X157301608Y-74743362D01*
X157420929Y-74520127D01*
X157494407Y-74277904D01*
X157519217Y-74026000D01*
X157494407Y-73774096D01*
X157420929Y-73531873D01*
X157301608Y-73308638D01*
X157141028Y-73112972D01*
X157035053Y-73026000D01*
X157141028Y-72939028D01*
X157301608Y-72743362D01*
X157420929Y-72520127D01*
X157494407Y-72277904D01*
X157519217Y-72026000D01*
X157494407Y-71774096D01*
X157420929Y-71531873D01*
X157301608Y-71308638D01*
X157141028Y-71112972D01*
X156945362Y-70952392D01*
X156722127Y-70833071D01*
X156479904Y-70759593D01*
X156291123Y-70741000D01*
X155464877Y-70741000D01*
X155276096Y-70759593D01*
X155033873Y-70833071D01*
X154810638Y-70952392D01*
X154614972Y-71112972D01*
X154454392Y-71308638D01*
X154335071Y-71531873D01*
X154261593Y-71774096D01*
X154236783Y-72026000D01*
X154261593Y-72277904D01*
X154335071Y-72520127D01*
X154454392Y-72743362D01*
X154614972Y-72939028D01*
X154720947Y-73026000D01*
X154614972Y-73112972D01*
X154454392Y-73308638D01*
X154335071Y-73531873D01*
X154261593Y-73774096D01*
X154236783Y-74026000D01*
X154261593Y-74277904D01*
X154335071Y-74520127D01*
X154454392Y-74743362D01*
X154614972Y-74939028D01*
X154720947Y-75026000D01*
X154614972Y-75112972D01*
X154454392Y-75308638D01*
X154335071Y-75531873D01*
X154294481Y-75665679D01*
X152031804Y-73403003D01*
X152008001Y-73373999D01*
X151892276Y-73279026D01*
X151856072Y-73259674D01*
X151856072Y-73064000D01*
X151843812Y-72939518D01*
X151807502Y-72819820D01*
X151748537Y-72709506D01*
X151669185Y-72612815D01*
X151572494Y-72533463D01*
X151462180Y-72474498D01*
X151342482Y-72438188D01*
X151218000Y-72425928D01*
X150701876Y-72425928D01*
X150879004Y-72248800D01*
X150908001Y-72225003D01*
X151002974Y-72109278D01*
X151073546Y-71977249D01*
X151117003Y-71833988D01*
X151128000Y-71722335D01*
X151128000Y-71722334D01*
X151131677Y-71685002D01*
X151128000Y-71647669D01*
X151128000Y-70672801D01*
X151190802Y-70610000D01*
X177118000Y-70610000D01*
X177118000Y-70807551D01*
X177118000Y-70807551D01*
G37*
X177118000Y-70807551D02*
X177033873Y-70833071D01*
X176810638Y-70952392D01*
X176614972Y-71112972D01*
X176454392Y-71308638D01*
X176335071Y-71531873D01*
X176261593Y-71774096D01*
X176236783Y-72026000D01*
X176261593Y-72277904D01*
X176335071Y-72520127D01*
X176454392Y-72743362D01*
X176614972Y-72939028D01*
X176720947Y-73026000D01*
X176614972Y-73112972D01*
X176480478Y-73276853D01*
X176479014Y-73276997D01*
X176335753Y-73320454D01*
X176203724Y-73391026D01*
X176087999Y-73485999D01*
X176064201Y-73514997D01*
X173526755Y-76052444D01*
X173523937Y-76048226D01*
X173379774Y-75904063D01*
X173210256Y-75790795D01*
X173021898Y-75712774D01*
X172821939Y-75673000D01*
X172618061Y-75673000D01*
X172418102Y-75712774D01*
X172274030Y-75772451D01*
X171598534Y-75096956D01*
X171570817Y-75063183D01*
X171436059Y-74952589D01*
X171282313Y-74870411D01*
X171115490Y-74819805D01*
X170985477Y-74807000D01*
X170985469Y-74807000D01*
X170942000Y-74802719D01*
X170898531Y-74807000D01*
X170204579Y-74807000D01*
X169999535Y-74601957D01*
X169988226Y-74545102D01*
X169910205Y-74356744D01*
X169796937Y-74187226D01*
X169652774Y-74043063D01*
X169483256Y-73929795D01*
X169294898Y-73851774D01*
X169094939Y-73812000D01*
X168891061Y-73812000D01*
X168691102Y-73851774D01*
X168502744Y-73929795D01*
X168333226Y-74043063D01*
X168189063Y-74187226D01*
X168075795Y-74356744D01*
X167997774Y-74545102D01*
X167958000Y-74745061D01*
X167958000Y-74948939D01*
X167997774Y-75148898D01*
X168075795Y-75337256D01*
X168189063Y-75506774D01*
X168333226Y-75650937D01*
X168502744Y-75764205D01*
X168691102Y-75842226D01*
X168747957Y-75853535D01*
X169181470Y-76287049D01*
X169209183Y-76320817D01*
X169242951Y-76348530D01*
X169242953Y-76348532D01*
X169303475Y-76398201D01*
X169343941Y-76431411D01*
X169497687Y-76513589D01*
X169664510Y-76564195D01*
X169794523Y-76577000D01*
X169794533Y-76577000D01*
X169837999Y-76581281D01*
X169881465Y-76577000D01*
X170575422Y-76577000D01*
X170708422Y-76710000D01*
X157517322Y-76710000D01*
X157480000Y-76706324D01*
X157442678Y-76710000D01*
X157365673Y-76710000D01*
X157335544Y-76679871D01*
X157420929Y-76520127D01*
X157494407Y-76277904D01*
X157519217Y-76026000D01*
X157494407Y-75774096D01*
X157420929Y-75531873D01*
X157301608Y-75308638D01*
X157141028Y-75112972D01*
X157035053Y-75026000D01*
X157141028Y-74939028D01*
X157301608Y-74743362D01*
X157420929Y-74520127D01*
X157494407Y-74277904D01*
X157519217Y-74026000D01*
X157494407Y-73774096D01*
X157420929Y-73531873D01*
X157301608Y-73308638D01*
X157141028Y-73112972D01*
X157035053Y-73026000D01*
X157141028Y-72939028D01*
X157301608Y-72743362D01*
X157420929Y-72520127D01*
X157494407Y-72277904D01*
X157519217Y-72026000D01*
X157494407Y-71774096D01*
X157420929Y-71531873D01*
X157301608Y-71308638D01*
X157141028Y-71112972D01*
X156945362Y-70952392D01*
X156722127Y-70833071D01*
X156479904Y-70759593D01*
X156291123Y-70741000D01*
X155464877Y-70741000D01*
X155276096Y-70759593D01*
X155033873Y-70833071D01*
X154810638Y-70952392D01*
X154614972Y-71112972D01*
X154454392Y-71308638D01*
X154335071Y-71531873D01*
X154261593Y-71774096D01*
X154236783Y-72026000D01*
X154261593Y-72277904D01*
X154335071Y-72520127D01*
X154454392Y-72743362D01*
X154614972Y-72939028D01*
X154720947Y-73026000D01*
X154614972Y-73112972D01*
X154454392Y-73308638D01*
X154335071Y-73531873D01*
X154261593Y-73774096D01*
X154236783Y-74026000D01*
X154261593Y-74277904D01*
X154335071Y-74520127D01*
X154454392Y-74743362D01*
X154614972Y-74939028D01*
X154720947Y-75026000D01*
X154614972Y-75112972D01*
X154454392Y-75308638D01*
X154335071Y-75531873D01*
X154294481Y-75665679D01*
X152031804Y-73403003D01*
X152008001Y-73373999D01*
X151892276Y-73279026D01*
X151856072Y-73259674D01*
X151856072Y-73064000D01*
X151843812Y-72939518D01*
X151807502Y-72819820D01*
X151748537Y-72709506D01*
X151669185Y-72612815D01*
X151572494Y-72533463D01*
X151462180Y-72474498D01*
X151342482Y-72438188D01*
X151218000Y-72425928D01*
X150701876Y-72425928D01*
X150879004Y-72248800D01*
X150908001Y-72225003D01*
X151002974Y-72109278D01*
X151073546Y-71977249D01*
X151117003Y-71833988D01*
X151128000Y-71722335D01*
X151128000Y-71722334D01*
X151131677Y-71685002D01*
X151128000Y-71647669D01*
X151128000Y-70672801D01*
X151190802Y-70610000D01*
X177118000Y-70610000D01*
X177118000Y-70807551D01*
M02*
